G04 #@! TF.GenerationSoftware,KiCad,Pcbnew,7.0.10*
G04 #@! TF.CreationDate,2024-02-03T12:14:10-05:00*
G04 #@! TF.ProjectId,openlst-hw,6f70656e-6c73-4742-9d68-772e6b696361,rev?*
G04 #@! TF.SameCoordinates,Original*
G04 #@! TF.FileFunction,Copper,L3,Inr*
G04 #@! TF.FilePolarity,Positive*
%FSLAX46Y46*%
G04 Gerber Fmt 4.6, Leading zero omitted, Abs format (unit mm)*
G04 Created by KiCad (PCBNEW 7.0.10) date 2024-02-03 12:14:10*
%MOMM*%
%LPD*%
G01*
G04 APERTURE LIST*
G04 #@! TA.AperFunction,ComponentPad*
%ADD10C,0.609600*%
G04 #@! TD*
G04 #@! TA.AperFunction,ComponentPad*
%ADD11C,0.800000*%
G04 #@! TD*
G04 #@! TA.AperFunction,ComponentPad*
%ADD12C,6.400000*%
G04 #@! TD*
G04 #@! TA.AperFunction,ComponentPad*
%ADD13C,1.348000*%
G04 #@! TD*
G04 #@! TA.AperFunction,ComponentPad*
%ADD14C,0.558800*%
G04 #@! TD*
G04 #@! TA.AperFunction,ViaPad*
%ADD15C,0.457200*%
G04 #@! TD*
G04 #@! TA.AperFunction,Conductor*
%ADD16C,0.300000*%
G04 #@! TD*
G04 APERTURE END LIST*
D10*
X151274874Y-98750000D03*
X151274874Y-100250000D03*
X151274874Y-101750000D03*
X152774874Y-98750000D03*
X152774874Y-100250000D03*
X152774874Y-101750000D03*
X154274874Y-98750000D03*
X154274874Y-100250000D03*
X154274874Y-101750000D03*
D11*
X181100000Y-111750000D03*
X181802944Y-110052944D03*
X181802944Y-113447056D03*
X183500000Y-109350000D03*
D12*
X183500000Y-111750000D03*
D11*
X183500000Y-114150000D03*
X185197056Y-110052944D03*
X185197056Y-113447056D03*
X185900000Y-111750000D03*
X181100000Y-90500000D03*
X181802944Y-88802944D03*
X181802944Y-92197056D03*
X183500000Y-88100000D03*
D12*
X183500000Y-90500000D03*
D11*
X183500000Y-92900000D03*
X185197056Y-88802944D03*
X185197056Y-92197056D03*
X185900000Y-90500000D03*
X138600000Y-111750000D03*
X139302944Y-110052944D03*
X139302944Y-113447056D03*
X141000000Y-109350000D03*
D12*
X141000000Y-111750000D03*
D11*
X141000000Y-114150000D03*
X142697056Y-110052944D03*
X142697056Y-113447056D03*
X143400000Y-111750000D03*
D13*
X184254874Y-97520000D03*
X182984874Y-96250000D03*
X182984874Y-98790000D03*
X185524874Y-96250000D03*
X185524874Y-98790000D03*
D11*
X138600000Y-90500000D03*
X139302944Y-88802944D03*
X139302944Y-92197056D03*
X141000000Y-88100000D03*
D12*
X141000000Y-90500000D03*
D11*
X141000000Y-92900000D03*
X142697056Y-88802944D03*
X142697056Y-92197056D03*
X143400000Y-90500000D03*
D14*
X175275000Y-101000000D03*
X175275000Y-99500000D03*
X175275000Y-98000000D03*
X173775000Y-101000000D03*
X173775000Y-99500000D03*
X173775000Y-98000000D03*
X172275000Y-101000000D03*
X172275000Y-99500000D03*
X172275000Y-98000000D03*
D15*
X172250000Y-100250000D03*
X173750000Y-98750000D03*
X172024874Y-94250000D03*
X179024874Y-103500000D03*
X146274874Y-111000000D03*
X176274874Y-103250000D03*
X146274874Y-110250000D03*
X156524874Y-93250000D03*
X177500000Y-96750000D03*
X156774874Y-110750000D03*
X174500000Y-98000000D03*
X160274874Y-99000000D03*
X166524874Y-91250000D03*
X173025000Y-99500000D03*
X171524874Y-96000000D03*
X174500000Y-100250000D03*
X166474874Y-113750000D03*
X173000000Y-98000000D03*
X175024874Y-103250000D03*
X171524874Y-91250000D03*
X178274874Y-98250000D03*
X165774874Y-102000000D03*
X178500000Y-96750000D03*
X149274874Y-111750000D03*
X175524874Y-94250000D03*
X172250000Y-98750000D03*
X174500000Y-99500000D03*
X170274874Y-97000000D03*
X161274874Y-103250000D03*
X154024874Y-92250000D03*
X174474874Y-107250000D03*
X160274874Y-105500000D03*
X168524874Y-94500000D03*
X164274874Y-95750000D03*
X176024874Y-91250000D03*
X148274874Y-110750000D03*
X170524874Y-94750000D03*
X175250000Y-98750000D03*
X174524874Y-94250000D03*
X173000000Y-98750000D03*
X167024874Y-98250000D03*
X175250000Y-100250000D03*
X151774874Y-110500000D03*
X170024874Y-100000000D03*
X150024874Y-107250000D03*
X165024874Y-100000000D03*
X174500000Y-101000000D03*
X158274874Y-97250000D03*
X168524874Y-100000000D03*
X170024874Y-93750000D03*
X172774874Y-94250000D03*
X161774874Y-109250000D03*
X138750000Y-96000000D03*
X173774874Y-90750000D03*
X176024874Y-92750000D03*
X174524874Y-95250000D03*
X168774874Y-98250000D03*
X176024874Y-93500000D03*
X177524874Y-93750000D03*
X146274874Y-92375000D03*
X154774874Y-106250000D03*
X177274874Y-91750000D03*
X173750000Y-100250000D03*
X167274874Y-102000000D03*
X174474874Y-113750000D03*
X160024874Y-98000000D03*
X166974874Y-107250000D03*
X159024874Y-92250000D03*
X170024874Y-92750000D03*
X170274874Y-91750000D03*
X170024874Y-102000000D03*
X177524874Y-92750000D03*
X158524874Y-99750000D03*
X171500000Y-103000000D03*
X173024874Y-95250000D03*
X174500000Y-98750000D03*
X176274874Y-96000000D03*
X138750000Y-95000000D03*
X153524874Y-110500000D03*
X163524874Y-100250000D03*
X147274874Y-111750000D03*
X177024874Y-94750000D03*
X167750000Y-107250000D03*
X138750000Y-97000000D03*
X171524874Y-92750000D03*
X173774874Y-96000000D03*
X154774874Y-93250000D03*
X173000000Y-100250000D03*
X179774874Y-98250000D03*
X146274874Y-111750000D03*
X173000000Y-101000000D03*
X158274874Y-93250000D03*
X179774874Y-96750000D03*
X168774874Y-102000000D03*
X171524874Y-93500000D03*
X156493574Y-103250000D03*
X156774874Y-100806300D03*
X148299874Y-109225000D03*
X153774874Y-95500000D03*
X159274874Y-95500000D03*
X149024188Y-98531300D03*
X181524874Y-106750000D03*
X164024874Y-105500000D03*
X143000000Y-100000000D03*
X144000000Y-107250000D03*
X166274874Y-95750000D03*
X180524874Y-103500000D03*
X173224874Y-113750000D03*
X154524874Y-112250000D03*
X161774874Y-91250000D03*
X173500000Y-107250000D03*
X171500000Y-107250000D03*
X173500000Y-109625000D03*
X167750000Y-106000000D03*
X146250000Y-99500000D03*
X166750000Y-106000000D03*
X172500000Y-107250000D03*
X153274874Y-96500000D03*
X157479974Y-105000000D03*
X169196156Y-110954673D03*
X153274874Y-103750000D03*
X154274874Y-104000000D03*
X152774874Y-96000000D03*
X160774874Y-96250000D03*
X152274874Y-96500000D03*
X177024874Y-101500000D03*
X161524874Y-94750000D03*
X149024874Y-99750000D03*
X178024874Y-106750000D03*
X178024874Y-104750000D03*
X148524874Y-99250000D03*
X172500000Y-105750000D03*
X167750000Y-104250000D03*
X166774874Y-97000000D03*
X169500000Y-103000000D03*
X171500000Y-105705100D03*
X173750000Y-105750000D03*
X164474874Y-108675000D03*
X151274874Y-103750000D03*
X159774874Y-96500000D03*
X155524874Y-97250000D03*
X143974874Y-102350000D03*
X143974874Y-104350000D03*
X168474874Y-110455100D03*
X144224874Y-100850000D03*
D16*
X166274874Y-95750000D02*
X166274874Y-94500000D01*
G04 #@! TA.AperFunction,Conductor*
G36*
X161217913Y-91019685D02*
G01*
X161263668Y-91072489D01*
X161274874Y-91124000D01*
X161274874Y-94412508D01*
X161255189Y-94479547D01*
X161238555Y-94500189D01*
X161214356Y-94524387D01*
X161214353Y-94524391D01*
X161159832Y-94631395D01*
X161141048Y-94749997D01*
X161141048Y-94750002D01*
X161159832Y-94868604D01*
X161159833Y-94868607D01*
X161159834Y-94868609D01*
X161214352Y-94975607D01*
X161238555Y-94999810D01*
X161272040Y-95061131D01*
X161274874Y-95087491D01*
X161274874Y-95914508D01*
X161255189Y-95981547D01*
X161202385Y-96027302D01*
X161133227Y-96037246D01*
X161069671Y-96008221D01*
X161063193Y-96002189D01*
X161000486Y-95939482D01*
X161000482Y-95939479D01*
X161000481Y-95939478D01*
X160893483Y-95884960D01*
X160893481Y-95884959D01*
X160893478Y-95884958D01*
X160774876Y-95866174D01*
X160774872Y-95866174D01*
X160656269Y-95884958D01*
X160549265Y-95939479D01*
X160549261Y-95939482D01*
X160464356Y-96024387D01*
X160464353Y-96024391D01*
X160409832Y-96131395D01*
X160391048Y-96249997D01*
X160391048Y-96250002D01*
X160409832Y-96368604D01*
X160409833Y-96368607D01*
X160409834Y-96368609D01*
X160461144Y-96469310D01*
X160464353Y-96475608D01*
X160464356Y-96475612D01*
X160549261Y-96560517D01*
X160549265Y-96560520D01*
X160549267Y-96560522D01*
X160656265Y-96615040D01*
X160656267Y-96615040D01*
X160656269Y-96615041D01*
X160774872Y-96633826D01*
X160774874Y-96633826D01*
X160774876Y-96633826D01*
X160893478Y-96615041D01*
X160893478Y-96615040D01*
X160893483Y-96615040D01*
X161000481Y-96560522D01*
X161021231Y-96539772D01*
X161063193Y-96497811D01*
X161124516Y-96464326D01*
X161194208Y-96469310D01*
X161250141Y-96511182D01*
X161274558Y-96576646D01*
X161274874Y-96585492D01*
X161274874Y-102760267D01*
X161255189Y-102827306D01*
X161202385Y-102873061D01*
X161170276Y-102882740D01*
X161156268Y-102884959D01*
X161156266Y-102884959D01*
X161156265Y-102884960D01*
X161052986Y-102937582D01*
X161049265Y-102939479D01*
X161049261Y-102939482D01*
X160964356Y-103024387D01*
X160964353Y-103024391D01*
X160909832Y-103131395D01*
X160891048Y-103249997D01*
X160891048Y-103250002D01*
X160909832Y-103368604D01*
X160909833Y-103368607D01*
X160909834Y-103368609D01*
X160964352Y-103475607D01*
X160964353Y-103475608D01*
X160964356Y-103475612D01*
X161049261Y-103560517D01*
X161049265Y-103560520D01*
X161049267Y-103560522D01*
X161156265Y-103615040D01*
X161156267Y-103615040D01*
X161156269Y-103615041D01*
X161170271Y-103617259D01*
X161233406Y-103647188D01*
X161270338Y-103706499D01*
X161274874Y-103739732D01*
X161274874Y-109876000D01*
X161255189Y-109943039D01*
X161202385Y-109988794D01*
X161150874Y-110000000D01*
X146612366Y-110000000D01*
X146545327Y-109980315D01*
X146524685Y-109963681D01*
X146500486Y-109939482D01*
X146500482Y-109939479D01*
X146500481Y-109939478D01*
X146393483Y-109884960D01*
X146393481Y-109884959D01*
X146393478Y-109884958D01*
X146274876Y-109866174D01*
X146274872Y-109866174D01*
X146156269Y-109884958D01*
X146049265Y-109939479D01*
X146049261Y-109939482D01*
X146025063Y-109963681D01*
X145963740Y-109997166D01*
X145937382Y-110000000D01*
X145398874Y-110000000D01*
X145331835Y-109980315D01*
X145286080Y-109927511D01*
X145274874Y-109876000D01*
X145274874Y-107250002D01*
X149641048Y-107250002D01*
X149659832Y-107368604D01*
X149659833Y-107368607D01*
X149659834Y-107368609D01*
X149714352Y-107475607D01*
X149714353Y-107475608D01*
X149714356Y-107475612D01*
X149799261Y-107560517D01*
X149799265Y-107560520D01*
X149799267Y-107560522D01*
X149906265Y-107615040D01*
X149906267Y-107615040D01*
X149906269Y-107615041D01*
X150024872Y-107633826D01*
X150024874Y-107633826D01*
X150024876Y-107633826D01*
X150143478Y-107615041D01*
X150143478Y-107615040D01*
X150143483Y-107615040D01*
X150250481Y-107560522D01*
X150335396Y-107475607D01*
X150389914Y-107368609D01*
X150408700Y-107250000D01*
X150389914Y-107131391D01*
X150335396Y-107024393D01*
X150335394Y-107024391D01*
X150335391Y-107024387D01*
X150250486Y-106939482D01*
X150250482Y-106939479D01*
X150250481Y-106939478D01*
X150143483Y-106884960D01*
X150143481Y-106884959D01*
X150143478Y-106884958D01*
X150024876Y-106866174D01*
X150024872Y-106866174D01*
X149906269Y-106884958D01*
X149799265Y-106939479D01*
X149799261Y-106939482D01*
X149714356Y-107024387D01*
X149714353Y-107024391D01*
X149659832Y-107131395D01*
X149641048Y-107249997D01*
X149641048Y-107250002D01*
X145274874Y-107250002D01*
X145274874Y-106250002D01*
X154391048Y-106250002D01*
X154409832Y-106368604D01*
X154409833Y-106368607D01*
X154409834Y-106368609D01*
X154464352Y-106475607D01*
X154464353Y-106475608D01*
X154464356Y-106475612D01*
X154549261Y-106560517D01*
X154549265Y-106560520D01*
X154549267Y-106560522D01*
X154656265Y-106615040D01*
X154656267Y-106615040D01*
X154656269Y-106615041D01*
X154774872Y-106633826D01*
X154774874Y-106633826D01*
X154774876Y-106633826D01*
X154893478Y-106615041D01*
X154893478Y-106615040D01*
X154893483Y-106615040D01*
X155000481Y-106560522D01*
X155085396Y-106475607D01*
X155139914Y-106368609D01*
X155158700Y-106250000D01*
X155139914Y-106131391D01*
X155085396Y-106024393D01*
X155085394Y-106024391D01*
X155085391Y-106024387D01*
X155000486Y-105939482D01*
X155000482Y-105939479D01*
X155000481Y-105939478D01*
X154893483Y-105884960D01*
X154893481Y-105884959D01*
X154893478Y-105884958D01*
X154774876Y-105866174D01*
X154774872Y-105866174D01*
X154656269Y-105884958D01*
X154549265Y-105939479D01*
X154549261Y-105939482D01*
X154464356Y-106024387D01*
X154464353Y-106024391D01*
X154409832Y-106131395D01*
X154391048Y-106249997D01*
X154391048Y-106250002D01*
X145274874Y-106250002D01*
X145274874Y-105500002D01*
X159891048Y-105500002D01*
X159909832Y-105618604D01*
X159909833Y-105618607D01*
X159909834Y-105618609D01*
X159964352Y-105725607D01*
X159964353Y-105725608D01*
X159964356Y-105725612D01*
X160049261Y-105810517D01*
X160049265Y-105810520D01*
X160049267Y-105810522D01*
X160156265Y-105865040D01*
X160156267Y-105865040D01*
X160156269Y-105865041D01*
X160274872Y-105883826D01*
X160274874Y-105883826D01*
X160274876Y-105883826D01*
X160393478Y-105865041D01*
X160393478Y-105865040D01*
X160393483Y-105865040D01*
X160500481Y-105810522D01*
X160585396Y-105725607D01*
X160639914Y-105618609D01*
X160658700Y-105500000D01*
X160639914Y-105381391D01*
X160585396Y-105274393D01*
X160585394Y-105274391D01*
X160585391Y-105274387D01*
X160500486Y-105189482D01*
X160500482Y-105189479D01*
X160500481Y-105189478D01*
X160393483Y-105134960D01*
X160393481Y-105134959D01*
X160393478Y-105134958D01*
X160274876Y-105116174D01*
X160274872Y-105116174D01*
X160156269Y-105134958D01*
X160049265Y-105189479D01*
X160049261Y-105189482D01*
X159964356Y-105274387D01*
X159964353Y-105274391D01*
X159909832Y-105381395D01*
X159891048Y-105499997D01*
X159891048Y-105500002D01*
X145274874Y-105500002D01*
X145274874Y-105000002D01*
X157096148Y-105000002D01*
X157114932Y-105118604D01*
X157114933Y-105118607D01*
X157114934Y-105118609D01*
X157169452Y-105225607D01*
X157169453Y-105225608D01*
X157169456Y-105225612D01*
X157254361Y-105310517D01*
X157254365Y-105310520D01*
X157254367Y-105310522D01*
X157361365Y-105365040D01*
X157361367Y-105365040D01*
X157361369Y-105365041D01*
X157479972Y-105383826D01*
X157479974Y-105383826D01*
X157479976Y-105383826D01*
X157598578Y-105365041D01*
X157598578Y-105365040D01*
X157598583Y-105365040D01*
X157705581Y-105310522D01*
X157790496Y-105225607D01*
X157845014Y-105118609D01*
X157863800Y-105000000D01*
X157845014Y-104881391D01*
X157790496Y-104774393D01*
X157790494Y-104774391D01*
X157790491Y-104774387D01*
X157705586Y-104689482D01*
X157705582Y-104689479D01*
X157705581Y-104689478D01*
X157598583Y-104634960D01*
X157598581Y-104634959D01*
X157598578Y-104634958D01*
X157479976Y-104616174D01*
X157479972Y-104616174D01*
X157361369Y-104634958D01*
X157254365Y-104689479D01*
X157254361Y-104689482D01*
X157169456Y-104774387D01*
X157169453Y-104774391D01*
X157114932Y-104881395D01*
X157096148Y-104999997D01*
X157096148Y-105000002D01*
X145274874Y-105000002D01*
X145274874Y-103750002D01*
X150891048Y-103750002D01*
X150909832Y-103868604D01*
X150909833Y-103868607D01*
X150909834Y-103868609D01*
X150916347Y-103881391D01*
X150964353Y-103975608D01*
X150964356Y-103975612D01*
X151049261Y-104060517D01*
X151049265Y-104060520D01*
X151049267Y-104060522D01*
X151156265Y-104115040D01*
X151156267Y-104115040D01*
X151156269Y-104115041D01*
X151274872Y-104133826D01*
X151274874Y-104133826D01*
X151274876Y-104133826D01*
X151393478Y-104115041D01*
X151393478Y-104115040D01*
X151393483Y-104115040D01*
X151500481Y-104060522D01*
X151585396Y-103975607D01*
X151639914Y-103868609D01*
X151639915Y-103868604D01*
X151658700Y-103750002D01*
X152891048Y-103750002D01*
X152909832Y-103868604D01*
X152909833Y-103868607D01*
X152909834Y-103868609D01*
X152916347Y-103881391D01*
X152964353Y-103975608D01*
X152964356Y-103975612D01*
X153049261Y-104060517D01*
X153049265Y-104060520D01*
X153049267Y-104060522D01*
X153156265Y-104115040D01*
X153156267Y-104115040D01*
X153156269Y-104115041D01*
X153274872Y-104133826D01*
X153274874Y-104133826D01*
X153274876Y-104133826D01*
X153393478Y-104115041D01*
X153393478Y-104115040D01*
X153393483Y-104115040D01*
X153500481Y-104060522D01*
X153561001Y-104000002D01*
X153891048Y-104000002D01*
X153909832Y-104118604D01*
X153909833Y-104118607D01*
X153909834Y-104118609D01*
X153964352Y-104225607D01*
X153964353Y-104225608D01*
X153964356Y-104225612D01*
X154049261Y-104310517D01*
X154049265Y-104310520D01*
X154049267Y-104310522D01*
X154156265Y-104365040D01*
X154156267Y-104365040D01*
X154156269Y-104365041D01*
X154274872Y-104383826D01*
X154274874Y-104383826D01*
X154274876Y-104383826D01*
X154393478Y-104365041D01*
X154393478Y-104365040D01*
X154393483Y-104365040D01*
X154500481Y-104310522D01*
X154585396Y-104225607D01*
X154639914Y-104118609D01*
X154649114Y-104060522D01*
X154658700Y-104000002D01*
X154658700Y-103999997D01*
X154639915Y-103881395D01*
X154639914Y-103881393D01*
X154639914Y-103881391D01*
X154585396Y-103774393D01*
X154585394Y-103774391D01*
X154585391Y-103774387D01*
X154500486Y-103689482D01*
X154500482Y-103689479D01*
X154500481Y-103689478D01*
X154393483Y-103634960D01*
X154393481Y-103634959D01*
X154393478Y-103634958D01*
X154274876Y-103616174D01*
X154274872Y-103616174D01*
X154156269Y-103634958D01*
X154049265Y-103689479D01*
X154049261Y-103689482D01*
X153964356Y-103774387D01*
X153964353Y-103774391D01*
X153909832Y-103881395D01*
X153891048Y-103999997D01*
X153891048Y-104000002D01*
X153561001Y-104000002D01*
X153585396Y-103975607D01*
X153639914Y-103868609D01*
X153639915Y-103868604D01*
X153658700Y-103750002D01*
X153658700Y-103749997D01*
X153639915Y-103631395D01*
X153639914Y-103631393D01*
X153639914Y-103631391D01*
X153585396Y-103524393D01*
X153585394Y-103524391D01*
X153585391Y-103524387D01*
X153500486Y-103439482D01*
X153500482Y-103439479D01*
X153500481Y-103439478D01*
X153393483Y-103384960D01*
X153393481Y-103384959D01*
X153393478Y-103384958D01*
X153274876Y-103366174D01*
X153274872Y-103366174D01*
X153156269Y-103384958D01*
X153049265Y-103439479D01*
X153049261Y-103439482D01*
X152964356Y-103524387D01*
X152964353Y-103524391D01*
X152909832Y-103631395D01*
X152891048Y-103749997D01*
X152891048Y-103750002D01*
X151658700Y-103750002D01*
X151658700Y-103749997D01*
X151639915Y-103631395D01*
X151639914Y-103631393D01*
X151639914Y-103631391D01*
X151585396Y-103524393D01*
X151585394Y-103524391D01*
X151585391Y-103524387D01*
X151500486Y-103439482D01*
X151500482Y-103439479D01*
X151500481Y-103439478D01*
X151393483Y-103384960D01*
X151393481Y-103384959D01*
X151393478Y-103384958D01*
X151274876Y-103366174D01*
X151274872Y-103366174D01*
X151156269Y-103384958D01*
X151049265Y-103439479D01*
X151049261Y-103439482D01*
X150964356Y-103524387D01*
X150964353Y-103524391D01*
X150909832Y-103631395D01*
X150891048Y-103749997D01*
X150891048Y-103750002D01*
X145274874Y-103750002D01*
X145274874Y-101750000D01*
X150814892Y-101750000D01*
X150833525Y-101879592D01*
X150887913Y-101998685D01*
X150973650Y-102097631D01*
X151083791Y-102168414D01*
X151187794Y-102198952D01*
X151209411Y-102205300D01*
X151209412Y-102205300D01*
X151340337Y-102205300D01*
X151358780Y-102199884D01*
X151465957Y-102168414D01*
X151576098Y-102097631D01*
X151661835Y-101998685D01*
X151716223Y-101879592D01*
X151734856Y-101750000D01*
X152314892Y-101750000D01*
X152333525Y-101879592D01*
X152387913Y-101998685D01*
X152473650Y-102097631D01*
X152583791Y-102168414D01*
X152687794Y-102198952D01*
X152709411Y-102205300D01*
X152709412Y-102205300D01*
X152840337Y-102205300D01*
X152858780Y-102199884D01*
X152965957Y-102168414D01*
X153076098Y-102097631D01*
X153161835Y-101998685D01*
X153216223Y-101879592D01*
X153234856Y-101750000D01*
X153814892Y-101750000D01*
X153833525Y-101879592D01*
X153887913Y-101998685D01*
X153973650Y-102097631D01*
X154083791Y-102168414D01*
X154187794Y-102198952D01*
X154209411Y-102205300D01*
X154209412Y-102205300D01*
X154340337Y-102205300D01*
X154358780Y-102199884D01*
X154465957Y-102168414D01*
X154576098Y-102097631D01*
X154661835Y-101998685D01*
X154716223Y-101879592D01*
X154734856Y-101750000D01*
X154716223Y-101620408D01*
X154661835Y-101501315D01*
X154576098Y-101402369D01*
X154465957Y-101331586D01*
X154377223Y-101305531D01*
X154340337Y-101294700D01*
X154340336Y-101294700D01*
X154209412Y-101294700D01*
X154209411Y-101294700D01*
X154157191Y-101310033D01*
X154083791Y-101331586D01*
X154083789Y-101331586D01*
X154083789Y-101331587D01*
X153973651Y-101402368D01*
X153887913Y-101501314D01*
X153887913Y-101501315D01*
X153833525Y-101620408D01*
X153814892Y-101750000D01*
X153234856Y-101750000D01*
X153216223Y-101620408D01*
X153161835Y-101501315D01*
X153076098Y-101402369D01*
X152965957Y-101331586D01*
X152877223Y-101305531D01*
X152840337Y-101294700D01*
X152840336Y-101294700D01*
X152709412Y-101294700D01*
X152709411Y-101294700D01*
X152657191Y-101310033D01*
X152583791Y-101331586D01*
X152583789Y-101331586D01*
X152583789Y-101331587D01*
X152473651Y-101402368D01*
X152387913Y-101501314D01*
X152387913Y-101501315D01*
X152333525Y-101620408D01*
X152314892Y-101750000D01*
X151734856Y-101750000D01*
X151716223Y-101620408D01*
X151661835Y-101501315D01*
X151576098Y-101402369D01*
X151465957Y-101331586D01*
X151377223Y-101305531D01*
X151340337Y-101294700D01*
X151340336Y-101294700D01*
X151209412Y-101294700D01*
X151209411Y-101294700D01*
X151157191Y-101310033D01*
X151083791Y-101331586D01*
X151083789Y-101331586D01*
X151083789Y-101331587D01*
X150973651Y-101402368D01*
X150887913Y-101501314D01*
X150887913Y-101501315D01*
X150833525Y-101620408D01*
X150814892Y-101750000D01*
X145274874Y-101750000D01*
X145274874Y-100250000D01*
X150814892Y-100250000D01*
X150833525Y-100379592D01*
X150887913Y-100498685D01*
X150973650Y-100597631D01*
X151083791Y-100668414D01*
X151187794Y-100698952D01*
X151209411Y-100705300D01*
X151209412Y-100705300D01*
X151340337Y-100705300D01*
X151358780Y-100699884D01*
X151465957Y-100668414D01*
X151576098Y-100597631D01*
X151661835Y-100498685D01*
X151716223Y-100379592D01*
X151734856Y-100250000D01*
X152314892Y-100250000D01*
X152333525Y-100379592D01*
X152387913Y-100498685D01*
X152473650Y-100597631D01*
X152583791Y-100668414D01*
X152687794Y-100698952D01*
X152709411Y-100705300D01*
X152709412Y-100705300D01*
X152840337Y-100705300D01*
X152858780Y-100699884D01*
X152965957Y-100668414D01*
X153076098Y-100597631D01*
X153161835Y-100498685D01*
X153216223Y-100379592D01*
X153234856Y-100250000D01*
X153814892Y-100250000D01*
X153833525Y-100379592D01*
X153887913Y-100498685D01*
X153973650Y-100597631D01*
X154083791Y-100668414D01*
X154187794Y-100698952D01*
X154209411Y-100705300D01*
X154209412Y-100705300D01*
X154340337Y-100705300D01*
X154358780Y-100699884D01*
X154465957Y-100668414D01*
X154576098Y-100597631D01*
X154661835Y-100498685D01*
X154716223Y-100379592D01*
X154734856Y-100250000D01*
X154716223Y-100120408D01*
X154661835Y-100001315D01*
X154576098Y-99902369D01*
X154465957Y-99831586D01*
X154377223Y-99805531D01*
X154340337Y-99794700D01*
X154340336Y-99794700D01*
X154209412Y-99794700D01*
X154209411Y-99794700D01*
X154157191Y-99810033D01*
X154083791Y-99831586D01*
X154083789Y-99831586D01*
X154083789Y-99831587D01*
X153973651Y-99902368D01*
X153887913Y-100001314D01*
X153887913Y-100001315D01*
X153833525Y-100120408D01*
X153833524Y-100120410D01*
X153833524Y-100120412D01*
X153814892Y-100250000D01*
X153234856Y-100250000D01*
X153216223Y-100120408D01*
X153161835Y-100001315D01*
X153076098Y-99902369D01*
X152965957Y-99831586D01*
X152877223Y-99805531D01*
X152840337Y-99794700D01*
X152840336Y-99794700D01*
X152709412Y-99794700D01*
X152709411Y-99794700D01*
X152657191Y-99810033D01*
X152583791Y-99831586D01*
X152583789Y-99831586D01*
X152583789Y-99831587D01*
X152473651Y-99902368D01*
X152387913Y-100001314D01*
X152387913Y-100001315D01*
X152333525Y-100120408D01*
X152333524Y-100120410D01*
X152333524Y-100120412D01*
X152314892Y-100250000D01*
X151734856Y-100250000D01*
X151716223Y-100120408D01*
X151661835Y-100001315D01*
X151576098Y-99902369D01*
X151465957Y-99831586D01*
X151377223Y-99805531D01*
X151340337Y-99794700D01*
X151340336Y-99794700D01*
X151209412Y-99794700D01*
X151209411Y-99794700D01*
X151157191Y-99810033D01*
X151083791Y-99831586D01*
X151083789Y-99831586D01*
X151083789Y-99831587D01*
X150973651Y-99902368D01*
X150887913Y-100001314D01*
X150887913Y-100001315D01*
X150833525Y-100120408D01*
X150833524Y-100120410D01*
X150833524Y-100120412D01*
X150814892Y-100250000D01*
X145274874Y-100250000D01*
X145274874Y-99500002D01*
X145866174Y-99500002D01*
X145884958Y-99618604D01*
X145884959Y-99618607D01*
X145884960Y-99618609D01*
X145939478Y-99725607D01*
X145939479Y-99725608D01*
X145939482Y-99725612D01*
X146024387Y-99810517D01*
X146024391Y-99810520D01*
X146024393Y-99810522D01*
X146131391Y-99865040D01*
X146131393Y-99865040D01*
X146131395Y-99865041D01*
X146249998Y-99883826D01*
X146250000Y-99883826D01*
X146250002Y-99883826D01*
X146368604Y-99865041D01*
X146368604Y-99865040D01*
X146368609Y-99865040D01*
X146475607Y-99810522D01*
X146560522Y-99725607D01*
X146615040Y-99618609D01*
X146624240Y-99560522D01*
X146633826Y-99500002D01*
X146633826Y-99499997D01*
X146615041Y-99381395D01*
X146615040Y-99381393D01*
X146615040Y-99381391D01*
X146560522Y-99274393D01*
X146560520Y-99274391D01*
X146560517Y-99274387D01*
X146536132Y-99250002D01*
X148141048Y-99250002D01*
X148159832Y-99368604D01*
X148159833Y-99368607D01*
X148159834Y-99368609D01*
X148214352Y-99475607D01*
X148214353Y-99475608D01*
X148214356Y-99475612D01*
X148299261Y-99560517D01*
X148299265Y-99560520D01*
X148299267Y-99560522D01*
X148406265Y-99615040D01*
X148406267Y-99615040D01*
X148406269Y-99615041D01*
X148534513Y-99635353D01*
X148533967Y-99638794D01*
X148584087Y-99653511D01*
X148629842Y-99706315D01*
X148637324Y-99740708D01*
X148639521Y-99740361D01*
X148659832Y-99868604D01*
X148659833Y-99868607D01*
X148659834Y-99868609D01*
X148677036Y-99902369D01*
X148714353Y-99975608D01*
X148714356Y-99975612D01*
X148799261Y-100060517D01*
X148799265Y-100060520D01*
X148799267Y-100060522D01*
X148906265Y-100115040D01*
X148906267Y-100115040D01*
X148906269Y-100115041D01*
X149024872Y-100133826D01*
X149024874Y-100133826D01*
X149024876Y-100133826D01*
X149143478Y-100115041D01*
X149143478Y-100115040D01*
X149143483Y-100115040D01*
X149250481Y-100060522D01*
X149335396Y-99975607D01*
X149389914Y-99868609D01*
X149399114Y-99810522D01*
X149408700Y-99750002D01*
X158141048Y-99750002D01*
X158159832Y-99868604D01*
X158159833Y-99868607D01*
X158159834Y-99868609D01*
X158177036Y-99902369D01*
X158214353Y-99975608D01*
X158214356Y-99975612D01*
X158299261Y-100060517D01*
X158299265Y-100060520D01*
X158299267Y-100060522D01*
X158406265Y-100115040D01*
X158406267Y-100115040D01*
X158406269Y-100115041D01*
X158524872Y-100133826D01*
X158524874Y-100133826D01*
X158524876Y-100133826D01*
X158643478Y-100115041D01*
X158643478Y-100115040D01*
X158643483Y-100115040D01*
X158750481Y-100060522D01*
X158835396Y-99975607D01*
X158889914Y-99868609D01*
X158899114Y-99810522D01*
X158908700Y-99750002D01*
X158908700Y-99749997D01*
X158889915Y-99631395D01*
X158889914Y-99631393D01*
X158889914Y-99631391D01*
X158835396Y-99524393D01*
X158835394Y-99524391D01*
X158835391Y-99524387D01*
X158750486Y-99439482D01*
X158750482Y-99439479D01*
X158750481Y-99439478D01*
X158643483Y-99384960D01*
X158643481Y-99384959D01*
X158643478Y-99384958D01*
X158524876Y-99366174D01*
X158524872Y-99366174D01*
X158406269Y-99384958D01*
X158299265Y-99439479D01*
X158299261Y-99439482D01*
X158214356Y-99524387D01*
X158214353Y-99524391D01*
X158159832Y-99631395D01*
X158141048Y-99749997D01*
X158141048Y-99750002D01*
X149408700Y-99750002D01*
X149408700Y-99749997D01*
X149389915Y-99631395D01*
X149389914Y-99631393D01*
X149389914Y-99631391D01*
X149335396Y-99524393D01*
X149335394Y-99524391D01*
X149335391Y-99524387D01*
X149250486Y-99439482D01*
X149250482Y-99439479D01*
X149250481Y-99439478D01*
X149143483Y-99384960D01*
X149143481Y-99384959D01*
X149143478Y-99384958D01*
X149015235Y-99364647D01*
X149015780Y-99361205D01*
X148965661Y-99346489D01*
X148919906Y-99293685D01*
X148912423Y-99259291D01*
X148910227Y-99259639D01*
X148889915Y-99131395D01*
X148889914Y-99131393D01*
X148889914Y-99131391D01*
X148835396Y-99024393D01*
X148835394Y-99024391D01*
X148835391Y-99024387D01*
X148750486Y-98939482D01*
X148750482Y-98939479D01*
X148750481Y-98939478D01*
X148643483Y-98884960D01*
X148643481Y-98884959D01*
X148643478Y-98884958D01*
X148524876Y-98866174D01*
X148524872Y-98866174D01*
X148406269Y-98884958D01*
X148299265Y-98939479D01*
X148299261Y-98939482D01*
X148214356Y-99024387D01*
X148214353Y-99024391D01*
X148159832Y-99131395D01*
X148141048Y-99249997D01*
X148141048Y-99250002D01*
X146536132Y-99250002D01*
X146475612Y-99189482D01*
X146475608Y-99189479D01*
X146475607Y-99189478D01*
X146368609Y-99134960D01*
X146368607Y-99134959D01*
X146368604Y-99134958D01*
X146250002Y-99116174D01*
X146249998Y-99116174D01*
X146131395Y-99134958D01*
X146024391Y-99189479D01*
X146024387Y-99189482D01*
X145939482Y-99274387D01*
X145939479Y-99274391D01*
X145884958Y-99381395D01*
X145866174Y-99499997D01*
X145866174Y-99500002D01*
X145274874Y-99500002D01*
X145274874Y-98750000D01*
X150814892Y-98750000D01*
X150831595Y-98866174D01*
X150833525Y-98879592D01*
X150887913Y-98998685D01*
X150973650Y-99097631D01*
X151083791Y-99168414D01*
X151187794Y-99198952D01*
X151209411Y-99205300D01*
X151209412Y-99205300D01*
X151340337Y-99205300D01*
X151358780Y-99199884D01*
X151465957Y-99168414D01*
X151576098Y-99097631D01*
X151661835Y-98998685D01*
X151716223Y-98879592D01*
X151734856Y-98750000D01*
X152314892Y-98750000D01*
X152331595Y-98866174D01*
X152333525Y-98879592D01*
X152387913Y-98998685D01*
X152473650Y-99097631D01*
X152583791Y-99168414D01*
X152687794Y-99198952D01*
X152709411Y-99205300D01*
X152709412Y-99205300D01*
X152840337Y-99205300D01*
X152858780Y-99199884D01*
X152965957Y-99168414D01*
X153076098Y-99097631D01*
X153161835Y-98998685D01*
X153216223Y-98879592D01*
X153234856Y-98750000D01*
X153814892Y-98750000D01*
X153831595Y-98866174D01*
X153833525Y-98879592D01*
X153887913Y-98998685D01*
X153973650Y-99097631D01*
X154083791Y-99168414D01*
X154187794Y-99198952D01*
X154209411Y-99205300D01*
X154209412Y-99205300D01*
X154340337Y-99205300D01*
X154358780Y-99199884D01*
X154465957Y-99168414D01*
X154576098Y-99097631D01*
X154660694Y-99000002D01*
X159891048Y-99000002D01*
X159909832Y-99118604D01*
X159909833Y-99118607D01*
X159909834Y-99118609D01*
X159964352Y-99225607D01*
X159964353Y-99225608D01*
X159964356Y-99225612D01*
X160049261Y-99310517D01*
X160049265Y-99310520D01*
X160049267Y-99310522D01*
X160156265Y-99365040D01*
X160156267Y-99365040D01*
X160156269Y-99365041D01*
X160274872Y-99383826D01*
X160274874Y-99383826D01*
X160274876Y-99383826D01*
X160393478Y-99365041D01*
X160393478Y-99365040D01*
X160393483Y-99365040D01*
X160500481Y-99310522D01*
X160585396Y-99225607D01*
X160639914Y-99118609D01*
X160643237Y-99097631D01*
X160658700Y-99000002D01*
X160658700Y-98999997D01*
X160639915Y-98881395D01*
X160639914Y-98881393D01*
X160639914Y-98881391D01*
X160585396Y-98774393D01*
X160585394Y-98774391D01*
X160585391Y-98774387D01*
X160500486Y-98689482D01*
X160500482Y-98689479D01*
X160500481Y-98689478D01*
X160393483Y-98634960D01*
X160393481Y-98634959D01*
X160393478Y-98634958D01*
X160274876Y-98616174D01*
X160274872Y-98616174D01*
X160156269Y-98634958D01*
X160049265Y-98689479D01*
X160049261Y-98689482D01*
X159964356Y-98774387D01*
X159964353Y-98774391D01*
X159909832Y-98881395D01*
X159891048Y-98999997D01*
X159891048Y-99000002D01*
X154660694Y-99000002D01*
X154661835Y-98998685D01*
X154716223Y-98879592D01*
X154734856Y-98750000D01*
X154716223Y-98620408D01*
X154661835Y-98501315D01*
X154576098Y-98402369D01*
X154465957Y-98331586D01*
X154377223Y-98305531D01*
X154340337Y-98294700D01*
X154340336Y-98294700D01*
X154209412Y-98294700D01*
X154209411Y-98294700D01*
X154157191Y-98310033D01*
X154083791Y-98331586D01*
X154083789Y-98331586D01*
X154083789Y-98331587D01*
X153973651Y-98402368D01*
X153887913Y-98501314D01*
X153887913Y-98501315D01*
X153833525Y-98620408D01*
X153833524Y-98620410D01*
X153833524Y-98620412D01*
X153814892Y-98750000D01*
X153234856Y-98750000D01*
X153216223Y-98620408D01*
X153161835Y-98501315D01*
X153076098Y-98402369D01*
X152965957Y-98331586D01*
X152877223Y-98305531D01*
X152840337Y-98294700D01*
X152840336Y-98294700D01*
X152709412Y-98294700D01*
X152709411Y-98294700D01*
X152657191Y-98310033D01*
X152583791Y-98331586D01*
X152583789Y-98331586D01*
X152583789Y-98331587D01*
X152473651Y-98402368D01*
X152387913Y-98501314D01*
X152387913Y-98501315D01*
X152333525Y-98620408D01*
X152333524Y-98620410D01*
X152333524Y-98620412D01*
X152314892Y-98750000D01*
X151734856Y-98750000D01*
X151716223Y-98620408D01*
X151661835Y-98501315D01*
X151576098Y-98402369D01*
X151465957Y-98331586D01*
X151377223Y-98305531D01*
X151340337Y-98294700D01*
X151340336Y-98294700D01*
X151209412Y-98294700D01*
X151209411Y-98294700D01*
X151157191Y-98310033D01*
X151083791Y-98331586D01*
X151083789Y-98331586D01*
X151083789Y-98331587D01*
X150973651Y-98402368D01*
X150887913Y-98501314D01*
X150887913Y-98501315D01*
X150833525Y-98620408D01*
X150833524Y-98620410D01*
X150833524Y-98620412D01*
X150814892Y-98750000D01*
X145274874Y-98750000D01*
X145274874Y-98000002D01*
X159641048Y-98000002D01*
X159659832Y-98118604D01*
X159659833Y-98118607D01*
X159659834Y-98118609D01*
X159714352Y-98225607D01*
X159714353Y-98225608D01*
X159714356Y-98225612D01*
X159799261Y-98310517D01*
X159799265Y-98310520D01*
X159799267Y-98310522D01*
X159906265Y-98365040D01*
X159906267Y-98365040D01*
X159906269Y-98365041D01*
X160024872Y-98383826D01*
X160024874Y-98383826D01*
X160024876Y-98383826D01*
X160143478Y-98365041D01*
X160143478Y-98365040D01*
X160143483Y-98365040D01*
X160250481Y-98310522D01*
X160335396Y-98225607D01*
X160389914Y-98118609D01*
X160408700Y-98000000D01*
X160389914Y-97881391D01*
X160335396Y-97774393D01*
X160335394Y-97774391D01*
X160335391Y-97774387D01*
X160250486Y-97689482D01*
X160250482Y-97689479D01*
X160250481Y-97689478D01*
X160143483Y-97634960D01*
X160143481Y-97634959D01*
X160143478Y-97634958D01*
X160024876Y-97616174D01*
X160024872Y-97616174D01*
X159906269Y-97634958D01*
X159799265Y-97689479D01*
X159799261Y-97689482D01*
X159714356Y-97774387D01*
X159714353Y-97774391D01*
X159659832Y-97881395D01*
X159641048Y-97999997D01*
X159641048Y-98000002D01*
X145274874Y-98000002D01*
X145274874Y-97250002D01*
X155141048Y-97250002D01*
X155159832Y-97368604D01*
X155159833Y-97368607D01*
X155159834Y-97368609D01*
X155214352Y-97475607D01*
X155214353Y-97475608D01*
X155214356Y-97475612D01*
X155299261Y-97560517D01*
X155299265Y-97560520D01*
X155299267Y-97560522D01*
X155406265Y-97615040D01*
X155406267Y-97615040D01*
X155406269Y-97615041D01*
X155524872Y-97633826D01*
X155524874Y-97633826D01*
X155524876Y-97633826D01*
X155643478Y-97615041D01*
X155643478Y-97615040D01*
X155643483Y-97615040D01*
X155750481Y-97560522D01*
X155835396Y-97475607D01*
X155889914Y-97368609D01*
X155908700Y-97250002D01*
X157891048Y-97250002D01*
X157909832Y-97368604D01*
X157909833Y-97368607D01*
X157909834Y-97368609D01*
X157964352Y-97475607D01*
X157964353Y-97475608D01*
X157964356Y-97475612D01*
X158049261Y-97560517D01*
X158049265Y-97560520D01*
X158049267Y-97560522D01*
X158156265Y-97615040D01*
X158156267Y-97615040D01*
X158156269Y-97615041D01*
X158274872Y-97633826D01*
X158274874Y-97633826D01*
X158274876Y-97633826D01*
X158393478Y-97615041D01*
X158393478Y-97615040D01*
X158393483Y-97615040D01*
X158500481Y-97560522D01*
X158585396Y-97475607D01*
X158639914Y-97368609D01*
X158658700Y-97250000D01*
X158639914Y-97131391D01*
X158585396Y-97024393D01*
X158585394Y-97024391D01*
X158585391Y-97024387D01*
X158500486Y-96939482D01*
X158500482Y-96939479D01*
X158500481Y-96939478D01*
X158393483Y-96884960D01*
X158393481Y-96884959D01*
X158393478Y-96884958D01*
X158274876Y-96866174D01*
X158274872Y-96866174D01*
X158156269Y-96884958D01*
X158049265Y-96939479D01*
X158049261Y-96939482D01*
X157964356Y-97024387D01*
X157964353Y-97024391D01*
X157909832Y-97131395D01*
X157891048Y-97249997D01*
X157891048Y-97250002D01*
X155908700Y-97250002D01*
X155908700Y-97250000D01*
X155889914Y-97131391D01*
X155835396Y-97024393D01*
X155835394Y-97024391D01*
X155835391Y-97024387D01*
X155750486Y-96939482D01*
X155750482Y-96939479D01*
X155750481Y-96939478D01*
X155643483Y-96884960D01*
X155643481Y-96884959D01*
X155643478Y-96884958D01*
X155524876Y-96866174D01*
X155524872Y-96866174D01*
X155406269Y-96884958D01*
X155299265Y-96939479D01*
X155299261Y-96939482D01*
X155214356Y-97024387D01*
X155214353Y-97024391D01*
X155159832Y-97131395D01*
X155141048Y-97249997D01*
X155141048Y-97250002D01*
X145274874Y-97250002D01*
X145274874Y-96500002D01*
X151891048Y-96500002D01*
X151909832Y-96618604D01*
X151909833Y-96618607D01*
X151909834Y-96618609D01*
X151964352Y-96725607D01*
X151964353Y-96725608D01*
X151964356Y-96725612D01*
X152049261Y-96810517D01*
X152049265Y-96810520D01*
X152049267Y-96810522D01*
X152156265Y-96865040D01*
X152156267Y-96865040D01*
X152156269Y-96865041D01*
X152274872Y-96883826D01*
X152274874Y-96883826D01*
X152274876Y-96883826D01*
X152393478Y-96865041D01*
X152393478Y-96865040D01*
X152393483Y-96865040D01*
X152500481Y-96810522D01*
X152585396Y-96725607D01*
X152639914Y-96618609D01*
X152640479Y-96615040D01*
X152652401Y-96539772D01*
X152682330Y-96476638D01*
X152741641Y-96439706D01*
X152811504Y-96440704D01*
X152869737Y-96479313D01*
X152897347Y-96539772D01*
X152909832Y-96618604D01*
X152909833Y-96618607D01*
X152909834Y-96618609D01*
X152964352Y-96725607D01*
X152964353Y-96725608D01*
X152964356Y-96725612D01*
X153049261Y-96810517D01*
X153049265Y-96810520D01*
X153049267Y-96810522D01*
X153156265Y-96865040D01*
X153156267Y-96865040D01*
X153156269Y-96865041D01*
X153274872Y-96883826D01*
X153274874Y-96883826D01*
X153274876Y-96883826D01*
X153393478Y-96865041D01*
X153393478Y-96865040D01*
X153393483Y-96865040D01*
X153500481Y-96810522D01*
X153585396Y-96725607D01*
X153639914Y-96618609D01*
X153640479Y-96615040D01*
X153658700Y-96500002D01*
X159391048Y-96500002D01*
X159409832Y-96618604D01*
X159409833Y-96618607D01*
X159409834Y-96618609D01*
X159464352Y-96725607D01*
X159464353Y-96725608D01*
X159464356Y-96725612D01*
X159549261Y-96810517D01*
X159549265Y-96810520D01*
X159549267Y-96810522D01*
X159656265Y-96865040D01*
X159656267Y-96865040D01*
X159656269Y-96865041D01*
X159774872Y-96883826D01*
X159774874Y-96883826D01*
X159774876Y-96883826D01*
X159893478Y-96865041D01*
X159893478Y-96865040D01*
X159893483Y-96865040D01*
X160000481Y-96810522D01*
X160085396Y-96725607D01*
X160139914Y-96618609D01*
X160140479Y-96615040D01*
X160158700Y-96500002D01*
X160158700Y-96499997D01*
X160139915Y-96381395D01*
X160139914Y-96381393D01*
X160139914Y-96381391D01*
X160085396Y-96274393D01*
X160085394Y-96274391D01*
X160085391Y-96274387D01*
X160000486Y-96189482D01*
X160000482Y-96189479D01*
X160000481Y-96189478D01*
X159893483Y-96134960D01*
X159893481Y-96134959D01*
X159893478Y-96134958D01*
X159774876Y-96116174D01*
X159774872Y-96116174D01*
X159656269Y-96134958D01*
X159549265Y-96189479D01*
X159549261Y-96189482D01*
X159464356Y-96274387D01*
X159464353Y-96274391D01*
X159409832Y-96381395D01*
X159391048Y-96499997D01*
X159391048Y-96500002D01*
X153658700Y-96500002D01*
X153658700Y-96499997D01*
X153639915Y-96381395D01*
X153639914Y-96381393D01*
X153639914Y-96381391D01*
X153585396Y-96274393D01*
X153585394Y-96274391D01*
X153585391Y-96274387D01*
X153500486Y-96189482D01*
X153500482Y-96189479D01*
X153500481Y-96189478D01*
X153393483Y-96134960D01*
X153393481Y-96134959D01*
X153393478Y-96134958D01*
X153265235Y-96114647D01*
X153265780Y-96111205D01*
X153215661Y-96096489D01*
X153169906Y-96043685D01*
X153162423Y-96009291D01*
X153160227Y-96009639D01*
X153139915Y-95881395D01*
X153139914Y-95881393D01*
X153139914Y-95881391D01*
X153085396Y-95774393D01*
X153085394Y-95774391D01*
X153085391Y-95774387D01*
X153000486Y-95689482D01*
X153000482Y-95689479D01*
X153000481Y-95689478D01*
X152893483Y-95634960D01*
X152893481Y-95634959D01*
X152893478Y-95634958D01*
X152774876Y-95616174D01*
X152774872Y-95616174D01*
X152656269Y-95634958D01*
X152549265Y-95689479D01*
X152549261Y-95689482D01*
X152464356Y-95774387D01*
X152464353Y-95774391D01*
X152409832Y-95881395D01*
X152389521Y-96009639D01*
X152386079Y-96009093D01*
X152371363Y-96059213D01*
X152318559Y-96104968D01*
X152284165Y-96112450D01*
X152284513Y-96114647D01*
X152156269Y-96134958D01*
X152049265Y-96189479D01*
X152049261Y-96189482D01*
X151964356Y-96274387D01*
X151964353Y-96274391D01*
X151909832Y-96381395D01*
X151891048Y-96499997D01*
X151891048Y-96500002D01*
X145274874Y-96500002D01*
X145274874Y-93250002D01*
X154391048Y-93250002D01*
X154409832Y-93368604D01*
X154409833Y-93368607D01*
X154409834Y-93368609D01*
X154464352Y-93475607D01*
X154464353Y-93475608D01*
X154464356Y-93475612D01*
X154549261Y-93560517D01*
X154549265Y-93560520D01*
X154549267Y-93560522D01*
X154656265Y-93615040D01*
X154656267Y-93615040D01*
X154656269Y-93615041D01*
X154774872Y-93633826D01*
X154774874Y-93633826D01*
X154774876Y-93633826D01*
X154893478Y-93615041D01*
X154893478Y-93615040D01*
X154893483Y-93615040D01*
X155000481Y-93560522D01*
X155085396Y-93475607D01*
X155139914Y-93368609D01*
X155158700Y-93250002D01*
X156141048Y-93250002D01*
X156159832Y-93368604D01*
X156159833Y-93368607D01*
X156159834Y-93368609D01*
X156214352Y-93475607D01*
X156214353Y-93475608D01*
X156214356Y-93475612D01*
X156299261Y-93560517D01*
X156299265Y-93560520D01*
X156299267Y-93560522D01*
X156406265Y-93615040D01*
X156406267Y-93615040D01*
X156406269Y-93615041D01*
X156524872Y-93633826D01*
X156524874Y-93633826D01*
X156524876Y-93633826D01*
X156643478Y-93615041D01*
X156643478Y-93615040D01*
X156643483Y-93615040D01*
X156750481Y-93560522D01*
X156835396Y-93475607D01*
X156889914Y-93368609D01*
X156908700Y-93250002D01*
X157891048Y-93250002D01*
X157909832Y-93368604D01*
X157909833Y-93368607D01*
X157909834Y-93368609D01*
X157964352Y-93475607D01*
X157964353Y-93475608D01*
X157964356Y-93475612D01*
X158049261Y-93560517D01*
X158049265Y-93560520D01*
X158049267Y-93560522D01*
X158156265Y-93615040D01*
X158156267Y-93615040D01*
X158156269Y-93615041D01*
X158274872Y-93633826D01*
X158274874Y-93633826D01*
X158274876Y-93633826D01*
X158393478Y-93615041D01*
X158393478Y-93615040D01*
X158393483Y-93615040D01*
X158500481Y-93560522D01*
X158585396Y-93475607D01*
X158639914Y-93368609D01*
X158658700Y-93250000D01*
X158639914Y-93131391D01*
X158585396Y-93024393D01*
X158585394Y-93024391D01*
X158585391Y-93024387D01*
X158500486Y-92939482D01*
X158500482Y-92939479D01*
X158500481Y-92939478D01*
X158393483Y-92884960D01*
X158393481Y-92884959D01*
X158393478Y-92884958D01*
X158274876Y-92866174D01*
X158274872Y-92866174D01*
X158156269Y-92884958D01*
X158049265Y-92939479D01*
X158049261Y-92939482D01*
X157964356Y-93024387D01*
X157964353Y-93024391D01*
X157909832Y-93131395D01*
X157891048Y-93249997D01*
X157891048Y-93250002D01*
X156908700Y-93250002D01*
X156908700Y-93250000D01*
X156889914Y-93131391D01*
X156835396Y-93024393D01*
X156835394Y-93024391D01*
X156835391Y-93024387D01*
X156750486Y-92939482D01*
X156750482Y-92939479D01*
X156750481Y-92939478D01*
X156643483Y-92884960D01*
X156643481Y-92884959D01*
X156643478Y-92884958D01*
X156524876Y-92866174D01*
X156524872Y-92866174D01*
X156406269Y-92884958D01*
X156299265Y-92939479D01*
X156299261Y-92939482D01*
X156214356Y-93024387D01*
X156214353Y-93024391D01*
X156159832Y-93131395D01*
X156141048Y-93249997D01*
X156141048Y-93250002D01*
X155158700Y-93250002D01*
X155158700Y-93250000D01*
X155139914Y-93131391D01*
X155085396Y-93024393D01*
X155085394Y-93024391D01*
X155085391Y-93024387D01*
X155000486Y-92939482D01*
X155000482Y-92939479D01*
X155000481Y-92939478D01*
X154893483Y-92884960D01*
X154893481Y-92884959D01*
X154893478Y-92884958D01*
X154774876Y-92866174D01*
X154774872Y-92866174D01*
X154656269Y-92884958D01*
X154549265Y-92939479D01*
X154549261Y-92939482D01*
X154464356Y-93024387D01*
X154464353Y-93024391D01*
X154409832Y-93131395D01*
X154391048Y-93249997D01*
X154391048Y-93250002D01*
X145274874Y-93250002D01*
X145274874Y-92375002D01*
X145891048Y-92375002D01*
X145909832Y-92493604D01*
X145909833Y-92493607D01*
X145909834Y-92493609D01*
X145943927Y-92560520D01*
X145964353Y-92600608D01*
X145964356Y-92600612D01*
X146049261Y-92685517D01*
X146049265Y-92685520D01*
X146049267Y-92685522D01*
X146156265Y-92740040D01*
X146156267Y-92740040D01*
X146156269Y-92740041D01*
X146274872Y-92758826D01*
X146274874Y-92758826D01*
X146274876Y-92758826D01*
X146393478Y-92740041D01*
X146393478Y-92740040D01*
X146393483Y-92740040D01*
X146500481Y-92685522D01*
X146585396Y-92600607D01*
X146639914Y-92493609D01*
X146639915Y-92493604D01*
X146658700Y-92375002D01*
X146658700Y-92374997D01*
X146639915Y-92256395D01*
X146639914Y-92256393D01*
X146639914Y-92256391D01*
X146636659Y-92250002D01*
X153641048Y-92250002D01*
X153659832Y-92368604D01*
X153659833Y-92368607D01*
X153659834Y-92368609D01*
X153714352Y-92475607D01*
X153714353Y-92475608D01*
X153714356Y-92475612D01*
X153799261Y-92560517D01*
X153799265Y-92560520D01*
X153799267Y-92560522D01*
X153906265Y-92615040D01*
X153906267Y-92615040D01*
X153906269Y-92615041D01*
X154024872Y-92633826D01*
X154024874Y-92633826D01*
X154024876Y-92633826D01*
X154143478Y-92615041D01*
X154143478Y-92615040D01*
X154143483Y-92615040D01*
X154250481Y-92560522D01*
X154335396Y-92475607D01*
X154389914Y-92368609D01*
X154408700Y-92250002D01*
X158641048Y-92250002D01*
X158659832Y-92368604D01*
X158659833Y-92368607D01*
X158659834Y-92368609D01*
X158714352Y-92475607D01*
X158714353Y-92475608D01*
X158714356Y-92475612D01*
X158799261Y-92560517D01*
X158799265Y-92560520D01*
X158799267Y-92560522D01*
X158906265Y-92615040D01*
X158906267Y-92615040D01*
X158906269Y-92615041D01*
X159024872Y-92633826D01*
X159024874Y-92633826D01*
X159024876Y-92633826D01*
X159143478Y-92615041D01*
X159143478Y-92615040D01*
X159143483Y-92615040D01*
X159250481Y-92560522D01*
X159335396Y-92475607D01*
X159389914Y-92368609D01*
X159408700Y-92250000D01*
X159392765Y-92149393D01*
X159389915Y-92131395D01*
X159389914Y-92131393D01*
X159389914Y-92131391D01*
X159335396Y-92024393D01*
X159335394Y-92024391D01*
X159335391Y-92024387D01*
X159250486Y-91939482D01*
X159250482Y-91939479D01*
X159250481Y-91939478D01*
X159143483Y-91884960D01*
X159143481Y-91884959D01*
X159143478Y-91884958D01*
X159024876Y-91866174D01*
X159024872Y-91866174D01*
X158906269Y-91884958D01*
X158799265Y-91939479D01*
X158799261Y-91939482D01*
X158714356Y-92024387D01*
X158714353Y-92024391D01*
X158659832Y-92131395D01*
X158641048Y-92249997D01*
X158641048Y-92250002D01*
X154408700Y-92250002D01*
X154408700Y-92250000D01*
X154392765Y-92149393D01*
X154389915Y-92131395D01*
X154389914Y-92131393D01*
X154389914Y-92131391D01*
X154335396Y-92024393D01*
X154335394Y-92024391D01*
X154335391Y-92024387D01*
X154250486Y-91939482D01*
X154250482Y-91939479D01*
X154250481Y-91939478D01*
X154143483Y-91884960D01*
X154143481Y-91884959D01*
X154143478Y-91884958D01*
X154024876Y-91866174D01*
X154024872Y-91866174D01*
X153906269Y-91884958D01*
X153799265Y-91939479D01*
X153799261Y-91939482D01*
X153714356Y-92024387D01*
X153714353Y-92024391D01*
X153659832Y-92131395D01*
X153641048Y-92249997D01*
X153641048Y-92250002D01*
X146636659Y-92250002D01*
X146585396Y-92149393D01*
X146585394Y-92149391D01*
X146585391Y-92149387D01*
X146500486Y-92064482D01*
X146500482Y-92064479D01*
X146500481Y-92064478D01*
X146393483Y-92009960D01*
X146393481Y-92009959D01*
X146393478Y-92009958D01*
X146274876Y-91991174D01*
X146274872Y-91991174D01*
X146156269Y-92009958D01*
X146156265Y-92009959D01*
X146156265Y-92009960D01*
X146127939Y-92024393D01*
X146049265Y-92064479D01*
X146049261Y-92064482D01*
X145964356Y-92149387D01*
X145964353Y-92149391D01*
X145909832Y-92256395D01*
X145891048Y-92374997D01*
X145891048Y-92375002D01*
X145274874Y-92375002D01*
X145274874Y-91124000D01*
X145294559Y-91056961D01*
X145347363Y-91011206D01*
X145398874Y-91000000D01*
X161150874Y-91000000D01*
X161217913Y-91019685D01*
G37*
G04 #@! TD.AperFunction*
G04 #@! TA.AperFunction,Conductor*
G36*
X182303692Y-87151502D02*
G01*
X182350185Y-87205158D01*
X182360289Y-87275432D01*
X182330795Y-87340012D01*
X182275803Y-87376904D01*
X182258033Y-87382891D01*
X181928286Y-87535448D01*
X181616982Y-87722754D01*
X181616976Y-87722758D01*
X181327746Y-87942624D01*
X181327731Y-87942637D01*
X181063979Y-88192478D01*
X180828774Y-88469384D01*
X180624881Y-88770102D01*
X180454701Y-89091097D01*
X180454697Y-89091106D01*
X180320227Y-89428600D01*
X180320225Y-89428606D01*
X180223025Y-89778688D01*
X180164249Y-90137214D01*
X180144579Y-90499997D01*
X180144579Y-90500002D01*
X180164249Y-90862785D01*
X180223025Y-91221311D01*
X180320225Y-91571393D01*
X180320227Y-91571399D01*
X180438647Y-91868610D01*
X180454702Y-91908905D01*
X180624883Y-92229900D01*
X180828773Y-92530614D01*
X181015120Y-92750000D01*
X181063979Y-92807521D01*
X181327731Y-93057362D01*
X181327746Y-93057375D01*
X181616981Y-93277245D01*
X181928292Y-93464555D01*
X182258031Y-93617108D01*
X182602330Y-93733116D01*
X182957153Y-93811218D01*
X183318341Y-93850500D01*
X183318349Y-93850500D01*
X183681651Y-93850500D01*
X183681659Y-93850500D01*
X184042847Y-93811218D01*
X184397670Y-93733116D01*
X184741969Y-93617108D01*
X185071708Y-93464555D01*
X185383019Y-93277245D01*
X185672254Y-93057375D01*
X185936021Y-92807521D01*
X186171227Y-92530614D01*
X186375117Y-92229900D01*
X186545298Y-91908905D01*
X186625449Y-91707741D01*
X186669244Y-91651862D01*
X186736298Y-91628531D01*
X186805321Y-91645155D01*
X186854398Y-91696457D01*
X186868500Y-91754378D01*
X186868500Y-110495621D01*
X186848498Y-110563742D01*
X186794842Y-110610235D01*
X186724568Y-110620339D01*
X186659988Y-110590845D01*
X186625449Y-110542258D01*
X186556261Y-110368611D01*
X186545298Y-110341095D01*
X186375117Y-110020100D01*
X186171227Y-109719386D01*
X185936021Y-109442479D01*
X185858038Y-109368609D01*
X185672268Y-109192637D01*
X185672253Y-109192624D01*
X185383023Y-108972758D01*
X185383017Y-108972754D01*
X185327710Y-108939477D01*
X185071708Y-108785445D01*
X184741969Y-108632892D01*
X184397670Y-108516884D01*
X184397665Y-108516882D01*
X184397662Y-108516882D01*
X184042864Y-108438785D01*
X184042835Y-108438780D01*
X183681666Y-108399500D01*
X183681659Y-108399500D01*
X183318341Y-108399500D01*
X183318333Y-108399500D01*
X182957164Y-108438780D01*
X182957135Y-108438785D01*
X182602337Y-108516882D01*
X182602320Y-108516887D01*
X182258033Y-108632891D01*
X181928286Y-108785448D01*
X181616982Y-108972754D01*
X181616976Y-108972758D01*
X181327746Y-109192624D01*
X181327731Y-109192637D01*
X181063979Y-109442478D01*
X180828774Y-109719384D01*
X180624881Y-110020102D01*
X180454701Y-110341097D01*
X180454697Y-110341106D01*
X180320227Y-110678600D01*
X180320225Y-110678606D01*
X180223025Y-111028688D01*
X180164249Y-111387214D01*
X180144579Y-111749997D01*
X180144579Y-111750002D01*
X180164249Y-112112785D01*
X180223025Y-112471311D01*
X180320225Y-112821393D01*
X180320227Y-112821399D01*
X180376007Y-112961395D01*
X180454702Y-113158905D01*
X180555192Y-113348450D01*
X180603452Y-113439478D01*
X180624883Y-113479900D01*
X180748049Y-113661556D01*
X180828774Y-113780615D01*
X181063979Y-114057521D01*
X181327731Y-114307362D01*
X181327746Y-114307375D01*
X181616981Y-114527245D01*
X181928292Y-114714555D01*
X182258031Y-114867108D01*
X182275803Y-114873096D01*
X182333971Y-114913801D01*
X182360898Y-114979494D01*
X182348035Y-115049315D01*
X182299465Y-115101098D01*
X182235571Y-115118500D01*
X142264429Y-115118500D01*
X142196308Y-115098498D01*
X142149815Y-115044842D01*
X142139711Y-114974568D01*
X142169205Y-114909988D01*
X142224197Y-114873096D01*
X142241969Y-114867108D01*
X142571708Y-114714555D01*
X142883019Y-114527245D01*
X143172254Y-114307375D01*
X143436021Y-114057521D01*
X143671227Y-113780614D01*
X143691984Y-113750000D01*
X166091048Y-113750000D01*
X166109834Y-113868610D01*
X166164351Y-113975606D01*
X166164352Y-113975607D01*
X166249267Y-114060522D01*
X166356265Y-114115040D01*
X166474874Y-114133826D01*
X166593483Y-114115040D01*
X166700481Y-114060522D01*
X166785396Y-113975607D01*
X166839914Y-113868609D01*
X166858700Y-113750000D01*
X174091048Y-113750000D01*
X174109834Y-113868610D01*
X174164351Y-113975606D01*
X174164352Y-113975607D01*
X174249267Y-114060522D01*
X174356265Y-114115040D01*
X174474874Y-114133826D01*
X174593483Y-114115040D01*
X174700481Y-114060522D01*
X174785396Y-113975607D01*
X174839914Y-113868609D01*
X174858700Y-113750000D01*
X174839914Y-113631391D01*
X174785396Y-113524393D01*
X174700481Y-113439478D01*
X174700480Y-113439477D01*
X174593484Y-113384960D01*
X174474874Y-113366174D01*
X174356263Y-113384960D01*
X174249267Y-113439477D01*
X174164351Y-113524393D01*
X174109834Y-113631389D01*
X174091048Y-113750000D01*
X166858700Y-113750000D01*
X166839914Y-113631391D01*
X166785396Y-113524393D01*
X166700481Y-113439478D01*
X166700480Y-113439477D01*
X166593484Y-113384960D01*
X166474874Y-113366174D01*
X166356263Y-113384960D01*
X166249267Y-113439477D01*
X166164351Y-113524393D01*
X166109834Y-113631389D01*
X166091048Y-113750000D01*
X143691984Y-113750000D01*
X143875117Y-113479900D01*
X144045298Y-113158905D01*
X144167381Y-112852498D01*
X144179772Y-112821399D01*
X144179774Y-112821393D01*
X144191748Y-112778270D01*
X144276973Y-112471316D01*
X144335751Y-112112785D01*
X144355421Y-111750000D01*
X144335751Y-111387215D01*
X144284285Y-111073283D01*
X144276974Y-111028688D01*
X144233170Y-110870920D01*
X144179775Y-110678609D01*
X144179774Y-110678606D01*
X144179772Y-110678600D01*
X144056261Y-110368611D01*
X144045298Y-110341095D01*
X143875117Y-110020100D01*
X143777416Y-109876003D01*
X145119294Y-109876003D01*
X145122851Y-109909080D01*
X145134055Y-109960581D01*
X145168501Y-110029395D01*
X145168501Y-110029396D01*
X145204790Y-110071274D01*
X145214256Y-110082198D01*
X145219236Y-110087677D01*
X145219238Y-110087678D01*
X145219241Y-110087681D01*
X145287996Y-110129590D01*
X145288000Y-110129592D01*
X145288002Y-110129593D01*
X145355041Y-110149278D01*
X145398874Y-110155580D01*
X145768479Y-110155580D01*
X145836600Y-110175582D01*
X145883093Y-110229238D01*
X145892927Y-110261866D01*
X145909834Y-110368609D01*
X145909834Y-110368610D01*
X145909835Y-110368611D01*
X145964351Y-110475606D01*
X146024650Y-110535905D01*
X146058676Y-110598217D01*
X146053611Y-110669032D01*
X146024650Y-110714095D01*
X145964353Y-110774391D01*
X145964351Y-110774393D01*
X145909834Y-110881389D01*
X145891048Y-111000000D01*
X145909834Y-111118610D01*
X145964351Y-111225606D01*
X146024650Y-111285905D01*
X146058676Y-111348217D01*
X146053611Y-111419032D01*
X146024650Y-111464095D01*
X145964353Y-111524391D01*
X145964351Y-111524393D01*
X145909834Y-111631389D01*
X145891048Y-111750000D01*
X145909834Y-111868610D01*
X145964351Y-111975606D01*
X145964352Y-111975607D01*
X146049267Y-112060522D01*
X146156265Y-112115040D01*
X146274874Y-112133826D01*
X146393483Y-112115040D01*
X146500481Y-112060522D01*
X146585396Y-111975607D01*
X146639914Y-111868609D01*
X146650425Y-111802240D01*
X146674729Y-111750974D01*
X146673838Y-111749024D01*
X146875018Y-111749024D01*
X146899322Y-111802239D01*
X146909834Y-111868609D01*
X146909835Y-111868610D01*
X146953125Y-111953574D01*
X146964352Y-111975607D01*
X147049267Y-112060522D01*
X147156265Y-112115040D01*
X147274874Y-112133826D01*
X147393483Y-112115040D01*
X147500481Y-112060522D01*
X147585396Y-111975607D01*
X147639914Y-111868609D01*
X147658700Y-111750000D01*
X148891048Y-111750000D01*
X148909834Y-111868610D01*
X148964351Y-111975606D01*
X148964352Y-111975607D01*
X149049267Y-112060522D01*
X149156265Y-112115040D01*
X149274874Y-112133826D01*
X149393483Y-112115040D01*
X149500481Y-112060522D01*
X149585396Y-111975607D01*
X149596622Y-111953574D01*
X164493731Y-111953574D01*
X164502485Y-112115040D01*
X164503770Y-112138729D01*
X164503771Y-112138740D01*
X164553375Y-112317401D01*
X164553377Y-112317406D01*
X164640232Y-112481231D01*
X164640234Y-112481233D01*
X164760279Y-112622561D01*
X164907899Y-112734778D01*
X165076190Y-112812638D01*
X165257285Y-112852500D01*
X165257289Y-112852500D01*
X165396213Y-112852500D01*
X165396221Y-112852500D01*
X165534343Y-112837478D01*
X165710066Y-112778270D01*
X165868953Y-112682671D01*
X166003575Y-112555151D01*
X166107635Y-112401673D01*
X166176270Y-112229413D01*
X166206269Y-112046426D01*
X166201235Y-111953574D01*
X175293731Y-111953574D01*
X175302485Y-112115040D01*
X175303770Y-112138729D01*
X175303771Y-112138740D01*
X175353375Y-112317401D01*
X175353377Y-112317406D01*
X175440232Y-112481231D01*
X175440234Y-112481233D01*
X175560279Y-112622561D01*
X175707899Y-112734778D01*
X175876190Y-112812638D01*
X176057285Y-112852500D01*
X176057289Y-112852500D01*
X176196213Y-112852500D01*
X176196221Y-112852500D01*
X176334343Y-112837478D01*
X176510066Y-112778270D01*
X176668953Y-112682671D01*
X176803575Y-112555151D01*
X176907635Y-112401673D01*
X176976270Y-112229413D01*
X177006269Y-112046426D01*
X176996230Y-111861268D01*
X176979842Y-111802242D01*
X176946624Y-111682598D01*
X176946622Y-111682593D01*
X176859767Y-111518768D01*
X176796980Y-111444850D01*
X176739721Y-111377439D01*
X176739720Y-111377438D01*
X176739719Y-111377437D01*
X176592101Y-111265222D01*
X176592098Y-111265220D01*
X176423809Y-111187361D01*
X176242722Y-111147501D01*
X176242717Y-111147500D01*
X176242715Y-111147500D01*
X176103779Y-111147500D01*
X176103771Y-111147500D01*
X175965657Y-111162521D01*
X175965656Y-111162521D01*
X175789936Y-111221728D01*
X175789935Y-111221729D01*
X175631046Y-111317329D01*
X175496426Y-111444846D01*
X175496423Y-111444850D01*
X175392367Y-111598322D01*
X175392366Y-111598324D01*
X175323729Y-111770587D01*
X175293731Y-111953573D01*
X175293731Y-111953574D01*
X166201235Y-111953574D01*
X166196230Y-111861268D01*
X166179842Y-111802242D01*
X166146624Y-111682598D01*
X166146622Y-111682593D01*
X166059767Y-111518768D01*
X165996980Y-111444850D01*
X165939721Y-111377439D01*
X165939720Y-111377438D01*
X165939719Y-111377437D01*
X165792101Y-111265222D01*
X165792098Y-111265220D01*
X165623809Y-111187361D01*
X165442722Y-111147501D01*
X165442717Y-111147500D01*
X165442715Y-111147500D01*
X165303779Y-111147500D01*
X165303771Y-111147500D01*
X165165657Y-111162521D01*
X165165656Y-111162521D01*
X164989936Y-111221728D01*
X164989935Y-111221729D01*
X164831046Y-111317329D01*
X164696426Y-111444846D01*
X164696423Y-111444850D01*
X164592367Y-111598322D01*
X164592366Y-111598324D01*
X164523729Y-111770587D01*
X164493731Y-111953573D01*
X164493731Y-111953574D01*
X149596622Y-111953574D01*
X149639914Y-111868609D01*
X149658700Y-111750000D01*
X149639914Y-111631391D01*
X149585396Y-111524393D01*
X149500481Y-111439478D01*
X149500480Y-111439477D01*
X149393484Y-111384960D01*
X149274874Y-111366174D01*
X149156263Y-111384960D01*
X149049267Y-111439477D01*
X148964351Y-111524393D01*
X148909834Y-111631389D01*
X148891048Y-111750000D01*
X147658700Y-111750000D01*
X147639914Y-111631391D01*
X147585396Y-111524393D01*
X147500481Y-111439478D01*
X147500480Y-111439477D01*
X147393484Y-111384960D01*
X147274874Y-111366174D01*
X147156263Y-111384960D01*
X147049267Y-111439477D01*
X146964351Y-111524393D01*
X146909834Y-111631389D01*
X146909834Y-111631391D01*
X146901725Y-111682593D01*
X146899323Y-111697757D01*
X146875018Y-111749024D01*
X146673838Y-111749024D01*
X146650425Y-111697757D01*
X146648024Y-111682597D01*
X146639914Y-111631391D01*
X146585396Y-111524393D01*
X146525098Y-111464095D01*
X146491072Y-111401783D01*
X146496137Y-111330968D01*
X146525098Y-111285905D01*
X146545808Y-111265195D01*
X146585396Y-111225607D01*
X146639914Y-111118609D01*
X146658700Y-111000000D01*
X146639914Y-110881391D01*
X146585396Y-110774393D01*
X146525098Y-110714095D01*
X146491072Y-110651783D01*
X146496137Y-110580968D01*
X146525098Y-110535905D01*
X146536610Y-110524393D01*
X146585396Y-110475607D01*
X146639914Y-110368609D01*
X146656820Y-110261867D01*
X146687233Y-110197716D01*
X146747501Y-110160189D01*
X146781269Y-110155580D01*
X148081621Y-110155580D01*
X148149742Y-110175582D01*
X148196235Y-110229238D01*
X148206339Y-110299512D01*
X148176845Y-110364092D01*
X148138825Y-110393845D01*
X148113241Y-110406881D01*
X148049267Y-110439477D01*
X147964351Y-110524393D01*
X147909834Y-110631389D01*
X147891048Y-110750000D01*
X147909834Y-110868610D01*
X147964351Y-110975606D01*
X147964352Y-110975607D01*
X148049267Y-111060522D01*
X148156265Y-111115040D01*
X148274874Y-111133826D01*
X148393483Y-111115040D01*
X148500481Y-111060522D01*
X148585396Y-110975607D01*
X148639914Y-110868609D01*
X148658700Y-110750000D01*
X148639914Y-110631391D01*
X148585396Y-110524393D01*
X148500481Y-110439478D01*
X148500480Y-110439477D01*
X148451146Y-110414340D01*
X148410923Y-110393846D01*
X148359309Y-110345099D01*
X148342243Y-110276184D01*
X148365144Y-110208982D01*
X148420741Y-110164830D01*
X148468127Y-110155580D01*
X151319277Y-110155580D01*
X151387398Y-110175582D01*
X151433891Y-110229238D01*
X151443995Y-110299512D01*
X151431544Y-110338783D01*
X151409834Y-110381389D01*
X151391048Y-110500000D01*
X151409834Y-110618610D01*
X151441474Y-110680707D01*
X151464352Y-110725607D01*
X151549267Y-110810522D01*
X151656265Y-110865040D01*
X151774874Y-110883826D01*
X151893483Y-110865040D01*
X152000481Y-110810522D01*
X152085396Y-110725607D01*
X152139914Y-110618609D01*
X152158700Y-110500000D01*
X152139914Y-110381391D01*
X152118203Y-110338782D01*
X152105100Y-110269006D01*
X152131800Y-110203221D01*
X152189828Y-110162315D01*
X152230471Y-110155580D01*
X153069277Y-110155580D01*
X153137398Y-110175582D01*
X153183891Y-110229238D01*
X153193995Y-110299512D01*
X153181544Y-110338783D01*
X153159834Y-110381389D01*
X153141048Y-110500000D01*
X153159834Y-110618610D01*
X153191474Y-110680707D01*
X153214352Y-110725607D01*
X153299267Y-110810522D01*
X153406265Y-110865040D01*
X153524874Y-110883826D01*
X153643483Y-110865040D01*
X153750481Y-110810522D01*
X153835396Y-110725607D01*
X153889914Y-110618609D01*
X153908700Y-110500000D01*
X153889914Y-110381391D01*
X153868203Y-110338782D01*
X153855100Y-110269006D01*
X153881800Y-110203221D01*
X153939828Y-110162315D01*
X153980471Y-110155580D01*
X156581621Y-110155580D01*
X156649742Y-110175582D01*
X156696235Y-110229238D01*
X156706339Y-110299512D01*
X156676845Y-110364092D01*
X156638825Y-110393845D01*
X156613241Y-110406881D01*
X156549267Y-110439477D01*
X156464351Y-110524393D01*
X156409834Y-110631389D01*
X156391048Y-110750000D01*
X156409834Y-110868610D01*
X156464351Y-110975606D01*
X156464352Y-110975607D01*
X156549267Y-111060522D01*
X156656265Y-111115040D01*
X156774874Y-111133826D01*
X156893483Y-111115040D01*
X157000481Y-111060522D01*
X157085396Y-110975607D01*
X157139914Y-110868609D01*
X157158700Y-110750000D01*
X157139914Y-110631391D01*
X157085396Y-110524393D01*
X157016103Y-110455100D01*
X168091048Y-110455100D01*
X168109834Y-110573710D01*
X168158403Y-110669032D01*
X168164352Y-110680707D01*
X168249267Y-110765622D01*
X168356265Y-110820140D01*
X168474874Y-110838926D01*
X168593483Y-110820140D01*
X168634385Y-110799299D01*
X168704157Y-110786195D01*
X168769943Y-110812894D01*
X168810850Y-110870920D01*
X168816035Y-110931274D01*
X168812330Y-110954669D01*
X168812330Y-110954671D01*
X168812330Y-110954673D01*
X168815646Y-110975607D01*
X168831116Y-111073283D01*
X168885633Y-111180279D01*
X168885634Y-111180280D01*
X168970549Y-111265195D01*
X169077547Y-111319713D01*
X169196156Y-111338499D01*
X169314765Y-111319713D01*
X169421763Y-111265195D01*
X169506678Y-111180280D01*
X169561196Y-111073282D01*
X169579982Y-110954673D01*
X169561196Y-110836064D01*
X169506678Y-110729066D01*
X169421763Y-110644151D01*
X169421762Y-110644150D01*
X169314766Y-110589633D01*
X169196156Y-110570847D01*
X169077547Y-110589633D01*
X169077545Y-110589633D01*
X169077543Y-110589634D01*
X169036645Y-110610473D01*
X168966868Y-110623577D01*
X168901084Y-110596876D01*
X168860178Y-110538849D01*
X168854994Y-110478496D01*
X168858700Y-110455100D01*
X168839914Y-110336491D01*
X168785396Y-110229493D01*
X168700481Y-110144578D01*
X168700480Y-110144577D01*
X168593484Y-110090060D01*
X168474874Y-110071274D01*
X168356263Y-110090060D01*
X168249267Y-110144577D01*
X168164351Y-110229493D01*
X168109834Y-110336489D01*
X168091048Y-110455100D01*
X157016103Y-110455100D01*
X157000481Y-110439478D01*
X157000480Y-110439477D01*
X156951146Y-110414340D01*
X156910923Y-110393846D01*
X156859309Y-110345099D01*
X156842243Y-110276184D01*
X156865144Y-110208982D01*
X156920741Y-110164830D01*
X156968127Y-110155580D01*
X161150871Y-110155580D01*
X161150874Y-110155580D01*
X161183946Y-110152024D01*
X161235457Y-110140818D01*
X161304268Y-110106373D01*
X161304269Y-110106372D01*
X161304270Y-110106372D01*
X161344774Y-110071274D01*
X161357072Y-110060618D01*
X161362551Y-110055638D01*
X161378548Y-110029395D01*
X161404464Y-109986877D01*
X161404466Y-109986873D01*
X161404467Y-109986872D01*
X161424152Y-109919833D01*
X161430454Y-109876000D01*
X161430454Y-109705596D01*
X161450456Y-109637475D01*
X161504112Y-109590982D01*
X161574386Y-109580878D01*
X161613654Y-109593328D01*
X161656265Y-109615040D01*
X161774874Y-109633826D01*
X161830599Y-109625000D01*
X173116174Y-109625000D01*
X173134960Y-109743610D01*
X173189477Y-109850606D01*
X173189478Y-109850607D01*
X173274393Y-109935522D01*
X173381391Y-109990040D01*
X173500000Y-110008826D01*
X173618609Y-109990040D01*
X173725607Y-109935522D01*
X173810522Y-109850607D01*
X173865040Y-109743609D01*
X173883826Y-109625000D01*
X173865040Y-109506391D01*
X173810522Y-109399393D01*
X173725607Y-109314478D01*
X173725606Y-109314477D01*
X173618610Y-109259960D01*
X173500000Y-109241174D01*
X173381389Y-109259960D01*
X173274393Y-109314477D01*
X173189477Y-109399393D01*
X173134960Y-109506389D01*
X173116174Y-109625000D01*
X161830599Y-109625000D01*
X161893483Y-109615040D01*
X162000481Y-109560522D01*
X162085396Y-109475607D01*
X162139914Y-109368609D01*
X162158700Y-109250000D01*
X162139914Y-109131391D01*
X162085396Y-109024393D01*
X162000481Y-108939478D01*
X162000480Y-108939477D01*
X161893484Y-108884960D01*
X161774874Y-108866174D01*
X161656263Y-108884960D01*
X161613657Y-108906670D01*
X161543880Y-108919774D01*
X161478095Y-108893074D01*
X161437189Y-108835046D01*
X161430454Y-108794403D01*
X161430454Y-108675000D01*
X164091048Y-108675000D01*
X164109834Y-108793610D01*
X164164351Y-108900606D01*
X164164352Y-108900607D01*
X164249267Y-108985522D01*
X164356265Y-109040040D01*
X164474874Y-109058826D01*
X164593483Y-109040040D01*
X164700481Y-108985522D01*
X164785396Y-108900607D01*
X164839914Y-108793609D01*
X164858700Y-108675000D01*
X164839914Y-108556391D01*
X164785396Y-108449393D01*
X164700481Y-108364478D01*
X164700480Y-108364477D01*
X164593484Y-108309960D01*
X164474874Y-108291174D01*
X164356263Y-108309960D01*
X164249267Y-108364477D01*
X164164351Y-108449393D01*
X164109834Y-108556389D01*
X164091048Y-108675000D01*
X161430454Y-108675000D01*
X161430454Y-107250000D01*
X166591048Y-107250000D01*
X166609834Y-107368610D01*
X166655737Y-107458700D01*
X166664352Y-107475607D01*
X166749267Y-107560522D01*
X166856265Y-107615040D01*
X166974874Y-107633826D01*
X167093483Y-107615040D01*
X167200481Y-107560522D01*
X167273342Y-107487661D01*
X167335654Y-107453635D01*
X167406469Y-107458700D01*
X167451532Y-107487661D01*
X167524393Y-107560522D01*
X167631391Y-107615040D01*
X167750000Y-107633826D01*
X167868609Y-107615040D01*
X167975607Y-107560522D01*
X168060522Y-107475607D01*
X168115040Y-107368609D01*
X168133826Y-107250000D01*
X171116174Y-107250000D01*
X171134960Y-107368610D01*
X171180863Y-107458700D01*
X171189478Y-107475607D01*
X171274393Y-107560522D01*
X171381391Y-107615040D01*
X171500000Y-107633826D01*
X171618609Y-107615040D01*
X171725607Y-107560522D01*
X171810522Y-107475607D01*
X171865040Y-107368609D01*
X171875551Y-107302240D01*
X171899855Y-107250974D01*
X171898964Y-107249024D01*
X172100144Y-107249024D01*
X172124448Y-107302239D01*
X172134960Y-107368609D01*
X172134961Y-107368610D01*
X172178282Y-107453635D01*
X172189478Y-107475607D01*
X172274393Y-107560522D01*
X172381391Y-107615040D01*
X172500000Y-107633826D01*
X172618609Y-107615040D01*
X172725607Y-107560522D01*
X172810522Y-107475607D01*
X172865040Y-107368609D01*
X172875551Y-107302240D01*
X172899855Y-107250974D01*
X172898964Y-107249024D01*
X173100144Y-107249024D01*
X173124448Y-107302239D01*
X173134960Y-107368609D01*
X173134961Y-107368610D01*
X173178282Y-107453635D01*
X173189478Y-107475607D01*
X173274393Y-107560522D01*
X173381391Y-107615040D01*
X173500000Y-107633826D01*
X173618609Y-107615040D01*
X173725607Y-107560522D01*
X173810522Y-107475607D01*
X173865040Y-107368609D01*
X173865040Y-107368607D01*
X173865041Y-107368606D01*
X173867603Y-107360721D01*
X173907674Y-107302114D01*
X173973070Y-107274475D01*
X174043027Y-107286579D01*
X174095335Y-107334584D01*
X174107271Y-107360721D01*
X174109832Y-107368606D01*
X174153156Y-107453635D01*
X174164352Y-107475607D01*
X174249267Y-107560522D01*
X174356265Y-107615040D01*
X174474874Y-107633826D01*
X174593483Y-107615040D01*
X174700481Y-107560522D01*
X174785396Y-107475607D01*
X174839914Y-107368609D01*
X174858700Y-107250000D01*
X174839914Y-107131391D01*
X174785396Y-107024393D01*
X174700481Y-106939478D01*
X174700480Y-106939477D01*
X174593484Y-106884960D01*
X174474874Y-106866174D01*
X174356263Y-106884960D01*
X174249267Y-106939477D01*
X174164351Y-107024393D01*
X174109835Y-107131389D01*
X174107271Y-107139281D01*
X174067198Y-107197887D01*
X174001802Y-107225525D01*
X173931845Y-107213419D01*
X173879538Y-107165414D01*
X173867603Y-107139281D01*
X173865041Y-107131399D01*
X173865040Y-107131391D01*
X173810522Y-107024393D01*
X173725607Y-106939478D01*
X173725606Y-106939477D01*
X173618610Y-106884960D01*
X173500000Y-106866174D01*
X173381389Y-106884960D01*
X173274393Y-106939477D01*
X173189477Y-107024393D01*
X173134960Y-107131389D01*
X173124449Y-107197757D01*
X173100144Y-107249024D01*
X172898964Y-107249024D01*
X172875551Y-107197757D01*
X172865040Y-107131391D01*
X172810522Y-107024393D01*
X172725607Y-106939478D01*
X172725606Y-106939477D01*
X172618610Y-106884960D01*
X172500000Y-106866174D01*
X172381389Y-106884960D01*
X172274393Y-106939477D01*
X172189477Y-107024393D01*
X172134960Y-107131389D01*
X172124449Y-107197757D01*
X172100144Y-107249024D01*
X171898964Y-107249024D01*
X171875551Y-107197757D01*
X171865040Y-107131391D01*
X171810522Y-107024393D01*
X171725607Y-106939478D01*
X171725606Y-106939477D01*
X171618610Y-106884960D01*
X171500000Y-106866174D01*
X171381389Y-106884960D01*
X171274393Y-106939477D01*
X171189477Y-107024393D01*
X171134960Y-107131389D01*
X171116174Y-107250000D01*
X168133826Y-107250000D01*
X168115040Y-107131391D01*
X168060522Y-107024393D01*
X167975607Y-106939478D01*
X167975606Y-106939477D01*
X167868610Y-106884960D01*
X167750000Y-106866174D01*
X167631389Y-106884960D01*
X167524393Y-106939477D01*
X167524391Y-106939479D01*
X167451532Y-107012339D01*
X167389220Y-107046365D01*
X167318405Y-107041300D01*
X167273342Y-107012339D01*
X167200480Y-106939477D01*
X167093484Y-106884960D01*
X166974874Y-106866174D01*
X166856263Y-106884960D01*
X166749267Y-106939477D01*
X166664351Y-107024393D01*
X166609834Y-107131389D01*
X166591048Y-107250000D01*
X161430454Y-107250000D01*
X161430454Y-106750000D01*
X177641048Y-106750000D01*
X177659834Y-106868610D01*
X177714351Y-106975606D01*
X177714352Y-106975607D01*
X177799267Y-107060522D01*
X177906265Y-107115040D01*
X178024874Y-107133826D01*
X178143483Y-107115040D01*
X178250481Y-107060522D01*
X178335396Y-106975607D01*
X178389914Y-106868609D01*
X178408700Y-106750000D01*
X178389914Y-106631391D01*
X178335396Y-106524393D01*
X178250481Y-106439478D01*
X178250480Y-106439477D01*
X178143484Y-106384960D01*
X178024874Y-106366174D01*
X177906263Y-106384960D01*
X177799267Y-106439477D01*
X177714351Y-106524393D01*
X177659834Y-106631389D01*
X177641048Y-106750000D01*
X161430454Y-106750000D01*
X161430454Y-103739739D01*
X161430370Y-103738503D01*
X161429025Y-103718692D01*
X161425589Y-103693521D01*
X161436193Y-103623325D01*
X161483067Y-103570002D01*
X161493218Y-103564222D01*
X161500481Y-103560522D01*
X161585396Y-103475607D01*
X161639914Y-103368609D01*
X161658700Y-103250000D01*
X161639914Y-103131391D01*
X161585396Y-103024393D01*
X161500481Y-102939478D01*
X161491573Y-102934939D01*
X161439959Y-102886192D01*
X161422893Y-102817277D01*
X161424060Y-102804741D01*
X161430453Y-102760272D01*
X161430454Y-102760267D01*
X161430454Y-100250000D01*
X163141048Y-100250000D01*
X163159834Y-100368610D01*
X163214350Y-100475604D01*
X163214352Y-100475607D01*
X163299267Y-100560522D01*
X163406265Y-100615040D01*
X163524874Y-100633826D01*
X163643483Y-100615040D01*
X163750481Y-100560522D01*
X163835396Y-100475607D01*
X163889914Y-100368609D01*
X163908700Y-100250000D01*
X163889914Y-100131391D01*
X163835396Y-100024393D01*
X163811003Y-100000000D01*
X164641048Y-100000000D01*
X164659834Y-100118610D01*
X164714351Y-100225606D01*
X164714352Y-100225607D01*
X164799267Y-100310522D01*
X164906265Y-100365040D01*
X165024874Y-100383826D01*
X165143483Y-100365040D01*
X165186092Y-100343329D01*
X165255866Y-100330225D01*
X165321651Y-100356924D01*
X165362558Y-100414951D01*
X165369294Y-100455596D01*
X165369294Y-101510584D01*
X165369298Y-101511727D01*
X165369310Y-101513382D01*
X165369311Y-101513503D01*
X165376249Y-101558310D01*
X165376250Y-101558313D01*
X165396887Y-101625058D01*
X165399245Y-101632086D01*
X165435537Y-101684093D01*
X165458118Y-101751403D01*
X165444476Y-101813401D01*
X165409835Y-101881387D01*
X165409834Y-101881389D01*
X165409834Y-101881391D01*
X165391048Y-102000000D01*
X165409834Y-102118609D01*
X165409834Y-102118610D01*
X165409835Y-102118612D01*
X165443401Y-102184490D01*
X165456505Y-102254267D01*
X165438723Y-102307271D01*
X165395282Y-102378539D01*
X165395281Y-102378541D01*
X165375596Y-102445580D01*
X165369294Y-102489417D01*
X165369294Y-106126003D01*
X165372851Y-106159080D01*
X165384055Y-106210581D01*
X165418501Y-106279395D01*
X165418501Y-106279396D01*
X165464233Y-106332172D01*
X165464256Y-106332198D01*
X165469236Y-106337677D01*
X165469238Y-106337678D01*
X165469241Y-106337681D01*
X165537996Y-106379590D01*
X165538000Y-106379592D01*
X165538002Y-106379593D01*
X165605041Y-106399278D01*
X165648874Y-106405580D01*
X165648877Y-106405580D01*
X166260602Y-106405580D01*
X166260715Y-106405579D01*
X166261727Y-106405576D01*
X166263498Y-106405563D01*
X166263504Y-106405562D01*
X166263505Y-106405562D01*
X166286369Y-106402022D01*
X166308316Y-106398624D01*
X166375067Y-106377984D01*
X166382085Y-106375629D01*
X166434095Y-106339334D01*
X166501401Y-106316755D01*
X166563399Y-106330396D01*
X166631391Y-106365040D01*
X166750000Y-106383826D01*
X166868609Y-106365040D01*
X166975607Y-106310522D01*
X167049862Y-106236266D01*
X167112170Y-106202244D01*
X167173299Y-106204135D01*
X167201055Y-106211999D01*
X167211147Y-106214859D01*
X167221128Y-106215001D01*
X167281010Y-106215857D01*
X167281013Y-106215856D01*
X167281016Y-106215857D01*
X167283971Y-106215829D01*
X167288414Y-106215787D01*
X167324424Y-106204839D01*
X167395417Y-106204163D01*
X167450167Y-106236296D01*
X167524393Y-106310522D01*
X167631391Y-106365040D01*
X167750000Y-106383826D01*
X167868609Y-106365040D01*
X167934490Y-106331471D01*
X168004266Y-106318368D01*
X168057272Y-106336150D01*
X168059776Y-106337676D01*
X168059777Y-106337677D01*
X168128543Y-106379593D01*
X168195582Y-106399278D01*
X168239415Y-106405580D01*
X168239418Y-106405580D01*
X175150871Y-106405580D01*
X175150874Y-106405580D01*
X175183946Y-106402024D01*
X175235457Y-106390818D01*
X175304268Y-106356373D01*
X175304269Y-106356372D01*
X175304270Y-106356372D01*
X175348128Y-106318368D01*
X175357072Y-106310618D01*
X175362551Y-106305638D01*
X175378548Y-106279395D01*
X175404464Y-106236877D01*
X175404466Y-106236873D01*
X175404467Y-106236872D01*
X175424152Y-106169833D01*
X175430454Y-106126000D01*
X175430454Y-104750000D01*
X177641048Y-104750000D01*
X177659834Y-104868610D01*
X177714351Y-104975606D01*
X177714352Y-104975607D01*
X177799267Y-105060522D01*
X177906265Y-105115040D01*
X178024874Y-105133826D01*
X178143483Y-105115040D01*
X178250481Y-105060522D01*
X178335396Y-104975607D01*
X178389914Y-104868609D01*
X178408700Y-104750000D01*
X178389914Y-104631391D01*
X178335396Y-104524393D01*
X178250481Y-104439478D01*
X178250480Y-104439477D01*
X178143484Y-104384960D01*
X178024874Y-104366174D01*
X177906263Y-104384960D01*
X177799267Y-104439477D01*
X177714351Y-104524393D01*
X177659834Y-104631389D01*
X177641048Y-104750000D01*
X175430454Y-104750000D01*
X175430454Y-103739415D01*
X175430450Y-103738273D01*
X175430437Y-103736502D01*
X175427680Y-103718698D01*
X175423499Y-103691690D01*
X175423498Y-103691689D01*
X175423498Y-103691684D01*
X175402858Y-103624933D01*
X175402633Y-103624262D01*
X175400504Y-103617917D01*
X175398496Y-103615040D01*
X175383614Y-103593712D01*
X175364209Y-103565904D01*
X175341630Y-103498593D01*
X175355271Y-103436598D01*
X175389914Y-103368609D01*
X175408700Y-103250000D01*
X175891048Y-103250000D01*
X175909834Y-103368610D01*
X175964351Y-103475606D01*
X175964352Y-103475607D01*
X176049267Y-103560522D01*
X176156265Y-103615040D01*
X176274874Y-103633826D01*
X176393483Y-103615040D01*
X176500481Y-103560522D01*
X176561003Y-103500000D01*
X178641048Y-103500000D01*
X178659834Y-103618610D01*
X178714351Y-103725606D01*
X178714352Y-103725607D01*
X178799267Y-103810522D01*
X178906265Y-103865040D01*
X179024874Y-103883826D01*
X179143483Y-103865040D01*
X179250481Y-103810522D01*
X179335396Y-103725607D01*
X179389914Y-103618609D01*
X179408700Y-103500000D01*
X179389914Y-103381391D01*
X179335396Y-103274393D01*
X179250481Y-103189478D01*
X179250480Y-103189477D01*
X179143484Y-103134960D01*
X179024874Y-103116174D01*
X178906263Y-103134960D01*
X178799267Y-103189477D01*
X178714351Y-103274393D01*
X178659834Y-103381389D01*
X178641048Y-103500000D01*
X176561003Y-103500000D01*
X176585396Y-103475607D01*
X176639914Y-103368609D01*
X176658700Y-103250000D01*
X176639914Y-103131391D01*
X176585396Y-103024393D01*
X176500481Y-102939478D01*
X176500480Y-102939477D01*
X176393484Y-102884960D01*
X176274874Y-102866174D01*
X176156263Y-102884960D01*
X176049267Y-102939477D01*
X175964351Y-103024393D01*
X175909834Y-103131389D01*
X175891048Y-103250000D01*
X175408700Y-103250000D01*
X175389914Y-103131391D01*
X175356344Y-103065507D01*
X175343241Y-102995732D01*
X175361024Y-102942725D01*
X175362548Y-102940224D01*
X175362551Y-102940222D01*
X175404467Y-102871456D01*
X175424152Y-102804417D01*
X175430454Y-102760584D01*
X175430454Y-101541145D01*
X175429025Y-101520105D01*
X175426313Y-101500235D01*
X175426348Y-101500000D01*
X176641048Y-101500000D01*
X176659834Y-101618610D01*
X176700351Y-101698129D01*
X176714352Y-101725607D01*
X176799267Y-101810522D01*
X176906265Y-101865040D01*
X177024874Y-101883826D01*
X177143483Y-101865040D01*
X177250481Y-101810522D01*
X177335396Y-101725607D01*
X177389914Y-101618609D01*
X177408700Y-101500000D01*
X177389914Y-101381391D01*
X177335396Y-101274393D01*
X177250481Y-101189478D01*
X177250480Y-101189477D01*
X177143484Y-101134960D01*
X177024874Y-101116174D01*
X176906263Y-101134960D01*
X176799267Y-101189477D01*
X176714351Y-101274393D01*
X176659834Y-101381389D01*
X176641048Y-101500000D01*
X175426348Y-101500000D01*
X175436917Y-101430036D01*
X175483791Y-101376713D01*
X175493948Y-101370928D01*
X175530839Y-101352132D01*
X175627132Y-101255839D01*
X175688956Y-101134502D01*
X175710259Y-101000000D01*
X175688956Y-100865498D01*
X175627132Y-100744161D01*
X175548644Y-100665673D01*
X175514619Y-100603361D01*
X175519685Y-100532545D01*
X175548643Y-100487485D01*
X175560522Y-100475607D01*
X175615040Y-100368609D01*
X175633826Y-100250000D01*
X175615040Y-100131391D01*
X175560522Y-100024393D01*
X175548645Y-100012516D01*
X175514619Y-99950204D01*
X175519684Y-99879389D01*
X175548645Y-99834326D01*
X175572449Y-99810522D01*
X175627132Y-99755839D01*
X175688956Y-99634502D01*
X175710259Y-99500000D01*
X175688956Y-99365498D01*
X175627132Y-99244161D01*
X175548644Y-99165673D01*
X175514619Y-99103361D01*
X175519685Y-99032545D01*
X175548643Y-98987485D01*
X175560522Y-98975607D01*
X175615040Y-98868609D01*
X175627491Y-98790000D01*
X182155157Y-98790000D01*
X182175960Y-98974629D01*
X182221005Y-99103361D01*
X182237325Y-99150001D01*
X182237326Y-99150003D01*
X182336174Y-99307319D01*
X182336176Y-99307322D01*
X182467551Y-99438697D01*
X182467554Y-99438699D01*
X182624873Y-99537549D01*
X182800245Y-99598914D01*
X182984874Y-99619717D01*
X183169503Y-99598914D01*
X183344875Y-99537549D01*
X183502194Y-99438699D01*
X183633573Y-99307320D01*
X183732423Y-99150001D01*
X183793788Y-98974629D01*
X183814591Y-98790000D01*
X183793788Y-98605371D01*
X183732423Y-98429999D01*
X183732422Y-98429998D01*
X183731397Y-98427067D01*
X183727778Y-98356163D01*
X183763067Y-98294558D01*
X183826060Y-98261811D01*
X183891941Y-98266523D01*
X183894872Y-98267548D01*
X183894873Y-98267549D01*
X184070245Y-98328914D01*
X184254874Y-98349717D01*
X184439503Y-98328914D01*
X184614875Y-98267549D01*
X184614876Y-98267548D01*
X184617806Y-98266523D01*
X184688710Y-98262903D01*
X184750315Y-98298193D01*
X184783062Y-98361186D01*
X184778351Y-98427066D01*
X184715960Y-98605370D01*
X184713028Y-98631389D01*
X184695157Y-98790000D01*
X184715960Y-98974629D01*
X184761005Y-99103361D01*
X184777325Y-99150001D01*
X184777326Y-99150003D01*
X184876174Y-99307319D01*
X184876176Y-99307322D01*
X185007551Y-99438697D01*
X185007554Y-99438699D01*
X185164873Y-99537549D01*
X185340245Y-99598914D01*
X185524874Y-99619717D01*
X185709503Y-99598914D01*
X185884875Y-99537549D01*
X186042194Y-99438699D01*
X186173573Y-99307320D01*
X186272423Y-99150001D01*
X186333788Y-98974629D01*
X186354591Y-98790000D01*
X186333788Y-98605371D01*
X186272423Y-98429999D01*
X186173573Y-98272680D01*
X186173571Y-98272677D01*
X186042196Y-98141302D01*
X186042193Y-98141300D01*
X185884877Y-98042452D01*
X185884875Y-98042451D01*
X185763556Y-98000000D01*
X185709503Y-97981086D01*
X185524874Y-97960283D01*
X185340244Y-97981086D01*
X185161940Y-98043477D01*
X185091036Y-98047095D01*
X185029431Y-98011806D01*
X184996685Y-97948812D01*
X185001397Y-97882932D01*
X185007261Y-97866174D01*
X185063788Y-97704629D01*
X185084591Y-97520000D01*
X185063788Y-97335371D01*
X185002423Y-97159999D01*
X185002422Y-97159998D01*
X185001397Y-97157067D01*
X184997778Y-97086163D01*
X185033067Y-97024558D01*
X185096060Y-96991811D01*
X185161941Y-96996523D01*
X185164872Y-96997548D01*
X185164873Y-96997549D01*
X185340245Y-97058914D01*
X185524874Y-97079717D01*
X185709503Y-97058914D01*
X185884875Y-96997549D01*
X186042194Y-96898699D01*
X186173573Y-96767320D01*
X186272423Y-96610001D01*
X186333788Y-96434629D01*
X186354591Y-96250000D01*
X186333788Y-96065371D01*
X186272423Y-95889999D01*
X186173573Y-95732680D01*
X186173571Y-95732677D01*
X186042196Y-95601302D01*
X186042193Y-95601300D01*
X185884877Y-95502452D01*
X185884875Y-95502451D01*
X185709503Y-95441086D01*
X185524874Y-95420283D01*
X185340245Y-95441086D01*
X185340242Y-95441086D01*
X185340242Y-95441087D01*
X185164872Y-95502451D01*
X185164870Y-95502452D01*
X185007554Y-95601300D01*
X185007551Y-95601302D01*
X184876176Y-95732677D01*
X184876174Y-95732680D01*
X184777326Y-95889996D01*
X184777325Y-95889998D01*
X184747125Y-95976306D01*
X184715960Y-96065371D01*
X184695157Y-96250000D01*
X184715960Y-96434629D01*
X184768749Y-96585492D01*
X184778351Y-96612932D01*
X184781969Y-96683837D01*
X184746680Y-96745442D01*
X184683687Y-96778188D01*
X184617806Y-96773477D01*
X184614876Y-96772451D01*
X184614875Y-96772451D01*
X184439503Y-96711086D01*
X184254874Y-96690283D01*
X184070244Y-96711086D01*
X183891940Y-96773477D01*
X183821036Y-96777095D01*
X183759431Y-96741806D01*
X183726685Y-96678812D01*
X183731397Y-96612932D01*
X183735872Y-96600144D01*
X183793788Y-96434629D01*
X183814591Y-96250000D01*
X183793788Y-96065371D01*
X183732423Y-95889999D01*
X183633573Y-95732680D01*
X183633571Y-95732677D01*
X183502196Y-95601302D01*
X183502193Y-95601300D01*
X183344877Y-95502452D01*
X183344875Y-95502451D01*
X183169503Y-95441086D01*
X182984874Y-95420283D01*
X182800245Y-95441086D01*
X182800242Y-95441086D01*
X182800242Y-95441087D01*
X182624872Y-95502451D01*
X182624870Y-95502452D01*
X182467554Y-95601300D01*
X182467551Y-95601302D01*
X182336176Y-95732677D01*
X182336174Y-95732680D01*
X182237326Y-95889996D01*
X182237325Y-95889998D01*
X182207125Y-95976306D01*
X182175960Y-96065371D01*
X182155157Y-96250000D01*
X182175960Y-96434629D01*
X182181318Y-96449940D01*
X182237325Y-96610001D01*
X182237326Y-96610003D01*
X182336174Y-96767319D01*
X182336176Y-96767322D01*
X182467551Y-96898697D01*
X182467554Y-96898699D01*
X182624873Y-96997549D01*
X182800245Y-97058914D01*
X182984874Y-97079717D01*
X183169503Y-97058914D01*
X183344875Y-96997549D01*
X183344876Y-96997548D01*
X183347806Y-96996523D01*
X183418710Y-96992903D01*
X183480315Y-97028193D01*
X183513062Y-97091186D01*
X183508351Y-97157066D01*
X183507325Y-97159999D01*
X183445960Y-97335371D01*
X183425157Y-97520000D01*
X183445960Y-97704629D01*
X183502487Y-97866174D01*
X183508351Y-97882932D01*
X183511969Y-97953837D01*
X183476680Y-98015442D01*
X183413687Y-98048188D01*
X183347806Y-98043477D01*
X183344876Y-98042451D01*
X183344875Y-98042451D01*
X183169503Y-97981086D01*
X182984874Y-97960283D01*
X182800245Y-97981086D01*
X182800242Y-97981086D01*
X182800242Y-97981087D01*
X182624872Y-98042451D01*
X182624870Y-98042452D01*
X182467554Y-98141300D01*
X182467551Y-98141302D01*
X182336176Y-98272677D01*
X182336174Y-98272680D01*
X182237326Y-98429996D01*
X182237325Y-98429998D01*
X182221366Y-98475607D01*
X182175960Y-98605371D01*
X182155157Y-98790000D01*
X175627491Y-98790000D01*
X175633826Y-98750000D01*
X175615040Y-98631391D01*
X175560522Y-98524393D01*
X175548645Y-98512516D01*
X175514619Y-98450204D01*
X175519684Y-98379389D01*
X175548645Y-98334326D01*
X175584778Y-98298193D01*
X175627132Y-98255839D01*
X175630107Y-98250000D01*
X177891048Y-98250000D01*
X177909834Y-98368610D01*
X177964351Y-98475606D01*
X177964352Y-98475607D01*
X178049267Y-98560522D01*
X178156265Y-98615040D01*
X178274874Y-98633826D01*
X178393483Y-98615040D01*
X178500481Y-98560522D01*
X178585396Y-98475607D01*
X178639914Y-98368609D01*
X178658700Y-98250000D01*
X179391048Y-98250000D01*
X179409834Y-98368610D01*
X179464351Y-98475606D01*
X179464352Y-98475607D01*
X179549267Y-98560522D01*
X179656265Y-98615040D01*
X179774874Y-98633826D01*
X179893483Y-98615040D01*
X180000481Y-98560522D01*
X180085396Y-98475607D01*
X180139914Y-98368609D01*
X180158700Y-98250000D01*
X180139914Y-98131391D01*
X180085396Y-98024393D01*
X180000481Y-97939478D01*
X180000480Y-97939477D01*
X179893484Y-97884960D01*
X179774874Y-97866174D01*
X179656263Y-97884960D01*
X179549267Y-97939477D01*
X179464351Y-98024393D01*
X179409834Y-98131389D01*
X179391048Y-98250000D01*
X178658700Y-98250000D01*
X178639914Y-98131391D01*
X178585396Y-98024393D01*
X178500481Y-97939478D01*
X178500480Y-97939477D01*
X178393484Y-97884960D01*
X178274874Y-97866174D01*
X178156263Y-97884960D01*
X178049267Y-97939477D01*
X177964351Y-98024393D01*
X177909834Y-98131389D01*
X177891048Y-98250000D01*
X175630107Y-98250000D01*
X175688956Y-98134502D01*
X175710259Y-98000000D01*
X175688956Y-97865498D01*
X175627132Y-97744161D01*
X175530839Y-97647868D01*
X175530838Y-97647867D01*
X175530835Y-97647865D01*
X175492332Y-97628247D01*
X175440717Y-97579499D01*
X175423652Y-97510584D01*
X175424819Y-97498049D01*
X175430453Y-97458859D01*
X175430454Y-97458854D01*
X175430454Y-96750000D01*
X177116174Y-96750000D01*
X177134960Y-96868610D01*
X177189477Y-96975606D01*
X177189478Y-96975607D01*
X177274393Y-97060522D01*
X177381391Y-97115040D01*
X177500000Y-97133826D01*
X177618609Y-97115040D01*
X177725607Y-97060522D01*
X177810522Y-96975607D01*
X177865040Y-96868609D01*
X177875551Y-96802240D01*
X177899855Y-96750974D01*
X177898964Y-96749024D01*
X178100144Y-96749024D01*
X178124448Y-96802239D01*
X178134960Y-96868609D01*
X178189478Y-96975607D01*
X178274393Y-97060522D01*
X178381391Y-97115040D01*
X178500000Y-97133826D01*
X178618609Y-97115040D01*
X178725607Y-97060522D01*
X178810522Y-96975607D01*
X178865040Y-96868609D01*
X178883826Y-96750000D01*
X179391048Y-96750000D01*
X179409834Y-96868610D01*
X179464351Y-96975606D01*
X179464352Y-96975607D01*
X179549267Y-97060522D01*
X179656265Y-97115040D01*
X179774874Y-97133826D01*
X179893483Y-97115040D01*
X180000481Y-97060522D01*
X180085396Y-96975607D01*
X180139914Y-96868609D01*
X180158700Y-96750000D01*
X180139914Y-96631391D01*
X180085396Y-96524393D01*
X180000481Y-96439478D01*
X180000480Y-96439477D01*
X179893484Y-96384960D01*
X179774874Y-96366174D01*
X179656263Y-96384960D01*
X179549267Y-96439477D01*
X179464351Y-96524393D01*
X179409834Y-96631389D01*
X179391048Y-96750000D01*
X178883826Y-96750000D01*
X178865040Y-96631391D01*
X178810522Y-96524393D01*
X178725607Y-96439478D01*
X178725606Y-96439477D01*
X178618610Y-96384960D01*
X178500000Y-96366174D01*
X178381389Y-96384960D01*
X178274393Y-96439477D01*
X178189477Y-96524393D01*
X178134960Y-96631389D01*
X178130574Y-96659080D01*
X178125633Y-96690283D01*
X178124449Y-96697757D01*
X178100144Y-96749024D01*
X177898964Y-96749024D01*
X177875551Y-96697757D01*
X177865040Y-96631391D01*
X177810522Y-96524393D01*
X177725607Y-96439478D01*
X177725606Y-96439477D01*
X177618610Y-96384960D01*
X177500000Y-96366174D01*
X177381389Y-96384960D01*
X177274393Y-96439477D01*
X177189477Y-96524393D01*
X177134960Y-96631389D01*
X177116174Y-96750000D01*
X175430454Y-96750000D01*
X175430454Y-96000000D01*
X175891048Y-96000000D01*
X175909834Y-96118610D01*
X175964351Y-96225606D01*
X175964352Y-96225607D01*
X176049267Y-96310522D01*
X176156265Y-96365040D01*
X176274874Y-96383826D01*
X176393483Y-96365040D01*
X176500481Y-96310522D01*
X176585396Y-96225607D01*
X176639914Y-96118609D01*
X176658700Y-96000000D01*
X176639914Y-95881391D01*
X176585396Y-95774393D01*
X176500481Y-95689478D01*
X176500480Y-95689477D01*
X176393484Y-95634960D01*
X176274874Y-95616174D01*
X176156263Y-95634960D01*
X176049267Y-95689477D01*
X175964351Y-95774393D01*
X175909834Y-95881389D01*
X175891048Y-96000000D01*
X175430454Y-96000000D01*
X175430454Y-95124003D01*
X175430454Y-95124000D01*
X175426898Y-95090928D01*
X175415692Y-95039417D01*
X175381247Y-94970606D01*
X175381246Y-94970604D01*
X175381246Y-94970603D01*
X175335514Y-94917827D01*
X175335506Y-94917819D01*
X175335492Y-94917802D01*
X175330512Y-94912323D01*
X175330509Y-94912321D01*
X175330506Y-94912318D01*
X175261751Y-94870409D01*
X175261747Y-94870407D01*
X175194708Y-94850722D01*
X175175607Y-94847976D01*
X175150874Y-94844420D01*
X175014289Y-94844420D01*
X175014272Y-94844420D01*
X175013278Y-94844423D01*
X175011368Y-94844437D01*
X174966564Y-94851374D01*
X174899786Y-94872022D01*
X174892791Y-94874369D01*
X174840778Y-94910665D01*
X174773467Y-94933244D01*
X174711472Y-94919602D01*
X174677348Y-94902215D01*
X174643484Y-94884960D01*
X174620949Y-94881391D01*
X174577114Y-94874448D01*
X174525848Y-94850144D01*
X174472632Y-94874448D01*
X174406265Y-94884960D01*
X174406263Y-94884960D01*
X174406262Y-94884961D01*
X174340382Y-94918528D01*
X174270605Y-94931631D01*
X174217602Y-94913849D01*
X174146334Y-94870408D01*
X174146332Y-94870407D01*
X174079293Y-94850722D01*
X174060192Y-94847976D01*
X174035459Y-94844420D01*
X173514289Y-94844420D01*
X173514272Y-94844420D01*
X173513278Y-94844423D01*
X173511368Y-94844437D01*
X173466564Y-94851374D01*
X173399786Y-94872022D01*
X173392791Y-94874369D01*
X173340778Y-94910665D01*
X173273467Y-94933244D01*
X173211472Y-94919602D01*
X173177348Y-94902215D01*
X173143484Y-94884960D01*
X173024874Y-94866174D01*
X172906265Y-94884960D01*
X172906263Y-94884960D01*
X172906262Y-94884961D01*
X172840382Y-94918528D01*
X172770605Y-94931631D01*
X172717602Y-94913849D01*
X172646334Y-94870408D01*
X172646329Y-94870406D01*
X172625242Y-94864214D01*
X172599920Y-94847939D01*
X172578295Y-94850578D01*
X172535459Y-94844420D01*
X172218127Y-94844420D01*
X172150006Y-94824418D01*
X172103513Y-94770762D01*
X172100528Y-94750000D01*
X176641048Y-94750000D01*
X176659834Y-94868610D01*
X176712611Y-94972191D01*
X176714352Y-94975607D01*
X176799267Y-95060522D01*
X176906265Y-95115040D01*
X177024874Y-95133826D01*
X177143483Y-95115040D01*
X177250481Y-95060522D01*
X177335396Y-94975607D01*
X177389914Y-94868609D01*
X177408700Y-94750000D01*
X177389914Y-94631391D01*
X177380845Y-94613593D01*
X177335396Y-94524393D01*
X177250480Y-94439477D01*
X177143484Y-94384960D01*
X177024874Y-94366174D01*
X176906263Y-94384960D01*
X176799267Y-94439477D01*
X176714351Y-94524393D01*
X176659834Y-94631389D01*
X176641048Y-94750000D01*
X172100528Y-94750000D01*
X172093409Y-94700488D01*
X172122903Y-94635908D01*
X172160922Y-94606154D01*
X172250481Y-94560522D01*
X172310779Y-94500224D01*
X172373091Y-94466198D01*
X172443906Y-94471263D01*
X172488969Y-94500224D01*
X172549267Y-94560522D01*
X172653427Y-94613594D01*
X172658172Y-94618075D01*
X172660750Y-94617319D01*
X172680448Y-94618870D01*
X172735800Y-94627637D01*
X172774871Y-94633826D01*
X172774872Y-94633826D01*
X172774872Y-94633825D01*
X172774874Y-94633826D01*
X172893483Y-94615040D01*
X173000481Y-94560522D01*
X173085396Y-94475607D01*
X173139914Y-94368609D01*
X173158700Y-94250000D01*
X174141048Y-94250000D01*
X174159834Y-94368610D01*
X174214351Y-94475606D01*
X174214352Y-94475607D01*
X174299267Y-94560522D01*
X174406265Y-94615040D01*
X174472632Y-94625551D01*
X174523898Y-94649855D01*
X174577113Y-94625551D01*
X174643483Y-94615040D01*
X174750481Y-94560522D01*
X174835396Y-94475607D01*
X174889914Y-94368609D01*
X174900425Y-94302240D01*
X174924729Y-94250974D01*
X174923838Y-94249024D01*
X175125018Y-94249024D01*
X175149322Y-94302239D01*
X175159834Y-94368609D01*
X175168166Y-94384961D01*
X175212138Y-94471263D01*
X175214352Y-94475607D01*
X175299267Y-94560522D01*
X175406265Y-94615040D01*
X175524874Y-94633826D01*
X175643483Y-94615040D01*
X175750481Y-94560522D01*
X175835396Y-94475607D01*
X175889914Y-94368609D01*
X175908700Y-94250000D01*
X175889914Y-94131391D01*
X175853118Y-94059176D01*
X175840015Y-93989400D01*
X175866715Y-93923615D01*
X175924743Y-93882709D01*
X175985098Y-93877526D01*
X176000423Y-93879953D01*
X176024872Y-93883826D01*
X176024872Y-93883825D01*
X176024874Y-93883826D01*
X176143483Y-93865040D01*
X176250481Y-93810522D01*
X176311003Y-93750000D01*
X177141048Y-93750000D01*
X177159834Y-93868610D01*
X177214351Y-93975606D01*
X177214352Y-93975607D01*
X177299267Y-94060522D01*
X177406265Y-94115040D01*
X177524874Y-94133826D01*
X177643483Y-94115040D01*
X177750481Y-94060522D01*
X177835396Y-93975607D01*
X177889914Y-93868609D01*
X177908700Y-93750000D01*
X177889914Y-93631391D01*
X177835396Y-93524393D01*
X177750481Y-93439478D01*
X177750480Y-93439477D01*
X177696982Y-93412219D01*
X177643483Y-93384960D01*
X177577114Y-93374448D01*
X177525848Y-93350144D01*
X177472632Y-93374448D01*
X177433954Y-93380574D01*
X177406263Y-93384960D01*
X177299267Y-93439477D01*
X177214351Y-93524393D01*
X177159834Y-93631389D01*
X177141048Y-93750000D01*
X176311003Y-93750000D01*
X176335396Y-93725607D01*
X176389914Y-93618609D01*
X176408700Y-93500000D01*
X176389914Y-93381391D01*
X176335396Y-93274393D01*
X176275098Y-93214095D01*
X176241072Y-93151783D01*
X176246137Y-93080968D01*
X176275098Y-93035905D01*
X176335396Y-92975607D01*
X176389914Y-92868609D01*
X176408700Y-92750000D01*
X177141048Y-92750000D01*
X177159834Y-92868610D01*
X177214351Y-92975606D01*
X177214352Y-92975607D01*
X177299267Y-93060522D01*
X177406265Y-93115040D01*
X177472632Y-93125551D01*
X177523898Y-93149855D01*
X177577113Y-93125551D01*
X177643483Y-93115040D01*
X177750481Y-93060522D01*
X177835396Y-92975607D01*
X177889914Y-92868609D01*
X177908700Y-92750000D01*
X177889914Y-92631391D01*
X177835396Y-92524393D01*
X177750481Y-92439478D01*
X177750480Y-92439477D01*
X177643484Y-92384960D01*
X177524874Y-92366174D01*
X177406263Y-92384960D01*
X177299267Y-92439477D01*
X177214351Y-92524393D01*
X177159834Y-92631389D01*
X177141048Y-92750000D01*
X176408700Y-92750000D01*
X176389914Y-92631391D01*
X176335396Y-92524393D01*
X176250481Y-92439478D01*
X176250480Y-92439477D01*
X176143484Y-92384960D01*
X176024874Y-92366174D01*
X175906263Y-92384960D01*
X175799267Y-92439477D01*
X175714351Y-92524393D01*
X175659834Y-92631389D01*
X175641048Y-92750000D01*
X175659834Y-92868610D01*
X175714351Y-92975606D01*
X175774650Y-93035905D01*
X175808676Y-93098217D01*
X175803611Y-93169032D01*
X175774650Y-93214095D01*
X175714353Y-93274391D01*
X175714351Y-93274393D01*
X175659834Y-93381389D01*
X175650634Y-93439477D01*
X175641048Y-93500000D01*
X175659834Y-93618609D01*
X175659834Y-93618610D01*
X175659835Y-93618612D01*
X175696628Y-93690823D01*
X175709732Y-93760600D01*
X175683031Y-93826384D01*
X175625004Y-93867290D01*
X175564651Y-93872474D01*
X175524874Y-93866174D01*
X175406263Y-93884960D01*
X175299267Y-93939477D01*
X175214351Y-94024393D01*
X175159834Y-94131389D01*
X175149323Y-94197757D01*
X175125018Y-94249024D01*
X174923838Y-94249024D01*
X174900425Y-94197757D01*
X174889914Y-94131391D01*
X174835396Y-94024393D01*
X174750481Y-93939478D01*
X174750480Y-93939477D01*
X174643484Y-93884960D01*
X174524874Y-93866174D01*
X174406263Y-93884960D01*
X174299267Y-93939477D01*
X174214351Y-94024393D01*
X174159834Y-94131389D01*
X174141048Y-94250000D01*
X173158700Y-94250000D01*
X173139914Y-94131391D01*
X173085396Y-94024393D01*
X173000481Y-93939478D01*
X173000480Y-93939477D01*
X172893484Y-93884960D01*
X172774874Y-93866174D01*
X172656263Y-93884960D01*
X172549267Y-93939477D01*
X172549265Y-93939479D01*
X172488969Y-93999776D01*
X172426657Y-94033802D01*
X172355842Y-94028737D01*
X172310779Y-93999776D01*
X172250480Y-93939477D01*
X172143484Y-93884960D01*
X172064650Y-93872474D01*
X172024874Y-93866174D01*
X172024873Y-93866174D01*
X171985096Y-93872474D01*
X171914685Y-93863374D01*
X171860371Y-93817652D01*
X171839399Y-93749824D01*
X171853119Y-93690823D01*
X171889914Y-93618609D01*
X171908700Y-93500000D01*
X171889914Y-93381391D01*
X171835396Y-93274393D01*
X171775098Y-93214095D01*
X171741072Y-93151783D01*
X171746137Y-93080968D01*
X171775098Y-93035905D01*
X171835396Y-92975607D01*
X171889914Y-92868609D01*
X171908700Y-92750000D01*
X171889914Y-92631391D01*
X171835396Y-92524393D01*
X171750481Y-92439478D01*
X171750480Y-92439477D01*
X171643484Y-92384960D01*
X171524874Y-92366174D01*
X171406263Y-92384960D01*
X171299267Y-92439477D01*
X171214351Y-92524393D01*
X171159834Y-92631389D01*
X171141048Y-92750000D01*
X171159834Y-92868610D01*
X171214351Y-92975606D01*
X171274650Y-93035905D01*
X171308676Y-93098217D01*
X171303611Y-93169032D01*
X171274650Y-93214095D01*
X171214353Y-93274391D01*
X171214351Y-93274393D01*
X171159834Y-93381389D01*
X171141048Y-93500000D01*
X171159834Y-93618610D01*
X171214351Y-93725606D01*
X171214352Y-93725607D01*
X171299267Y-93810522D01*
X171406265Y-93865040D01*
X171524874Y-93883826D01*
X171524874Y-93883825D01*
X171524875Y-93883826D01*
X171537099Y-93881889D01*
X171564649Y-93877526D01*
X171635059Y-93886624D01*
X171689374Y-93932345D01*
X171710348Y-94000173D01*
X171696628Y-94059176D01*
X171659835Y-94131387D01*
X171659834Y-94131389D01*
X171659834Y-94131391D01*
X171659269Y-94134960D01*
X171641048Y-94250000D01*
X171659834Y-94368610D01*
X171714351Y-94475606D01*
X171714352Y-94475607D01*
X171799267Y-94560522D01*
X171888824Y-94606153D01*
X171940439Y-94654901D01*
X171957505Y-94723816D01*
X171934604Y-94791018D01*
X171879007Y-94835170D01*
X171831621Y-94844420D01*
X171031269Y-94844420D01*
X170963148Y-94824418D01*
X170916655Y-94770762D01*
X170906820Y-94738132D01*
X170889914Y-94631391D01*
X170835396Y-94524393D01*
X170750481Y-94439478D01*
X170750480Y-94439477D01*
X170643484Y-94384960D01*
X170524874Y-94366174D01*
X170406263Y-94384960D01*
X170299267Y-94439477D01*
X170214351Y-94524393D01*
X170159835Y-94631388D01*
X170159834Y-94631389D01*
X170159834Y-94631391D01*
X170142928Y-94738132D01*
X170112515Y-94802284D01*
X170052247Y-94839811D01*
X170018479Y-94844420D01*
X168980471Y-94844420D01*
X168912350Y-94824418D01*
X168865857Y-94770762D01*
X168855753Y-94700488D01*
X168868204Y-94661217D01*
X168873993Y-94649855D01*
X168889914Y-94618609D01*
X168908700Y-94500000D01*
X168889914Y-94381391D01*
X168883118Y-94368054D01*
X168835396Y-94274393D01*
X168750480Y-94189477D01*
X168643484Y-94134960D01*
X168524874Y-94116174D01*
X168406263Y-94134960D01*
X168299267Y-94189477D01*
X168214351Y-94274393D01*
X168159834Y-94381389D01*
X168141048Y-94500000D01*
X168159834Y-94618610D01*
X168181544Y-94661217D01*
X168194648Y-94730994D01*
X168167948Y-94796779D01*
X168109920Y-94837685D01*
X168069277Y-94844420D01*
X166699370Y-94844420D01*
X166666293Y-94847977D01*
X166614792Y-94859181D01*
X166545978Y-94893627D01*
X166545977Y-94893627D01*
X166493201Y-94939359D01*
X166487698Y-94944361D01*
X166487692Y-94944367D01*
X166445783Y-95013122D01*
X166445781Y-95013126D01*
X166426096Y-95080165D01*
X166426096Y-95080167D01*
X166420532Y-95118871D01*
X166419794Y-95124002D01*
X166419794Y-95474947D01*
X166419795Y-95474967D01*
X166424091Y-95511264D01*
X166424092Y-95511270D01*
X166437608Y-95567567D01*
X166450264Y-95601874D01*
X166450268Y-95601884D01*
X166481043Y-95662283D01*
X166493224Y-95699773D01*
X166498057Y-95730285D01*
X166498057Y-95769710D01*
X166493224Y-95800221D01*
X166481044Y-95837708D01*
X166467017Y-95865239D01*
X166443842Y-95897136D01*
X166422003Y-95918974D01*
X166390112Y-95942144D01*
X166362584Y-95956170D01*
X166325094Y-95968352D01*
X166294588Y-95973184D01*
X166255166Y-95973184D01*
X166224651Y-95968351D01*
X166187159Y-95956169D01*
X166159633Y-95942144D01*
X166127740Y-95918972D01*
X166105902Y-95897134D01*
X166082730Y-95865241D01*
X166068703Y-95837711D01*
X166056522Y-95800222D01*
X166051689Y-95769711D01*
X166051688Y-95730293D01*
X166056520Y-95699775D01*
X166068700Y-95662287D01*
X166099481Y-95601880D01*
X166112140Y-95567567D01*
X166125655Y-95511273D01*
X166129954Y-95474954D01*
X166129954Y-95124000D01*
X166126398Y-95090928D01*
X166115192Y-95039417D01*
X166080747Y-94970606D01*
X166080746Y-94970604D01*
X166080746Y-94970603D01*
X166035014Y-94917827D01*
X166035006Y-94917819D01*
X166034992Y-94917802D01*
X166030012Y-94912323D01*
X166030009Y-94912321D01*
X166030006Y-94912318D01*
X165961251Y-94870409D01*
X165961247Y-94870407D01*
X165894208Y-94850722D01*
X165875107Y-94847976D01*
X165850374Y-94844420D01*
X165648874Y-94844420D01*
X165648870Y-94844420D01*
X165615793Y-94847977D01*
X165564292Y-94859181D01*
X165495478Y-94893627D01*
X165495477Y-94893627D01*
X165442701Y-94939359D01*
X165437198Y-94944361D01*
X165437192Y-94944367D01*
X165395283Y-95013122D01*
X165395281Y-95013126D01*
X165375596Y-95080165D01*
X165375596Y-95080167D01*
X165370032Y-95118871D01*
X165369294Y-95124002D01*
X165369294Y-99544403D01*
X165349292Y-99612524D01*
X165295636Y-99659017D01*
X165225362Y-99669121D01*
X165186091Y-99656670D01*
X165182831Y-99655009D01*
X165173205Y-99650104D01*
X165143484Y-99634960D01*
X165024874Y-99616174D01*
X164906263Y-99634960D01*
X164799267Y-99689477D01*
X164714351Y-99774393D01*
X164659834Y-99881389D01*
X164641048Y-100000000D01*
X163811003Y-100000000D01*
X163750481Y-99939478D01*
X163750480Y-99939477D01*
X163643484Y-99884960D01*
X163524874Y-99866174D01*
X163406263Y-99884960D01*
X163299267Y-99939477D01*
X163214351Y-100024393D01*
X163159834Y-100131389D01*
X163141048Y-100250000D01*
X161430454Y-100250000D01*
X161430454Y-96585490D01*
X161430355Y-96579955D01*
X161430355Y-96579938D01*
X161430039Y-96571092D01*
X161420328Y-96522276D01*
X161395911Y-96456812D01*
X161393160Y-96449940D01*
X161384932Y-96439477D01*
X161343380Y-96386637D01*
X161343374Y-96386631D01*
X161296830Y-96351789D01*
X161254283Y-96294953D01*
X161249219Y-96224138D01*
X161283244Y-96161825D01*
X161302969Y-96145737D01*
X161304258Y-96144885D01*
X161304268Y-96144881D01*
X161357072Y-96099126D01*
X161362551Y-96094146D01*
X161380093Y-96065368D01*
X161404464Y-96025385D01*
X161404466Y-96025381D01*
X161404467Y-96025380D01*
X161424152Y-95958341D01*
X161430454Y-95914508D01*
X161430454Y-95750000D01*
X163891048Y-95750000D01*
X163909834Y-95868610D01*
X163960655Y-95968352D01*
X163964352Y-95975607D01*
X164049267Y-96060522D01*
X164156265Y-96115040D01*
X164274874Y-96133826D01*
X164393483Y-96115040D01*
X164500481Y-96060522D01*
X164585396Y-95975607D01*
X164639914Y-95868609D01*
X164658700Y-95750000D01*
X164639914Y-95631391D01*
X164624879Y-95601884D01*
X164585396Y-95524393D01*
X164500480Y-95439477D01*
X164393484Y-95384960D01*
X164274874Y-95366174D01*
X164156263Y-95384960D01*
X164049267Y-95439477D01*
X163964351Y-95524393D01*
X163909834Y-95631389D01*
X163891048Y-95750000D01*
X161430454Y-95750000D01*
X161430454Y-95256394D01*
X161450456Y-95188273D01*
X161504112Y-95141780D01*
X161536735Y-95131947D01*
X161643483Y-95115040D01*
X161750481Y-95060522D01*
X161835396Y-94975607D01*
X161889914Y-94868609D01*
X161908700Y-94750000D01*
X161889914Y-94631391D01*
X161880845Y-94613593D01*
X161835396Y-94524393D01*
X161750480Y-94439477D01*
X161643485Y-94384961D01*
X161643484Y-94384960D01*
X161643483Y-94384960D01*
X161536741Y-94368053D01*
X161472590Y-94337641D01*
X161435063Y-94277373D01*
X161430454Y-94243605D01*
X161430454Y-93750000D01*
X169641048Y-93750000D01*
X169659834Y-93868610D01*
X169714351Y-93975606D01*
X169714352Y-93975607D01*
X169799267Y-94060522D01*
X169906265Y-94115040D01*
X170024874Y-94133826D01*
X170143483Y-94115040D01*
X170250481Y-94060522D01*
X170335396Y-93975607D01*
X170389914Y-93868609D01*
X170408700Y-93750000D01*
X170389914Y-93631391D01*
X170335396Y-93524393D01*
X170250481Y-93439478D01*
X170250480Y-93439477D01*
X170196982Y-93412219D01*
X170143483Y-93384960D01*
X170077114Y-93374448D01*
X170025848Y-93350144D01*
X169972632Y-93374448D01*
X169933954Y-93380574D01*
X169906263Y-93384960D01*
X169799267Y-93439477D01*
X169714351Y-93524393D01*
X169659834Y-93631389D01*
X169641048Y-93750000D01*
X161430454Y-93750000D01*
X161430454Y-92750000D01*
X169641048Y-92750000D01*
X169659834Y-92868610D01*
X169714351Y-92975606D01*
X169714352Y-92975607D01*
X169799267Y-93060522D01*
X169906265Y-93115040D01*
X169972632Y-93125551D01*
X170023898Y-93149855D01*
X170077113Y-93125551D01*
X170143483Y-93115040D01*
X170250481Y-93060522D01*
X170335396Y-92975607D01*
X170389914Y-92868609D01*
X170408700Y-92750000D01*
X170389914Y-92631391D01*
X170335396Y-92524393D01*
X170250481Y-92439478D01*
X170250480Y-92439477D01*
X170143484Y-92384960D01*
X170024874Y-92366174D01*
X169906263Y-92384960D01*
X169799267Y-92439477D01*
X169714351Y-92524393D01*
X169659834Y-92631389D01*
X169641048Y-92750000D01*
X161430454Y-92750000D01*
X161430454Y-91750000D01*
X169891048Y-91750000D01*
X169909834Y-91868610D01*
X169964351Y-91975606D01*
X169964352Y-91975607D01*
X170049267Y-92060522D01*
X170156265Y-92115040D01*
X170274874Y-92133826D01*
X170393483Y-92115040D01*
X170500481Y-92060522D01*
X170585396Y-91975607D01*
X170639914Y-91868609D01*
X170658700Y-91750000D01*
X176891048Y-91750000D01*
X176909834Y-91868610D01*
X176964351Y-91975606D01*
X176964352Y-91975607D01*
X177049267Y-92060522D01*
X177156265Y-92115040D01*
X177274874Y-92133826D01*
X177393483Y-92115040D01*
X177500481Y-92060522D01*
X177585396Y-91975607D01*
X177639914Y-91868609D01*
X177658700Y-91750000D01*
X177639914Y-91631391D01*
X177585396Y-91524393D01*
X177500481Y-91439478D01*
X177500480Y-91439477D01*
X177393484Y-91384960D01*
X177274874Y-91366174D01*
X177156263Y-91384960D01*
X177049267Y-91439477D01*
X176964351Y-91524393D01*
X176909834Y-91631389D01*
X176891048Y-91750000D01*
X170658700Y-91750000D01*
X170639914Y-91631391D01*
X170585396Y-91524393D01*
X170500481Y-91439478D01*
X170500480Y-91439477D01*
X170393484Y-91384960D01*
X170274874Y-91366174D01*
X170156263Y-91384960D01*
X170049267Y-91439477D01*
X169964351Y-91524393D01*
X169909834Y-91631389D01*
X169891048Y-91750000D01*
X161430454Y-91750000D01*
X161430454Y-91250000D01*
X166141048Y-91250000D01*
X166159834Y-91368610D01*
X166195943Y-91439478D01*
X166214352Y-91475607D01*
X166299267Y-91560522D01*
X166406265Y-91615040D01*
X166524874Y-91633826D01*
X166643483Y-91615040D01*
X166750481Y-91560522D01*
X166835396Y-91475607D01*
X166889914Y-91368609D01*
X166908700Y-91250000D01*
X171141048Y-91250000D01*
X171159834Y-91368610D01*
X171195943Y-91439478D01*
X171214352Y-91475607D01*
X171299267Y-91560522D01*
X171406265Y-91615040D01*
X171524874Y-91633826D01*
X171643483Y-91615040D01*
X171750481Y-91560522D01*
X171835396Y-91475607D01*
X171889914Y-91368609D01*
X171908700Y-91250000D01*
X175641048Y-91250000D01*
X175659834Y-91368610D01*
X175695943Y-91439478D01*
X175714352Y-91475607D01*
X175799267Y-91560522D01*
X175906265Y-91615040D01*
X176024874Y-91633826D01*
X176143483Y-91615040D01*
X176250481Y-91560522D01*
X176335396Y-91475607D01*
X176389914Y-91368609D01*
X176408700Y-91250000D01*
X176389914Y-91131391D01*
X176335396Y-91024393D01*
X176250481Y-90939478D01*
X176250480Y-90939477D01*
X176143484Y-90884960D01*
X176024874Y-90866174D01*
X175906263Y-90884960D01*
X175799267Y-90939477D01*
X175714351Y-91024393D01*
X175659834Y-91131389D01*
X175641048Y-91250000D01*
X171908700Y-91250000D01*
X171889914Y-91131391D01*
X171835396Y-91024393D01*
X171750481Y-90939478D01*
X171750480Y-90939477D01*
X171643484Y-90884960D01*
X171524874Y-90866174D01*
X171406263Y-90884960D01*
X171299267Y-90939477D01*
X171214351Y-91024393D01*
X171159834Y-91131389D01*
X171141048Y-91250000D01*
X166908700Y-91250000D01*
X166889914Y-91131391D01*
X166835396Y-91024393D01*
X166750481Y-90939478D01*
X166750480Y-90939477D01*
X166643484Y-90884960D01*
X166524874Y-90866174D01*
X166406263Y-90884960D01*
X166299267Y-90939477D01*
X166214351Y-91024393D01*
X166159834Y-91131389D01*
X166141048Y-91250000D01*
X161430454Y-91250000D01*
X161430454Y-91124003D01*
X161430454Y-91124000D01*
X161426898Y-91090928D01*
X161415692Y-91039417D01*
X161381247Y-90970606D01*
X161381246Y-90970604D01*
X161381246Y-90970603D01*
X161335514Y-90917827D01*
X161335506Y-90917819D01*
X161335492Y-90917802D01*
X161330512Y-90912323D01*
X161330509Y-90912321D01*
X161330506Y-90912318D01*
X161261751Y-90870409D01*
X161261747Y-90870407D01*
X161194708Y-90850722D01*
X161175607Y-90847976D01*
X161150874Y-90844420D01*
X145398874Y-90844420D01*
X145398870Y-90844420D01*
X145365793Y-90847977D01*
X145314292Y-90859181D01*
X145245478Y-90893627D01*
X145245477Y-90893627D01*
X145192701Y-90939359D01*
X145187198Y-90944361D01*
X145187192Y-90944367D01*
X145145283Y-91013122D01*
X145145281Y-91013126D01*
X145125596Y-91080165D01*
X145125596Y-91080167D01*
X145120583Y-91115039D01*
X145119294Y-91124002D01*
X145119294Y-109876003D01*
X143777416Y-109876003D01*
X143671227Y-109719386D01*
X143436021Y-109442479D01*
X143358038Y-109368609D01*
X143172268Y-109192637D01*
X143172253Y-109192624D01*
X142883023Y-108972758D01*
X142883017Y-108972754D01*
X142827710Y-108939477D01*
X142571708Y-108785445D01*
X142241969Y-108632892D01*
X141897670Y-108516884D01*
X141897665Y-108516882D01*
X141897662Y-108516882D01*
X141542864Y-108438785D01*
X141542835Y-108438780D01*
X141181666Y-108399500D01*
X141181659Y-108399500D01*
X140818341Y-108399500D01*
X140818333Y-108399500D01*
X140457164Y-108438780D01*
X140457135Y-108438785D01*
X140102337Y-108516882D01*
X140102320Y-108516887D01*
X139758033Y-108632891D01*
X139428286Y-108785448D01*
X139116982Y-108972754D01*
X139116976Y-108972758D01*
X138827746Y-109192624D01*
X138827731Y-109192637D01*
X138563979Y-109442478D01*
X138328774Y-109719384D01*
X138124881Y-110020102D01*
X137954701Y-110341097D01*
X137954697Y-110341106D01*
X137874551Y-110542258D01*
X137830756Y-110598137D01*
X137763702Y-110621468D01*
X137694679Y-110604843D01*
X137645602Y-110553541D01*
X137631500Y-110495621D01*
X137631500Y-104350000D01*
X143591048Y-104350000D01*
X143609834Y-104468610D01*
X143638257Y-104524393D01*
X143664352Y-104575607D01*
X143749267Y-104660522D01*
X143856265Y-104715040D01*
X143974874Y-104733826D01*
X144093483Y-104715040D01*
X144200481Y-104660522D01*
X144285396Y-104575607D01*
X144339914Y-104468609D01*
X144358700Y-104350000D01*
X144339914Y-104231391D01*
X144285396Y-104124393D01*
X144200481Y-104039478D01*
X144200480Y-104039477D01*
X144093484Y-103984960D01*
X143974874Y-103966174D01*
X143856263Y-103984960D01*
X143749267Y-104039477D01*
X143664351Y-104124393D01*
X143609834Y-104231389D01*
X143591048Y-104350000D01*
X137631500Y-104350000D01*
X137631500Y-102350000D01*
X143591048Y-102350000D01*
X143609834Y-102468610D01*
X143620435Y-102489415D01*
X143664352Y-102575607D01*
X143749267Y-102660522D01*
X143856265Y-102715040D01*
X143974874Y-102733826D01*
X144093483Y-102715040D01*
X144200481Y-102660522D01*
X144285396Y-102575607D01*
X144339914Y-102468609D01*
X144358700Y-102350000D01*
X144339914Y-102231391D01*
X144285396Y-102124393D01*
X144200481Y-102039478D01*
X144200480Y-102039477D01*
X144093484Y-101984960D01*
X143974874Y-101966174D01*
X143856263Y-101984960D01*
X143749267Y-102039477D01*
X143664351Y-102124393D01*
X143609834Y-102231389D01*
X143591048Y-102350000D01*
X137631500Y-102350000D01*
X137631500Y-100850000D01*
X143841048Y-100850000D01*
X143859834Y-100968610D01*
X143875828Y-101000000D01*
X143914352Y-101075607D01*
X143999267Y-101160522D01*
X144106265Y-101215040D01*
X144224874Y-101233826D01*
X144343483Y-101215040D01*
X144450481Y-101160522D01*
X144535396Y-101075607D01*
X144589914Y-100968609D01*
X144608700Y-100850000D01*
X144589914Y-100731391D01*
X144535396Y-100624393D01*
X144450481Y-100539478D01*
X144450480Y-100539477D01*
X144343484Y-100484960D01*
X144224874Y-100466174D01*
X144106263Y-100484960D01*
X143999267Y-100539477D01*
X143914351Y-100624393D01*
X143859834Y-100731389D01*
X143841048Y-100850000D01*
X137631500Y-100850000D01*
X137631500Y-97000000D01*
X138366174Y-97000000D01*
X138384960Y-97118610D01*
X138404555Y-97157067D01*
X138439478Y-97225607D01*
X138524393Y-97310522D01*
X138631391Y-97365040D01*
X138750000Y-97383826D01*
X138868609Y-97365040D01*
X138975607Y-97310522D01*
X139060522Y-97225607D01*
X139115040Y-97118609D01*
X139133826Y-97000000D01*
X139115040Y-96881391D01*
X139060522Y-96774393D01*
X138975607Y-96689478D01*
X138975606Y-96689477D01*
X138922108Y-96662219D01*
X138868609Y-96634960D01*
X138802240Y-96624448D01*
X138750974Y-96600144D01*
X138697758Y-96624448D01*
X138659080Y-96630574D01*
X138631389Y-96634960D01*
X138524393Y-96689477D01*
X138439477Y-96774393D01*
X138384960Y-96881389D01*
X138366174Y-97000000D01*
X137631500Y-97000000D01*
X137631500Y-96000000D01*
X138366174Y-96000000D01*
X138384960Y-96118610D01*
X138439477Y-96225606D01*
X138439478Y-96225607D01*
X138524393Y-96310522D01*
X138631391Y-96365040D01*
X138697758Y-96375551D01*
X138749024Y-96399855D01*
X138802239Y-96375551D01*
X138868609Y-96365040D01*
X138975607Y-96310522D01*
X139060522Y-96225607D01*
X139115040Y-96118609D01*
X139133826Y-96000000D01*
X139115040Y-95881391D01*
X139060522Y-95774393D01*
X138975607Y-95689478D01*
X138975606Y-95689477D01*
X138922108Y-95662219D01*
X138868609Y-95634960D01*
X138802240Y-95624448D01*
X138750974Y-95600144D01*
X138697758Y-95624448D01*
X138659080Y-95630574D01*
X138631389Y-95634960D01*
X138524393Y-95689477D01*
X138439477Y-95774393D01*
X138384960Y-95881389D01*
X138366174Y-96000000D01*
X137631500Y-96000000D01*
X137631500Y-95000000D01*
X138366174Y-95000000D01*
X138384960Y-95118610D01*
X138392713Y-95133826D01*
X138439478Y-95225607D01*
X138524393Y-95310522D01*
X138631391Y-95365040D01*
X138697758Y-95375551D01*
X138749024Y-95399855D01*
X138802239Y-95375551D01*
X138868609Y-95365040D01*
X138975607Y-95310522D01*
X139060522Y-95225607D01*
X139115040Y-95118609D01*
X139133826Y-95000000D01*
X139115040Y-94881391D01*
X139060522Y-94774393D01*
X138975607Y-94689478D01*
X138975606Y-94689477D01*
X138868610Y-94634960D01*
X138750000Y-94616174D01*
X138631389Y-94634960D01*
X138524393Y-94689477D01*
X138439477Y-94774393D01*
X138384960Y-94881389D01*
X138366174Y-95000000D01*
X137631500Y-95000000D01*
X137631500Y-91754378D01*
X137651502Y-91686257D01*
X137705158Y-91639764D01*
X137775432Y-91629660D01*
X137840012Y-91659154D01*
X137874551Y-91707741D01*
X137938647Y-91868610D01*
X137954702Y-91908905D01*
X138124883Y-92229900D01*
X138328773Y-92530614D01*
X138515120Y-92750000D01*
X138563979Y-92807521D01*
X138827731Y-93057362D01*
X138827746Y-93057375D01*
X139116981Y-93277245D01*
X139428292Y-93464555D01*
X139758031Y-93617108D01*
X140102330Y-93733116D01*
X140457153Y-93811218D01*
X140818341Y-93850500D01*
X140818349Y-93850500D01*
X141181651Y-93850500D01*
X141181659Y-93850500D01*
X141542847Y-93811218D01*
X141897670Y-93733116D01*
X142241969Y-93617108D01*
X142571708Y-93464555D01*
X142883019Y-93277245D01*
X143172254Y-93057375D01*
X143436021Y-92807521D01*
X143671227Y-92530614D01*
X143875117Y-92229900D01*
X144045298Y-91908905D01*
X144156559Y-91629660D01*
X144179772Y-91571399D01*
X144179774Y-91571393D01*
X144182793Y-91560522D01*
X144276973Y-91221316D01*
X144335751Y-90862785D01*
X144341866Y-90750000D01*
X173391048Y-90750000D01*
X173409834Y-90868610D01*
X173464351Y-90975606D01*
X173464352Y-90975607D01*
X173549267Y-91060522D01*
X173656265Y-91115040D01*
X173774874Y-91133826D01*
X173893483Y-91115040D01*
X174000481Y-91060522D01*
X174085396Y-90975607D01*
X174139914Y-90868609D01*
X174158700Y-90750000D01*
X174139914Y-90631391D01*
X174085396Y-90524393D01*
X174000481Y-90439478D01*
X174000480Y-90439477D01*
X173893484Y-90384960D01*
X173774874Y-90366174D01*
X173656263Y-90384960D01*
X173549267Y-90439477D01*
X173464351Y-90524393D01*
X173409834Y-90631389D01*
X173391048Y-90750000D01*
X144341866Y-90750000D01*
X144355421Y-90500000D01*
X144335751Y-90137215D01*
X144276973Y-89778684D01*
X144179775Y-89428609D01*
X144179774Y-89428606D01*
X144179772Y-89428600D01*
X144045302Y-89091106D01*
X144045298Y-89091095D01*
X143875117Y-88770100D01*
X143671227Y-88469386D01*
X143436021Y-88192479D01*
X143405234Y-88163316D01*
X143172268Y-87942637D01*
X143172253Y-87942624D01*
X142883023Y-87722758D01*
X142883017Y-87722754D01*
X142571713Y-87535448D01*
X142571712Y-87535447D01*
X142571708Y-87535445D01*
X142241969Y-87382892D01*
X142224196Y-87376903D01*
X142166029Y-87336199D01*
X142139102Y-87270506D01*
X142151965Y-87200685D01*
X142200535Y-87148902D01*
X142264429Y-87131500D01*
X182235571Y-87131500D01*
X182303692Y-87151502D01*
G37*
G04 #@! TD.AperFunction*
G04 #@! TA.AperFunction,Conductor*
G36*
X165917413Y-95019685D02*
G01*
X165963168Y-95072489D01*
X165974374Y-95124000D01*
X165974374Y-95474954D01*
X165960859Y-95531248D01*
X165909832Y-95631393D01*
X165891048Y-95749997D01*
X165891048Y-95750002D01*
X165909832Y-95868604D01*
X165909833Y-95868607D01*
X165909834Y-95868609D01*
X165916347Y-95881391D01*
X165964353Y-95975608D01*
X165964356Y-95975612D01*
X166049261Y-96060517D01*
X166049265Y-96060520D01*
X166049267Y-96060522D01*
X166156265Y-96115040D01*
X166156267Y-96115040D01*
X166156269Y-96115041D01*
X166274872Y-96133826D01*
X166274874Y-96133826D01*
X166274876Y-96133826D01*
X166393478Y-96115041D01*
X166393478Y-96115040D01*
X166393483Y-96115040D01*
X166500481Y-96060522D01*
X166561001Y-96000002D01*
X171141048Y-96000002D01*
X171159832Y-96118604D01*
X171159833Y-96118607D01*
X171159834Y-96118609D01*
X171214352Y-96225607D01*
X171214353Y-96225608D01*
X171214356Y-96225612D01*
X171299261Y-96310517D01*
X171299265Y-96310520D01*
X171299267Y-96310522D01*
X171406265Y-96365040D01*
X171406267Y-96365040D01*
X171406269Y-96365041D01*
X171524872Y-96383826D01*
X171524874Y-96383826D01*
X171524876Y-96383826D01*
X171643478Y-96365041D01*
X171643478Y-96365040D01*
X171643483Y-96365040D01*
X171750481Y-96310522D01*
X171835396Y-96225607D01*
X171889914Y-96118609D01*
X171899114Y-96060522D01*
X171908700Y-96000002D01*
X173391048Y-96000002D01*
X173409832Y-96118604D01*
X173409833Y-96118607D01*
X173409834Y-96118609D01*
X173464352Y-96225607D01*
X173464353Y-96225608D01*
X173464356Y-96225612D01*
X173549261Y-96310517D01*
X173549265Y-96310520D01*
X173549267Y-96310522D01*
X173656265Y-96365040D01*
X173656267Y-96365040D01*
X173656269Y-96365041D01*
X173774872Y-96383826D01*
X173774874Y-96383826D01*
X173774876Y-96383826D01*
X173893478Y-96365041D01*
X173893478Y-96365040D01*
X173893483Y-96365040D01*
X174000481Y-96310522D01*
X174085396Y-96225607D01*
X174139914Y-96118609D01*
X174149114Y-96060522D01*
X174158700Y-96000002D01*
X174158700Y-95999997D01*
X174139915Y-95881395D01*
X174139914Y-95881393D01*
X174139914Y-95881391D01*
X174085396Y-95774393D01*
X174085394Y-95774391D01*
X174085391Y-95774387D01*
X174000486Y-95689482D01*
X174000482Y-95689479D01*
X174000481Y-95689478D01*
X173893483Y-95634960D01*
X173893481Y-95634959D01*
X173893478Y-95634958D01*
X173774876Y-95616174D01*
X173774872Y-95616174D01*
X173656269Y-95634958D01*
X173549265Y-95689479D01*
X173549261Y-95689482D01*
X173464356Y-95774387D01*
X173464353Y-95774391D01*
X173409832Y-95881395D01*
X173391048Y-95999997D01*
X173391048Y-96000002D01*
X171908700Y-96000002D01*
X171908700Y-95999997D01*
X171889915Y-95881395D01*
X171889914Y-95881393D01*
X171889914Y-95881391D01*
X171835396Y-95774393D01*
X171835394Y-95774391D01*
X171835391Y-95774387D01*
X171750486Y-95689482D01*
X171750482Y-95689479D01*
X171750481Y-95689478D01*
X171643483Y-95634960D01*
X171643481Y-95634959D01*
X171643478Y-95634958D01*
X171524876Y-95616174D01*
X171524872Y-95616174D01*
X171406269Y-95634958D01*
X171299265Y-95689479D01*
X171299261Y-95689482D01*
X171214356Y-95774387D01*
X171214353Y-95774391D01*
X171159832Y-95881395D01*
X171141048Y-95999997D01*
X171141048Y-96000002D01*
X166561001Y-96000002D01*
X166585396Y-95975607D01*
X166639914Y-95868609D01*
X166639915Y-95868604D01*
X166658700Y-95750002D01*
X166658700Y-95749997D01*
X166639915Y-95631393D01*
X166588889Y-95531248D01*
X166575374Y-95474954D01*
X166575374Y-95124000D01*
X166595059Y-95056961D01*
X166647863Y-95011206D01*
X166699374Y-95000000D01*
X170187382Y-95000000D01*
X170254421Y-95019685D01*
X170275063Y-95036319D01*
X170299261Y-95060517D01*
X170299265Y-95060520D01*
X170299267Y-95060522D01*
X170406265Y-95115040D01*
X170406267Y-95115040D01*
X170406269Y-95115041D01*
X170524872Y-95133826D01*
X170524874Y-95133826D01*
X170524876Y-95133826D01*
X170643478Y-95115041D01*
X170643478Y-95115040D01*
X170643483Y-95115040D01*
X170750481Y-95060522D01*
X170754042Y-95056961D01*
X170774685Y-95036319D01*
X170836008Y-95002834D01*
X170862366Y-95000000D01*
X172535459Y-95000000D01*
X172602498Y-95019685D01*
X172648253Y-95072489D01*
X172658197Y-95141647D01*
X172657932Y-95143398D01*
X172641048Y-95249998D01*
X172641048Y-95250002D01*
X172659832Y-95368604D01*
X172659833Y-95368607D01*
X172659834Y-95368609D01*
X172714352Y-95475607D01*
X172714353Y-95475608D01*
X172714356Y-95475612D01*
X172799261Y-95560517D01*
X172799265Y-95560520D01*
X172799267Y-95560522D01*
X172906265Y-95615040D01*
X172906267Y-95615040D01*
X172906269Y-95615041D01*
X173024872Y-95633826D01*
X173024874Y-95633826D01*
X173024876Y-95633826D01*
X173143478Y-95615041D01*
X173143478Y-95615040D01*
X173143483Y-95615040D01*
X173250481Y-95560522D01*
X173335396Y-95475607D01*
X173389914Y-95368609D01*
X173408700Y-95250000D01*
X173391816Y-95143398D01*
X173400770Y-95074105D01*
X173445767Y-95020653D01*
X173512518Y-95000013D01*
X173514289Y-95000000D01*
X174035459Y-95000000D01*
X174102498Y-95019685D01*
X174148253Y-95072489D01*
X174158197Y-95141647D01*
X174157932Y-95143398D01*
X174141048Y-95249998D01*
X174141048Y-95250002D01*
X174159832Y-95368604D01*
X174159833Y-95368607D01*
X174159834Y-95368609D01*
X174214352Y-95475607D01*
X174214353Y-95475608D01*
X174214356Y-95475612D01*
X174299261Y-95560517D01*
X174299265Y-95560520D01*
X174299267Y-95560522D01*
X174406265Y-95615040D01*
X174406267Y-95615040D01*
X174406269Y-95615041D01*
X174524872Y-95633826D01*
X174524874Y-95633826D01*
X174524876Y-95633826D01*
X174643478Y-95615041D01*
X174643478Y-95615040D01*
X174643483Y-95615040D01*
X174750481Y-95560522D01*
X174835396Y-95475607D01*
X174889914Y-95368609D01*
X174908700Y-95250000D01*
X174891816Y-95143398D01*
X174900770Y-95074105D01*
X174945767Y-95020653D01*
X175012518Y-95000013D01*
X175014289Y-95000000D01*
X175150874Y-95000000D01*
X175217913Y-95019685D01*
X175263668Y-95072489D01*
X175274874Y-95124000D01*
X175274874Y-97458854D01*
X175255189Y-97525893D01*
X175202385Y-97571648D01*
X175170274Y-97581327D01*
X175140500Y-97586043D01*
X175140498Y-97586043D01*
X175140498Y-97586044D01*
X175019161Y-97647868D01*
X175019160Y-97647869D01*
X175019155Y-97647872D01*
X174939260Y-97727768D01*
X174877937Y-97761253D01*
X174808245Y-97756269D01*
X174763898Y-97727768D01*
X174725612Y-97689482D01*
X174725608Y-97689479D01*
X174725607Y-97689478D01*
X174618609Y-97634960D01*
X174618607Y-97634959D01*
X174618604Y-97634958D01*
X174500002Y-97616174D01*
X174499998Y-97616174D01*
X174381395Y-97634958D01*
X174274391Y-97689479D01*
X174274386Y-97689483D01*
X174261099Y-97702770D01*
X174199775Y-97736254D01*
X174130084Y-97731268D01*
X174085740Y-97702769D01*
X174030839Y-97647868D01*
X173909502Y-97586044D01*
X173909500Y-97586043D01*
X173909497Y-97586042D01*
X173775002Y-97564741D01*
X173774998Y-97564741D01*
X173640502Y-97586042D01*
X173519159Y-97647869D01*
X173519155Y-97647872D01*
X173439260Y-97727768D01*
X173377937Y-97761253D01*
X173308245Y-97756269D01*
X173263898Y-97727768D01*
X173225612Y-97689482D01*
X173225608Y-97689479D01*
X173225607Y-97689478D01*
X173118609Y-97634960D01*
X173118607Y-97634959D01*
X173118604Y-97634958D01*
X173000002Y-97616174D01*
X172999998Y-97616174D01*
X172881395Y-97634958D01*
X172774391Y-97689479D01*
X172774386Y-97689483D01*
X172761099Y-97702770D01*
X172699775Y-97736254D01*
X172630084Y-97731268D01*
X172585740Y-97702769D01*
X172530839Y-97647868D01*
X172409502Y-97586044D01*
X172409500Y-97586043D01*
X172409497Y-97586042D01*
X172275002Y-97564741D01*
X172274998Y-97564741D01*
X172140502Y-97586042D01*
X172019159Y-97647869D01*
X172019155Y-97647872D01*
X171922872Y-97744155D01*
X171922869Y-97744159D01*
X171861042Y-97865502D01*
X171839741Y-97999997D01*
X171839741Y-98000002D01*
X171861042Y-98134497D01*
X171861043Y-98134500D01*
X171861044Y-98134502D01*
X171922868Y-98255839D01*
X171977769Y-98310740D01*
X172011253Y-98372061D01*
X172006269Y-98441753D01*
X171977769Y-98486100D01*
X171939482Y-98524387D01*
X171939479Y-98524391D01*
X171884958Y-98631395D01*
X171866174Y-98749997D01*
X171866174Y-98750002D01*
X171884958Y-98868604D01*
X171884959Y-98868607D01*
X171884960Y-98868609D01*
X171939478Y-98975607D01*
X171939479Y-98975608D01*
X171939482Y-98975612D01*
X171977768Y-99013898D01*
X172011253Y-99075221D01*
X172006269Y-99144913D01*
X171977768Y-99189260D01*
X171922872Y-99244155D01*
X171922869Y-99244159D01*
X171861042Y-99365502D01*
X171839741Y-99499997D01*
X171839741Y-99500002D01*
X171861042Y-99634497D01*
X171861043Y-99634500D01*
X171861044Y-99634502D01*
X171922868Y-99755839D01*
X171977769Y-99810740D01*
X172011253Y-99872061D01*
X172006269Y-99941753D01*
X171977769Y-99986100D01*
X171939482Y-100024387D01*
X171939479Y-100024391D01*
X171884958Y-100131395D01*
X171866174Y-100249997D01*
X171866174Y-100250002D01*
X171884958Y-100368604D01*
X171884959Y-100368607D01*
X171884960Y-100368609D01*
X171939478Y-100475607D01*
X171939479Y-100475608D01*
X171939482Y-100475612D01*
X171977768Y-100513898D01*
X172011253Y-100575221D01*
X172006269Y-100644913D01*
X171977768Y-100689260D01*
X171922872Y-100744155D01*
X171922869Y-100744159D01*
X171861042Y-100865502D01*
X171839741Y-100999997D01*
X171839741Y-101000002D01*
X171861042Y-101134497D01*
X171861043Y-101134500D01*
X171861044Y-101134502D01*
X171914159Y-101238746D01*
X171922869Y-101255840D01*
X171922872Y-101255844D01*
X172019155Y-101352127D01*
X172019159Y-101352130D01*
X172019161Y-101352132D01*
X172140498Y-101413956D01*
X172140500Y-101413956D01*
X172140502Y-101413957D01*
X172274998Y-101435259D01*
X172275000Y-101435259D01*
X172275002Y-101435259D01*
X172409497Y-101413957D01*
X172409497Y-101413956D01*
X172409502Y-101413956D01*
X172530839Y-101352132D01*
X172585741Y-101297229D01*
X172647060Y-101263746D01*
X172716752Y-101268730D01*
X172761101Y-101297231D01*
X172774387Y-101310517D01*
X172774391Y-101310520D01*
X172774393Y-101310522D01*
X172881391Y-101365040D01*
X172881393Y-101365040D01*
X172881395Y-101365041D01*
X172999998Y-101383826D01*
X173000000Y-101383826D01*
X173000002Y-101383826D01*
X173118604Y-101365041D01*
X173118604Y-101365040D01*
X173118609Y-101365040D01*
X173225607Y-101310522D01*
X173263897Y-101272231D01*
X173325217Y-101238746D01*
X173394909Y-101243729D01*
X173439259Y-101272231D01*
X173519155Y-101352127D01*
X173519159Y-101352130D01*
X173519161Y-101352132D01*
X173640498Y-101413956D01*
X173640500Y-101413956D01*
X173640502Y-101413957D01*
X173774998Y-101435259D01*
X173775000Y-101435259D01*
X173775002Y-101435259D01*
X173909497Y-101413957D01*
X173909497Y-101413956D01*
X173909502Y-101413956D01*
X174030839Y-101352132D01*
X174085741Y-101297229D01*
X174147060Y-101263746D01*
X174216752Y-101268730D01*
X174261101Y-101297231D01*
X174274387Y-101310517D01*
X174274391Y-101310520D01*
X174274393Y-101310522D01*
X174381391Y-101365040D01*
X174381393Y-101365040D01*
X174381395Y-101365041D01*
X174499998Y-101383826D01*
X174500000Y-101383826D01*
X174500002Y-101383826D01*
X174618604Y-101365041D01*
X174618604Y-101365040D01*
X174618609Y-101365040D01*
X174725607Y-101310522D01*
X174763897Y-101272231D01*
X174825217Y-101238746D01*
X174894909Y-101243729D01*
X174939259Y-101272231D01*
X175019155Y-101352127D01*
X175019159Y-101352130D01*
X175019161Y-101352132D01*
X175140498Y-101413956D01*
X175170272Y-101418671D01*
X175233406Y-101448600D01*
X175270338Y-101507911D01*
X175274874Y-101541145D01*
X175274874Y-102760584D01*
X175255189Y-102827623D01*
X175202385Y-102873378D01*
X175133227Y-102883322D01*
X175131477Y-102883057D01*
X175024877Y-102866174D01*
X175024872Y-102866174D01*
X174906269Y-102884958D01*
X174799265Y-102939479D01*
X174799261Y-102939482D01*
X174714356Y-103024387D01*
X174714353Y-103024391D01*
X174659832Y-103131395D01*
X174641048Y-103249997D01*
X174641048Y-103250002D01*
X174659832Y-103368604D01*
X174659833Y-103368607D01*
X174659834Y-103368609D01*
X174714352Y-103475607D01*
X174714353Y-103475608D01*
X174714356Y-103475612D01*
X174799261Y-103560517D01*
X174799265Y-103560520D01*
X174799267Y-103560522D01*
X174906265Y-103615040D01*
X174906267Y-103615040D01*
X174906269Y-103615041D01*
X175024872Y-103633826D01*
X175024874Y-103633826D01*
X175024876Y-103633826D01*
X175131476Y-103616942D01*
X175200769Y-103625896D01*
X175254221Y-103670893D01*
X175274861Y-103737644D01*
X175274874Y-103739415D01*
X175274874Y-106126000D01*
X175255189Y-106193039D01*
X175202385Y-106238794D01*
X175150874Y-106250000D01*
X168239415Y-106250000D01*
X168172376Y-106230315D01*
X168126621Y-106177511D01*
X168116677Y-106108353D01*
X168116942Y-106106602D01*
X168133826Y-106000001D01*
X168133826Y-105999997D01*
X168115041Y-105881395D01*
X168115040Y-105881393D01*
X168115040Y-105881391D01*
X168060522Y-105774393D01*
X168060520Y-105774391D01*
X168060517Y-105774387D01*
X167975612Y-105689482D01*
X167975608Y-105689479D01*
X167975607Y-105689478D01*
X167868609Y-105634960D01*
X167868607Y-105634959D01*
X167868604Y-105634958D01*
X167750002Y-105616174D01*
X167749998Y-105616174D01*
X167631395Y-105634958D01*
X167524391Y-105689479D01*
X167524387Y-105689482D01*
X167439482Y-105774387D01*
X167439479Y-105774391D01*
X167384958Y-105881395D01*
X167372473Y-105960227D01*
X167342544Y-106023362D01*
X167283232Y-106060293D01*
X167213370Y-106059295D01*
X167155137Y-106020685D01*
X167127527Y-105960227D01*
X167115041Y-105881395D01*
X167115040Y-105881393D01*
X167115040Y-105881391D01*
X167060522Y-105774393D01*
X167060520Y-105774391D01*
X167060517Y-105774387D01*
X166975612Y-105689482D01*
X166975608Y-105689479D01*
X166975607Y-105689478D01*
X166868609Y-105634960D01*
X166868607Y-105634959D01*
X166868604Y-105634958D01*
X166750002Y-105616174D01*
X166749998Y-105616174D01*
X166631395Y-105634958D01*
X166524391Y-105689479D01*
X166524387Y-105689482D01*
X166439482Y-105774387D01*
X166439479Y-105774391D01*
X166384958Y-105881395D01*
X166366174Y-105999997D01*
X166366174Y-106000001D01*
X166383058Y-106106602D01*
X166374104Y-106175895D01*
X166329107Y-106229347D01*
X166262356Y-106249987D01*
X166260585Y-106250000D01*
X165648874Y-106250000D01*
X165581835Y-106230315D01*
X165536080Y-106177511D01*
X165524874Y-106126000D01*
X165524874Y-103000002D01*
X171116174Y-103000002D01*
X171134958Y-103118604D01*
X171134959Y-103118607D01*
X171134960Y-103118609D01*
X171141473Y-103131391D01*
X171189479Y-103225608D01*
X171189482Y-103225612D01*
X171274387Y-103310517D01*
X171274391Y-103310520D01*
X171274393Y-103310522D01*
X171381391Y-103365040D01*
X171381393Y-103365040D01*
X171381395Y-103365041D01*
X171499998Y-103383826D01*
X171500000Y-103383826D01*
X171500002Y-103383826D01*
X171618604Y-103365041D01*
X171618604Y-103365040D01*
X171618609Y-103365040D01*
X171725607Y-103310522D01*
X171810522Y-103225607D01*
X171865040Y-103118609D01*
X171865041Y-103118604D01*
X171883826Y-103000002D01*
X171883826Y-102999997D01*
X171865041Y-102881395D01*
X171865040Y-102881393D01*
X171865040Y-102881391D01*
X171810522Y-102774393D01*
X171810520Y-102774391D01*
X171810517Y-102774387D01*
X171725612Y-102689482D01*
X171725608Y-102689479D01*
X171725607Y-102689478D01*
X171618609Y-102634960D01*
X171618607Y-102634959D01*
X171618604Y-102634958D01*
X171500002Y-102616174D01*
X171499998Y-102616174D01*
X171381395Y-102634958D01*
X171274391Y-102689479D01*
X171274387Y-102689482D01*
X171189482Y-102774387D01*
X171189479Y-102774391D01*
X171134958Y-102881395D01*
X171116174Y-102999997D01*
X171116174Y-103000002D01*
X165524874Y-103000002D01*
X165524874Y-102489415D01*
X165544559Y-102422376D01*
X165597363Y-102376621D01*
X165666521Y-102366677D01*
X165668272Y-102366942D01*
X165774872Y-102383826D01*
X165774874Y-102383826D01*
X165774876Y-102383826D01*
X165893478Y-102365041D01*
X165893478Y-102365040D01*
X165893483Y-102365040D01*
X166000481Y-102310522D01*
X166085396Y-102225607D01*
X166139914Y-102118609D01*
X166158700Y-102000002D01*
X166891048Y-102000002D01*
X166909832Y-102118604D01*
X166909833Y-102118607D01*
X166909834Y-102118609D01*
X166964352Y-102225607D01*
X166964353Y-102225608D01*
X166964356Y-102225612D01*
X167049261Y-102310517D01*
X167049265Y-102310520D01*
X167049267Y-102310522D01*
X167156265Y-102365040D01*
X167156267Y-102365040D01*
X167156269Y-102365041D01*
X167274872Y-102383826D01*
X167274874Y-102383826D01*
X167274876Y-102383826D01*
X167393478Y-102365041D01*
X167393478Y-102365040D01*
X167393483Y-102365040D01*
X167500481Y-102310522D01*
X167585396Y-102225607D01*
X167639914Y-102118609D01*
X167658700Y-102000002D01*
X168391048Y-102000002D01*
X168409832Y-102118604D01*
X168409833Y-102118607D01*
X168409834Y-102118609D01*
X168464352Y-102225607D01*
X168464353Y-102225608D01*
X168464356Y-102225612D01*
X168549261Y-102310517D01*
X168549265Y-102310520D01*
X168549267Y-102310522D01*
X168656265Y-102365040D01*
X168656267Y-102365040D01*
X168656269Y-102365041D01*
X168774872Y-102383826D01*
X168774874Y-102383826D01*
X168774876Y-102383826D01*
X168893478Y-102365041D01*
X168893478Y-102365040D01*
X168893483Y-102365040D01*
X169000481Y-102310522D01*
X169085396Y-102225607D01*
X169139914Y-102118609D01*
X169158700Y-102000002D01*
X169641048Y-102000002D01*
X169659832Y-102118604D01*
X169659833Y-102118607D01*
X169659834Y-102118609D01*
X169714352Y-102225607D01*
X169714353Y-102225608D01*
X169714356Y-102225612D01*
X169799261Y-102310517D01*
X169799265Y-102310520D01*
X169799267Y-102310522D01*
X169906265Y-102365040D01*
X169906267Y-102365040D01*
X169906269Y-102365041D01*
X170024872Y-102383826D01*
X170024874Y-102383826D01*
X170024876Y-102383826D01*
X170143478Y-102365041D01*
X170143478Y-102365040D01*
X170143483Y-102365040D01*
X170250481Y-102310522D01*
X170335396Y-102225607D01*
X170389914Y-102118609D01*
X170408700Y-102000000D01*
X170389914Y-101881391D01*
X170335396Y-101774393D01*
X170335394Y-101774391D01*
X170335391Y-101774387D01*
X170250486Y-101689482D01*
X170250482Y-101689479D01*
X170250481Y-101689478D01*
X170143483Y-101634960D01*
X170143481Y-101634959D01*
X170143478Y-101634958D01*
X170024876Y-101616174D01*
X170024872Y-101616174D01*
X169906269Y-101634958D01*
X169799265Y-101689479D01*
X169799261Y-101689482D01*
X169714356Y-101774387D01*
X169714353Y-101774391D01*
X169659832Y-101881395D01*
X169641048Y-101999997D01*
X169641048Y-102000002D01*
X169158700Y-102000002D01*
X169158700Y-102000000D01*
X169139914Y-101881391D01*
X169085396Y-101774393D01*
X169085394Y-101774391D01*
X169085391Y-101774387D01*
X169000486Y-101689482D01*
X169000482Y-101689479D01*
X169000481Y-101689478D01*
X168893483Y-101634960D01*
X168893481Y-101634959D01*
X168893478Y-101634958D01*
X168774876Y-101616174D01*
X168774872Y-101616174D01*
X168656269Y-101634958D01*
X168549265Y-101689479D01*
X168549261Y-101689482D01*
X168464356Y-101774387D01*
X168464353Y-101774391D01*
X168409832Y-101881395D01*
X168391048Y-101999997D01*
X168391048Y-102000002D01*
X167658700Y-102000002D01*
X167658700Y-102000000D01*
X167639914Y-101881391D01*
X167585396Y-101774393D01*
X167585394Y-101774391D01*
X167585391Y-101774387D01*
X167500486Y-101689482D01*
X167500482Y-101689479D01*
X167500481Y-101689478D01*
X167393483Y-101634960D01*
X167393481Y-101634959D01*
X167393478Y-101634958D01*
X167274876Y-101616174D01*
X167274872Y-101616174D01*
X167156269Y-101634958D01*
X167049265Y-101689479D01*
X167049261Y-101689482D01*
X166964356Y-101774387D01*
X166964353Y-101774391D01*
X166909832Y-101881395D01*
X166891048Y-101999997D01*
X166891048Y-102000002D01*
X166158700Y-102000002D01*
X166158700Y-102000000D01*
X166139914Y-101881391D01*
X166085396Y-101774393D01*
X166085394Y-101774391D01*
X166085391Y-101774387D01*
X166000486Y-101689482D01*
X166000482Y-101689479D01*
X166000481Y-101689478D01*
X165893483Y-101634960D01*
X165893481Y-101634959D01*
X165893478Y-101634958D01*
X165774876Y-101616174D01*
X165774871Y-101616174D01*
X165668271Y-101633057D01*
X165598978Y-101624102D01*
X165545526Y-101579106D01*
X165524887Y-101512354D01*
X165524874Y-101510584D01*
X165524874Y-100000002D01*
X168141048Y-100000002D01*
X168159832Y-100118604D01*
X168159833Y-100118607D01*
X168159834Y-100118609D01*
X168166347Y-100131391D01*
X168214353Y-100225608D01*
X168214356Y-100225612D01*
X168299261Y-100310517D01*
X168299265Y-100310520D01*
X168299267Y-100310522D01*
X168406265Y-100365040D01*
X168406267Y-100365040D01*
X168406269Y-100365041D01*
X168524872Y-100383826D01*
X168524874Y-100383826D01*
X168524876Y-100383826D01*
X168643478Y-100365041D01*
X168643478Y-100365040D01*
X168643483Y-100365040D01*
X168750481Y-100310522D01*
X168835396Y-100225607D01*
X168889914Y-100118609D01*
X168889915Y-100118604D01*
X168908700Y-100000002D01*
X169641048Y-100000002D01*
X169659832Y-100118604D01*
X169659833Y-100118607D01*
X169659834Y-100118609D01*
X169666347Y-100131391D01*
X169714353Y-100225608D01*
X169714356Y-100225612D01*
X169799261Y-100310517D01*
X169799265Y-100310520D01*
X169799267Y-100310522D01*
X169906265Y-100365040D01*
X169906267Y-100365040D01*
X169906269Y-100365041D01*
X170024872Y-100383826D01*
X170024874Y-100383826D01*
X170024876Y-100383826D01*
X170143478Y-100365041D01*
X170143478Y-100365040D01*
X170143483Y-100365040D01*
X170250481Y-100310522D01*
X170335396Y-100225607D01*
X170389914Y-100118609D01*
X170389915Y-100118604D01*
X170408700Y-100000002D01*
X170408700Y-99999997D01*
X170389915Y-99881395D01*
X170389914Y-99881393D01*
X170389914Y-99881391D01*
X170335396Y-99774393D01*
X170335394Y-99774391D01*
X170335391Y-99774387D01*
X170250486Y-99689482D01*
X170250482Y-99689479D01*
X170250481Y-99689478D01*
X170143483Y-99634960D01*
X170143481Y-99634959D01*
X170143478Y-99634958D01*
X170024876Y-99616174D01*
X170024872Y-99616174D01*
X169906269Y-99634958D01*
X169906265Y-99634959D01*
X169906265Y-99634960D01*
X169834933Y-99671305D01*
X169799265Y-99689479D01*
X169799261Y-99689482D01*
X169714356Y-99774387D01*
X169714353Y-99774391D01*
X169659832Y-99881395D01*
X169641048Y-99999997D01*
X169641048Y-100000002D01*
X168908700Y-100000002D01*
X168908700Y-99999997D01*
X168889915Y-99881395D01*
X168889914Y-99881393D01*
X168889914Y-99881391D01*
X168835396Y-99774393D01*
X168835394Y-99774391D01*
X168835391Y-99774387D01*
X168750486Y-99689482D01*
X168750482Y-99689479D01*
X168750481Y-99689478D01*
X168643483Y-99634960D01*
X168643481Y-99634959D01*
X168643478Y-99634958D01*
X168524876Y-99616174D01*
X168524872Y-99616174D01*
X168406269Y-99634958D01*
X168406265Y-99634959D01*
X168406265Y-99634960D01*
X168334933Y-99671305D01*
X168299265Y-99689479D01*
X168299261Y-99689482D01*
X168214356Y-99774387D01*
X168214353Y-99774391D01*
X168159832Y-99881395D01*
X168141048Y-99999997D01*
X168141048Y-100000002D01*
X165524874Y-100000002D01*
X165524874Y-98250002D01*
X166641048Y-98250002D01*
X166659832Y-98368604D01*
X166659833Y-98368607D01*
X166659834Y-98368609D01*
X166697103Y-98441753D01*
X166714353Y-98475608D01*
X166714356Y-98475612D01*
X166799261Y-98560517D01*
X166799265Y-98560520D01*
X166799267Y-98560522D01*
X166906265Y-98615040D01*
X166906267Y-98615040D01*
X166906269Y-98615041D01*
X167024872Y-98633826D01*
X167024874Y-98633826D01*
X167024876Y-98633826D01*
X167143478Y-98615041D01*
X167143478Y-98615040D01*
X167143483Y-98615040D01*
X167250481Y-98560522D01*
X167335396Y-98475607D01*
X167389914Y-98368609D01*
X167408700Y-98250002D01*
X168391048Y-98250002D01*
X168409832Y-98368604D01*
X168409833Y-98368607D01*
X168409834Y-98368609D01*
X168447103Y-98441753D01*
X168464353Y-98475608D01*
X168464356Y-98475612D01*
X168549261Y-98560517D01*
X168549265Y-98560520D01*
X168549267Y-98560522D01*
X168656265Y-98615040D01*
X168656267Y-98615040D01*
X168656269Y-98615041D01*
X168774872Y-98633826D01*
X168774874Y-98633826D01*
X168774876Y-98633826D01*
X168893478Y-98615041D01*
X168893478Y-98615040D01*
X168893483Y-98615040D01*
X169000481Y-98560522D01*
X169085396Y-98475607D01*
X169139914Y-98368609D01*
X169158700Y-98250000D01*
X169154836Y-98225607D01*
X169139915Y-98131395D01*
X169139914Y-98131393D01*
X169139914Y-98131391D01*
X169085396Y-98024393D01*
X169085394Y-98024391D01*
X169085391Y-98024387D01*
X169000486Y-97939482D01*
X169000482Y-97939479D01*
X169000481Y-97939478D01*
X168893483Y-97884960D01*
X168893481Y-97884959D01*
X168893478Y-97884958D01*
X168774876Y-97866174D01*
X168774872Y-97866174D01*
X168656269Y-97884958D01*
X168549265Y-97939479D01*
X168549261Y-97939482D01*
X168464356Y-98024387D01*
X168464353Y-98024391D01*
X168409832Y-98131395D01*
X168391048Y-98249997D01*
X168391048Y-98250002D01*
X167408700Y-98250002D01*
X167408700Y-98250000D01*
X167404836Y-98225607D01*
X167389915Y-98131395D01*
X167389914Y-98131393D01*
X167389914Y-98131391D01*
X167335396Y-98024393D01*
X167335394Y-98024391D01*
X167335391Y-98024387D01*
X167250486Y-97939482D01*
X167250482Y-97939479D01*
X167250481Y-97939478D01*
X167143483Y-97884960D01*
X167143481Y-97884959D01*
X167143478Y-97884958D01*
X167024876Y-97866174D01*
X167024872Y-97866174D01*
X166906269Y-97884958D01*
X166799265Y-97939479D01*
X166799261Y-97939482D01*
X166714356Y-98024387D01*
X166714353Y-98024391D01*
X166659832Y-98131395D01*
X166641048Y-98249997D01*
X166641048Y-98250002D01*
X165524874Y-98250002D01*
X165524874Y-97000002D01*
X169891048Y-97000002D01*
X169909832Y-97118604D01*
X169909833Y-97118607D01*
X169909834Y-97118609D01*
X169964352Y-97225607D01*
X169964353Y-97225608D01*
X169964356Y-97225612D01*
X170049261Y-97310517D01*
X170049265Y-97310520D01*
X170049267Y-97310522D01*
X170156265Y-97365040D01*
X170156267Y-97365040D01*
X170156269Y-97365041D01*
X170274872Y-97383826D01*
X170274874Y-97383826D01*
X170274876Y-97383826D01*
X170393478Y-97365041D01*
X170393478Y-97365040D01*
X170393483Y-97365040D01*
X170500481Y-97310522D01*
X170585396Y-97225607D01*
X170639914Y-97118609D01*
X170658700Y-97000000D01*
X170639914Y-96881391D01*
X170585396Y-96774393D01*
X170585394Y-96774391D01*
X170585391Y-96774387D01*
X170500486Y-96689482D01*
X170500482Y-96689479D01*
X170500481Y-96689478D01*
X170393483Y-96634960D01*
X170393481Y-96634959D01*
X170393478Y-96634958D01*
X170274876Y-96616174D01*
X170274872Y-96616174D01*
X170156269Y-96634958D01*
X170049265Y-96689479D01*
X170049261Y-96689482D01*
X169964356Y-96774387D01*
X169964353Y-96774391D01*
X169909832Y-96881395D01*
X169891048Y-96999997D01*
X169891048Y-97000002D01*
X165524874Y-97000002D01*
X165524874Y-95124000D01*
X165544559Y-95056961D01*
X165597363Y-95011206D01*
X165648874Y-95000000D01*
X165850374Y-95000000D01*
X165917413Y-95019685D01*
G37*
G04 #@! TD.AperFunction*
M02*
