G04 #@! TF.GenerationSoftware,KiCad,Pcbnew,7.0.10*
G04 #@! TF.CreationDate,2024-02-03T12:14:10-05:00*
G04 #@! TF.ProjectId,openlst-hw,6f70656e-6c73-4742-9d68-772e6b696361,rev?*
G04 #@! TF.SameCoordinates,Original*
G04 #@! TF.FileFunction,Copper,L4,Bot*
G04 #@! TF.FilePolarity,Positive*
%FSLAX46Y46*%
G04 Gerber Fmt 4.6, Leading zero omitted, Abs format (unit mm)*
G04 Created by KiCad (PCBNEW 7.0.10) date 2024-02-03 12:14:10*
%MOMM*%
%LPD*%
G01*
G04 APERTURE LIST*
G04 Aperture macros list*
%AMRoundRect*
0 Rectangle with rounded corners*
0 $1 Rounding radius*
0 $2 $3 $4 $5 $6 $7 $8 $9 X,Y pos of 4 corners*
0 Add a 4 corners polygon primitive as box body*
4,1,4,$2,$3,$4,$5,$6,$7,$8,$9,$2,$3,0*
0 Add four circle primitives for the rounded corners*
1,1,$1+$1,$2,$3*
1,1,$1+$1,$4,$5*
1,1,$1+$1,$6,$7*
1,1,$1+$1,$8,$9*
0 Add four rect primitives between the rounded corners*
20,1,$1+$1,$2,$3,$4,$5,0*
20,1,$1+$1,$4,$5,$6,$7,0*
20,1,$1+$1,$6,$7,$8,$9,0*
20,1,$1+$1,$8,$9,$2,$3,0*%
G04 Aperture macros list end*
G04 #@! TA.AperFunction,ComponentPad*
%ADD10C,0.609600*%
G04 #@! TD*
G04 #@! TA.AperFunction,ComponentPad*
%ADD11C,0.800000*%
G04 #@! TD*
G04 #@! TA.AperFunction,ComponentPad*
%ADD12C,6.400000*%
G04 #@! TD*
G04 #@! TA.AperFunction,ComponentPad*
%ADD13C,1.348000*%
G04 #@! TD*
G04 #@! TA.AperFunction,ComponentPad*
%ADD14C,0.558800*%
G04 #@! TD*
G04 #@! TA.AperFunction,SMDPad,CuDef*
%ADD15RoundRect,0.250000X0.450000X-0.262500X0.450000X0.262500X-0.450000X0.262500X-0.450000X-0.262500X0*%
G04 #@! TD*
G04 #@! TA.AperFunction,SMDPad,CuDef*
%ADD16RoundRect,0.250000X0.262500X0.450000X-0.262500X0.450000X-0.262500X-0.450000X0.262500X-0.450000X0*%
G04 #@! TD*
G04 #@! TA.AperFunction,SMDPad,CuDef*
%ADD17RoundRect,0.200000X0.200000X0.275000X-0.200000X0.275000X-0.200000X-0.275000X0.200000X-0.275000X0*%
G04 #@! TD*
G04 #@! TA.AperFunction,SMDPad,CuDef*
%ADD18RoundRect,0.200000X0.275000X-0.200000X0.275000X0.200000X-0.275000X0.200000X-0.275000X-0.200000X0*%
G04 #@! TD*
G04 #@! TA.AperFunction,SMDPad,CuDef*
%ADD19R,0.500000X1.100000*%
G04 #@! TD*
G04 #@! TA.AperFunction,ViaPad*
%ADD20C,0.457200*%
G04 #@! TD*
G04 #@! TA.AperFunction,Conductor*
%ADD21C,0.300000*%
G04 #@! TD*
G04 #@! TA.AperFunction,Conductor*
%ADD22C,0.203200*%
G04 #@! TD*
G04 #@! TA.AperFunction,Conductor*
%ADD23C,0.200000*%
G04 #@! TD*
G04 APERTURE END LIST*
D10*
X151274874Y-98750000D03*
X151274874Y-100250000D03*
X151274874Y-101750000D03*
X152774874Y-98750000D03*
X152774874Y-100250000D03*
X152774874Y-101750000D03*
X154274874Y-98750000D03*
X154274874Y-100250000D03*
X154274874Y-101750000D03*
D11*
X181100000Y-111750000D03*
X181802944Y-110052944D03*
X181802944Y-113447056D03*
X183500000Y-109350000D03*
D12*
X183500000Y-111750000D03*
D11*
X183500000Y-114150000D03*
X185197056Y-110052944D03*
X185197056Y-113447056D03*
X185900000Y-111750000D03*
X181100000Y-90500000D03*
X181802944Y-88802944D03*
X181802944Y-92197056D03*
X183500000Y-88100000D03*
D12*
X183500000Y-90500000D03*
D11*
X183500000Y-92900000D03*
X185197056Y-88802944D03*
X185197056Y-92197056D03*
X185900000Y-90500000D03*
X138600000Y-111750000D03*
X139302944Y-110052944D03*
X139302944Y-113447056D03*
X141000000Y-109350000D03*
D12*
X141000000Y-111750000D03*
D11*
X141000000Y-114150000D03*
X142697056Y-110052944D03*
X142697056Y-113447056D03*
X143400000Y-111750000D03*
D13*
X184254874Y-97520000D03*
X182984874Y-96250000D03*
X182984874Y-98790000D03*
X185524874Y-96250000D03*
X185524874Y-98790000D03*
D11*
X138600000Y-90500000D03*
X139302944Y-88802944D03*
X139302944Y-92197056D03*
X141000000Y-88100000D03*
D12*
X141000000Y-90500000D03*
D11*
X141000000Y-92900000D03*
X142697056Y-88802944D03*
X142697056Y-92197056D03*
X143400000Y-90500000D03*
D14*
X175275000Y-101000000D03*
X175275000Y-99500000D03*
X175275000Y-98000000D03*
X173775000Y-101000000D03*
X173775000Y-99500000D03*
X173775000Y-98000000D03*
X172275000Y-101000000D03*
X172275000Y-99500000D03*
X172275000Y-98000000D03*
D15*
X177000000Y-99662500D03*
X177000000Y-97837500D03*
D16*
X141912500Y-96000000D03*
X140087500Y-96000000D03*
D17*
X180075000Y-101500000D03*
X178425000Y-101500000D03*
D18*
X141750000Y-99575000D03*
X141750000Y-97925000D03*
D19*
X174350000Y-108600000D03*
X174350000Y-112400000D03*
X173550000Y-108600000D03*
X173550000Y-112400000D03*
X172750000Y-108600000D03*
X172750000Y-112400000D03*
X171950000Y-108600000D03*
X171950000Y-112400000D03*
X171150000Y-108600000D03*
X171150000Y-112400000D03*
X170350000Y-108600000D03*
X170350000Y-112400000D03*
X169550000Y-108600000D03*
X169550000Y-112400000D03*
X168750000Y-108600000D03*
X168750000Y-112400000D03*
X167950000Y-108600000D03*
X167950000Y-112400000D03*
X167150000Y-108600000D03*
X167150000Y-112400000D03*
D20*
X172250000Y-100250000D03*
X173750000Y-98750000D03*
X172024874Y-94250000D03*
X179024874Y-103500000D03*
X146274874Y-111000000D03*
X176274874Y-103250000D03*
X146274874Y-110250000D03*
X156524874Y-93250000D03*
X177500000Y-96750000D03*
X156774874Y-110750000D03*
X174500000Y-98000000D03*
X160274874Y-99000000D03*
X166524874Y-91250000D03*
X173025000Y-99500000D03*
X171524874Y-96000000D03*
X174500000Y-100250000D03*
X166474874Y-113750000D03*
X173000000Y-98000000D03*
X175024874Y-103250000D03*
X171524874Y-91250000D03*
X178274874Y-98250000D03*
X165774874Y-102000000D03*
X178500000Y-96750000D03*
X149274874Y-111750000D03*
X175524874Y-94250000D03*
X172250000Y-98750000D03*
X174500000Y-99500000D03*
X170274874Y-97000000D03*
X161274874Y-103250000D03*
X154024874Y-92250000D03*
X174474874Y-107250000D03*
X160274874Y-105500000D03*
X168524874Y-94500000D03*
X164274874Y-95750000D03*
X176024874Y-91250000D03*
X148274874Y-110750000D03*
X170524874Y-94750000D03*
X175250000Y-98750000D03*
X174524874Y-94250000D03*
X173000000Y-98750000D03*
X167024874Y-98250000D03*
X175250000Y-100250000D03*
X151774874Y-110500000D03*
X170024874Y-100000000D03*
X150024874Y-107250000D03*
X165024874Y-100000000D03*
X174500000Y-101000000D03*
X158274874Y-97250000D03*
X168524874Y-100000000D03*
X170024874Y-93750000D03*
X172774874Y-94250000D03*
X161774874Y-109250000D03*
X138750000Y-96000000D03*
X173774874Y-90750000D03*
X176024874Y-92750000D03*
X174524874Y-95250000D03*
X168774874Y-98250000D03*
X176024874Y-93500000D03*
X177524874Y-93750000D03*
X146274874Y-92375000D03*
X154774874Y-106250000D03*
X177274874Y-91750000D03*
X173750000Y-100250000D03*
X167274874Y-102000000D03*
X174474874Y-113750000D03*
X160024874Y-98000000D03*
X166974874Y-107250000D03*
X159024874Y-92250000D03*
X170024874Y-92750000D03*
X170274874Y-91750000D03*
X170024874Y-102000000D03*
X177524874Y-92750000D03*
X158524874Y-99750000D03*
X171500000Y-103000000D03*
X173024874Y-95250000D03*
X174500000Y-98750000D03*
X176274874Y-96000000D03*
X138750000Y-95000000D03*
X153524874Y-110500000D03*
X163524874Y-100250000D03*
X147274874Y-111750000D03*
X177024874Y-94750000D03*
X167750000Y-107250000D03*
X138750000Y-97000000D03*
X171524874Y-92750000D03*
X173774874Y-96000000D03*
X154774874Y-93250000D03*
X173000000Y-100250000D03*
X179774874Y-98250000D03*
X146274874Y-111750000D03*
X173000000Y-101000000D03*
X158274874Y-93250000D03*
X179774874Y-96750000D03*
X168774874Y-102000000D03*
X171524874Y-93500000D03*
X156493574Y-103250000D03*
X156774874Y-100806300D03*
X148299874Y-109225000D03*
X153774874Y-95500000D03*
X159274874Y-95500000D03*
X149024188Y-98531300D03*
X181524874Y-106750000D03*
X164024874Y-105500000D03*
X143000000Y-100000000D03*
X144000000Y-107250000D03*
X166274874Y-95750000D03*
X180524874Y-103500000D03*
X173224874Y-113750000D03*
X154524874Y-112250000D03*
X161774874Y-91250000D03*
X173500000Y-107250000D03*
X171500000Y-107250000D03*
X173500000Y-109625000D03*
X167750000Y-106000000D03*
X146250000Y-99500000D03*
X166750000Y-106000000D03*
X172500000Y-107250000D03*
X153274874Y-96500000D03*
X157479974Y-105000000D03*
X169196156Y-110954673D03*
X153274874Y-103750000D03*
X154274874Y-104000000D03*
X152774874Y-96000000D03*
X160774874Y-96250000D03*
X152274874Y-96500000D03*
X177024874Y-101500000D03*
X161524874Y-94750000D03*
X149024874Y-99750000D03*
X178024874Y-106750000D03*
X178024874Y-104750000D03*
X148524874Y-99250000D03*
X172500000Y-105750000D03*
X167750000Y-104250000D03*
X166774874Y-97000000D03*
X169500000Y-103000000D03*
X171500000Y-105705100D03*
X173750000Y-105750000D03*
X164474874Y-108675000D03*
X151274874Y-103750000D03*
X159774874Y-96500000D03*
X155524874Y-97250000D03*
X143974874Y-102350000D03*
X143974874Y-104350000D03*
X168474874Y-110455100D03*
X144224874Y-100850000D03*
D21*
X174324874Y-108600000D02*
X174324874Y-107400000D01*
X167124874Y-108600000D02*
X167924874Y-108600000D01*
X167924874Y-107424874D02*
X167750000Y-107250000D01*
X167124874Y-107400000D02*
X167124874Y-108600000D01*
X174324874Y-112400000D02*
X174324874Y-113600000D01*
X174324874Y-113600000D02*
X174474874Y-113750000D01*
X174324874Y-107400000D02*
X174474874Y-107250000D01*
X166474874Y-113750000D02*
X167124874Y-113100000D01*
X167924874Y-108600000D02*
X167924874Y-107424874D01*
X167124874Y-113100000D02*
X167124874Y-112400000D01*
X166974874Y-107250000D02*
X167124874Y-107400000D01*
X173524874Y-113450000D02*
X173524874Y-112400000D01*
D22*
X180075000Y-103050126D02*
X180524874Y-103500000D01*
X142575000Y-99575000D02*
X143000000Y-100000000D01*
X180075000Y-101500000D02*
X180075000Y-103050126D01*
X141750000Y-99575000D02*
X142575000Y-99575000D01*
D21*
X173224874Y-113750000D02*
X173524874Y-113450000D01*
X164239901Y-106000000D02*
X164234301Y-106005600D01*
X154632600Y-102877000D02*
X150474780Y-102877000D01*
X157761200Y-106005600D02*
X154632600Y-102877000D01*
X166750000Y-106000000D02*
X164239901Y-106000000D01*
X147097780Y-99500000D02*
X146250000Y-99500000D01*
X164234301Y-106005600D02*
X157761200Y-106005600D01*
X150474780Y-102877000D02*
X147097780Y-99500000D01*
D23*
X148069274Y-98841898D02*
X149661172Y-97250000D01*
X157479974Y-104979974D02*
X155000000Y-102500000D01*
X157479974Y-105000000D02*
X157479974Y-104979974D01*
X150630939Y-102500000D02*
X148069274Y-99938334D01*
X148069274Y-99938334D02*
X148069274Y-98841898D01*
X152524874Y-97250000D02*
X153274874Y-96500000D01*
X149661172Y-97250000D02*
X152524874Y-97250000D01*
X155000000Y-102500000D02*
X150630939Y-102500000D01*
X169629547Y-110954673D02*
X169196156Y-110954673D01*
X170324874Y-112400000D02*
X170324874Y-111650000D01*
X170324874Y-111650000D02*
X169629547Y-110954673D01*
X171924874Y-111650000D02*
X171924874Y-112400000D01*
X157228874Y-107704000D02*
X164428874Y-107704000D01*
X164428874Y-107704000D02*
X166724874Y-110000000D01*
X170274874Y-110000000D02*
X171924874Y-111650000D01*
X166724874Y-110000000D02*
X170274874Y-110000000D01*
X153274874Y-103750000D02*
X157228874Y-107704000D01*
X154274874Y-104000000D02*
X157651874Y-107377000D01*
X170250000Y-109500000D02*
X172724874Y-111974874D01*
X172724874Y-111974874D02*
X172724874Y-112400000D01*
X164647874Y-107377000D02*
X166770874Y-109500000D01*
X166770874Y-109500000D02*
X170250000Y-109500000D01*
X157651874Y-107377000D02*
X164647874Y-107377000D01*
X152774874Y-96000000D02*
X152806185Y-96031311D01*
X152806185Y-96031311D02*
X160556185Y-96031311D01*
X160556185Y-96031311D02*
X160774874Y-96250000D01*
X176524874Y-102000000D02*
X177024874Y-101500000D01*
X153024874Y-94750000D02*
X152274874Y-95500000D01*
X161524874Y-94750000D02*
X153024874Y-94750000D01*
X167230474Y-100455600D02*
X170213590Y-100455600D01*
X161524874Y-94750000D02*
X167230474Y-100455600D01*
X170213590Y-100455600D02*
X170222032Y-100447158D01*
X171774874Y-102000000D02*
X176524874Y-102000000D01*
X170222032Y-100447158D02*
X171774874Y-102000000D01*
X152274874Y-95500000D02*
X152274874Y-96500000D01*
X164524874Y-102000000D02*
X156524874Y-102000000D01*
X171024874Y-105250000D02*
X169024874Y-103250000D01*
X178024874Y-106750000D02*
X176524874Y-105250000D01*
X169024874Y-103250000D02*
X165774874Y-103250000D01*
X165774874Y-103250000D02*
X164524874Y-102000000D01*
X176524874Y-105250000D02*
X171024874Y-105250000D01*
X156524874Y-102000000D02*
X155524874Y-101000000D01*
X150274874Y-101000000D02*
X149024874Y-99750000D01*
X155524874Y-101000000D02*
X150274874Y-101000000D01*
X150024874Y-99250000D02*
X150274874Y-99500000D01*
X158774874Y-101000000D02*
X170274874Y-101000000D01*
X150274874Y-99500000D02*
X157274874Y-99500000D01*
X170274874Y-101000000D02*
X174024874Y-104750000D01*
X157274874Y-99500000D02*
X158774874Y-101000000D01*
X174024874Y-104750000D02*
X178024874Y-104750000D01*
X148524874Y-99250000D02*
X150024874Y-99250000D01*
X164474874Y-108675000D02*
X164399874Y-108750000D01*
X156630558Y-108750000D02*
X151630558Y-103750000D01*
X164399874Y-108750000D02*
X156630558Y-108750000D01*
X151630558Y-103750000D02*
X151274874Y-103750000D01*
X156274874Y-96500000D02*
X155524874Y-97250000D01*
X159774874Y-96500000D02*
X156274874Y-96500000D01*
X149624874Y-108000000D02*
X153724874Y-108000000D01*
X160822110Y-109404000D02*
X162466110Y-111048000D01*
X143974874Y-102350000D02*
X149624874Y-108000000D01*
X153724874Y-108000000D02*
X155128874Y-109404000D01*
X167887426Y-111500000D02*
X168574874Y-111500000D01*
X155128874Y-109404000D02*
X160822110Y-109404000D01*
X162466110Y-111048000D02*
X167435426Y-111048000D01*
X168724874Y-111650000D02*
X168724874Y-112400000D01*
X167435426Y-111048000D02*
X167887426Y-111500000D01*
X168574874Y-111500000D02*
X168724874Y-111650000D01*
D22*
X175667800Y-110082200D02*
X172654000Y-110082200D01*
X178750000Y-103871705D02*
X178750000Y-107000000D01*
X171925000Y-109353200D02*
X171925000Y-108600000D01*
X178425000Y-101087500D02*
X178425000Y-101500000D01*
X178750000Y-107000000D02*
X175667800Y-110082200D01*
X178425000Y-101500000D02*
X178425000Y-103546705D01*
X172654000Y-110082200D02*
X171925000Y-109353200D01*
X178425000Y-103546705D02*
X178750000Y-103871705D01*
X177000000Y-99662500D02*
X178425000Y-101087500D01*
D23*
X153589426Y-108327000D02*
X159468026Y-114205600D01*
X167924874Y-113550000D02*
X167924874Y-112400000D01*
X143974874Y-104350000D02*
X147951874Y-108327000D01*
X167269274Y-114205600D02*
X167924874Y-113550000D01*
X147951874Y-108327000D02*
X153589426Y-108327000D01*
X159468026Y-114205600D02*
X167269274Y-114205600D01*
D22*
X171125000Y-108142800D02*
X171125000Y-108600000D01*
X147555600Y-103255600D02*
X154475778Y-103255600D01*
X142300000Y-98000000D02*
X147555600Y-103255600D01*
X141750000Y-96162500D02*
X141912500Y-96000000D01*
X141750000Y-97925000D02*
X141750000Y-96162500D01*
X170732200Y-107750000D02*
X171125000Y-108142800D01*
X157970178Y-106750000D02*
X168146579Y-106750000D01*
X169146579Y-107750000D02*
X170732200Y-107750000D01*
X168146579Y-106750000D02*
X169146579Y-107750000D01*
X154475778Y-103255600D02*
X157970178Y-106750000D01*
X141900000Y-98000000D02*
X142300000Y-98000000D01*
D23*
X171124874Y-111846000D02*
X171124874Y-112400000D01*
X168474874Y-110455100D02*
X169733974Y-110455100D01*
X169733974Y-110455100D02*
X171124874Y-111846000D01*
X168553474Y-110955600D02*
X169524874Y-111927000D01*
X147580474Y-104205600D02*
X151180474Y-104205600D01*
X144224874Y-100850000D02*
X147580474Y-104205600D01*
X167805474Y-110955600D02*
X168553474Y-110955600D01*
X161880558Y-110000000D02*
X166262426Y-110000000D01*
X167176874Y-110327000D02*
X167805474Y-110955600D01*
X156051874Y-109077000D02*
X160957558Y-109077000D01*
X169524874Y-111927000D02*
X169524874Y-112400000D01*
X160957558Y-109077000D02*
X161880558Y-110000000D01*
X151180474Y-104205600D02*
X156051874Y-109077000D01*
X166589426Y-110327000D02*
X167176874Y-110327000D01*
X166262426Y-110000000D02*
X166589426Y-110327000D01*
G04 #@! TA.AperFunction,Conductor*
G36*
X186811539Y-108019685D02*
G01*
X186857294Y-108072489D01*
X186868500Y-108124000D01*
X186868500Y-111995220D01*
X186868308Y-112002121D01*
X186850706Y-112317921D01*
X186849316Y-112330767D01*
X186799421Y-112640086D01*
X186796701Y-112652717D01*
X186714894Y-112955153D01*
X186710875Y-112967432D01*
X186598044Y-113259707D01*
X186592770Y-113271502D01*
X186450129Y-113550468D01*
X186443655Y-113561650D01*
X186272766Y-113824252D01*
X186265164Y-113834700D01*
X186067879Y-114078090D01*
X186059231Y-114087689D01*
X185837689Y-114309231D01*
X185828090Y-114317879D01*
X185584700Y-114515164D01*
X185574252Y-114522766D01*
X185311650Y-114693655D01*
X185300468Y-114700129D01*
X185021502Y-114842770D01*
X185009707Y-114848044D01*
X184717432Y-114960875D01*
X184705153Y-114964894D01*
X184402717Y-115046701D01*
X184390086Y-115049421D01*
X184080767Y-115099316D01*
X184067921Y-115100706D01*
X183752123Y-115118308D01*
X183745222Y-115118500D01*
X179624000Y-115118500D01*
X179556961Y-115098815D01*
X179511206Y-115046011D01*
X179500000Y-114994500D01*
X179500000Y-108124000D01*
X179519685Y-108056961D01*
X179572489Y-108011206D01*
X179624000Y-108000000D01*
X186744500Y-108000000D01*
X186811539Y-108019685D01*
G37*
G04 #@! TD.AperFunction*
G04 #@! TA.AperFunction,Conductor*
G36*
X186724874Y-94509305D02*
G01*
X186747166Y-94550130D01*
X186750000Y-94576488D01*
X186750000Y-100423512D01*
X186730315Y-100490551D01*
X186724874Y-100497303D01*
X186724874Y-100500000D01*
X181750000Y-100500000D01*
X181750000Y-97520002D01*
X183425157Y-97520002D01*
X183445958Y-97704626D01*
X183492594Y-97837902D01*
X183507325Y-97880001D01*
X183606175Y-98037320D01*
X183737554Y-98168699D01*
X183894873Y-98267549D01*
X184028146Y-98314183D01*
X184070247Y-98328915D01*
X184254871Y-98349717D01*
X184254874Y-98349717D01*
X184254877Y-98349717D01*
X184439500Y-98328915D01*
X184439503Y-98328914D01*
X184614875Y-98267549D01*
X184772194Y-98168699D01*
X184903573Y-98037320D01*
X185002423Y-97880001D01*
X185063788Y-97704629D01*
X185063788Y-97704628D01*
X185063789Y-97704626D01*
X185084591Y-97520002D01*
X185084591Y-97519997D01*
X185063789Y-97335373D01*
X185049057Y-97293272D01*
X185002423Y-97159999D01*
X184903573Y-97002680D01*
X184772194Y-96871301D01*
X184614875Y-96772451D01*
X184572776Y-96757720D01*
X184439500Y-96711084D01*
X184254877Y-96690283D01*
X184254871Y-96690283D01*
X184070247Y-96711084D01*
X183894870Y-96772452D01*
X183737553Y-96871301D01*
X183606175Y-97002679D01*
X183507326Y-97159996D01*
X183445958Y-97335373D01*
X183425157Y-97519997D01*
X183425157Y-97520002D01*
X181750000Y-97520002D01*
X181750000Y-94500000D01*
X186724874Y-94500000D01*
X186724874Y-94509305D01*
G37*
G04 #@! TD.AperFunction*
G04 #@! TA.AperFunction,Conductor*
G36*
X183753243Y-87131669D02*
G01*
X184069500Y-87148243D01*
X184082376Y-87149597D01*
X184391966Y-87198632D01*
X184404627Y-87201322D01*
X184707405Y-87282451D01*
X184719731Y-87286457D01*
X185012344Y-87398780D01*
X185024186Y-87404052D01*
X185303468Y-87546354D01*
X185314699Y-87552839D01*
X185577554Y-87723539D01*
X185588055Y-87731168D01*
X185831637Y-87928416D01*
X185841282Y-87937101D01*
X186062898Y-88158717D01*
X186071583Y-88168362D01*
X186268831Y-88411944D01*
X186276460Y-88422445D01*
X186447158Y-88685296D01*
X186453648Y-88696536D01*
X186595942Y-88975802D01*
X186601221Y-88987660D01*
X186713541Y-89280265D01*
X186717552Y-89292608D01*
X186798672Y-89595352D01*
X186801370Y-89608048D01*
X186850400Y-89917607D01*
X186851757Y-89930516D01*
X186868330Y-90246756D01*
X186868500Y-90253245D01*
X186868500Y-94126000D01*
X186848815Y-94193039D01*
X186796011Y-94238794D01*
X186744500Y-94250000D01*
X179500000Y-94250000D01*
X179500000Y-87255500D01*
X179519685Y-87188461D01*
X179572489Y-87142706D01*
X179624000Y-87131500D01*
X183695149Y-87131500D01*
X183746755Y-87131500D01*
X183753243Y-87131669D01*
G37*
G04 #@! TD.AperFunction*
G04 #@! TA.AperFunction,Conductor*
G36*
X144943039Y-87151185D02*
G01*
X144988794Y-87203989D01*
X145000000Y-87255500D01*
X145000000Y-94126000D01*
X144980315Y-94193039D01*
X144927511Y-94238794D01*
X144876000Y-94250000D01*
X137755500Y-94250000D01*
X137688461Y-94230315D01*
X137642706Y-94177511D01*
X137631500Y-94126000D01*
X137631500Y-90253245D01*
X137631670Y-90246756D01*
X137641493Y-90059314D01*
X137648243Y-89930497D01*
X137649597Y-89917625D01*
X137698632Y-89608029D01*
X137701321Y-89595376D01*
X137782453Y-89292588D01*
X137786455Y-89280273D01*
X137898783Y-88987648D01*
X137904048Y-88975820D01*
X138046358Y-88696523D01*
X138052833Y-88685308D01*
X138223546Y-88422435D01*
X138231161Y-88411953D01*
X138428424Y-88168352D01*
X138437091Y-88158727D01*
X138658727Y-87937091D01*
X138668352Y-87928424D01*
X138911953Y-87731161D01*
X138922435Y-87723546D01*
X139185308Y-87552833D01*
X139196523Y-87546358D01*
X139475820Y-87404048D01*
X139487648Y-87398783D01*
X139780273Y-87286455D01*
X139792588Y-87282453D01*
X140095376Y-87201321D01*
X140108029Y-87198632D01*
X140417625Y-87149597D01*
X140430497Y-87148243D01*
X140746756Y-87131669D01*
X140753245Y-87131500D01*
X144876000Y-87131500D01*
X144943039Y-87151185D01*
G37*
G04 #@! TD.AperFunction*
G04 #@! TA.AperFunction,Conductor*
G36*
X144943039Y-108019685D02*
G01*
X144988794Y-108072489D01*
X145000000Y-108124000D01*
X145000000Y-114994500D01*
X144980315Y-115061539D01*
X144927511Y-115107294D01*
X144876000Y-115118500D01*
X140753245Y-115118500D01*
X140746756Y-115118330D01*
X140430516Y-115101757D01*
X140417607Y-115100400D01*
X140108048Y-115051370D01*
X140095358Y-115048673D01*
X139792606Y-114967551D01*
X139780265Y-114963541D01*
X139487660Y-114851221D01*
X139475802Y-114845942D01*
X139196536Y-114703648D01*
X139185296Y-114697158D01*
X138922445Y-114526460D01*
X138911944Y-114518831D01*
X138668362Y-114321583D01*
X138658717Y-114312898D01*
X138437101Y-114091282D01*
X138428416Y-114081637D01*
X138231168Y-113838055D01*
X138223539Y-113827554D01*
X138052841Y-113564703D01*
X138046351Y-113553463D01*
X137921900Y-113309215D01*
X137904052Y-113274186D01*
X137898778Y-113262339D01*
X137786458Y-112969734D01*
X137782451Y-112957405D01*
X137701322Y-112654627D01*
X137698632Y-112641966D01*
X137649597Y-112332376D01*
X137648243Y-112319500D01*
X137631670Y-112003243D01*
X137631500Y-111996754D01*
X137631500Y-108124000D01*
X137651185Y-108056961D01*
X137703989Y-108011206D01*
X137755500Y-108000000D01*
X144876000Y-108000000D01*
X144943039Y-108019685D01*
G37*
G04 #@! TD.AperFunction*
G04 #@! TA.AperFunction,Conductor*
G36*
X170420989Y-105519685D02*
G01*
X170466744Y-105572489D01*
X170477911Y-105620885D01*
X170499999Y-106499999D01*
X170500000Y-106500000D01*
X175100874Y-106500000D01*
X175167913Y-106519685D01*
X175213668Y-106572489D01*
X175224874Y-106624000D01*
X175224874Y-109706100D01*
X175205189Y-109773139D01*
X175152385Y-109818894D01*
X175100874Y-109830100D01*
X172809785Y-109830100D01*
X172742746Y-109810415D01*
X172722104Y-109793781D01*
X172331724Y-109403401D01*
X172298239Y-109342078D01*
X172303223Y-109272386D01*
X172316296Y-109246841D01*
X172341767Y-109208722D01*
X172350500Y-109164822D01*
X173949499Y-109164822D01*
X173958231Y-109208717D01*
X173958234Y-109208724D01*
X173991495Y-109258503D01*
X173991496Y-109258504D01*
X174041278Y-109291767D01*
X174041281Y-109291767D01*
X174041282Y-109291768D01*
X174085177Y-109300500D01*
X174085180Y-109300500D01*
X174614822Y-109300500D01*
X174658717Y-109291768D01*
X174658717Y-109291767D01*
X174658722Y-109291767D01*
X174708504Y-109258504D01*
X174741767Y-109208722D01*
X174750500Y-109164820D01*
X174750500Y-108035180D01*
X174750500Y-108035177D01*
X174741768Y-107991282D01*
X174741767Y-107991281D01*
X174741767Y-107991278D01*
X174708504Y-107941496D01*
X174682759Y-107924294D01*
X174680483Y-107922773D01*
X174635678Y-107869160D01*
X174625374Y-107819671D01*
X174625374Y-107674778D01*
X174645059Y-107607739D01*
X174693079Y-107564292D01*
X174700481Y-107560522D01*
X174785396Y-107475607D01*
X174839914Y-107368609D01*
X174839915Y-107368604D01*
X174858700Y-107250002D01*
X174858700Y-107249997D01*
X174839915Y-107131395D01*
X174839914Y-107131393D01*
X174839914Y-107131391D01*
X174785396Y-107024393D01*
X174785394Y-107024391D01*
X174785391Y-107024387D01*
X174700486Y-106939482D01*
X174700482Y-106939479D01*
X174700481Y-106939478D01*
X174593483Y-106884960D01*
X174593481Y-106884959D01*
X174593478Y-106884958D01*
X174474876Y-106866174D01*
X174474872Y-106866174D01*
X174356269Y-106884958D01*
X174249265Y-106939479D01*
X174249261Y-106939482D01*
X174164356Y-107024387D01*
X174164353Y-107024392D01*
X174109833Y-107131393D01*
X174104440Y-107165442D01*
X174074510Y-107228576D01*
X174073607Y-107229578D01*
X174064957Y-107239066D01*
X174064957Y-107239067D01*
X174062452Y-107245533D01*
X174049133Y-107270802D01*
X174045219Y-107276515D01*
X174045217Y-107276520D01*
X174039102Y-107302517D01*
X174034025Y-107318913D01*
X174024374Y-107343826D01*
X174024374Y-107350751D01*
X174021080Y-107379141D01*
X174019495Y-107385877D01*
X174019495Y-107385882D01*
X174023185Y-107412333D01*
X174024374Y-107429464D01*
X174024374Y-107857255D01*
X174004689Y-107924294D01*
X173994737Y-107936643D01*
X173958233Y-107991276D01*
X173958231Y-107991282D01*
X173949500Y-108035177D01*
X173949500Y-108035180D01*
X173949500Y-109164820D01*
X173949500Y-109164822D01*
X173949499Y-109164822D01*
X172350500Y-109164822D01*
X172350500Y-109164820D01*
X172350500Y-108035180D01*
X172350500Y-108035177D01*
X172341768Y-107991282D01*
X172341767Y-107991281D01*
X172341767Y-107991278D01*
X172308504Y-107941496D01*
X172301241Y-107936643D01*
X172258724Y-107908234D01*
X172258717Y-107908231D01*
X172214822Y-107899500D01*
X172214820Y-107899500D01*
X171685180Y-107899500D01*
X171685178Y-107899500D01*
X171641282Y-107908231D01*
X171641279Y-107908232D01*
X171628922Y-107916488D01*
X171619485Y-107922795D01*
X171618889Y-107923193D01*
X171552211Y-107944069D01*
X171484831Y-107925583D01*
X171481111Y-107923193D01*
X171458722Y-107908233D01*
X171458721Y-107908232D01*
X171458720Y-107908232D01*
X171458717Y-107908231D01*
X171414822Y-107899500D01*
X171414820Y-107899500D01*
X171289585Y-107899500D01*
X171222546Y-107879815D01*
X171201904Y-107863181D01*
X170936656Y-107597933D01*
X170921235Y-107579143D01*
X170913954Y-107568246D01*
X170913949Y-107568242D01*
X170830567Y-107512528D01*
X170830565Y-107512527D01*
X170757030Y-107497900D01*
X170732200Y-107492961D01*
X170732199Y-107492961D01*
X170719350Y-107495517D01*
X170695158Y-107497900D01*
X169302364Y-107497900D01*
X169235325Y-107478215D01*
X169214683Y-107461581D01*
X168351035Y-106597933D01*
X168335614Y-106579143D01*
X168328333Y-106568246D01*
X168328328Y-106568242D01*
X168244946Y-106512528D01*
X168244944Y-106512527D01*
X168171409Y-106497900D01*
X168146579Y-106492961D01*
X168146578Y-106492961D01*
X168133729Y-106495517D01*
X168109537Y-106497900D01*
X166348874Y-106497900D01*
X166281835Y-106478215D01*
X166236080Y-106425411D01*
X166224874Y-106373900D01*
X166224874Y-105624000D01*
X166244559Y-105556961D01*
X166297363Y-105511206D01*
X166348874Y-105500000D01*
X170353950Y-105500000D01*
X170420989Y-105519685D01*
G37*
G04 #@! TD.AperFunction*
G04 #@! TA.AperFunction,Conductor*
G36*
X179000000Y-99000000D02*
G01*
X177484681Y-99000000D01*
X177481524Y-98999500D01*
X176518482Y-98999500D01*
X176515325Y-99000000D01*
X176000000Y-99000000D01*
X176000000Y-96250000D01*
X179000000Y-96250000D01*
X179000000Y-99000000D01*
G37*
G04 #@! TD.AperFunction*
G04 #@! TA.AperFunction,Conductor*
G36*
X140943039Y-94519685D02*
G01*
X140988794Y-94572489D01*
X141000000Y-94624000D01*
X141000000Y-97376000D01*
X140980315Y-97443039D01*
X140927511Y-97488794D01*
X140876000Y-97500000D01*
X138124000Y-97500000D01*
X138056961Y-97480315D01*
X138011206Y-97427511D01*
X138000000Y-97376000D01*
X138000000Y-94624000D01*
X138019685Y-94556961D01*
X138072489Y-94511206D01*
X138124000Y-94500000D01*
X140876000Y-94500000D01*
X140943039Y-94519685D01*
G37*
G04 #@! TD.AperFunction*
G04 #@! TA.AperFunction,Conductor*
G36*
X170186791Y-101270185D02*
G01*
X170207433Y-101286819D01*
X172208932Y-103288319D01*
X172242417Y-103349642D01*
X172237433Y-103419334D01*
X172195561Y-103475267D01*
X172130097Y-103499684D01*
X172121251Y-103500000D01*
X169835492Y-103500000D01*
X169768453Y-103480315D01*
X169722698Y-103427511D01*
X169712754Y-103358353D01*
X169741779Y-103294797D01*
X169747811Y-103288319D01*
X169810517Y-103225612D01*
X169810522Y-103225607D01*
X169865040Y-103118609D01*
X169865041Y-103118604D01*
X169883826Y-103000002D01*
X169883826Y-102999997D01*
X169865041Y-102881395D01*
X169865040Y-102881393D01*
X169865040Y-102881391D01*
X169810522Y-102774393D01*
X169810520Y-102774391D01*
X169810517Y-102774387D01*
X169725612Y-102689482D01*
X169725608Y-102689479D01*
X169725607Y-102689478D01*
X169618609Y-102634960D01*
X169618607Y-102634959D01*
X169618604Y-102634958D01*
X169500002Y-102616174D01*
X169499998Y-102616174D01*
X169381395Y-102634958D01*
X169274391Y-102689479D01*
X169274387Y-102689482D01*
X169189482Y-102774387D01*
X169189479Y-102774391D01*
X169134958Y-102881394D01*
X169133547Y-102890308D01*
X169103616Y-102953442D01*
X169044303Y-102990372D01*
X169035270Y-102992523D01*
X169012184Y-102997116D01*
X168987988Y-102999500D01*
X168098874Y-102999500D01*
X168031835Y-102979815D01*
X167986080Y-102927011D01*
X167974874Y-102875500D01*
X167974874Y-101374500D01*
X167994559Y-101307461D01*
X168047363Y-101261706D01*
X168098874Y-101250500D01*
X170119752Y-101250500D01*
X170186791Y-101270185D01*
G37*
G04 #@! TD.AperFunction*
G04 #@! TA.AperFunction,Conductor*
G36*
X179500000Y-94250000D02*
G01*
X186724874Y-94250000D01*
X186724874Y-94500000D01*
X181750000Y-94500000D01*
X181750000Y-100500000D01*
X186724874Y-100500000D01*
X186724874Y-103376000D01*
X186705189Y-103443039D01*
X186652385Y-103488794D01*
X186600874Y-103500000D01*
X181014606Y-103500000D01*
X180947567Y-103480315D01*
X180901812Y-103427511D01*
X180892133Y-103395397D01*
X180889915Y-103381395D01*
X180889914Y-103381393D01*
X180889914Y-103381391D01*
X180835396Y-103274393D01*
X180835394Y-103274391D01*
X180835391Y-103274387D01*
X180750486Y-103189482D01*
X180750482Y-103189479D01*
X180750481Y-103189478D01*
X180643483Y-103134960D01*
X180643481Y-103134959D01*
X180643478Y-103134958D01*
X180532226Y-103117338D01*
X180469091Y-103087409D01*
X180463943Y-103082546D01*
X180363419Y-102982022D01*
X180329934Y-102920699D01*
X180327100Y-102894341D01*
X180327100Y-102216436D01*
X180346785Y-102149397D01*
X180398694Y-102104054D01*
X180479140Y-102066542D01*
X180566542Y-101979140D01*
X180618780Y-101867116D01*
X180625500Y-101816071D01*
X180625499Y-101183930D01*
X180618780Y-101132884D01*
X180566542Y-101020860D01*
X180479140Y-100933458D01*
X180367116Y-100881220D01*
X180367114Y-100881219D01*
X180316073Y-100874500D01*
X179833935Y-100874500D01*
X179817753Y-100876630D01*
X179782884Y-100881220D01*
X179782882Y-100881221D01*
X179782880Y-100881221D01*
X179670859Y-100933458D01*
X179583458Y-101020859D01*
X179531219Y-101132886D01*
X179524500Y-101183926D01*
X179524500Y-101816064D01*
X179524501Y-101816070D01*
X179531220Y-101867116D01*
X179531221Y-101867118D01*
X179531221Y-101867119D01*
X179538667Y-101883087D01*
X179583458Y-101979140D01*
X179670860Y-102066542D01*
X179751305Y-102104054D01*
X179803744Y-102150226D01*
X179822900Y-102216436D01*
X179822900Y-103013084D01*
X179820517Y-103037276D01*
X179817961Y-103050125D01*
X179817961Y-103050129D01*
X179821709Y-103068972D01*
X179821711Y-103068981D01*
X179837525Y-103148486D01*
X179837528Y-103148493D01*
X179893242Y-103231875D01*
X179893246Y-103231880D01*
X179904143Y-103239161D01*
X179922933Y-103254582D01*
X179956670Y-103288319D01*
X179990155Y-103349642D01*
X179985171Y-103419334D01*
X179943299Y-103475267D01*
X179877835Y-103499684D01*
X179868989Y-103500000D01*
X178801100Y-103500000D01*
X178734061Y-103480315D01*
X178688306Y-103427511D01*
X178677100Y-103376000D01*
X178677100Y-102216436D01*
X178696785Y-102149397D01*
X178748694Y-102104054D01*
X178829140Y-102066542D01*
X178916542Y-101979140D01*
X178968780Y-101867116D01*
X178975500Y-101816071D01*
X178975499Y-101183930D01*
X178968780Y-101132884D01*
X178916542Y-101020860D01*
X178829140Y-100933458D01*
X178717116Y-100881220D01*
X178717114Y-100881219D01*
X178666073Y-100874500D01*
X178666071Y-100874500D01*
X178619885Y-100874500D01*
X178552846Y-100854815D01*
X178532204Y-100838181D01*
X177866982Y-100172959D01*
X177833497Y-100111636D01*
X177836071Y-100060252D01*
X177834120Y-100059943D01*
X177850499Y-99956524D01*
X177850500Y-99956519D01*
X177850499Y-99368482D01*
X177835646Y-99274696D01*
X177778050Y-99161658D01*
X177778046Y-99161654D01*
X177778045Y-99161652D01*
X177688347Y-99071954D01*
X177688343Y-99071951D01*
X177688342Y-99071950D01*
X177685657Y-99070582D01*
X177642718Y-99048703D01*
X177591923Y-99000729D01*
X177591742Y-99000000D01*
X179000000Y-99000000D01*
X179000000Y-96250000D01*
X176000000Y-96250000D01*
X176000000Y-97064338D01*
X175957684Y-97106654D01*
X175865643Y-97255875D01*
X175865639Y-97255885D01*
X175861977Y-97266936D01*
X175822202Y-97324379D01*
X175757685Y-97351200D01*
X175688910Y-97338882D01*
X175678301Y-97332921D01*
X175615309Y-97293341D01*
X175615310Y-97293341D01*
X175449528Y-97235332D01*
X175449524Y-97235331D01*
X175275004Y-97215668D01*
X175274996Y-97215668D01*
X175100475Y-97235331D01*
X175100471Y-97235332D01*
X174934692Y-97293340D01*
X174926832Y-97298278D01*
X175275000Y-97646447D01*
X175945676Y-98317122D01*
X175979161Y-98378445D01*
X175974177Y-98448136D01*
X175945676Y-98492484D01*
X175924162Y-98513997D01*
X175924162Y-98514000D01*
X175957679Y-98568340D01*
X176000000Y-98610660D01*
X176000000Y-99000000D01*
X176405978Y-99000000D01*
X176364399Y-99044777D01*
X176357282Y-99048703D01*
X176311657Y-99071950D01*
X176311652Y-99071954D01*
X176221954Y-99161652D01*
X176221950Y-99161658D01*
X176211607Y-99181957D01*
X176163631Y-99232752D01*
X176095810Y-99249546D01*
X176029675Y-99227007D01*
X175986225Y-99172291D01*
X175984080Y-99166611D01*
X175981658Y-99159690D01*
X175976720Y-99151831D01*
X175628553Y-99499999D01*
X175628553Y-99500000D01*
X175976720Y-99848166D01*
X176012091Y-99844182D01*
X176080913Y-99856237D01*
X176132291Y-99903587D01*
X176147738Y-99951864D01*
X176148739Y-99951706D01*
X176149500Y-99956517D01*
X176149501Y-99956518D01*
X176164354Y-100050304D01*
X176221950Y-100163342D01*
X176221952Y-100163344D01*
X176221954Y-100163347D01*
X176311652Y-100253045D01*
X176311654Y-100253046D01*
X176311658Y-100253050D01*
X176400423Y-100298278D01*
X176424698Y-100310647D01*
X176518475Y-100325499D01*
X176518481Y-100325500D01*
X177255114Y-100325499D01*
X177322153Y-100345183D01*
X177342795Y-100361818D01*
X177893808Y-100912831D01*
X177927293Y-100974154D01*
X177922309Y-101043846D01*
X177918509Y-101052916D01*
X177881220Y-101132883D01*
X177881219Y-101132885D01*
X177874500Y-101183926D01*
X177874500Y-101816064D01*
X177874501Y-101816070D01*
X177881220Y-101867116D01*
X177881221Y-101867118D01*
X177881221Y-101867119D01*
X177888667Y-101883087D01*
X177933458Y-101979140D01*
X178020860Y-102066542D01*
X178101305Y-102104054D01*
X178153744Y-102150226D01*
X178172900Y-102216436D01*
X178172900Y-103376000D01*
X178153215Y-103443039D01*
X178100411Y-103488794D01*
X178048900Y-103500000D01*
X173180497Y-103500000D01*
X173113458Y-103480315D01*
X173092816Y-103463681D01*
X172091315Y-102462181D01*
X172057830Y-102400858D01*
X172062814Y-102331166D01*
X172104686Y-102275233D01*
X172170150Y-102250816D01*
X172178996Y-102250500D01*
X176487988Y-102250500D01*
X176512180Y-102252883D01*
X176524873Y-102255408D01*
X176524874Y-102255408D01*
X176524876Y-102255408D01*
X176622611Y-102235967D01*
X176622611Y-102235966D01*
X176622615Y-102235966D01*
X176652410Y-102216057D01*
X176705475Y-102180601D01*
X176712674Y-102169825D01*
X176728085Y-102151048D01*
X176961256Y-101917877D01*
X177022577Y-101884394D01*
X177029528Y-101883088D01*
X177095677Y-101872611D01*
X177143478Y-101865041D01*
X177143478Y-101865040D01*
X177143483Y-101865040D01*
X177250481Y-101810522D01*
X177335396Y-101725607D01*
X177389914Y-101618609D01*
X177389915Y-101618604D01*
X177408700Y-101500002D01*
X177408700Y-101499997D01*
X177389915Y-101381395D01*
X177389914Y-101381393D01*
X177389914Y-101381391D01*
X177335396Y-101274393D01*
X177335394Y-101274391D01*
X177335391Y-101274387D01*
X177250486Y-101189482D01*
X177250482Y-101189479D01*
X177250481Y-101189478D01*
X177143483Y-101134960D01*
X177143481Y-101134959D01*
X177143478Y-101134958D01*
X177024876Y-101116174D01*
X177024872Y-101116174D01*
X176906269Y-101134958D01*
X176799265Y-101189479D01*
X176799261Y-101189482D01*
X176714356Y-101274387D01*
X176714353Y-101274391D01*
X176659832Y-101381394D01*
X176641786Y-101495334D01*
X176611856Y-101558468D01*
X176606995Y-101563615D01*
X176457433Y-101713180D01*
X176396110Y-101746666D01*
X176369751Y-101749500D01*
X175722308Y-101749500D01*
X175655269Y-101729815D01*
X175634627Y-101713181D01*
X175275001Y-101353553D01*
X175275000Y-101353553D01*
X174915371Y-101713181D01*
X174854048Y-101746666D01*
X174827690Y-101749500D01*
X174222308Y-101749500D01*
X174155269Y-101729815D01*
X174134627Y-101713181D01*
X173775001Y-101353553D01*
X173775000Y-101353553D01*
X173415371Y-101713181D01*
X173354048Y-101746666D01*
X173327690Y-101749500D01*
X172722308Y-101749500D01*
X172655269Y-101729815D01*
X172634627Y-101713181D01*
X172275000Y-101353553D01*
X171940284Y-101018837D01*
X172143985Y-101018837D01*
X172174967Y-101086679D01*
X172237709Y-101127000D01*
X172293261Y-101127000D01*
X172346560Y-101111350D01*
X172395401Y-101054985D01*
X172403307Y-101000000D01*
X172628553Y-101000000D01*
X172976720Y-101348166D01*
X173011124Y-101344291D01*
X173038894Y-101344291D01*
X173073279Y-101348166D01*
X173402609Y-101018837D01*
X173643985Y-101018837D01*
X173674967Y-101086679D01*
X173737709Y-101127000D01*
X173793261Y-101127000D01*
X173846560Y-101111350D01*
X173895401Y-101054985D01*
X173903307Y-101000000D01*
X174128553Y-101000000D01*
X174476720Y-101348166D01*
X174511124Y-101344291D01*
X174538894Y-101344291D01*
X174573279Y-101348166D01*
X174902609Y-101018837D01*
X175143985Y-101018837D01*
X175174967Y-101086679D01*
X175237709Y-101127000D01*
X175293261Y-101127000D01*
X175346560Y-101111350D01*
X175395401Y-101054985D01*
X175403307Y-101000000D01*
X175628553Y-101000000D01*
X175976720Y-101348166D01*
X175981658Y-101340308D01*
X176039667Y-101174528D01*
X176039668Y-101174524D01*
X176059332Y-101000003D01*
X176059332Y-100999996D01*
X176039668Y-100825475D01*
X176039667Y-100825471D01*
X175981658Y-100659690D01*
X175976720Y-100651831D01*
X175628553Y-100999999D01*
X175628553Y-101000000D01*
X175403307Y-101000000D01*
X175406015Y-100981163D01*
X175375033Y-100913321D01*
X175312291Y-100873000D01*
X175256739Y-100873000D01*
X175203440Y-100888650D01*
X175154599Y-100945015D01*
X175143985Y-101018837D01*
X174902609Y-101018837D01*
X174921446Y-101000000D01*
X174573278Y-100651832D01*
X174538898Y-100655708D01*
X174511123Y-100655708D01*
X174476720Y-100651831D01*
X174128553Y-100999999D01*
X174128553Y-101000000D01*
X173903307Y-101000000D01*
X173906015Y-100981163D01*
X173875033Y-100913321D01*
X173812291Y-100873000D01*
X173756739Y-100873000D01*
X173703440Y-100888650D01*
X173654599Y-100945015D01*
X173643985Y-101018837D01*
X173402609Y-101018837D01*
X173421446Y-101000000D01*
X173073278Y-100651832D01*
X173038898Y-100655708D01*
X173011123Y-100655708D01*
X172976720Y-100651831D01*
X172628553Y-100999999D01*
X172628553Y-101000000D01*
X172403307Y-101000000D01*
X172406015Y-100981163D01*
X172375033Y-100913321D01*
X172312291Y-100873000D01*
X172256739Y-100873000D01*
X172203440Y-100888650D01*
X172154599Y-100945015D01*
X172143985Y-101018837D01*
X171940284Y-101018837D01*
X171573278Y-100651832D01*
X171568340Y-100659692D01*
X171510332Y-100825471D01*
X171510331Y-100825475D01*
X171490668Y-100999996D01*
X171490668Y-101000003D01*
X171496898Y-101055299D01*
X171484843Y-101124121D01*
X171437494Y-101175500D01*
X171369884Y-101193124D01*
X171303478Y-101171397D01*
X171285997Y-101156863D01*
X170425249Y-100296115D01*
X170409826Y-100277323D01*
X170408273Y-100274999D01*
X170402633Y-100266557D01*
X170357087Y-100236124D01*
X170319774Y-100211192D01*
X170272157Y-100201720D01*
X171926831Y-100201720D01*
X171930708Y-100236123D01*
X171930708Y-100263898D01*
X171926832Y-100298278D01*
X172275000Y-100646446D01*
X172275001Y-100646446D01*
X172623166Y-100298279D01*
X172619291Y-100263894D01*
X172619291Y-100236124D01*
X172623166Y-100201720D01*
X173426831Y-100201720D01*
X173430708Y-100236123D01*
X173430708Y-100263898D01*
X173426832Y-100298278D01*
X173775000Y-100646446D01*
X173775001Y-100646446D01*
X174123166Y-100298279D01*
X174119291Y-100263894D01*
X174119291Y-100236124D01*
X174123166Y-100201720D01*
X174926831Y-100201720D01*
X174930708Y-100236123D01*
X174930708Y-100263898D01*
X174926832Y-100298278D01*
X175275000Y-100646446D01*
X175275001Y-100646446D01*
X175623166Y-100298279D01*
X175619291Y-100263894D01*
X175619291Y-100236124D01*
X175623166Y-100201720D01*
X175275001Y-99853553D01*
X175275000Y-99853553D01*
X174926831Y-100201720D01*
X174123166Y-100201720D01*
X173775001Y-99853553D01*
X173775000Y-99853553D01*
X173426831Y-100201720D01*
X172623166Y-100201720D01*
X172275001Y-99853553D01*
X172275000Y-99853553D01*
X171926831Y-100201720D01*
X170272157Y-100201720D01*
X170222032Y-100191749D01*
X170166895Y-100202717D01*
X170142702Y-100205100D01*
X168098874Y-100205100D01*
X168031835Y-100185415D01*
X167986080Y-100132611D01*
X167974874Y-100081100D01*
X167974874Y-99500003D01*
X171490668Y-99500003D01*
X171510331Y-99674524D01*
X171510332Y-99674528D01*
X171568341Y-99840309D01*
X171573278Y-99848166D01*
X171573279Y-99848167D01*
X171902609Y-99518837D01*
X172143985Y-99518837D01*
X172174967Y-99586679D01*
X172237709Y-99627000D01*
X172293261Y-99627000D01*
X172346560Y-99611350D01*
X172395401Y-99554985D01*
X172403307Y-99500000D01*
X172628553Y-99500000D01*
X172976720Y-99848166D01*
X173011124Y-99844291D01*
X173038894Y-99844291D01*
X173073279Y-99848166D01*
X173402609Y-99518837D01*
X173643985Y-99518837D01*
X173674967Y-99586679D01*
X173737709Y-99627000D01*
X173793261Y-99627000D01*
X173846560Y-99611350D01*
X173895401Y-99554985D01*
X173903307Y-99500000D01*
X174128553Y-99500000D01*
X174476720Y-99848166D01*
X174511124Y-99844291D01*
X174538894Y-99844291D01*
X174573279Y-99848166D01*
X174902609Y-99518837D01*
X175143985Y-99518837D01*
X175174967Y-99586679D01*
X175237709Y-99627000D01*
X175293261Y-99627000D01*
X175346560Y-99611350D01*
X175395401Y-99554985D01*
X175406015Y-99481163D01*
X175375033Y-99413321D01*
X175312291Y-99373000D01*
X175256739Y-99373000D01*
X175203440Y-99388650D01*
X175154599Y-99445015D01*
X175143985Y-99518837D01*
X174902609Y-99518837D01*
X174921446Y-99500000D01*
X174573278Y-99151832D01*
X174538898Y-99155708D01*
X174511123Y-99155708D01*
X174476720Y-99151831D01*
X174128553Y-99499999D01*
X174128553Y-99500000D01*
X173903307Y-99500000D01*
X173906015Y-99481163D01*
X173875033Y-99413321D01*
X173812291Y-99373000D01*
X173756739Y-99373000D01*
X173703440Y-99388650D01*
X173654599Y-99445015D01*
X173643985Y-99518837D01*
X173402609Y-99518837D01*
X173421446Y-99500000D01*
X173073278Y-99151832D01*
X173038898Y-99155708D01*
X173011123Y-99155708D01*
X172976720Y-99151831D01*
X172628553Y-99499999D01*
X172628553Y-99500000D01*
X172403307Y-99500000D01*
X172406015Y-99481163D01*
X172375033Y-99413321D01*
X172312291Y-99373000D01*
X172256739Y-99373000D01*
X172203440Y-99388650D01*
X172154599Y-99445015D01*
X172143985Y-99518837D01*
X171902609Y-99518837D01*
X171921446Y-99500000D01*
X171573278Y-99151832D01*
X171568340Y-99159692D01*
X171510332Y-99325471D01*
X171510331Y-99325475D01*
X171490668Y-99499996D01*
X171490668Y-99500003D01*
X167974874Y-99500003D01*
X167974874Y-98701720D01*
X171926831Y-98701720D01*
X171930708Y-98736123D01*
X171930708Y-98763898D01*
X171926832Y-98798278D01*
X172275000Y-99146446D01*
X172275001Y-99146446D01*
X172623166Y-98798279D01*
X172619291Y-98763894D01*
X172619291Y-98736124D01*
X172623166Y-98701720D01*
X173426831Y-98701720D01*
X173430708Y-98736123D01*
X173430708Y-98763898D01*
X173426832Y-98798278D01*
X173775000Y-99146446D01*
X173775001Y-99146446D01*
X174123166Y-98798279D01*
X174119291Y-98763894D01*
X174119291Y-98736124D01*
X174123166Y-98701720D01*
X174926831Y-98701720D01*
X174930708Y-98736123D01*
X174930708Y-98763898D01*
X174926832Y-98798278D01*
X175275000Y-99146446D01*
X175275001Y-99146446D01*
X175623166Y-98798279D01*
X175619291Y-98763894D01*
X175619291Y-98736124D01*
X175623166Y-98701720D01*
X175275001Y-98353553D01*
X175275000Y-98353553D01*
X174926831Y-98701720D01*
X174123166Y-98701720D01*
X173775001Y-98353553D01*
X173775000Y-98353553D01*
X173426831Y-98701720D01*
X172623166Y-98701720D01*
X172275001Y-98353553D01*
X172275000Y-98353553D01*
X171926831Y-98701720D01*
X167974874Y-98701720D01*
X167974874Y-98000003D01*
X171490668Y-98000003D01*
X171510331Y-98174524D01*
X171510332Y-98174528D01*
X171568341Y-98340309D01*
X171573278Y-98348166D01*
X171573279Y-98348167D01*
X171902609Y-98018837D01*
X172143985Y-98018837D01*
X172174967Y-98086679D01*
X172237709Y-98127000D01*
X172293261Y-98127000D01*
X172346560Y-98111350D01*
X172395401Y-98054985D01*
X172403307Y-98000000D01*
X172628553Y-98000000D01*
X172976720Y-98348166D01*
X173011124Y-98344291D01*
X173038894Y-98344291D01*
X173073279Y-98348166D01*
X173402609Y-98018837D01*
X173643985Y-98018837D01*
X173674967Y-98086679D01*
X173737709Y-98127000D01*
X173793261Y-98127000D01*
X173846560Y-98111350D01*
X173895401Y-98054985D01*
X173903307Y-98000000D01*
X174128553Y-98000000D01*
X174476720Y-98348166D01*
X174511124Y-98344291D01*
X174538894Y-98344291D01*
X174573279Y-98348166D01*
X174902609Y-98018837D01*
X175143985Y-98018837D01*
X175174967Y-98086679D01*
X175237709Y-98127000D01*
X175293261Y-98127000D01*
X175346560Y-98111350D01*
X175395401Y-98054985D01*
X175406015Y-97981163D01*
X175375033Y-97913321D01*
X175312291Y-97873000D01*
X175256739Y-97873000D01*
X175203440Y-97888650D01*
X175154599Y-97945015D01*
X175143985Y-98018837D01*
X174902609Y-98018837D01*
X174921446Y-98000000D01*
X174573278Y-97651832D01*
X174538898Y-97655708D01*
X174511123Y-97655708D01*
X174476720Y-97651831D01*
X174128553Y-97999999D01*
X174128553Y-98000000D01*
X173903307Y-98000000D01*
X173906015Y-97981163D01*
X173875033Y-97913321D01*
X173812291Y-97873000D01*
X173756739Y-97873000D01*
X173703440Y-97888650D01*
X173654599Y-97945015D01*
X173643985Y-98018837D01*
X173402609Y-98018837D01*
X173421446Y-98000000D01*
X173073278Y-97651832D01*
X173038898Y-97655708D01*
X173011123Y-97655708D01*
X172976720Y-97651831D01*
X172628553Y-97999999D01*
X172628553Y-98000000D01*
X172403307Y-98000000D01*
X172406015Y-97981163D01*
X172375033Y-97913321D01*
X172312291Y-97873000D01*
X172256739Y-97873000D01*
X172203440Y-97888650D01*
X172154599Y-97945015D01*
X172143985Y-98018837D01*
X171902609Y-98018837D01*
X171921446Y-98000000D01*
X171573278Y-97651832D01*
X171568340Y-97659692D01*
X171510332Y-97825471D01*
X171510331Y-97825475D01*
X171490668Y-97999996D01*
X171490668Y-98000003D01*
X167974874Y-98000003D01*
X167974874Y-97298278D01*
X171926832Y-97298278D01*
X172275000Y-97646446D01*
X172275001Y-97646446D01*
X172623167Y-97298279D01*
X172623166Y-97298278D01*
X173426832Y-97298278D01*
X173775000Y-97646446D01*
X173775001Y-97646446D01*
X174123167Y-97298279D01*
X174123166Y-97298278D01*
X174115309Y-97293341D01*
X173949528Y-97235332D01*
X173949524Y-97235331D01*
X173775004Y-97215668D01*
X173774996Y-97215668D01*
X173600475Y-97235331D01*
X173600471Y-97235332D01*
X173434692Y-97293340D01*
X173426832Y-97298278D01*
X172623166Y-97298278D01*
X172615309Y-97293341D01*
X172449528Y-97235332D01*
X172449524Y-97235331D01*
X172275004Y-97215668D01*
X172274996Y-97215668D01*
X172100475Y-97235331D01*
X172100471Y-97235332D01*
X171934692Y-97293340D01*
X171926832Y-97298278D01*
X167974874Y-97298278D01*
X167974874Y-93624000D01*
X167994559Y-93556961D01*
X168047363Y-93511206D01*
X168098874Y-93500000D01*
X179500000Y-93500000D01*
X179500000Y-94250000D01*
G37*
G04 #@! TD.AperFunction*
M02*
