G04 #@! TF.GenerationSoftware,KiCad,Pcbnew,7.0.10*
G04 #@! TF.CreationDate,2024-02-03T12:14:10-05:00*
G04 #@! TF.ProjectId,openlst-hw,6f70656e-6c73-4742-9d68-772e6b696361,rev?*
G04 #@! TF.SameCoordinates,Original*
G04 #@! TF.FileFunction,Legend,Top*
G04 #@! TF.FilePolarity,Positive*
%FSLAX46Y46*%
G04 Gerber Fmt 4.6, Leading zero omitted, Abs format (unit mm)*
G04 Created by KiCad (PCBNEW 7.0.10) date 2024-02-03 12:14:10*
%MOMM*%
%LPD*%
G01*
G04 APERTURE LIST*
G04 Aperture macros list*
%AMRoundRect*
0 Rectangle with rounded corners*
0 $1 Rounding radius*
0 $2 $3 $4 $5 $6 $7 $8 $9 X,Y pos of 4 corners*
0 Add a 4 corners polygon primitive as box body*
4,1,4,$2,$3,$4,$5,$6,$7,$8,$9,$2,$3,0*
0 Add four circle primitives for the rounded corners*
1,1,$1+$1,$2,$3*
1,1,$1+$1,$4,$5*
1,1,$1+$1,$6,$7*
1,1,$1+$1,$8,$9*
0 Add four rect primitives between the rounded corners*
20,1,$1+$1,$2,$3,$4,$5,0*
20,1,$1+$1,$4,$5,$6,$7,0*
20,1,$1+$1,$6,$7,$8,$9,0*
20,1,$1+$1,$8,$9,$2,$3,0*%
G04 Aperture macros list end*
%ADD10C,0.175000*%
%ADD11C,0.300000*%
%ADD12C,0.120000*%
%ADD13C,0.150000*%
%ADD14C,0.200000*%
%ADD15C,0.100000*%
%ADD16C,0.250000*%
%ADD17C,0.127000*%
%ADD18C,0.600000*%
%ADD19RoundRect,0.225000X0.250000X-0.225000X0.250000X0.225000X-0.250000X0.225000X-0.250000X-0.225000X0*%
%ADD20RoundRect,0.225000X-0.225000X-0.250000X0.225000X-0.250000X0.225000X0.250000X-0.225000X0.250000X0*%
%ADD21RoundRect,0.140000X0.140000X0.170000X-0.140000X0.170000X-0.140000X-0.170000X0.140000X-0.170000X0*%
%ADD22R,0.750000X0.280000*%
%ADD23R,0.280000X0.750000*%
%ADD24RoundRect,0.218750X0.256250X-0.218750X0.256250X0.218750X-0.256250X0.218750X-0.256250X-0.218750X0*%
%ADD25RoundRect,0.200000X0.275000X-0.200000X0.275000X0.200000X-0.275000X0.200000X-0.275000X-0.200000X0*%
%ADD26RoundRect,0.200000X0.200000X0.275000X-0.200000X0.275000X-0.200000X-0.275000X0.200000X-0.275000X0*%
%ADD27RoundRect,0.140000X-0.170000X0.140000X-0.170000X-0.140000X0.170000X-0.140000X0.170000X0.140000X0*%
%ADD28RoundRect,0.225000X0.225000X0.250000X-0.225000X0.250000X-0.225000X-0.250000X0.225000X-0.250000X0*%
%ADD29RoundRect,0.140000X-0.140000X-0.170000X0.140000X-0.170000X0.140000X0.170000X-0.140000X0.170000X0*%
%ADD30RoundRect,0.200000X-0.275000X0.200000X-0.275000X-0.200000X0.275000X-0.200000X0.275000X0.200000X0*%
%ADD31RoundRect,0.225000X-0.250000X0.225000X-0.250000X-0.225000X0.250000X-0.225000X0.250000X0.225000X0*%
%ADD32RoundRect,0.140000X0.170000X-0.140000X0.170000X0.140000X-0.170000X0.140000X-0.170000X-0.140000X0*%
%ADD33RoundRect,0.147500X0.147500X0.172500X-0.147500X0.172500X-0.147500X-0.172500X0.147500X-0.172500X0*%
%ADD34R,0.800000X2.700000*%
%ADD35C,0.800000*%
%ADD36C,6.400000*%
%ADD37RoundRect,0.218750X-0.256250X0.218750X-0.256250X-0.218750X0.256250X-0.218750X0.256250X0.218750X0*%
%ADD38C,1.552000*%
%ADD39RoundRect,0.100000X-0.712500X-0.100000X0.712500X-0.100000X0.712500X0.100000X-0.712500X0.100000X0*%
%ADD40R,1.500000X1.600000*%
%ADD41RoundRect,0.218750X-0.218750X-0.256250X0.218750X-0.256250X0.218750X0.256250X-0.218750X0.256250X0*%
%ADD42R,0.550000X0.500000*%
%ADD43R,0.550000X0.400000*%
%ADD44R,0.400000X0.550000*%
%ADD45R,0.600000X3.500000*%
%ADD46R,3.500000X0.600000*%
%ADD47RoundRect,0.250000X0.700000X-0.275000X0.700000X0.275000X-0.700000X0.275000X-0.700000X-0.275000X0*%
%ADD48R,1.700000X0.810000*%
%ADD49R,1.050000X0.810000*%
%ADD50RoundRect,0.150000X-0.587500X-0.150000X0.587500X-0.150000X0.587500X0.150000X-0.587500X0.150000X0*%
%ADD51RoundRect,0.200000X-0.200000X-0.275000X0.200000X-0.275000X0.200000X0.275000X-0.200000X0.275000X0*%
%ADD52RoundRect,0.147500X-0.147500X-0.172500X0.147500X-0.172500X0.147500X0.172500X-0.147500X0.172500X0*%
%ADD53C,1.450000*%
G04 APERTURE END LIST*
D10*
X139493757Y-106607142D02*
X139446138Y-106559523D01*
X139446138Y-106559523D02*
X139398519Y-106464285D01*
X139398519Y-106464285D02*
X139398519Y-106226190D01*
X139398519Y-106226190D02*
X139446138Y-106130952D01*
X139446138Y-106130952D02*
X139493757Y-106083333D01*
X139493757Y-106083333D02*
X139588995Y-106035714D01*
X139588995Y-106035714D02*
X139684233Y-106035714D01*
X139684233Y-106035714D02*
X139827090Y-106083333D01*
X139827090Y-106083333D02*
X140398519Y-106654761D01*
X140398519Y-106654761D02*
X140398519Y-106035714D01*
X139398519Y-105416666D02*
X139398519Y-105321428D01*
X139398519Y-105321428D02*
X139446138Y-105226190D01*
X139446138Y-105226190D02*
X139493757Y-105178571D01*
X139493757Y-105178571D02*
X139588995Y-105130952D01*
X139588995Y-105130952D02*
X139779471Y-105083333D01*
X139779471Y-105083333D02*
X140017566Y-105083333D01*
X140017566Y-105083333D02*
X140208042Y-105130952D01*
X140208042Y-105130952D02*
X140303280Y-105178571D01*
X140303280Y-105178571D02*
X140350900Y-105226190D01*
X140350900Y-105226190D02*
X140398519Y-105321428D01*
X140398519Y-105321428D02*
X140398519Y-105416666D01*
X140398519Y-105416666D02*
X140350900Y-105511904D01*
X140350900Y-105511904D02*
X140303280Y-105559523D01*
X140303280Y-105559523D02*
X140208042Y-105607142D01*
X140208042Y-105607142D02*
X140017566Y-105654761D01*
X140017566Y-105654761D02*
X139779471Y-105654761D01*
X139779471Y-105654761D02*
X139588995Y-105607142D01*
X139588995Y-105607142D02*
X139493757Y-105559523D01*
X139493757Y-105559523D02*
X139446138Y-105511904D01*
X139446138Y-105511904D02*
X139398519Y-105416666D01*
X139493757Y-104702380D02*
X139446138Y-104654761D01*
X139446138Y-104654761D02*
X139398519Y-104559523D01*
X139398519Y-104559523D02*
X139398519Y-104321428D01*
X139398519Y-104321428D02*
X139446138Y-104226190D01*
X139446138Y-104226190D02*
X139493757Y-104178571D01*
X139493757Y-104178571D02*
X139588995Y-104130952D01*
X139588995Y-104130952D02*
X139684233Y-104130952D01*
X139684233Y-104130952D02*
X139827090Y-104178571D01*
X139827090Y-104178571D02*
X140398519Y-104749999D01*
X140398519Y-104749999D02*
X140398519Y-104130952D01*
X139398519Y-103797618D02*
X139398519Y-103178571D01*
X139398519Y-103178571D02*
X139779471Y-103511904D01*
X139779471Y-103511904D02*
X139779471Y-103369047D01*
X139779471Y-103369047D02*
X139827090Y-103273809D01*
X139827090Y-103273809D02*
X139874709Y-103226190D01*
X139874709Y-103226190D02*
X139969947Y-103178571D01*
X139969947Y-103178571D02*
X140208042Y-103178571D01*
X140208042Y-103178571D02*
X140303280Y-103226190D01*
X140303280Y-103226190D02*
X140350900Y-103273809D01*
X140350900Y-103273809D02*
X140398519Y-103369047D01*
X140398519Y-103369047D02*
X140398519Y-103654761D01*
X140398519Y-103654761D02*
X140350900Y-103749999D01*
X140350900Y-103749999D02*
X140303280Y-103797618D01*
X140017566Y-102749999D02*
X140017566Y-101988095D01*
X140398519Y-100988095D02*
X140398519Y-101559523D01*
X140398519Y-101273809D02*
X139398519Y-101273809D01*
X139398519Y-101273809D02*
X139541376Y-101369047D01*
X139541376Y-101369047D02*
X139636614Y-101464285D01*
X139636614Y-101464285D02*
X139684233Y-101559523D01*
X139493757Y-100607142D02*
X139446138Y-100559523D01*
X139446138Y-100559523D02*
X139398519Y-100464285D01*
X139398519Y-100464285D02*
X139398519Y-100226190D01*
X139398519Y-100226190D02*
X139446138Y-100130952D01*
X139446138Y-100130952D02*
X139493757Y-100083333D01*
X139493757Y-100083333D02*
X139588995Y-100035714D01*
X139588995Y-100035714D02*
X139684233Y-100035714D01*
X139684233Y-100035714D02*
X139827090Y-100083333D01*
X139827090Y-100083333D02*
X140398519Y-100654761D01*
X140398519Y-100654761D02*
X140398519Y-100035714D01*
X140017566Y-99607142D02*
X140017566Y-98845238D01*
X140398519Y-97845238D02*
X140398519Y-98416666D01*
X140398519Y-98130952D02*
X139398519Y-98130952D01*
X139398519Y-98130952D02*
X139541376Y-98226190D01*
X139541376Y-98226190D02*
X139636614Y-98321428D01*
X139636614Y-98321428D02*
X139684233Y-98416666D01*
X139827090Y-97273809D02*
X139779471Y-97369047D01*
X139779471Y-97369047D02*
X139731852Y-97416666D01*
X139731852Y-97416666D02*
X139636614Y-97464285D01*
X139636614Y-97464285D02*
X139588995Y-97464285D01*
X139588995Y-97464285D02*
X139493757Y-97416666D01*
X139493757Y-97416666D02*
X139446138Y-97369047D01*
X139446138Y-97369047D02*
X139398519Y-97273809D01*
X139398519Y-97273809D02*
X139398519Y-97083333D01*
X139398519Y-97083333D02*
X139446138Y-96988095D01*
X139446138Y-96988095D02*
X139493757Y-96940476D01*
X139493757Y-96940476D02*
X139588995Y-96892857D01*
X139588995Y-96892857D02*
X139636614Y-96892857D01*
X139636614Y-96892857D02*
X139731852Y-96940476D01*
X139731852Y-96940476D02*
X139779471Y-96988095D01*
X139779471Y-96988095D02*
X139827090Y-97083333D01*
X139827090Y-97083333D02*
X139827090Y-97273809D01*
X139827090Y-97273809D02*
X139874709Y-97369047D01*
X139874709Y-97369047D02*
X139922328Y-97416666D01*
X139922328Y-97416666D02*
X140017566Y-97464285D01*
X140017566Y-97464285D02*
X140208042Y-97464285D01*
X140208042Y-97464285D02*
X140303280Y-97416666D01*
X140303280Y-97416666D02*
X140350900Y-97369047D01*
X140350900Y-97369047D02*
X140398519Y-97273809D01*
X140398519Y-97273809D02*
X140398519Y-97083333D01*
X140398519Y-97083333D02*
X140350900Y-96988095D01*
X140350900Y-96988095D02*
X140303280Y-96940476D01*
X140303280Y-96940476D02*
X140208042Y-96892857D01*
X140208042Y-96892857D02*
X140017566Y-96892857D01*
X140017566Y-96892857D02*
X139922328Y-96940476D01*
X139922328Y-96940476D02*
X139874709Y-96988095D01*
X139874709Y-96988095D02*
X139827090Y-97083333D01*
X141722804Y-107178571D02*
X141722804Y-106702381D01*
X142008519Y-107273809D02*
X141008519Y-106940476D01*
X141008519Y-106940476D02*
X142008519Y-106607143D01*
X142008519Y-106273809D02*
X141008519Y-106273809D01*
X141389471Y-106273809D02*
X141341852Y-106178571D01*
X141341852Y-106178571D02*
X141341852Y-105988095D01*
X141341852Y-105988095D02*
X141389471Y-105892857D01*
X141389471Y-105892857D02*
X141437090Y-105845238D01*
X141437090Y-105845238D02*
X141532328Y-105797619D01*
X141532328Y-105797619D02*
X141818042Y-105797619D01*
X141818042Y-105797619D02*
X141913280Y-105845238D01*
X141913280Y-105845238D02*
X141960900Y-105892857D01*
X141960900Y-105892857D02*
X142008519Y-105988095D01*
X142008519Y-105988095D02*
X142008519Y-106178571D01*
X142008519Y-106178571D02*
X141960900Y-106273809D01*
X142008519Y-105369047D02*
X141341852Y-105369047D01*
X141008519Y-105369047D02*
X141056138Y-105416666D01*
X141056138Y-105416666D02*
X141103757Y-105369047D01*
X141103757Y-105369047D02*
X141056138Y-105321428D01*
X141056138Y-105321428D02*
X141008519Y-105369047D01*
X141008519Y-105369047D02*
X141103757Y-105369047D01*
X141056138Y-103607143D02*
X141008519Y-103702381D01*
X141008519Y-103702381D02*
X141008519Y-103845238D01*
X141008519Y-103845238D02*
X141056138Y-103988095D01*
X141056138Y-103988095D02*
X141151376Y-104083333D01*
X141151376Y-104083333D02*
X141246614Y-104130952D01*
X141246614Y-104130952D02*
X141437090Y-104178571D01*
X141437090Y-104178571D02*
X141579947Y-104178571D01*
X141579947Y-104178571D02*
X141770423Y-104130952D01*
X141770423Y-104130952D02*
X141865661Y-104083333D01*
X141865661Y-104083333D02*
X141960900Y-103988095D01*
X141960900Y-103988095D02*
X142008519Y-103845238D01*
X142008519Y-103845238D02*
X142008519Y-103750000D01*
X142008519Y-103750000D02*
X141960900Y-103607143D01*
X141960900Y-103607143D02*
X141913280Y-103559524D01*
X141913280Y-103559524D02*
X141579947Y-103559524D01*
X141579947Y-103559524D02*
X141579947Y-103750000D01*
X141341852Y-102702381D02*
X142008519Y-102702381D01*
X141341852Y-103130952D02*
X141865661Y-103130952D01*
X141865661Y-103130952D02*
X141960900Y-103083333D01*
X141960900Y-103083333D02*
X142008519Y-102988095D01*
X142008519Y-102988095D02*
X142008519Y-102845238D01*
X142008519Y-102845238D02*
X141960900Y-102750000D01*
X141960900Y-102750000D02*
X141913280Y-102702381D01*
X142008519Y-102226190D02*
X141341852Y-102226190D01*
X141008519Y-102226190D02*
X141056138Y-102273809D01*
X141056138Y-102273809D02*
X141103757Y-102226190D01*
X141103757Y-102226190D02*
X141056138Y-102178571D01*
X141056138Y-102178571D02*
X141008519Y-102226190D01*
X141008519Y-102226190D02*
X141103757Y-102226190D01*
X141960900Y-101321429D02*
X142008519Y-101416667D01*
X142008519Y-101416667D02*
X142008519Y-101607143D01*
X142008519Y-101607143D02*
X141960900Y-101702381D01*
X141960900Y-101702381D02*
X141913280Y-101750000D01*
X141913280Y-101750000D02*
X141818042Y-101797619D01*
X141818042Y-101797619D02*
X141532328Y-101797619D01*
X141532328Y-101797619D02*
X141437090Y-101750000D01*
X141437090Y-101750000D02*
X141389471Y-101702381D01*
X141389471Y-101702381D02*
X141341852Y-101607143D01*
X141341852Y-101607143D02*
X141341852Y-101416667D01*
X141341852Y-101416667D02*
X141389471Y-101321429D01*
X142008519Y-100892857D02*
X141008519Y-100892857D01*
X142008519Y-100464286D02*
X141484709Y-100464286D01*
X141484709Y-100464286D02*
X141389471Y-100511905D01*
X141389471Y-100511905D02*
X141341852Y-100607143D01*
X141341852Y-100607143D02*
X141341852Y-100750000D01*
X141341852Y-100750000D02*
X141389471Y-100845238D01*
X141389471Y-100845238D02*
X141437090Y-100892857D01*
X141960900Y-99607143D02*
X142008519Y-99702381D01*
X142008519Y-99702381D02*
X142008519Y-99892857D01*
X142008519Y-99892857D02*
X141960900Y-99988095D01*
X141960900Y-99988095D02*
X141865661Y-100035714D01*
X141865661Y-100035714D02*
X141484709Y-100035714D01*
X141484709Y-100035714D02*
X141389471Y-99988095D01*
X141389471Y-99988095D02*
X141341852Y-99892857D01*
X141341852Y-99892857D02*
X141341852Y-99702381D01*
X141341852Y-99702381D02*
X141389471Y-99607143D01*
X141389471Y-99607143D02*
X141484709Y-99559524D01*
X141484709Y-99559524D02*
X141579947Y-99559524D01*
X141579947Y-99559524D02*
X141675185Y-100035714D01*
X141341852Y-99273809D02*
X141341852Y-98892857D01*
X141008519Y-99130952D02*
X141865661Y-99130952D01*
X141865661Y-99130952D02*
X141960900Y-99083333D01*
X141960900Y-99083333D02*
X142008519Y-98988095D01*
X142008519Y-98988095D02*
X142008519Y-98892857D01*
X141960900Y-98178571D02*
X142008519Y-98273809D01*
X142008519Y-98273809D02*
X142008519Y-98464285D01*
X142008519Y-98464285D02*
X141960900Y-98559523D01*
X141960900Y-98559523D02*
X141865661Y-98607142D01*
X141865661Y-98607142D02*
X141484709Y-98607142D01*
X141484709Y-98607142D02*
X141389471Y-98559523D01*
X141389471Y-98559523D02*
X141341852Y-98464285D01*
X141341852Y-98464285D02*
X141341852Y-98273809D01*
X141341852Y-98273809D02*
X141389471Y-98178571D01*
X141389471Y-98178571D02*
X141484709Y-98130952D01*
X141484709Y-98130952D02*
X141579947Y-98130952D01*
X141579947Y-98130952D02*
X141675185Y-98607142D01*
X142008519Y-97273809D02*
X141484709Y-97273809D01*
X141484709Y-97273809D02*
X141389471Y-97321428D01*
X141389471Y-97321428D02*
X141341852Y-97416666D01*
X141341852Y-97416666D02*
X141341852Y-97607142D01*
X141341852Y-97607142D02*
X141389471Y-97702380D01*
X141960900Y-97273809D02*
X142008519Y-97369047D01*
X142008519Y-97369047D02*
X142008519Y-97607142D01*
X142008519Y-97607142D02*
X141960900Y-97702380D01*
X141960900Y-97702380D02*
X141865661Y-97749999D01*
X141865661Y-97749999D02*
X141770423Y-97749999D01*
X141770423Y-97749999D02*
X141675185Y-97702380D01*
X141675185Y-97702380D02*
X141627566Y-97607142D01*
X141627566Y-97607142D02*
X141627566Y-97369047D01*
X141627566Y-97369047D02*
X141579947Y-97273809D01*
X141341852Y-96369047D02*
X142008519Y-96369047D01*
X141341852Y-96797618D02*
X141865661Y-96797618D01*
X141865661Y-96797618D02*
X141960900Y-96749999D01*
X141960900Y-96749999D02*
X142008519Y-96654761D01*
X142008519Y-96654761D02*
X142008519Y-96511904D01*
X142008519Y-96511904D02*
X141960900Y-96416666D01*
X141960900Y-96416666D02*
X141913280Y-96369047D01*
D11*
X153260589Y-88428328D02*
X153546303Y-88428328D01*
X153546303Y-88428328D02*
X153689160Y-88499757D01*
X153689160Y-88499757D02*
X153832017Y-88642614D01*
X153832017Y-88642614D02*
X153903446Y-88928328D01*
X153903446Y-88928328D02*
X153903446Y-89428328D01*
X153903446Y-89428328D02*
X153832017Y-89714042D01*
X153832017Y-89714042D02*
X153689160Y-89856900D01*
X153689160Y-89856900D02*
X153546303Y-89928328D01*
X153546303Y-89928328D02*
X153260589Y-89928328D01*
X153260589Y-89928328D02*
X153117732Y-89856900D01*
X153117732Y-89856900D02*
X152974874Y-89714042D01*
X152974874Y-89714042D02*
X152903446Y-89428328D01*
X152903446Y-89428328D02*
X152903446Y-88928328D01*
X152903446Y-88928328D02*
X152974874Y-88642614D01*
X152974874Y-88642614D02*
X153117732Y-88499757D01*
X153117732Y-88499757D02*
X153260589Y-88428328D01*
X154546303Y-88928328D02*
X154546303Y-90428328D01*
X154546303Y-88999757D02*
X154689161Y-88928328D01*
X154689161Y-88928328D02*
X154974875Y-88928328D01*
X154974875Y-88928328D02*
X155117732Y-88999757D01*
X155117732Y-88999757D02*
X155189161Y-89071185D01*
X155189161Y-89071185D02*
X155260589Y-89214042D01*
X155260589Y-89214042D02*
X155260589Y-89642614D01*
X155260589Y-89642614D02*
X155189161Y-89785471D01*
X155189161Y-89785471D02*
X155117732Y-89856900D01*
X155117732Y-89856900D02*
X154974875Y-89928328D01*
X154974875Y-89928328D02*
X154689161Y-89928328D01*
X154689161Y-89928328D02*
X154546303Y-89856900D01*
X156474875Y-89856900D02*
X156332018Y-89928328D01*
X156332018Y-89928328D02*
X156046304Y-89928328D01*
X156046304Y-89928328D02*
X155903446Y-89856900D01*
X155903446Y-89856900D02*
X155832018Y-89714042D01*
X155832018Y-89714042D02*
X155832018Y-89142614D01*
X155832018Y-89142614D02*
X155903446Y-88999757D01*
X155903446Y-88999757D02*
X156046304Y-88928328D01*
X156046304Y-88928328D02*
X156332018Y-88928328D01*
X156332018Y-88928328D02*
X156474875Y-88999757D01*
X156474875Y-88999757D02*
X156546304Y-89142614D01*
X156546304Y-89142614D02*
X156546304Y-89285471D01*
X156546304Y-89285471D02*
X155832018Y-89428328D01*
X157189160Y-88928328D02*
X157189160Y-89928328D01*
X157189160Y-89071185D02*
X157260589Y-88999757D01*
X157260589Y-88999757D02*
X157403446Y-88928328D01*
X157403446Y-88928328D02*
X157617732Y-88928328D01*
X157617732Y-88928328D02*
X157760589Y-88999757D01*
X157760589Y-88999757D02*
X157832018Y-89142614D01*
X157832018Y-89142614D02*
X157832018Y-89928328D01*
X159260589Y-89928328D02*
X158546303Y-89928328D01*
X158546303Y-89928328D02*
X158546303Y-88428328D01*
X159689161Y-89856900D02*
X159903447Y-89928328D01*
X159903447Y-89928328D02*
X160260589Y-89928328D01*
X160260589Y-89928328D02*
X160403447Y-89856900D01*
X160403447Y-89856900D02*
X160474875Y-89785471D01*
X160474875Y-89785471D02*
X160546304Y-89642614D01*
X160546304Y-89642614D02*
X160546304Y-89499757D01*
X160546304Y-89499757D02*
X160474875Y-89356900D01*
X160474875Y-89356900D02*
X160403447Y-89285471D01*
X160403447Y-89285471D02*
X160260589Y-89214042D01*
X160260589Y-89214042D02*
X159974875Y-89142614D01*
X159974875Y-89142614D02*
X159832018Y-89071185D01*
X159832018Y-89071185D02*
X159760589Y-88999757D01*
X159760589Y-88999757D02*
X159689161Y-88856900D01*
X159689161Y-88856900D02*
X159689161Y-88714042D01*
X159689161Y-88714042D02*
X159760589Y-88571185D01*
X159760589Y-88571185D02*
X159832018Y-88499757D01*
X159832018Y-88499757D02*
X159974875Y-88428328D01*
X159974875Y-88428328D02*
X160332018Y-88428328D01*
X160332018Y-88428328D02*
X160546304Y-88499757D01*
X160974875Y-88428328D02*
X161832018Y-88428328D01*
X161403446Y-89928328D02*
X161403446Y-88428328D01*
X163332017Y-88928328D02*
X163689160Y-89928328D01*
X163689160Y-89928328D02*
X164046303Y-88928328D01*
X164474874Y-88428328D02*
X165403446Y-88428328D01*
X165403446Y-88428328D02*
X164903446Y-88999757D01*
X164903446Y-88999757D02*
X165117731Y-88999757D01*
X165117731Y-88999757D02*
X165260589Y-89071185D01*
X165260589Y-89071185D02*
X165332017Y-89142614D01*
X165332017Y-89142614D02*
X165403446Y-89285471D01*
X165403446Y-89285471D02*
X165403446Y-89642614D01*
X165403446Y-89642614D02*
X165332017Y-89785471D01*
X165332017Y-89785471D02*
X165260589Y-89856900D01*
X165260589Y-89856900D02*
X165117731Y-89928328D01*
X165117731Y-89928328D02*
X164689160Y-89928328D01*
X164689160Y-89928328D02*
X164546303Y-89856900D01*
X164546303Y-89856900D02*
X164474874Y-89785471D01*
X166046302Y-89785471D02*
X166117731Y-89856900D01*
X166117731Y-89856900D02*
X166046302Y-89928328D01*
X166046302Y-89928328D02*
X165974874Y-89856900D01*
X165974874Y-89856900D02*
X166046302Y-89785471D01*
X166046302Y-89785471D02*
X166046302Y-89928328D01*
X167046303Y-88428328D02*
X167189160Y-88428328D01*
X167189160Y-88428328D02*
X167332017Y-88499757D01*
X167332017Y-88499757D02*
X167403446Y-88571185D01*
X167403446Y-88571185D02*
X167474874Y-88714042D01*
X167474874Y-88714042D02*
X167546303Y-88999757D01*
X167546303Y-88999757D02*
X167546303Y-89356900D01*
X167546303Y-89356900D02*
X167474874Y-89642614D01*
X167474874Y-89642614D02*
X167403446Y-89785471D01*
X167403446Y-89785471D02*
X167332017Y-89856900D01*
X167332017Y-89856900D02*
X167189160Y-89928328D01*
X167189160Y-89928328D02*
X167046303Y-89928328D01*
X167046303Y-89928328D02*
X166903446Y-89856900D01*
X166903446Y-89856900D02*
X166832017Y-89785471D01*
X166832017Y-89785471D02*
X166760588Y-89642614D01*
X166760588Y-89642614D02*
X166689160Y-89356900D01*
X166689160Y-89356900D02*
X166689160Y-88999757D01*
X166689160Y-88999757D02*
X166760588Y-88714042D01*
X166760588Y-88714042D02*
X166832017Y-88571185D01*
X166832017Y-88571185D02*
X166903446Y-88499757D01*
X166903446Y-88499757D02*
X167046303Y-88428328D01*
D12*
X154264874Y-95140580D02*
X154264874Y-94859420D01*
X155284874Y-95140580D02*
X155284874Y-94859420D01*
X179634294Y-98990000D02*
X179915454Y-98990000D01*
X179634294Y-100010000D02*
X179915454Y-100010000D01*
X179882710Y-97860000D02*
X179667038Y-97860000D01*
X179882710Y-97140000D02*
X179667038Y-97140000D01*
D13*
X149724874Y-103300000D02*
X149724874Y-102700000D01*
X149724874Y-103300000D02*
X150324874Y-103300000D01*
X150324874Y-97200000D02*
X149724874Y-97800000D01*
X155224874Y-97200000D02*
X155824874Y-97200000D01*
X155824874Y-97200000D02*
X155824874Y-97800000D01*
X155824874Y-103300000D02*
X155224874Y-103300000D01*
X155824874Y-103300000D02*
X155824874Y-102700000D01*
D11*
X149024874Y-98250000D02*
G75*
G03*
X148724874Y-98250000I-150000J0D01*
G01*
X148724874Y-98250000D02*
G75*
G03*
X149024874Y-98250000I150000J0D01*
G01*
D12*
X152789874Y-110235000D02*
X154259874Y-110235000D01*
X154259874Y-110235000D02*
X154259874Y-107950000D01*
X152789874Y-107950000D02*
X152789874Y-110235000D01*
X151252374Y-105737258D02*
X151252374Y-105262742D01*
X152297374Y-105737258D02*
X152297374Y-105262742D01*
X146262132Y-104772500D02*
X145787616Y-104772500D01*
X146262132Y-103727500D02*
X145787616Y-103727500D01*
X146262132Y-103022500D02*
X145787616Y-103022500D01*
X146262132Y-101977500D02*
X145787616Y-101977500D01*
X158882710Y-98360000D02*
X158667038Y-98360000D01*
X158882710Y-97640000D02*
X158667038Y-97640000D01*
X152514874Y-93365580D02*
X152514874Y-93084420D01*
X153534874Y-93365580D02*
X153534874Y-93084420D01*
X155634874Y-104892164D02*
X155634874Y-105107836D01*
X154914874Y-104892164D02*
X154914874Y-105107836D01*
X155264874Y-111640580D02*
X155264874Y-111359420D01*
X156284874Y-111640580D02*
X156284874Y-111359420D01*
X148764874Y-110140580D02*
X148764874Y-109859420D01*
X149784874Y-110140580D02*
X149784874Y-109859420D01*
X172415454Y-104760000D02*
X172134294Y-104760000D01*
X172415454Y-103740000D02*
X172134294Y-103740000D01*
X168667038Y-98640000D02*
X168882710Y-98640000D01*
X168667038Y-99360000D02*
X168882710Y-99360000D01*
X146262132Y-101272500D02*
X145787616Y-101272500D01*
X146262132Y-100227500D02*
X145787616Y-100227500D01*
X163297374Y-108762742D02*
X163297374Y-109237258D01*
X162252374Y-108762742D02*
X162252374Y-109237258D01*
X167264874Y-96640580D02*
X167264874Y-96359420D01*
X168284874Y-96640580D02*
X168284874Y-96359420D01*
X153002374Y-105737258D02*
X153002374Y-105262742D01*
X154047374Y-105737258D02*
X154047374Y-105262742D01*
X151039874Y-110235000D02*
X152509874Y-110235000D01*
X152509874Y-110235000D02*
X152509874Y-107950000D01*
X151039874Y-107950000D02*
X151039874Y-110235000D01*
X146797500Y-97137742D02*
X146797500Y-97612258D01*
X145752500Y-97137742D02*
X145752500Y-97612258D01*
X150534874Y-105359420D02*
X150534874Y-105640580D01*
X149514874Y-105359420D02*
X149514874Y-105640580D01*
X156664874Y-97857836D02*
X156664874Y-97642164D01*
X157384874Y-97857836D02*
X157384874Y-97642164D01*
X161252374Y-93237258D02*
X161252374Y-92762742D01*
X162297374Y-93237258D02*
X162297374Y-92762742D01*
X179547374Y-101512742D02*
X179547374Y-101987258D01*
X178502374Y-101512742D02*
X178502374Y-101987258D01*
X148502374Y-93487258D02*
X148502374Y-93012742D01*
X149547374Y-93487258D02*
X149547374Y-93012742D01*
X155252374Y-108237258D02*
X155252374Y-107762742D01*
X156297374Y-108237258D02*
X156297374Y-107762742D01*
X166502374Y-93237258D02*
X166502374Y-92762742D01*
X167547374Y-93237258D02*
X167547374Y-92762742D01*
X165784874Y-96337221D02*
X165784874Y-96662779D01*
X164764874Y-96337221D02*
X164764874Y-96662779D01*
X159882710Y-103360000D02*
X159667038Y-103360000D01*
X159882710Y-102640000D02*
X159667038Y-102640000D01*
X157764874Y-95140580D02*
X157764874Y-94859420D01*
X158784874Y-95140580D02*
X158784874Y-94859420D01*
D14*
X182504874Y-97270000D02*
X182504874Y-97770000D01*
X184004874Y-95770000D02*
X184504874Y-95770000D01*
X184004874Y-99270000D02*
X184504874Y-99270000D01*
X186004874Y-97270000D02*
X186004874Y-97770000D01*
D12*
X180002374Y-101987258D02*
X180002374Y-101512742D01*
X181047374Y-101987258D02*
X181047374Y-101512742D01*
X168667038Y-100640000D02*
X168882710Y-100640000D01*
X168667038Y-101360000D02*
X168882710Y-101360000D01*
X164274874Y-98390000D02*
X161349874Y-98390000D01*
X164274874Y-98390000D02*
X165774874Y-98390000D01*
X164274874Y-101610000D02*
X162774874Y-101610000D01*
X164274874Y-101610000D02*
X165774874Y-101610000D01*
X157474874Y-113200000D02*
X157474874Y-112770000D01*
X161074874Y-113200000D02*
X157474874Y-113200000D01*
X161074874Y-112770000D02*
X161074874Y-113200000D01*
X161324874Y-112770000D02*
X161074874Y-112770000D01*
X157474874Y-110770000D02*
X157474874Y-110230000D01*
X161074874Y-110770000D02*
X161324874Y-110770000D01*
X161074874Y-110230000D02*
X161074874Y-110770000D01*
X157474874Y-108230000D02*
X157474874Y-107800000D01*
X157474874Y-107800000D02*
X161074874Y-107800000D01*
X161074874Y-107800000D02*
X161074874Y-108230000D01*
X146797374Y-93887742D02*
X146797374Y-94362258D01*
X145752374Y-93887742D02*
X145752374Y-94362258D01*
X158264874Y-105640580D02*
X158264874Y-105359420D01*
X159284874Y-105640580D02*
X159284874Y-105359420D01*
X146024595Y-106090000D02*
X146350153Y-106090000D01*
X146024595Y-107110000D02*
X146350153Y-107110000D01*
D15*
X177025000Y-102250000D02*
X176525000Y-102750000D01*
X177025000Y-96250000D02*
X177025000Y-102250000D01*
X176525000Y-102750000D02*
X170525000Y-102750000D01*
X170525000Y-102750000D02*
X170525000Y-96250000D01*
X170525000Y-96250000D02*
X177025000Y-96250000D01*
D16*
X177375000Y-103000000D02*
G75*
G03*
X177175000Y-103000000I-100000J0D01*
G01*
X177175000Y-103000000D02*
G75*
G03*
X177375000Y-103000000I100000J0D01*
G01*
D12*
X165997374Y-109262742D02*
X165997374Y-109737258D01*
X164952374Y-109262742D02*
X164952374Y-109737258D01*
X168590000Y-106835242D02*
X168590000Y-105164758D01*
X170410000Y-106835242D02*
X170410000Y-105164758D01*
X163297374Y-111762742D02*
X163297374Y-112237258D01*
X162252374Y-111762742D02*
X162252374Y-112237258D01*
X159667038Y-99640000D02*
X159882710Y-99640000D01*
X159667038Y-100360000D02*
X159882710Y-100360000D01*
X175474874Y-93700000D02*
X172074874Y-93700000D01*
X175474874Y-90300000D02*
X175474874Y-93700000D01*
X172074874Y-90300000D02*
X175474874Y-90300000D01*
X172074874Y-90300000D02*
X172074874Y-93700000D01*
D17*
X175874874Y-93200000D02*
G75*
G03*
X175674874Y-93200000I-100000J0D01*
G01*
X175674874Y-93200000D02*
G75*
G03*
X175874874Y-93200000I100000J0D01*
G01*
D12*
X158667038Y-100640000D02*
X158882710Y-100640000D01*
X158667038Y-101360000D02*
X158882710Y-101360000D01*
X160547374Y-92762742D02*
X160547374Y-93237258D01*
X159502374Y-92762742D02*
X159502374Y-93237258D01*
X162764874Y-96640580D02*
X162764874Y-96359420D01*
X163784874Y-96640580D02*
X163784874Y-96359420D01*
X161774874Y-103940000D02*
X160099874Y-103940000D01*
X161774874Y-103940000D02*
X162424874Y-103940000D01*
X161774874Y-107060000D02*
X161124874Y-107060000D01*
X161774874Y-107060000D02*
X162424874Y-107060000D01*
X156014874Y-95140580D02*
X156014874Y-94859420D01*
X157034874Y-95140580D02*
X157034874Y-94859420D01*
X150252374Y-93487258D02*
X150252374Y-93012742D01*
X151297374Y-93487258D02*
X151297374Y-93012742D01*
X168764874Y-96640580D02*
X168764874Y-96359420D01*
X169784874Y-96640580D02*
X169784874Y-96359420D01*
X146764874Y-110140580D02*
X146764874Y-109859420D01*
X147784874Y-110140580D02*
X147784874Y-109859420D01*
X175134294Y-103740000D02*
X175415454Y-103740000D01*
X175134294Y-104760000D02*
X175415454Y-104760000D01*
X179537616Y-104227500D02*
X180012132Y-104227500D01*
X179537616Y-105272500D02*
X180012132Y-105272500D01*
X179537616Y-106227500D02*
X180012132Y-106227500D01*
X179537616Y-107272500D02*
X180012132Y-107272500D01*
%LPC*%
D18*
X151274874Y-99500000D02*
X154274874Y-99500000D01*
X152024874Y-98750000D02*
X152024874Y-101750000D01*
X153524874Y-98750000D02*
X153524874Y-101750000D01*
X154274874Y-101000000D02*
X151274874Y-101000000D01*
D19*
X154774874Y-95775000D03*
X154774874Y-94225000D03*
D20*
X178999874Y-99500000D03*
X180549874Y-99500000D03*
D21*
X180254874Y-97500000D03*
X179294874Y-97500000D03*
D22*
X149994874Y-98250000D03*
X149994874Y-98750000D03*
X149994874Y-99250000D03*
X149994874Y-99750000D03*
X149994874Y-100250000D03*
X149994874Y-100750000D03*
X149994874Y-101250000D03*
X149994874Y-101750000D03*
X149994874Y-102250000D03*
D23*
X150774874Y-103030000D03*
X151274874Y-103030000D03*
X151774874Y-103030000D03*
X152274874Y-103030000D03*
X152774874Y-103030000D03*
X153274874Y-103030000D03*
X153774874Y-103030000D03*
X154274874Y-103030000D03*
X154774874Y-103030000D03*
D22*
X155554874Y-102250000D03*
X155554874Y-101750000D03*
X155554874Y-101250000D03*
X155554874Y-100750000D03*
X155554874Y-100250000D03*
X155554874Y-99750000D03*
X155554874Y-99250000D03*
X155554874Y-98750000D03*
X155554874Y-98250000D03*
D23*
X154774874Y-97470000D03*
X154274874Y-97470000D03*
X153774874Y-97470000D03*
X153274874Y-97470000D03*
X152774874Y-97470000D03*
X152274874Y-97470000D03*
X151774874Y-97470000D03*
X151274874Y-97470000D03*
X150774874Y-97470000D03*
D24*
X153524874Y-109537500D03*
X153524874Y-107962500D03*
D25*
X151774874Y-106325000D03*
X151774874Y-104675000D03*
D26*
X146849874Y-104250000D03*
X145199874Y-104250000D03*
X146849874Y-102500000D03*
X145199874Y-102500000D03*
D21*
X159254874Y-98000000D03*
X158294874Y-98000000D03*
D19*
X153024874Y-94000000D03*
X153024874Y-92450000D03*
D27*
X155274874Y-104520000D03*
X155274874Y-105480000D03*
D19*
X155774874Y-112275000D03*
X155774874Y-110725000D03*
X149274874Y-110775000D03*
X149274874Y-109225000D03*
D28*
X173049874Y-104250000D03*
X171499874Y-104250000D03*
D29*
X168294874Y-99000000D03*
X169254874Y-99000000D03*
D26*
X146849874Y-100750000D03*
X145199874Y-100750000D03*
D30*
X162774874Y-108175000D03*
X162774874Y-109825000D03*
D19*
X167774874Y-97275000D03*
X167774874Y-95725000D03*
D25*
X153524874Y-106325000D03*
X153524874Y-104675000D03*
D24*
X151774874Y-109537500D03*
X151774874Y-107962500D03*
D30*
X146275000Y-96550000D03*
X146275000Y-98200000D03*
D31*
X150024874Y-104725000D03*
X150024874Y-106275000D03*
D32*
X157024874Y-98230000D03*
X157024874Y-97270000D03*
D33*
X159259874Y-102000000D03*
X158289874Y-102000000D03*
D25*
X161774874Y-93825000D03*
X161774874Y-92175000D03*
D34*
X150774874Y-90000000D03*
D30*
X179024874Y-100925000D03*
X179024874Y-102575000D03*
D25*
X149024874Y-94075000D03*
X149024874Y-92425000D03*
X155774874Y-108825000D03*
X155774874Y-107175000D03*
X167024874Y-93825000D03*
X167024874Y-92175000D03*
D35*
X181100000Y-111750000D03*
X181802944Y-110052944D03*
X181802944Y-113447056D03*
X183500000Y-109350000D03*
D36*
X183500000Y-111750000D03*
D35*
X183500000Y-114150000D03*
X185197056Y-110052944D03*
X185197056Y-113447056D03*
X185900000Y-111750000D03*
D37*
X165274874Y-95712500D03*
X165274874Y-97287500D03*
D21*
X160254874Y-103000000D03*
X159294874Y-103000000D03*
D19*
X158274874Y-95775000D03*
X158274874Y-94225000D03*
D35*
X181100000Y-90500000D03*
X181802944Y-88802944D03*
X181802944Y-92197056D03*
X183500000Y-88100000D03*
D36*
X183500000Y-90500000D03*
D35*
X183500000Y-92900000D03*
X185197056Y-88802944D03*
X185197056Y-92197056D03*
X185900000Y-90500000D03*
X138600000Y-111750000D03*
X139302944Y-110052944D03*
X139302944Y-113447056D03*
X141000000Y-109350000D03*
D36*
X141000000Y-111750000D03*
D35*
X141000000Y-114150000D03*
X142697056Y-110052944D03*
X142697056Y-113447056D03*
X143400000Y-111750000D03*
D38*
X184254874Y-97520000D03*
X182984874Y-96250000D03*
X182984874Y-98790000D03*
X185524874Y-96250000D03*
X185524874Y-98790000D03*
D25*
X180524874Y-102575000D03*
X180524874Y-100925000D03*
D35*
X138600000Y-90500000D03*
X139302944Y-88802944D03*
X139302944Y-92197056D03*
X141000000Y-88100000D03*
D36*
X141000000Y-90500000D03*
D35*
X141000000Y-92900000D03*
X142697056Y-88802944D03*
X142697056Y-92197056D03*
X143400000Y-90500000D03*
D29*
X168294874Y-101000000D03*
X169254874Y-101000000D03*
D39*
X162162374Y-99025000D03*
X162162374Y-99675000D03*
X162162374Y-100325000D03*
X162162374Y-100975000D03*
X166387374Y-100975000D03*
X166387374Y-100325000D03*
X166387374Y-99675000D03*
X166387374Y-99025000D03*
D40*
X160374874Y-111770000D03*
X160374874Y-109230000D03*
X158174874Y-109230000D03*
X158174874Y-111770000D03*
D30*
X146274874Y-93300000D03*
X146274874Y-94950000D03*
D19*
X158774874Y-106275000D03*
X158774874Y-104725000D03*
D41*
X145399874Y-106600000D03*
X146974874Y-106600000D03*
D42*
X176400000Y-102150000D03*
D43*
X176400000Y-101375000D03*
X176400000Y-100625000D03*
X176400000Y-99875000D03*
X176400000Y-99125000D03*
X176400000Y-98375000D03*
X176400000Y-97625000D03*
D42*
X176400000Y-96850000D03*
D44*
X175588000Y-96875000D03*
X174863000Y-96875000D03*
X174138000Y-96875000D03*
X173412000Y-96875000D03*
X172687000Y-96875000D03*
X171962000Y-96875000D03*
D42*
X171150000Y-96850000D03*
D43*
X171150000Y-97625000D03*
X171150000Y-98375000D03*
X171150000Y-99125000D03*
X171150000Y-99875000D03*
X171150000Y-100625000D03*
X171150000Y-101375000D03*
D42*
X171150000Y-102150000D03*
D44*
X171962000Y-102125000D03*
X172687000Y-102125000D03*
X173412000Y-102125000D03*
X174138000Y-102125000D03*
X174863000Y-102125000D03*
X175588000Y-102125000D03*
D45*
X174525000Y-99500000D03*
D46*
X173775000Y-100250000D03*
X173775000Y-98750000D03*
D45*
X173025000Y-99500000D03*
D30*
X165474874Y-108675000D03*
X165474874Y-110325000D03*
D47*
X169500000Y-107575000D03*
X169500000Y-104425000D03*
D30*
X162774874Y-111175000D03*
X162774874Y-112825000D03*
D29*
X159294874Y-100000000D03*
X160254874Y-100000000D03*
D48*
X174524874Y-93195000D03*
D49*
X174849874Y-92000000D03*
X174849874Y-90805000D03*
X172699874Y-90805000D03*
X172699874Y-92000000D03*
X172699874Y-93195000D03*
D34*
X149024874Y-90000000D03*
D29*
X158294874Y-101000000D03*
X159254874Y-101000000D03*
D30*
X160024874Y-92175000D03*
X160024874Y-93825000D03*
D19*
X163274874Y-97275000D03*
X163274874Y-95725000D03*
D50*
X160837374Y-104550000D03*
X160837374Y-106450000D03*
X162712374Y-105500000D03*
D19*
X156524874Y-95775000D03*
X156524874Y-94225000D03*
D25*
X150774874Y-94075000D03*
X150774874Y-92425000D03*
D19*
X169274874Y-97275000D03*
X169274874Y-95725000D03*
X147274874Y-110775000D03*
X147274874Y-109225000D03*
D20*
X174499874Y-104250000D03*
X176049874Y-104250000D03*
D51*
X178949874Y-104750000D03*
X180599874Y-104750000D03*
D52*
X158289874Y-99000000D03*
X159259874Y-99000000D03*
D51*
X178949874Y-106750000D03*
X180599874Y-106750000D03*
D53*
X176150000Y-112000000D03*
X165350000Y-112000000D03*
%LPD*%
M02*
