G04 #@! TF.GenerationSoftware,KiCad,Pcbnew,7.0.10*
G04 #@! TF.CreationDate,2024-02-03T12:14:10-05:00*
G04 #@! TF.ProjectId,openlst-hw,6f70656e-6c73-4742-9d68-772e6b696361,rev?*
G04 #@! TF.SameCoordinates,Original*
G04 #@! TF.FileFunction,Soldermask,Bot*
G04 #@! TF.FilePolarity,Negative*
%FSLAX46Y46*%
G04 Gerber Fmt 4.6, Leading zero omitted, Abs format (unit mm)*
G04 Created by KiCad (PCBNEW 7.0.10) date 2024-02-03 12:14:10*
%MOMM*%
%LPD*%
G01*
G04 APERTURE LIST*
G04 Aperture macros list*
%AMRoundRect*
0 Rectangle with rounded corners*
0 $1 Rounding radius*
0 $2 $3 $4 $5 $6 $7 $8 $9 X,Y pos of 4 corners*
0 Add a 4 corners polygon primitive as box body*
4,1,4,$2,$3,$4,$5,$6,$7,$8,$9,$2,$3,0*
0 Add four circle primitives for the rounded corners*
1,1,$1+$1,$2,$3*
1,1,$1+$1,$4,$5*
1,1,$1+$1,$6,$7*
1,1,$1+$1,$8,$9*
0 Add four rect primitives between the rounded corners*
20,1,$1+$1,$2,$3,$4,$5,0*
20,1,$1+$1,$4,$5,$6,$7,0*
20,1,$1+$1,$6,$7,$8,$9,0*
20,1,$1+$1,$8,$9,$2,$3,0*%
G04 Aperture macros list end*
%ADD10C,0.609600*%
%ADD11C,0.800000*%
%ADD12C,6.400000*%
%ADD13C,1.552000*%
%ADD14C,0.558800*%
%ADD15RoundRect,0.250000X0.450000X-0.262500X0.450000X0.262500X-0.450000X0.262500X-0.450000X-0.262500X0*%
%ADD16RoundRect,0.250000X0.262500X0.450000X-0.262500X0.450000X-0.262500X-0.450000X0.262500X-0.450000X0*%
%ADD17RoundRect,0.200000X0.200000X0.275000X-0.200000X0.275000X-0.200000X-0.275000X0.200000X-0.275000X0*%
%ADD18RoundRect,0.200000X0.275000X-0.200000X0.275000X0.200000X-0.275000X0.200000X-0.275000X-0.200000X0*%
%ADD19C,1.450000*%
%ADD20R,0.500000X1.100000*%
G04 APERTURE END LIST*
D10*
X151274874Y-98750000D03*
X151274874Y-100250000D03*
X151274874Y-101750000D03*
X152774874Y-98750000D03*
X152774874Y-100250000D03*
X152774874Y-101750000D03*
X154274874Y-98750000D03*
X154274874Y-100250000D03*
X154274874Y-101750000D03*
D11*
X181100000Y-111750000D03*
X181802944Y-110052944D03*
X181802944Y-113447056D03*
X183500000Y-109350000D03*
D12*
X183500000Y-111750000D03*
D11*
X183500000Y-114150000D03*
X185197056Y-110052944D03*
X185197056Y-113447056D03*
X185900000Y-111750000D03*
X181100000Y-90500000D03*
X181802944Y-88802944D03*
X181802944Y-92197056D03*
X183500000Y-88100000D03*
D12*
X183500000Y-90500000D03*
D11*
X183500000Y-92900000D03*
X185197056Y-88802944D03*
X185197056Y-92197056D03*
X185900000Y-90500000D03*
X138600000Y-111750000D03*
X139302944Y-110052944D03*
X139302944Y-113447056D03*
X141000000Y-109350000D03*
D12*
X141000000Y-111750000D03*
D11*
X141000000Y-114150000D03*
X142697056Y-110052944D03*
X142697056Y-113447056D03*
X143400000Y-111750000D03*
D13*
X184254874Y-97520000D03*
X182984874Y-96250000D03*
X182984874Y-98790000D03*
X185524874Y-96250000D03*
X185524874Y-98790000D03*
D11*
X138600000Y-90500000D03*
X139302944Y-88802944D03*
X139302944Y-92197056D03*
X141000000Y-88100000D03*
D12*
X141000000Y-90500000D03*
D11*
X141000000Y-92900000D03*
X142697056Y-88802944D03*
X142697056Y-92197056D03*
X143400000Y-90500000D03*
D14*
X175275000Y-101000000D03*
X175275000Y-99500000D03*
X175275000Y-98000000D03*
X173775000Y-101000000D03*
X173775000Y-99500000D03*
X173775000Y-98000000D03*
X172275000Y-101000000D03*
X172275000Y-99500000D03*
X172275000Y-98000000D03*
D15*
X177000000Y-99662500D03*
X177000000Y-97837500D03*
D16*
X141912500Y-96000000D03*
X140087500Y-96000000D03*
D17*
X180075000Y-101500000D03*
X178425000Y-101500000D03*
D18*
X141750000Y-99575000D03*
X141750000Y-97925000D03*
D19*
X176150000Y-112000000D03*
X165350000Y-112000000D03*
D20*
X174350000Y-108600000D03*
X174350000Y-112400000D03*
X173550000Y-108600000D03*
X173550000Y-112400000D03*
X172750000Y-108600000D03*
X172750000Y-112400000D03*
X171950000Y-108600000D03*
X171950000Y-112400000D03*
X171150000Y-108600000D03*
X171150000Y-112400000D03*
X170350000Y-108600000D03*
X170350000Y-112400000D03*
X169550000Y-108600000D03*
X169550000Y-112400000D03*
X168750000Y-108600000D03*
X168750000Y-112400000D03*
X167950000Y-108600000D03*
X167950000Y-112400000D03*
X167150000Y-108600000D03*
X167150000Y-112400000D03*
M02*
