%TF.GenerationSoftware,KiCad,Pcbnew,7.0.10*%
%TF.CreationDate,2024-02-03T12:14:31-05:00*%
%TF.ProjectId,openlst-hw,6f70656e-6c73-4742-9d68-772e6b696361,rev?*%
%TF.SameCoordinates,Original*%
%TF.FileFunction,Drillmap*%
%TF.FilePolarity,Positive*%
%FSLAX45Y45*%
G04 Gerber Fmt 4.5, Leading zero omitted, Abs format (unit mm)*
G04 Created by KiCad (PCBNEW 7.0.10) date 2024-02-03 12:14:31*
%MOMM*%
%LPD*%
G01*
G04 APERTURE LIST*
%ADD10C,0.150000*%
%ADD11C,0.200000*%
%ADD12C,0.100000*%
%ADD13C,0.320000*%
G04 APERTURE END LIST*
D10*
X13725000Y-9025000D02*
X13725000Y-11200000D01*
X18725000Y-9025000D02*
G75*
G03*
X18375000Y-8675000I-350000J0D01*
G01*
X18375000Y-8675000D02*
X14075000Y-8675000D01*
X14075000Y-8675000D02*
G75*
G03*
X13725000Y-9025000I0J-350000D01*
G01*
X18725000Y-11200000D02*
X18725000Y-9025000D01*
X13725000Y-11200000D02*
G75*
G03*
X14075000Y-11550000I350000J0D01*
G01*
X14075000Y-11550000D02*
X18375000Y-11550000D01*
X18375000Y-11550000D02*
G75*
G03*
X18725000Y-11200000I-1250J351250D01*
G01*
D11*
D12*
X13862300Y-9487300D02*
X13887700Y-9512700D01*
X13887700Y-9487300D02*
X13862300Y-9512700D01*
X13862300Y-9587300D02*
X13887700Y-9612700D01*
X13887700Y-9587300D02*
X13862300Y-9612700D01*
X13862300Y-9687300D02*
X13887700Y-9712700D01*
X13887700Y-9687300D02*
X13862300Y-9712700D01*
X14287300Y-9987300D02*
X14312700Y-10012700D01*
X14312700Y-9987300D02*
X14287300Y-10012700D01*
X14384787Y-10222300D02*
X14410187Y-10247700D01*
X14410187Y-10222300D02*
X14384787Y-10247700D01*
X14384787Y-10422300D02*
X14410187Y-10447700D01*
X14410187Y-10422300D02*
X14384787Y-10447700D01*
X14387300Y-10712300D02*
X14412700Y-10737700D01*
X14412700Y-10712300D02*
X14387300Y-10737700D01*
X14409787Y-10072300D02*
X14435187Y-10097700D01*
X14435187Y-10072300D02*
X14409787Y-10097700D01*
X14612300Y-9937300D02*
X14637700Y-9962700D01*
X14637700Y-9937300D02*
X14612300Y-9962700D01*
X14614787Y-9224800D02*
X14640187Y-9250200D01*
X14640187Y-9224800D02*
X14614787Y-9250200D01*
X14614787Y-11012300D02*
X14640187Y-11037700D01*
X14640187Y-11012300D02*
X14614787Y-11037700D01*
X14614787Y-11087300D02*
X14640187Y-11112700D01*
X14640187Y-11087300D02*
X14614787Y-11112700D01*
X14614787Y-11162300D02*
X14640187Y-11187700D01*
X14640187Y-11162300D02*
X14614787Y-11187700D01*
X14714787Y-11162300D02*
X14740187Y-11187700D01*
X14740187Y-11162300D02*
X14714787Y-11187700D01*
X14814787Y-11062300D02*
X14840187Y-11087700D01*
X14840187Y-11062300D02*
X14814787Y-11087700D01*
X14817287Y-10909800D02*
X14842687Y-10935200D01*
X14842687Y-10909800D02*
X14817287Y-10935200D01*
X14839787Y-9912300D02*
X14865187Y-9937700D01*
X14865187Y-9912300D02*
X14839787Y-9937700D01*
X14889719Y-9840430D02*
X14915119Y-9865830D01*
X14915119Y-9840430D02*
X14889719Y-9865830D01*
X14889787Y-9962300D02*
X14915187Y-9987700D01*
X14915187Y-9962300D02*
X14889787Y-9987700D01*
X14914787Y-11162300D02*
X14940187Y-11187700D01*
X14940187Y-11162300D02*
X14914787Y-11187700D01*
X14989787Y-10712300D02*
X15015187Y-10737700D01*
X15015187Y-10712300D02*
X14989787Y-10737700D01*
X15114787Y-10362300D02*
X15140187Y-10387700D01*
X15140187Y-10362300D02*
X15114787Y-10387700D01*
X15164787Y-11037300D02*
X15190187Y-11062700D01*
X15190187Y-11037300D02*
X15164787Y-11062700D01*
X15214787Y-9637300D02*
X15240187Y-9662700D01*
X15240187Y-9637300D02*
X15214787Y-9662700D01*
X15264787Y-9587300D02*
X15290187Y-9612700D01*
X15290187Y-9587300D02*
X15264787Y-9612700D01*
X15314787Y-9637300D02*
X15340187Y-9662700D01*
X15340187Y-9637300D02*
X15314787Y-9662700D01*
X15314787Y-10362300D02*
X15340187Y-10387700D01*
X15340187Y-10362300D02*
X15314787Y-10387700D01*
X15339787Y-11037300D02*
X15365187Y-11062700D01*
X15365187Y-11037300D02*
X15339787Y-11062700D01*
X15364787Y-9537300D02*
X15390187Y-9562700D01*
X15390187Y-9537300D02*
X15364787Y-9562700D01*
X15389787Y-9212300D02*
X15415187Y-9237700D01*
X15415187Y-9212300D02*
X15389787Y-9237700D01*
X15414787Y-10387300D02*
X15440187Y-10412700D01*
X15440187Y-10387300D02*
X15414787Y-10412700D01*
X15439787Y-11212300D02*
X15465187Y-11237700D01*
X15465187Y-11212300D02*
X15439787Y-11237700D01*
X15464787Y-9312300D02*
X15490187Y-9337700D01*
X15490187Y-9312300D02*
X15464787Y-9337700D01*
X15464787Y-10612300D02*
X15490187Y-10637700D01*
X15490187Y-10612300D02*
X15464787Y-10637700D01*
X15539787Y-9712300D02*
X15565187Y-9737700D01*
X15565187Y-9712300D02*
X15539787Y-9737700D01*
X15636657Y-10312300D02*
X15662057Y-10337700D01*
X15662057Y-10312300D02*
X15636657Y-10337700D01*
X15639787Y-9312300D02*
X15665187Y-9337700D01*
X15665187Y-9312300D02*
X15639787Y-9337700D01*
X15664787Y-10067930D02*
X15690187Y-10093330D01*
X15690187Y-10067930D02*
X15664787Y-10093330D01*
X15664787Y-11062300D02*
X15690187Y-11087700D01*
X15690187Y-11062300D02*
X15664787Y-11087700D01*
X15735297Y-10487300D02*
X15760697Y-10512700D01*
X15760697Y-10487300D02*
X15735297Y-10512700D01*
X15814787Y-9312300D02*
X15840187Y-9337700D01*
X15840187Y-9312300D02*
X15814787Y-9337700D01*
X15814787Y-9712300D02*
X15840187Y-9737700D01*
X15840187Y-9712300D02*
X15814787Y-9737700D01*
X15839787Y-9962300D02*
X15865187Y-9987700D01*
X15865187Y-9962300D02*
X15839787Y-9987700D01*
X15889787Y-9212300D02*
X15915187Y-9237700D01*
X15915187Y-9212300D02*
X15889787Y-9237700D01*
X15914787Y-9537300D02*
X15940187Y-9562700D01*
X15940187Y-9537300D02*
X15914787Y-9562700D01*
X15964787Y-9637300D02*
X15990187Y-9662700D01*
X15990187Y-9637300D02*
X15964787Y-9662700D01*
X15989787Y-9787300D02*
X16015187Y-9812700D01*
X16015187Y-9787300D02*
X15989787Y-9812700D01*
X16014787Y-9887300D02*
X16040187Y-9912700D01*
X16040187Y-9887300D02*
X16014787Y-9912700D01*
X16014787Y-10537300D02*
X16040187Y-10562700D01*
X16040187Y-10537300D02*
X16014787Y-10562700D01*
X16064787Y-9612300D02*
X16090187Y-9637700D01*
X16090187Y-9612300D02*
X16064787Y-9637700D01*
X16114787Y-10312300D02*
X16140187Y-10337700D01*
X16140187Y-10312300D02*
X16114787Y-10337700D01*
X16139787Y-9462300D02*
X16165187Y-9487700D01*
X16165187Y-9462300D02*
X16139787Y-9487700D01*
X16164787Y-9112300D02*
X16190187Y-9137700D01*
X16190187Y-9112300D02*
X16164787Y-9137700D01*
X16164787Y-10912300D02*
X16190187Y-10937700D01*
X16190187Y-10912300D02*
X16164787Y-10937700D01*
X16339787Y-10012300D02*
X16365187Y-10037700D01*
X16365187Y-10012300D02*
X16339787Y-10037700D01*
X16389787Y-10537300D02*
X16415187Y-10562700D01*
X16415187Y-10537300D02*
X16389787Y-10562700D01*
X16414787Y-9562300D02*
X16440187Y-9587700D01*
X16440187Y-9562300D02*
X16414787Y-9587700D01*
X16434787Y-10854800D02*
X16460187Y-10880200D01*
X16460187Y-10854800D02*
X16434787Y-10880200D01*
X16489787Y-9987300D02*
X16515187Y-10012700D01*
X16515187Y-9987300D02*
X16489787Y-10012700D01*
X16564787Y-10187300D02*
X16590187Y-10212700D01*
X16590187Y-10187300D02*
X16564787Y-10212700D01*
X16614787Y-9562300D02*
X16640187Y-9587700D01*
X16640187Y-9562300D02*
X16614787Y-9587700D01*
X16634787Y-11362300D02*
X16660187Y-11387700D01*
X16660187Y-11362300D02*
X16634787Y-11387700D01*
X16639787Y-9112300D02*
X16665187Y-9137700D01*
X16665187Y-9112300D02*
X16639787Y-9137700D01*
X16662300Y-10587300D02*
X16687700Y-10612700D01*
X16687700Y-10587300D02*
X16662300Y-10612700D01*
X16664787Y-9687300D02*
X16690187Y-9712700D01*
X16690187Y-9687300D02*
X16664787Y-9712700D01*
X16684787Y-10712300D02*
X16710187Y-10737700D01*
X16710187Y-10712300D02*
X16684787Y-10737700D01*
X16689787Y-9812300D02*
X16715187Y-9837700D01*
X16715187Y-9812300D02*
X16689787Y-9837700D01*
X16714787Y-10187300D02*
X16740187Y-10212700D01*
X16740187Y-10187300D02*
X16714787Y-10212700D01*
X16762300Y-10412300D02*
X16787700Y-10437700D01*
X16787700Y-10412300D02*
X16762300Y-10437700D01*
X16762300Y-10587300D02*
X16787700Y-10612700D01*
X16787700Y-10587300D02*
X16762300Y-10612700D01*
X16762300Y-10712300D02*
X16787700Y-10737700D01*
X16787700Y-10712300D02*
X16762300Y-10737700D01*
X16834787Y-11032810D02*
X16860187Y-11058210D01*
X16860187Y-11032810D02*
X16834787Y-11058210D01*
X16839787Y-9437300D02*
X16865187Y-9462700D01*
X16865187Y-9437300D02*
X16839787Y-9462700D01*
X16839787Y-9987300D02*
X16865187Y-10012700D01*
X16865187Y-9987300D02*
X16839787Y-10012700D01*
X16864787Y-9812300D02*
X16890187Y-9837700D01*
X16890187Y-9812300D02*
X16864787Y-9837700D01*
X16864787Y-10187300D02*
X16890187Y-10212700D01*
X16890187Y-10187300D02*
X16864787Y-10212700D01*
X16906916Y-11082767D02*
X16932316Y-11108167D01*
X16932316Y-11082767D02*
X16906916Y-11108167D01*
X16937300Y-10287300D02*
X16962700Y-10312700D01*
X16962700Y-10287300D02*
X16937300Y-10312700D01*
X16989787Y-9262300D02*
X17015187Y-9287700D01*
X17015187Y-9262300D02*
X16989787Y-9287700D01*
X16989787Y-9362300D02*
X17015187Y-9387700D01*
X17015187Y-9362300D02*
X16989787Y-9387700D01*
X16989787Y-9987300D02*
X17015187Y-10012700D01*
X17015187Y-9987300D02*
X16989787Y-10012700D01*
X16989787Y-10187300D02*
X17015187Y-10212700D01*
X17015187Y-10187300D02*
X16989787Y-10212700D01*
X17014787Y-9162300D02*
X17040187Y-9187700D01*
X17040187Y-9162300D02*
X17014787Y-9187700D01*
X17014787Y-9687300D02*
X17040187Y-9712700D01*
X17040187Y-9687300D02*
X17014787Y-9712700D01*
X17039787Y-9462300D02*
X17065187Y-9487700D01*
X17065187Y-9462300D02*
X17039787Y-9487700D01*
X17137300Y-10287300D02*
X17162700Y-10312700D01*
X17162700Y-10287300D02*
X17137300Y-10312700D01*
X17137300Y-10557810D02*
X17162700Y-10583210D01*
X17162700Y-10557810D02*
X17137300Y-10583210D01*
X17137300Y-10712300D02*
X17162700Y-10737700D01*
X17162700Y-10712300D02*
X17137300Y-10737700D01*
X17139787Y-9112300D02*
X17165187Y-9137700D01*
X17165187Y-9112300D02*
X17139787Y-9137700D01*
X17139787Y-9262300D02*
X17165187Y-9287700D01*
X17165187Y-9262300D02*
X17139787Y-9287700D01*
X17139787Y-9337300D02*
X17165187Y-9362700D01*
X17165187Y-9337300D02*
X17139787Y-9362700D01*
X17139787Y-9587300D02*
X17165187Y-9612700D01*
X17165187Y-9587300D02*
X17139787Y-9612700D01*
X17189787Y-9412300D02*
X17215187Y-9437700D01*
X17215187Y-9412300D02*
X17189787Y-9437700D01*
X17212300Y-9862300D02*
X17237700Y-9887700D01*
X17237700Y-9862300D02*
X17212300Y-9887700D01*
X17212300Y-10012300D02*
X17237700Y-10037700D01*
X17237700Y-10012300D02*
X17212300Y-10037700D01*
X17237300Y-10562300D02*
X17262700Y-10587700D01*
X17262700Y-10562300D02*
X17237300Y-10587700D01*
X17237300Y-10712300D02*
X17262700Y-10737700D01*
X17262700Y-10712300D02*
X17237300Y-10737700D01*
X17264787Y-9412300D02*
X17290187Y-9437700D01*
X17290187Y-9412300D02*
X17264787Y-9437700D01*
X17287300Y-9787300D02*
X17312700Y-9812700D01*
X17312700Y-9787300D02*
X17287300Y-9812700D01*
X17287300Y-9862300D02*
X17312700Y-9887700D01*
X17312700Y-9862300D02*
X17287300Y-9887700D01*
X17287300Y-10012300D02*
X17312700Y-10037700D01*
X17312700Y-10012300D02*
X17287300Y-10037700D01*
X17287300Y-10087300D02*
X17312700Y-10112700D01*
X17312700Y-10087300D02*
X17287300Y-10112700D01*
X17289787Y-9512300D02*
X17315187Y-9537700D01*
X17315187Y-9512300D02*
X17289787Y-9537700D01*
X17289800Y-9937300D02*
X17315200Y-9962700D01*
X17315200Y-9937300D02*
X17289800Y-9962700D01*
X17309787Y-11362300D02*
X17335187Y-11387700D01*
X17335187Y-11362300D02*
X17309787Y-11387700D01*
X17337300Y-10712300D02*
X17362700Y-10737700D01*
X17362700Y-10712300D02*
X17337300Y-10737700D01*
X17337300Y-10949800D02*
X17362700Y-10975200D01*
X17362700Y-10949800D02*
X17337300Y-10975200D01*
X17362300Y-9862300D02*
X17387700Y-9887700D01*
X17387700Y-9862300D02*
X17362300Y-9887700D01*
X17362300Y-10012300D02*
X17387700Y-10037700D01*
X17387700Y-10012300D02*
X17362300Y-10037700D01*
X17362300Y-10562300D02*
X17387700Y-10587700D01*
X17387700Y-10562300D02*
X17362300Y-10587700D01*
X17364787Y-9062300D02*
X17390187Y-9087700D01*
X17390187Y-9062300D02*
X17364787Y-9087700D01*
X17364787Y-9587300D02*
X17390187Y-9612700D01*
X17390187Y-9587300D02*
X17364787Y-9612700D01*
X17434787Y-10712300D02*
X17460187Y-10737700D01*
X17460187Y-10712300D02*
X17434787Y-10737700D01*
X17434787Y-11362300D02*
X17460187Y-11387700D01*
X17460187Y-11362300D02*
X17434787Y-11387700D01*
X17437300Y-9787300D02*
X17462700Y-9812700D01*
X17462700Y-9787300D02*
X17437300Y-9812700D01*
X17437300Y-9862300D02*
X17462700Y-9887700D01*
X17462700Y-9862300D02*
X17437300Y-9887700D01*
X17437300Y-9937300D02*
X17462700Y-9962700D01*
X17462700Y-9937300D02*
X17437300Y-9962700D01*
X17437300Y-10012300D02*
X17462700Y-10037700D01*
X17462700Y-10012300D02*
X17437300Y-10037700D01*
X17437300Y-10087300D02*
X17462700Y-10112700D01*
X17462700Y-10087300D02*
X17437300Y-10112700D01*
X17439787Y-9412300D02*
X17465187Y-9437700D01*
X17465187Y-9412300D02*
X17439787Y-9437700D01*
X17439787Y-9512300D02*
X17465187Y-9537700D01*
X17465187Y-9512300D02*
X17439787Y-9537700D01*
X17489787Y-10312300D02*
X17515187Y-10337700D01*
X17515187Y-10312300D02*
X17489787Y-10337700D01*
X17512300Y-9862300D02*
X17537700Y-9887700D01*
X17537700Y-9862300D02*
X17512300Y-9887700D01*
X17512300Y-10012300D02*
X17537700Y-10037700D01*
X17537700Y-10012300D02*
X17512300Y-10037700D01*
X17539787Y-9412300D02*
X17565187Y-9437700D01*
X17565187Y-9412300D02*
X17539787Y-9437700D01*
X17589787Y-9112300D02*
X17615187Y-9137700D01*
X17615187Y-9112300D02*
X17589787Y-9137700D01*
X17589787Y-9262300D02*
X17615187Y-9287700D01*
X17615187Y-9262300D02*
X17589787Y-9287700D01*
X17589787Y-9337300D02*
X17615187Y-9362700D01*
X17615187Y-9337300D02*
X17589787Y-9362700D01*
X17614787Y-9587300D02*
X17640187Y-9612700D01*
X17640187Y-9587300D02*
X17614787Y-9612700D01*
X17614787Y-10312300D02*
X17640187Y-10337700D01*
X17640187Y-10312300D02*
X17614787Y-10337700D01*
X17689787Y-9462300D02*
X17715187Y-9487700D01*
X17715187Y-9462300D02*
X17689787Y-9487700D01*
X17689787Y-10137300D02*
X17715187Y-10162700D01*
X17715187Y-10137300D02*
X17689787Y-10162700D01*
X17714787Y-9162300D02*
X17740187Y-9187700D01*
X17740187Y-9162300D02*
X17714787Y-9187700D01*
X17737300Y-9662300D02*
X17762700Y-9687700D01*
X17762700Y-9662300D02*
X17737300Y-9687700D01*
X17739787Y-9262300D02*
X17765187Y-9287700D01*
X17765187Y-9262300D02*
X17739787Y-9287700D01*
X17739787Y-9362300D02*
X17765187Y-9387700D01*
X17765187Y-9362300D02*
X17739787Y-9387700D01*
X17789787Y-10462300D02*
X17815187Y-10487700D01*
X17815187Y-10462300D02*
X17789787Y-10487700D01*
X17789787Y-10662300D02*
X17815187Y-10687700D01*
X17815187Y-10662300D02*
X17789787Y-10687700D01*
X17814787Y-9812300D02*
X17840187Y-9837700D01*
X17840187Y-9812300D02*
X17814787Y-9837700D01*
X17837300Y-9662300D02*
X17862700Y-9687700D01*
X17862700Y-9662300D02*
X17837300Y-9687700D01*
X17889787Y-10337300D02*
X17915187Y-10362700D01*
X17915187Y-10337300D02*
X17889787Y-10362700D01*
X17964787Y-9662300D02*
X17990187Y-9687700D01*
X17990187Y-9662300D02*
X17964787Y-9687700D01*
X17964787Y-9812300D02*
X17990187Y-9837700D01*
X17990187Y-9812300D02*
X17964787Y-9837700D01*
X18039787Y-10337300D02*
X18065187Y-10362700D01*
X18065187Y-10337300D02*
X18039787Y-10362700D01*
X18139787Y-10662300D02*
X18165187Y-10687700D01*
X18165187Y-10662300D02*
X18139787Y-10687700D01*
X17240200Y-9800000D02*
G75*
G03*
X17214800Y-9800000I-12700J0D01*
G01*
X17214800Y-9800000D02*
G75*
G03*
X17240200Y-9800000I12700J0D01*
G01*
X17240200Y-9950000D02*
G75*
G03*
X17214800Y-9950000I-12700J0D01*
G01*
X17214800Y-9950000D02*
G75*
G03*
X17240200Y-9950000I12700J0D01*
G01*
X17240200Y-10100000D02*
G75*
G03*
X17214800Y-10100000I-12700J0D01*
G01*
X17214800Y-10100000D02*
G75*
G03*
X17240200Y-10100000I12700J0D01*
G01*
X17390200Y-9800000D02*
G75*
G03*
X17364800Y-9800000I-12700J0D01*
G01*
X17364800Y-9800000D02*
G75*
G03*
X17390200Y-9800000I12700J0D01*
G01*
X17390200Y-9950000D02*
G75*
G03*
X17364800Y-9950000I-12700J0D01*
G01*
X17364800Y-9950000D02*
G75*
G03*
X17390200Y-9950000I12700J0D01*
G01*
X17390200Y-10100000D02*
G75*
G03*
X17364800Y-10100000I-12700J0D01*
G01*
X17364800Y-10100000D02*
G75*
G03*
X17390200Y-10100000I12700J0D01*
G01*
X17540200Y-9800000D02*
G75*
G03*
X17514800Y-9800000I-12700J0D01*
G01*
X17514800Y-9800000D02*
G75*
G03*
X17540200Y-9800000I12700J0D01*
G01*
X17540200Y-9950000D02*
G75*
G03*
X17514800Y-9950000I-12700J0D01*
G01*
X17514800Y-9950000D02*
G75*
G03*
X17540200Y-9950000I12700J0D01*
G01*
X17540200Y-10100000D02*
G75*
G03*
X17514800Y-10100000I-12700J0D01*
G01*
X17514800Y-10100000D02*
G75*
G03*
X17540200Y-10100000I12700J0D01*
G01*
X15127487Y-9857220D02*
X15127487Y-9892780D01*
X15109707Y-9875000D02*
X15145267Y-9875000D01*
X15127487Y-10007220D02*
X15127487Y-10042780D01*
X15109707Y-10025000D02*
X15145267Y-10025000D01*
X15127487Y-10157220D02*
X15127487Y-10192780D01*
X15109707Y-10175000D02*
X15145267Y-10175000D01*
X15277487Y-9857220D02*
X15277487Y-9892780D01*
X15259707Y-9875000D02*
X15295267Y-9875000D01*
X15277487Y-10007220D02*
X15277487Y-10042780D01*
X15259707Y-10025000D02*
X15295267Y-10025000D01*
X15277487Y-10157220D02*
X15277487Y-10192780D01*
X15259707Y-10175000D02*
X15295267Y-10175000D01*
X15427487Y-9857220D02*
X15427487Y-9892780D01*
X15409707Y-9875000D02*
X15445267Y-9875000D01*
X15427487Y-10007220D02*
X15427487Y-10042780D01*
X15409707Y-10025000D02*
X15445267Y-10025000D01*
X15427487Y-10157220D02*
X15427487Y-10192780D01*
X15409707Y-10175000D02*
X15445267Y-10175000D01*
X13877678Y-9067678D02*
X13877678Y-9032322D01*
X13842322Y-9032322D01*
X13842322Y-9067678D01*
X13877678Y-9067678D01*
X13877678Y-11192678D02*
X13877678Y-11157322D01*
X13842322Y-11157322D01*
X13842322Y-11192678D01*
X13877678Y-11192678D01*
X13947972Y-8897972D02*
X13947972Y-8862617D01*
X13912617Y-8862617D01*
X13912617Y-8897972D01*
X13947972Y-8897972D01*
X13947972Y-9237383D02*
X13947972Y-9202028D01*
X13912617Y-9202028D01*
X13912617Y-9237383D01*
X13947972Y-9237383D01*
X13947972Y-11022972D02*
X13947972Y-10987617D01*
X13912617Y-10987617D01*
X13912617Y-11022972D01*
X13947972Y-11022972D01*
X13947972Y-11362383D02*
X13947972Y-11327028D01*
X13912617Y-11327028D01*
X13912617Y-11362383D01*
X13947972Y-11362383D01*
X14117678Y-8827678D02*
X14117678Y-8792322D01*
X14082322Y-8792322D01*
X14082322Y-8827678D01*
X14117678Y-8827678D01*
X14117678Y-9307678D02*
X14117678Y-9272322D01*
X14082322Y-9272322D01*
X14082322Y-9307678D01*
X14117678Y-9307678D01*
X14117678Y-10952678D02*
X14117678Y-10917322D01*
X14082322Y-10917322D01*
X14082322Y-10952678D01*
X14117678Y-10952678D01*
X14117678Y-11432678D02*
X14117678Y-11397322D01*
X14082322Y-11397322D01*
X14082322Y-11432678D01*
X14117678Y-11432678D01*
X14287383Y-8897972D02*
X14287383Y-8862617D01*
X14252028Y-8862617D01*
X14252028Y-8897972D01*
X14287383Y-8897972D01*
X14287383Y-9237383D02*
X14287383Y-9202028D01*
X14252028Y-9202028D01*
X14252028Y-9237383D01*
X14287383Y-9237383D01*
X14287383Y-11022972D02*
X14287383Y-10987617D01*
X14252028Y-10987617D01*
X14252028Y-11022972D01*
X14287383Y-11022972D01*
X14287383Y-11362383D02*
X14287383Y-11327028D01*
X14252028Y-11327028D01*
X14252028Y-11362383D01*
X14287383Y-11362383D01*
X14357678Y-9067678D02*
X14357678Y-9032322D01*
X14322322Y-9032322D01*
X14322322Y-9067678D01*
X14357678Y-9067678D01*
X14357678Y-11192678D02*
X14357678Y-11157322D01*
X14322322Y-11157322D01*
X14322322Y-11192678D01*
X14357678Y-11192678D01*
X18127678Y-9067678D02*
X18127678Y-9032322D01*
X18092322Y-9032322D01*
X18092322Y-9067678D01*
X18127678Y-9067678D01*
X18127678Y-11192678D02*
X18127678Y-11157322D01*
X18092322Y-11157322D01*
X18092322Y-11192678D01*
X18127678Y-11192678D01*
X18197972Y-8897972D02*
X18197972Y-8862617D01*
X18162617Y-8862617D01*
X18162617Y-8897972D01*
X18197972Y-8897972D01*
X18197972Y-9237383D02*
X18197972Y-9202028D01*
X18162617Y-9202028D01*
X18162617Y-9237383D01*
X18197972Y-9237383D01*
X18197972Y-11022972D02*
X18197972Y-10987617D01*
X18162617Y-10987617D01*
X18162617Y-11022972D01*
X18197972Y-11022972D01*
X18197972Y-11362383D02*
X18197972Y-11327028D01*
X18162617Y-11327028D01*
X18162617Y-11362383D01*
X18197972Y-11362383D01*
X18367678Y-8827678D02*
X18367678Y-8792322D01*
X18332322Y-8792322D01*
X18332322Y-8827678D01*
X18367678Y-8827678D01*
X18367678Y-9307678D02*
X18367678Y-9272322D01*
X18332322Y-9272322D01*
X18332322Y-9307678D01*
X18367678Y-9307678D01*
X18367678Y-10952678D02*
X18367678Y-10917322D01*
X18332322Y-10917322D01*
X18332322Y-10952678D01*
X18367678Y-10952678D01*
X18367678Y-11432678D02*
X18367678Y-11397322D01*
X18332322Y-11397322D01*
X18332322Y-11432678D01*
X18367678Y-11432678D01*
X18537383Y-8897972D02*
X18537383Y-8862617D01*
X18502028Y-8862617D01*
X18502028Y-8897972D01*
X18537383Y-8897972D01*
X18537383Y-9237383D02*
X18537383Y-9202028D01*
X18502028Y-9202028D01*
X18502028Y-9237383D01*
X18537383Y-9237383D01*
X18537383Y-11022972D02*
X18537383Y-10987617D01*
X18502028Y-10987617D01*
X18502028Y-11022972D01*
X18537383Y-11022972D01*
X18537383Y-11362383D02*
X18537383Y-11327028D01*
X18502028Y-11327028D01*
X18502028Y-11362383D01*
X18537383Y-11362383D01*
X18607678Y-9067678D02*
X18607678Y-9032322D01*
X18572322Y-9032322D01*
X18572322Y-9067678D01*
X18607678Y-9067678D01*
X18607678Y-11192678D02*
X18607678Y-11157322D01*
X18572322Y-11157322D01*
X18572322Y-11192678D01*
X18607678Y-11192678D01*
X18298487Y-9667000D02*
X18340487Y-9625000D01*
X18298487Y-9583000D01*
X18256487Y-9625000D01*
X18298487Y-9667000D01*
X18298487Y-9921000D02*
X18340487Y-9879000D01*
X18298487Y-9837000D01*
X18256487Y-9879000D01*
X18298487Y-9921000D01*
X18425487Y-9794000D02*
X18467487Y-9752000D01*
X18425487Y-9710000D01*
X18383487Y-9752000D01*
X18425487Y-9794000D01*
X18552487Y-9667000D02*
X18594487Y-9625000D01*
X18552487Y-9583000D01*
X18510487Y-9625000D01*
X18552487Y-9667000D01*
X18552487Y-9921000D02*
X18594487Y-9879000D01*
X18552487Y-9837000D01*
X18510487Y-9879000D01*
X18552487Y-9921000D01*
D13*
X13940000Y-8890000D02*
X14260000Y-9210000D01*
X14260000Y-8890000D02*
X13940000Y-9210000D01*
X14260000Y-9050000D02*
G75*
G03*
X13940000Y-9050000I-160000J0D01*
G01*
X13940000Y-9050000D02*
G75*
G03*
X14260000Y-9050000I160000J0D01*
G01*
X13940000Y-11015000D02*
X14260000Y-11335000D01*
X14260000Y-11015000D02*
X13940000Y-11335000D01*
X14260000Y-11175000D02*
G75*
G03*
X13940000Y-11175000I-160000J0D01*
G01*
X13940000Y-11175000D02*
G75*
G03*
X14260000Y-11175000I160000J0D01*
G01*
X18190000Y-8890000D02*
X18510000Y-9210000D01*
X18510000Y-8890000D02*
X18190000Y-9210000D01*
X18510000Y-9050000D02*
G75*
G03*
X18190000Y-9050000I-160000J0D01*
G01*
X18190000Y-9050000D02*
G75*
G03*
X18510000Y-9050000I160000J0D01*
G01*
X18190000Y-11015000D02*
X18510000Y-11335000D01*
X18510000Y-11015000D02*
X18190000Y-11335000D01*
X18510000Y-11175000D02*
G75*
G03*
X18190000Y-11175000I-160000J0D01*
G01*
X18190000Y-11175000D02*
G75*
G03*
X18510000Y-11175000I160000J0D01*
G01*
D11*
X13978277Y-11868984D02*
X13978277Y-11668984D01*
X13978277Y-11668984D02*
X14025896Y-11668984D01*
X14025896Y-11668984D02*
X14054467Y-11678508D01*
X14054467Y-11678508D02*
X14073515Y-11697555D01*
X14073515Y-11697555D02*
X14083039Y-11716603D01*
X14083039Y-11716603D02*
X14092562Y-11754698D01*
X14092562Y-11754698D02*
X14092562Y-11783269D01*
X14092562Y-11783269D02*
X14083039Y-11821365D01*
X14083039Y-11821365D02*
X14073515Y-11840412D01*
X14073515Y-11840412D02*
X14054467Y-11859460D01*
X14054467Y-11859460D02*
X14025896Y-11868984D01*
X14025896Y-11868984D02*
X13978277Y-11868984D01*
X14178277Y-11868984D02*
X14178277Y-11735650D01*
X14178277Y-11773746D02*
X14187801Y-11754698D01*
X14187801Y-11754698D02*
X14197324Y-11745174D01*
X14197324Y-11745174D02*
X14216372Y-11735650D01*
X14216372Y-11735650D02*
X14235420Y-11735650D01*
X14302086Y-11868984D02*
X14302086Y-11735650D01*
X14302086Y-11668984D02*
X14292562Y-11678508D01*
X14292562Y-11678508D02*
X14302086Y-11688031D01*
X14302086Y-11688031D02*
X14311610Y-11678508D01*
X14311610Y-11678508D02*
X14302086Y-11668984D01*
X14302086Y-11668984D02*
X14302086Y-11688031D01*
X14425896Y-11868984D02*
X14406848Y-11859460D01*
X14406848Y-11859460D02*
X14397324Y-11840412D01*
X14397324Y-11840412D02*
X14397324Y-11668984D01*
X14530658Y-11868984D02*
X14511610Y-11859460D01*
X14511610Y-11859460D02*
X14502086Y-11840412D01*
X14502086Y-11840412D02*
X14502086Y-11668984D01*
X14759229Y-11868984D02*
X14759229Y-11668984D01*
X14759229Y-11668984D02*
X14825896Y-11811841D01*
X14825896Y-11811841D02*
X14892562Y-11668984D01*
X14892562Y-11668984D02*
X14892562Y-11868984D01*
X15073515Y-11868984D02*
X15073515Y-11764222D01*
X15073515Y-11764222D02*
X15063991Y-11745174D01*
X15063991Y-11745174D02*
X15044943Y-11735650D01*
X15044943Y-11735650D02*
X15006848Y-11735650D01*
X15006848Y-11735650D02*
X14987801Y-11745174D01*
X15073515Y-11859460D02*
X15054467Y-11868984D01*
X15054467Y-11868984D02*
X15006848Y-11868984D01*
X15006848Y-11868984D02*
X14987801Y-11859460D01*
X14987801Y-11859460D02*
X14978277Y-11840412D01*
X14978277Y-11840412D02*
X14978277Y-11821365D01*
X14978277Y-11821365D02*
X14987801Y-11802317D01*
X14987801Y-11802317D02*
X15006848Y-11792793D01*
X15006848Y-11792793D02*
X15054467Y-11792793D01*
X15054467Y-11792793D02*
X15073515Y-11783269D01*
X15168753Y-11735650D02*
X15168753Y-11935650D01*
X15168753Y-11745174D02*
X15187801Y-11735650D01*
X15187801Y-11735650D02*
X15225896Y-11735650D01*
X15225896Y-11735650D02*
X15244943Y-11745174D01*
X15244943Y-11745174D02*
X15254467Y-11754698D01*
X15254467Y-11754698D02*
X15263991Y-11773746D01*
X15263991Y-11773746D02*
X15263991Y-11830888D01*
X15263991Y-11830888D02*
X15254467Y-11849936D01*
X15254467Y-11849936D02*
X15244943Y-11859460D01*
X15244943Y-11859460D02*
X15225896Y-11868984D01*
X15225896Y-11868984D02*
X15187801Y-11868984D01*
X15187801Y-11868984D02*
X15168753Y-11859460D01*
X15349705Y-11849936D02*
X15359229Y-11859460D01*
X15359229Y-11859460D02*
X15349705Y-11868984D01*
X15349705Y-11868984D02*
X15340182Y-11859460D01*
X15340182Y-11859460D02*
X15349705Y-11849936D01*
X15349705Y-11849936D02*
X15349705Y-11868984D01*
X15349705Y-11745174D02*
X15359229Y-11754698D01*
X15359229Y-11754698D02*
X15349705Y-11764222D01*
X15349705Y-11764222D02*
X15340182Y-11754698D01*
X15340182Y-11754698D02*
X15349705Y-11745174D01*
X15349705Y-11745174D02*
X15349705Y-11764222D01*
D12*
X13692100Y-12184800D02*
X13717500Y-12210200D01*
X13717500Y-12184800D02*
X13692100Y-12210200D01*
D11*
X14016372Y-12088984D02*
X14035420Y-12088984D01*
X14035420Y-12088984D02*
X14054467Y-12098508D01*
X14054467Y-12098508D02*
X14063991Y-12108031D01*
X14063991Y-12108031D02*
X14073515Y-12127079D01*
X14073515Y-12127079D02*
X14083039Y-12165174D01*
X14083039Y-12165174D02*
X14083039Y-12212793D01*
X14083039Y-12212793D02*
X14073515Y-12250888D01*
X14073515Y-12250888D02*
X14063991Y-12269936D01*
X14063991Y-12269936D02*
X14054467Y-12279460D01*
X14054467Y-12279460D02*
X14035420Y-12288984D01*
X14035420Y-12288984D02*
X14016372Y-12288984D01*
X14016372Y-12288984D02*
X13997324Y-12279460D01*
X13997324Y-12279460D02*
X13987801Y-12269936D01*
X13987801Y-12269936D02*
X13978277Y-12250888D01*
X13978277Y-12250888D02*
X13968753Y-12212793D01*
X13968753Y-12212793D02*
X13968753Y-12165174D01*
X13968753Y-12165174D02*
X13978277Y-12127079D01*
X13978277Y-12127079D02*
X13987801Y-12108031D01*
X13987801Y-12108031D02*
X13997324Y-12098508D01*
X13997324Y-12098508D02*
X14016372Y-12088984D01*
X14168753Y-12269936D02*
X14178277Y-12279460D01*
X14178277Y-12279460D02*
X14168753Y-12288984D01*
X14168753Y-12288984D02*
X14159229Y-12279460D01*
X14159229Y-12279460D02*
X14168753Y-12269936D01*
X14168753Y-12269936D02*
X14168753Y-12288984D01*
X14254467Y-12108031D02*
X14263991Y-12098508D01*
X14263991Y-12098508D02*
X14283039Y-12088984D01*
X14283039Y-12088984D02*
X14330658Y-12088984D01*
X14330658Y-12088984D02*
X14349705Y-12098508D01*
X14349705Y-12098508D02*
X14359229Y-12108031D01*
X14359229Y-12108031D02*
X14368753Y-12127079D01*
X14368753Y-12127079D02*
X14368753Y-12146127D01*
X14368753Y-12146127D02*
X14359229Y-12174698D01*
X14359229Y-12174698D02*
X14244943Y-12288984D01*
X14244943Y-12288984D02*
X14368753Y-12288984D01*
X14549705Y-12088984D02*
X14454467Y-12088984D01*
X14454467Y-12088984D02*
X14444943Y-12184222D01*
X14444943Y-12184222D02*
X14454467Y-12174698D01*
X14454467Y-12174698D02*
X14473515Y-12165174D01*
X14473515Y-12165174D02*
X14521134Y-12165174D01*
X14521134Y-12165174D02*
X14540182Y-12174698D01*
X14540182Y-12174698D02*
X14549705Y-12184222D01*
X14549705Y-12184222D02*
X14559229Y-12203269D01*
X14559229Y-12203269D02*
X14559229Y-12250888D01*
X14559229Y-12250888D02*
X14549705Y-12269936D01*
X14549705Y-12269936D02*
X14540182Y-12279460D01*
X14540182Y-12279460D02*
X14521134Y-12288984D01*
X14521134Y-12288984D02*
X14473515Y-12288984D01*
X14473515Y-12288984D02*
X14454467Y-12279460D01*
X14454467Y-12279460D02*
X14444943Y-12269936D01*
X14730658Y-12155650D02*
X14730658Y-12288984D01*
X14683039Y-12079460D02*
X14635420Y-12222317D01*
X14635420Y-12222317D02*
X14759229Y-12222317D01*
X14835420Y-12288984D02*
X14835420Y-12155650D01*
X14835420Y-12174698D02*
X14844943Y-12165174D01*
X14844943Y-12165174D02*
X14863991Y-12155650D01*
X14863991Y-12155650D02*
X14892563Y-12155650D01*
X14892563Y-12155650D02*
X14911610Y-12165174D01*
X14911610Y-12165174D02*
X14921134Y-12184222D01*
X14921134Y-12184222D02*
X14921134Y-12288984D01*
X14921134Y-12184222D02*
X14930658Y-12165174D01*
X14930658Y-12165174D02*
X14949705Y-12155650D01*
X14949705Y-12155650D02*
X14978277Y-12155650D01*
X14978277Y-12155650D02*
X14997324Y-12165174D01*
X14997324Y-12165174D02*
X15006848Y-12184222D01*
X15006848Y-12184222D02*
X15006848Y-12288984D01*
X15102086Y-12288984D02*
X15102086Y-12155650D01*
X15102086Y-12174698D02*
X15111610Y-12165174D01*
X15111610Y-12165174D02*
X15130658Y-12155650D01*
X15130658Y-12155650D02*
X15159229Y-12155650D01*
X15159229Y-12155650D02*
X15178277Y-12165174D01*
X15178277Y-12165174D02*
X15187801Y-12184222D01*
X15187801Y-12184222D02*
X15187801Y-12288984D01*
X15187801Y-12184222D02*
X15197324Y-12165174D01*
X15197324Y-12165174D02*
X15216372Y-12155650D01*
X15216372Y-12155650D02*
X15244943Y-12155650D01*
X15244943Y-12155650D02*
X15263991Y-12165174D01*
X15263991Y-12165174D02*
X15273515Y-12184222D01*
X15273515Y-12184222D02*
X15273515Y-12288984D01*
X15663991Y-12079460D02*
X15492563Y-12336603D01*
X15921134Y-12088984D02*
X15940182Y-12088984D01*
X15940182Y-12088984D02*
X15959229Y-12098508D01*
X15959229Y-12098508D02*
X15968753Y-12108031D01*
X15968753Y-12108031D02*
X15978277Y-12127079D01*
X15978277Y-12127079D02*
X15987801Y-12165174D01*
X15987801Y-12165174D02*
X15987801Y-12212793D01*
X15987801Y-12212793D02*
X15978277Y-12250888D01*
X15978277Y-12250888D02*
X15968753Y-12269936D01*
X15968753Y-12269936D02*
X15959229Y-12279460D01*
X15959229Y-12279460D02*
X15940182Y-12288984D01*
X15940182Y-12288984D02*
X15921134Y-12288984D01*
X15921134Y-12288984D02*
X15902086Y-12279460D01*
X15902086Y-12279460D02*
X15892563Y-12269936D01*
X15892563Y-12269936D02*
X15883039Y-12250888D01*
X15883039Y-12250888D02*
X15873515Y-12212793D01*
X15873515Y-12212793D02*
X15873515Y-12165174D01*
X15873515Y-12165174D02*
X15883039Y-12127079D01*
X15883039Y-12127079D02*
X15892563Y-12108031D01*
X15892563Y-12108031D02*
X15902086Y-12098508D01*
X15902086Y-12098508D02*
X15921134Y-12088984D01*
X16073515Y-12269936D02*
X16083039Y-12279460D01*
X16083039Y-12279460D02*
X16073515Y-12288984D01*
X16073515Y-12288984D02*
X16063991Y-12279460D01*
X16063991Y-12279460D02*
X16073515Y-12269936D01*
X16073515Y-12269936D02*
X16073515Y-12288984D01*
X16206848Y-12088984D02*
X16225896Y-12088984D01*
X16225896Y-12088984D02*
X16244944Y-12098508D01*
X16244944Y-12098508D02*
X16254467Y-12108031D01*
X16254467Y-12108031D02*
X16263991Y-12127079D01*
X16263991Y-12127079D02*
X16273515Y-12165174D01*
X16273515Y-12165174D02*
X16273515Y-12212793D01*
X16273515Y-12212793D02*
X16263991Y-12250888D01*
X16263991Y-12250888D02*
X16254467Y-12269936D01*
X16254467Y-12269936D02*
X16244944Y-12279460D01*
X16244944Y-12279460D02*
X16225896Y-12288984D01*
X16225896Y-12288984D02*
X16206848Y-12288984D01*
X16206848Y-12288984D02*
X16187801Y-12279460D01*
X16187801Y-12279460D02*
X16178277Y-12269936D01*
X16178277Y-12269936D02*
X16168753Y-12250888D01*
X16168753Y-12250888D02*
X16159229Y-12212793D01*
X16159229Y-12212793D02*
X16159229Y-12165174D01*
X16159229Y-12165174D02*
X16168753Y-12127079D01*
X16168753Y-12127079D02*
X16178277Y-12108031D01*
X16178277Y-12108031D02*
X16187801Y-12098508D01*
X16187801Y-12098508D02*
X16206848Y-12088984D01*
X16463991Y-12288984D02*
X16349706Y-12288984D01*
X16406848Y-12288984D02*
X16406848Y-12088984D01*
X16406848Y-12088984D02*
X16387801Y-12117555D01*
X16387801Y-12117555D02*
X16368753Y-12136603D01*
X16368753Y-12136603D02*
X16349706Y-12146127D01*
X16587801Y-12088984D02*
X16606848Y-12088984D01*
X16606848Y-12088984D02*
X16625896Y-12098508D01*
X16625896Y-12098508D02*
X16635420Y-12108031D01*
X16635420Y-12108031D02*
X16644944Y-12127079D01*
X16644944Y-12127079D02*
X16654467Y-12165174D01*
X16654467Y-12165174D02*
X16654467Y-12212793D01*
X16654467Y-12212793D02*
X16644944Y-12250888D01*
X16644944Y-12250888D02*
X16635420Y-12269936D01*
X16635420Y-12269936D02*
X16625896Y-12279460D01*
X16625896Y-12279460D02*
X16606848Y-12288984D01*
X16606848Y-12288984D02*
X16587801Y-12288984D01*
X16587801Y-12288984D02*
X16568753Y-12279460D01*
X16568753Y-12279460D02*
X16559229Y-12269936D01*
X16559229Y-12269936D02*
X16549706Y-12250888D01*
X16549706Y-12250888D02*
X16540182Y-12212793D01*
X16540182Y-12212793D02*
X16540182Y-12165174D01*
X16540182Y-12165174D02*
X16549706Y-12127079D01*
X16549706Y-12127079D02*
X16559229Y-12108031D01*
X16559229Y-12108031D02*
X16568753Y-12098508D01*
X16568753Y-12098508D02*
X16587801Y-12088984D01*
X16778277Y-12088984D02*
X16797325Y-12088984D01*
X16797325Y-12088984D02*
X16816372Y-12098508D01*
X16816372Y-12098508D02*
X16825896Y-12108031D01*
X16825896Y-12108031D02*
X16835420Y-12127079D01*
X16835420Y-12127079D02*
X16844944Y-12165174D01*
X16844944Y-12165174D02*
X16844944Y-12212793D01*
X16844944Y-12212793D02*
X16835420Y-12250888D01*
X16835420Y-12250888D02*
X16825896Y-12269936D01*
X16825896Y-12269936D02*
X16816372Y-12279460D01*
X16816372Y-12279460D02*
X16797325Y-12288984D01*
X16797325Y-12288984D02*
X16778277Y-12288984D01*
X16778277Y-12288984D02*
X16759229Y-12279460D01*
X16759229Y-12279460D02*
X16749706Y-12269936D01*
X16749706Y-12269936D02*
X16740182Y-12250888D01*
X16740182Y-12250888D02*
X16730658Y-12212793D01*
X16730658Y-12212793D02*
X16730658Y-12165174D01*
X16730658Y-12165174D02*
X16740182Y-12127079D01*
X16740182Y-12127079D02*
X16749706Y-12108031D01*
X16749706Y-12108031D02*
X16759229Y-12098508D01*
X16759229Y-12098508D02*
X16778277Y-12088984D01*
X16921134Y-12088984D02*
X16921134Y-12127079D01*
X16997325Y-12088984D02*
X16997325Y-12127079D01*
X17292563Y-12365174D02*
X17283039Y-12355650D01*
X17283039Y-12355650D02*
X17263991Y-12327079D01*
X17263991Y-12327079D02*
X17254468Y-12308031D01*
X17254468Y-12308031D02*
X17244944Y-12279460D01*
X17244944Y-12279460D02*
X17235420Y-12231841D01*
X17235420Y-12231841D02*
X17235420Y-12193746D01*
X17235420Y-12193746D02*
X17244944Y-12146127D01*
X17244944Y-12146127D02*
X17254468Y-12117555D01*
X17254468Y-12117555D02*
X17263991Y-12098508D01*
X17263991Y-12098508D02*
X17283039Y-12069936D01*
X17283039Y-12069936D02*
X17292563Y-12060412D01*
X17473515Y-12288984D02*
X17359230Y-12288984D01*
X17416372Y-12288984D02*
X17416372Y-12088984D01*
X17416372Y-12088984D02*
X17397325Y-12117555D01*
X17397325Y-12117555D02*
X17378277Y-12136603D01*
X17378277Y-12136603D02*
X17359230Y-12146127D01*
X17644944Y-12155650D02*
X17644944Y-12288984D01*
X17597325Y-12079460D02*
X17549706Y-12222317D01*
X17549706Y-12222317D02*
X17673515Y-12222317D01*
X17844944Y-12088984D02*
X17749706Y-12088984D01*
X17749706Y-12088984D02*
X17740182Y-12184222D01*
X17740182Y-12184222D02*
X17749706Y-12174698D01*
X17749706Y-12174698D02*
X17768753Y-12165174D01*
X17768753Y-12165174D02*
X17816372Y-12165174D01*
X17816372Y-12165174D02*
X17835420Y-12174698D01*
X17835420Y-12174698D02*
X17844944Y-12184222D01*
X17844944Y-12184222D02*
X17854468Y-12203269D01*
X17854468Y-12203269D02*
X17854468Y-12250888D01*
X17854468Y-12250888D02*
X17844944Y-12269936D01*
X17844944Y-12269936D02*
X17835420Y-12279460D01*
X17835420Y-12279460D02*
X17816372Y-12288984D01*
X17816372Y-12288984D02*
X17768753Y-12288984D01*
X17768753Y-12288984D02*
X17749706Y-12279460D01*
X17749706Y-12279460D02*
X17740182Y-12269936D01*
X18092563Y-12288984D02*
X18092563Y-12088984D01*
X18178277Y-12288984D02*
X18178277Y-12184222D01*
X18178277Y-12184222D02*
X18168753Y-12165174D01*
X18168753Y-12165174D02*
X18149706Y-12155650D01*
X18149706Y-12155650D02*
X18121134Y-12155650D01*
X18121134Y-12155650D02*
X18102087Y-12165174D01*
X18102087Y-12165174D02*
X18092563Y-12174698D01*
X18302087Y-12288984D02*
X18283039Y-12279460D01*
X18283039Y-12279460D02*
X18273515Y-12269936D01*
X18273515Y-12269936D02*
X18263992Y-12250888D01*
X18263992Y-12250888D02*
X18263992Y-12193746D01*
X18263992Y-12193746D02*
X18273515Y-12174698D01*
X18273515Y-12174698D02*
X18283039Y-12165174D01*
X18283039Y-12165174D02*
X18302087Y-12155650D01*
X18302087Y-12155650D02*
X18330658Y-12155650D01*
X18330658Y-12155650D02*
X18349706Y-12165174D01*
X18349706Y-12165174D02*
X18359230Y-12174698D01*
X18359230Y-12174698D02*
X18368753Y-12193746D01*
X18368753Y-12193746D02*
X18368753Y-12250888D01*
X18368753Y-12250888D02*
X18359230Y-12269936D01*
X18359230Y-12269936D02*
X18349706Y-12279460D01*
X18349706Y-12279460D02*
X18330658Y-12288984D01*
X18330658Y-12288984D02*
X18302087Y-12288984D01*
X18483039Y-12288984D02*
X18463992Y-12279460D01*
X18463992Y-12279460D02*
X18454468Y-12260412D01*
X18454468Y-12260412D02*
X18454468Y-12088984D01*
X18635420Y-12279460D02*
X18616373Y-12288984D01*
X18616373Y-12288984D02*
X18578277Y-12288984D01*
X18578277Y-12288984D02*
X18559230Y-12279460D01*
X18559230Y-12279460D02*
X18549706Y-12260412D01*
X18549706Y-12260412D02*
X18549706Y-12184222D01*
X18549706Y-12184222D02*
X18559230Y-12165174D01*
X18559230Y-12165174D02*
X18578277Y-12155650D01*
X18578277Y-12155650D02*
X18616373Y-12155650D01*
X18616373Y-12155650D02*
X18635420Y-12165174D01*
X18635420Y-12165174D02*
X18644944Y-12184222D01*
X18644944Y-12184222D02*
X18644944Y-12203269D01*
X18644944Y-12203269D02*
X18549706Y-12222317D01*
X18721134Y-12279460D02*
X18740182Y-12288984D01*
X18740182Y-12288984D02*
X18778277Y-12288984D01*
X18778277Y-12288984D02*
X18797325Y-12279460D01*
X18797325Y-12279460D02*
X18806849Y-12260412D01*
X18806849Y-12260412D02*
X18806849Y-12250888D01*
X18806849Y-12250888D02*
X18797325Y-12231841D01*
X18797325Y-12231841D02*
X18778277Y-12222317D01*
X18778277Y-12222317D02*
X18749706Y-12222317D01*
X18749706Y-12222317D02*
X18730658Y-12212793D01*
X18730658Y-12212793D02*
X18721134Y-12193746D01*
X18721134Y-12193746D02*
X18721134Y-12184222D01*
X18721134Y-12184222D02*
X18730658Y-12165174D01*
X18730658Y-12165174D02*
X18749706Y-12155650D01*
X18749706Y-12155650D02*
X18778277Y-12155650D01*
X18778277Y-12155650D02*
X18797325Y-12165174D01*
X18873515Y-12365174D02*
X18883039Y-12355650D01*
X18883039Y-12355650D02*
X18902087Y-12327079D01*
X18902087Y-12327079D02*
X18911611Y-12308031D01*
X18911611Y-12308031D02*
X18921134Y-12279460D01*
X18921134Y-12279460D02*
X18930658Y-12231841D01*
X18930658Y-12231841D02*
X18930658Y-12193746D01*
X18930658Y-12193746D02*
X18921134Y-12146127D01*
X18921134Y-12146127D02*
X18911611Y-12117555D01*
X18911611Y-12117555D02*
X18902087Y-12098508D01*
X18902087Y-12098508D02*
X18883039Y-12069936D01*
X18883039Y-12069936D02*
X18873515Y-12060412D01*
D12*
X13717500Y-12461500D02*
G75*
G03*
X13692100Y-12461500I-12700J0D01*
G01*
X13692100Y-12461500D02*
G75*
G03*
X13717500Y-12461500I12700J0D01*
G01*
D11*
X14016372Y-12352984D02*
X14035420Y-12352984D01*
X14035420Y-12352984D02*
X14054467Y-12362508D01*
X14054467Y-12362508D02*
X14063991Y-12372031D01*
X14063991Y-12372031D02*
X14073515Y-12391079D01*
X14073515Y-12391079D02*
X14083039Y-12429174D01*
X14083039Y-12429174D02*
X14083039Y-12476793D01*
X14083039Y-12476793D02*
X14073515Y-12514888D01*
X14073515Y-12514888D02*
X14063991Y-12533936D01*
X14063991Y-12533936D02*
X14054467Y-12543460D01*
X14054467Y-12543460D02*
X14035420Y-12552984D01*
X14035420Y-12552984D02*
X14016372Y-12552984D01*
X14016372Y-12552984D02*
X13997324Y-12543460D01*
X13997324Y-12543460D02*
X13987801Y-12533936D01*
X13987801Y-12533936D02*
X13978277Y-12514888D01*
X13978277Y-12514888D02*
X13968753Y-12476793D01*
X13968753Y-12476793D02*
X13968753Y-12429174D01*
X13968753Y-12429174D02*
X13978277Y-12391079D01*
X13978277Y-12391079D02*
X13987801Y-12372031D01*
X13987801Y-12372031D02*
X13997324Y-12362508D01*
X13997324Y-12362508D02*
X14016372Y-12352984D01*
X14168753Y-12533936D02*
X14178277Y-12543460D01*
X14178277Y-12543460D02*
X14168753Y-12552984D01*
X14168753Y-12552984D02*
X14159229Y-12543460D01*
X14159229Y-12543460D02*
X14168753Y-12533936D01*
X14168753Y-12533936D02*
X14168753Y-12552984D01*
X14254467Y-12372031D02*
X14263991Y-12362508D01*
X14263991Y-12362508D02*
X14283039Y-12352984D01*
X14283039Y-12352984D02*
X14330658Y-12352984D01*
X14330658Y-12352984D02*
X14349705Y-12362508D01*
X14349705Y-12362508D02*
X14359229Y-12372031D01*
X14359229Y-12372031D02*
X14368753Y-12391079D01*
X14368753Y-12391079D02*
X14368753Y-12410127D01*
X14368753Y-12410127D02*
X14359229Y-12438698D01*
X14359229Y-12438698D02*
X14244943Y-12552984D01*
X14244943Y-12552984D02*
X14368753Y-12552984D01*
X14549705Y-12352984D02*
X14454467Y-12352984D01*
X14454467Y-12352984D02*
X14444943Y-12448222D01*
X14444943Y-12448222D02*
X14454467Y-12438698D01*
X14454467Y-12438698D02*
X14473515Y-12429174D01*
X14473515Y-12429174D02*
X14521134Y-12429174D01*
X14521134Y-12429174D02*
X14540182Y-12438698D01*
X14540182Y-12438698D02*
X14549705Y-12448222D01*
X14549705Y-12448222D02*
X14559229Y-12467269D01*
X14559229Y-12467269D02*
X14559229Y-12514888D01*
X14559229Y-12514888D02*
X14549705Y-12533936D01*
X14549705Y-12533936D02*
X14540182Y-12543460D01*
X14540182Y-12543460D02*
X14521134Y-12552984D01*
X14521134Y-12552984D02*
X14473515Y-12552984D01*
X14473515Y-12552984D02*
X14454467Y-12543460D01*
X14454467Y-12543460D02*
X14444943Y-12533936D01*
X14730658Y-12419650D02*
X14730658Y-12552984D01*
X14683039Y-12343460D02*
X14635420Y-12486317D01*
X14635420Y-12486317D02*
X14759229Y-12486317D01*
X14835420Y-12552984D02*
X14835420Y-12419650D01*
X14835420Y-12438698D02*
X14844943Y-12429174D01*
X14844943Y-12429174D02*
X14863991Y-12419650D01*
X14863991Y-12419650D02*
X14892563Y-12419650D01*
X14892563Y-12419650D02*
X14911610Y-12429174D01*
X14911610Y-12429174D02*
X14921134Y-12448222D01*
X14921134Y-12448222D02*
X14921134Y-12552984D01*
X14921134Y-12448222D02*
X14930658Y-12429174D01*
X14930658Y-12429174D02*
X14949705Y-12419650D01*
X14949705Y-12419650D02*
X14978277Y-12419650D01*
X14978277Y-12419650D02*
X14997324Y-12429174D01*
X14997324Y-12429174D02*
X15006848Y-12448222D01*
X15006848Y-12448222D02*
X15006848Y-12552984D01*
X15102086Y-12552984D02*
X15102086Y-12419650D01*
X15102086Y-12438698D02*
X15111610Y-12429174D01*
X15111610Y-12429174D02*
X15130658Y-12419650D01*
X15130658Y-12419650D02*
X15159229Y-12419650D01*
X15159229Y-12419650D02*
X15178277Y-12429174D01*
X15178277Y-12429174D02*
X15187801Y-12448222D01*
X15187801Y-12448222D02*
X15187801Y-12552984D01*
X15187801Y-12448222D02*
X15197324Y-12429174D01*
X15197324Y-12429174D02*
X15216372Y-12419650D01*
X15216372Y-12419650D02*
X15244943Y-12419650D01*
X15244943Y-12419650D02*
X15263991Y-12429174D01*
X15263991Y-12429174D02*
X15273515Y-12448222D01*
X15273515Y-12448222D02*
X15273515Y-12552984D01*
X15663991Y-12343460D02*
X15492563Y-12600603D01*
X15921134Y-12352984D02*
X15940182Y-12352984D01*
X15940182Y-12352984D02*
X15959229Y-12362508D01*
X15959229Y-12362508D02*
X15968753Y-12372031D01*
X15968753Y-12372031D02*
X15978277Y-12391079D01*
X15978277Y-12391079D02*
X15987801Y-12429174D01*
X15987801Y-12429174D02*
X15987801Y-12476793D01*
X15987801Y-12476793D02*
X15978277Y-12514888D01*
X15978277Y-12514888D02*
X15968753Y-12533936D01*
X15968753Y-12533936D02*
X15959229Y-12543460D01*
X15959229Y-12543460D02*
X15940182Y-12552984D01*
X15940182Y-12552984D02*
X15921134Y-12552984D01*
X15921134Y-12552984D02*
X15902086Y-12543460D01*
X15902086Y-12543460D02*
X15892563Y-12533936D01*
X15892563Y-12533936D02*
X15883039Y-12514888D01*
X15883039Y-12514888D02*
X15873515Y-12476793D01*
X15873515Y-12476793D02*
X15873515Y-12429174D01*
X15873515Y-12429174D02*
X15883039Y-12391079D01*
X15883039Y-12391079D02*
X15892563Y-12372031D01*
X15892563Y-12372031D02*
X15902086Y-12362508D01*
X15902086Y-12362508D02*
X15921134Y-12352984D01*
X16073515Y-12533936D02*
X16083039Y-12543460D01*
X16083039Y-12543460D02*
X16073515Y-12552984D01*
X16073515Y-12552984D02*
X16063991Y-12543460D01*
X16063991Y-12543460D02*
X16073515Y-12533936D01*
X16073515Y-12533936D02*
X16073515Y-12552984D01*
X16206848Y-12352984D02*
X16225896Y-12352984D01*
X16225896Y-12352984D02*
X16244944Y-12362508D01*
X16244944Y-12362508D02*
X16254467Y-12372031D01*
X16254467Y-12372031D02*
X16263991Y-12391079D01*
X16263991Y-12391079D02*
X16273515Y-12429174D01*
X16273515Y-12429174D02*
X16273515Y-12476793D01*
X16273515Y-12476793D02*
X16263991Y-12514888D01*
X16263991Y-12514888D02*
X16254467Y-12533936D01*
X16254467Y-12533936D02*
X16244944Y-12543460D01*
X16244944Y-12543460D02*
X16225896Y-12552984D01*
X16225896Y-12552984D02*
X16206848Y-12552984D01*
X16206848Y-12552984D02*
X16187801Y-12543460D01*
X16187801Y-12543460D02*
X16178277Y-12533936D01*
X16178277Y-12533936D02*
X16168753Y-12514888D01*
X16168753Y-12514888D02*
X16159229Y-12476793D01*
X16159229Y-12476793D02*
X16159229Y-12429174D01*
X16159229Y-12429174D02*
X16168753Y-12391079D01*
X16168753Y-12391079D02*
X16178277Y-12372031D01*
X16178277Y-12372031D02*
X16187801Y-12362508D01*
X16187801Y-12362508D02*
X16206848Y-12352984D01*
X16463991Y-12552984D02*
X16349706Y-12552984D01*
X16406848Y-12552984D02*
X16406848Y-12352984D01*
X16406848Y-12352984D02*
X16387801Y-12381555D01*
X16387801Y-12381555D02*
X16368753Y-12400603D01*
X16368753Y-12400603D02*
X16349706Y-12410127D01*
X16587801Y-12352984D02*
X16606848Y-12352984D01*
X16606848Y-12352984D02*
X16625896Y-12362508D01*
X16625896Y-12362508D02*
X16635420Y-12372031D01*
X16635420Y-12372031D02*
X16644944Y-12391079D01*
X16644944Y-12391079D02*
X16654467Y-12429174D01*
X16654467Y-12429174D02*
X16654467Y-12476793D01*
X16654467Y-12476793D02*
X16644944Y-12514888D01*
X16644944Y-12514888D02*
X16635420Y-12533936D01*
X16635420Y-12533936D02*
X16625896Y-12543460D01*
X16625896Y-12543460D02*
X16606848Y-12552984D01*
X16606848Y-12552984D02*
X16587801Y-12552984D01*
X16587801Y-12552984D02*
X16568753Y-12543460D01*
X16568753Y-12543460D02*
X16559229Y-12533936D01*
X16559229Y-12533936D02*
X16549706Y-12514888D01*
X16549706Y-12514888D02*
X16540182Y-12476793D01*
X16540182Y-12476793D02*
X16540182Y-12429174D01*
X16540182Y-12429174D02*
X16549706Y-12391079D01*
X16549706Y-12391079D02*
X16559229Y-12372031D01*
X16559229Y-12372031D02*
X16568753Y-12362508D01*
X16568753Y-12362508D02*
X16587801Y-12352984D01*
X16778277Y-12352984D02*
X16797325Y-12352984D01*
X16797325Y-12352984D02*
X16816372Y-12362508D01*
X16816372Y-12362508D02*
X16825896Y-12372031D01*
X16825896Y-12372031D02*
X16835420Y-12391079D01*
X16835420Y-12391079D02*
X16844944Y-12429174D01*
X16844944Y-12429174D02*
X16844944Y-12476793D01*
X16844944Y-12476793D02*
X16835420Y-12514888D01*
X16835420Y-12514888D02*
X16825896Y-12533936D01*
X16825896Y-12533936D02*
X16816372Y-12543460D01*
X16816372Y-12543460D02*
X16797325Y-12552984D01*
X16797325Y-12552984D02*
X16778277Y-12552984D01*
X16778277Y-12552984D02*
X16759229Y-12543460D01*
X16759229Y-12543460D02*
X16749706Y-12533936D01*
X16749706Y-12533936D02*
X16740182Y-12514888D01*
X16740182Y-12514888D02*
X16730658Y-12476793D01*
X16730658Y-12476793D02*
X16730658Y-12429174D01*
X16730658Y-12429174D02*
X16740182Y-12391079D01*
X16740182Y-12391079D02*
X16749706Y-12372031D01*
X16749706Y-12372031D02*
X16759229Y-12362508D01*
X16759229Y-12362508D02*
X16778277Y-12352984D01*
X16921134Y-12352984D02*
X16921134Y-12391079D01*
X16997325Y-12352984D02*
X16997325Y-12391079D01*
X17292563Y-12629174D02*
X17283039Y-12619650D01*
X17283039Y-12619650D02*
X17263991Y-12591079D01*
X17263991Y-12591079D02*
X17254468Y-12572031D01*
X17254468Y-12572031D02*
X17244944Y-12543460D01*
X17244944Y-12543460D02*
X17235420Y-12495841D01*
X17235420Y-12495841D02*
X17235420Y-12457746D01*
X17235420Y-12457746D02*
X17244944Y-12410127D01*
X17244944Y-12410127D02*
X17254468Y-12381555D01*
X17254468Y-12381555D02*
X17263991Y-12362508D01*
X17263991Y-12362508D02*
X17283039Y-12333936D01*
X17283039Y-12333936D02*
X17292563Y-12324412D01*
X17378277Y-12552984D02*
X17416372Y-12552984D01*
X17416372Y-12552984D02*
X17435420Y-12543460D01*
X17435420Y-12543460D02*
X17444944Y-12533936D01*
X17444944Y-12533936D02*
X17463991Y-12505365D01*
X17463991Y-12505365D02*
X17473515Y-12467269D01*
X17473515Y-12467269D02*
X17473515Y-12391079D01*
X17473515Y-12391079D02*
X17463991Y-12372031D01*
X17463991Y-12372031D02*
X17454468Y-12362508D01*
X17454468Y-12362508D02*
X17435420Y-12352984D01*
X17435420Y-12352984D02*
X17397325Y-12352984D01*
X17397325Y-12352984D02*
X17378277Y-12362508D01*
X17378277Y-12362508D02*
X17368753Y-12372031D01*
X17368753Y-12372031D02*
X17359230Y-12391079D01*
X17359230Y-12391079D02*
X17359230Y-12438698D01*
X17359230Y-12438698D02*
X17368753Y-12457746D01*
X17368753Y-12457746D02*
X17378277Y-12467269D01*
X17378277Y-12467269D02*
X17397325Y-12476793D01*
X17397325Y-12476793D02*
X17435420Y-12476793D01*
X17435420Y-12476793D02*
X17454468Y-12467269D01*
X17454468Y-12467269D02*
X17463991Y-12457746D01*
X17463991Y-12457746D02*
X17473515Y-12438698D01*
X17711611Y-12552984D02*
X17711611Y-12352984D01*
X17797325Y-12552984D02*
X17797325Y-12448222D01*
X17797325Y-12448222D02*
X17787801Y-12429174D01*
X17787801Y-12429174D02*
X17768753Y-12419650D01*
X17768753Y-12419650D02*
X17740182Y-12419650D01*
X17740182Y-12419650D02*
X17721134Y-12429174D01*
X17721134Y-12429174D02*
X17711611Y-12438698D01*
X17921134Y-12552984D02*
X17902087Y-12543460D01*
X17902087Y-12543460D02*
X17892563Y-12533936D01*
X17892563Y-12533936D02*
X17883039Y-12514888D01*
X17883039Y-12514888D02*
X17883039Y-12457746D01*
X17883039Y-12457746D02*
X17892563Y-12438698D01*
X17892563Y-12438698D02*
X17902087Y-12429174D01*
X17902087Y-12429174D02*
X17921134Y-12419650D01*
X17921134Y-12419650D02*
X17949706Y-12419650D01*
X17949706Y-12419650D02*
X17968753Y-12429174D01*
X17968753Y-12429174D02*
X17978277Y-12438698D01*
X17978277Y-12438698D02*
X17987801Y-12457746D01*
X17987801Y-12457746D02*
X17987801Y-12514888D01*
X17987801Y-12514888D02*
X17978277Y-12533936D01*
X17978277Y-12533936D02*
X17968753Y-12543460D01*
X17968753Y-12543460D02*
X17949706Y-12552984D01*
X17949706Y-12552984D02*
X17921134Y-12552984D01*
X18102087Y-12552984D02*
X18083039Y-12543460D01*
X18083039Y-12543460D02*
X18073515Y-12524412D01*
X18073515Y-12524412D02*
X18073515Y-12352984D01*
X18254468Y-12543460D02*
X18235420Y-12552984D01*
X18235420Y-12552984D02*
X18197325Y-12552984D01*
X18197325Y-12552984D02*
X18178277Y-12543460D01*
X18178277Y-12543460D02*
X18168753Y-12524412D01*
X18168753Y-12524412D02*
X18168753Y-12448222D01*
X18168753Y-12448222D02*
X18178277Y-12429174D01*
X18178277Y-12429174D02*
X18197325Y-12419650D01*
X18197325Y-12419650D02*
X18235420Y-12419650D01*
X18235420Y-12419650D02*
X18254468Y-12429174D01*
X18254468Y-12429174D02*
X18263992Y-12448222D01*
X18263992Y-12448222D02*
X18263992Y-12467269D01*
X18263992Y-12467269D02*
X18168753Y-12486317D01*
X18340182Y-12543460D02*
X18359230Y-12552984D01*
X18359230Y-12552984D02*
X18397325Y-12552984D01*
X18397325Y-12552984D02*
X18416373Y-12543460D01*
X18416373Y-12543460D02*
X18425896Y-12524412D01*
X18425896Y-12524412D02*
X18425896Y-12514888D01*
X18425896Y-12514888D02*
X18416373Y-12495841D01*
X18416373Y-12495841D02*
X18397325Y-12486317D01*
X18397325Y-12486317D02*
X18368753Y-12486317D01*
X18368753Y-12486317D02*
X18349706Y-12476793D01*
X18349706Y-12476793D02*
X18340182Y-12457746D01*
X18340182Y-12457746D02*
X18340182Y-12448222D01*
X18340182Y-12448222D02*
X18349706Y-12429174D01*
X18349706Y-12429174D02*
X18368753Y-12419650D01*
X18368753Y-12419650D02*
X18397325Y-12419650D01*
X18397325Y-12419650D02*
X18416373Y-12429174D01*
X18492563Y-12629174D02*
X18502087Y-12619650D01*
X18502087Y-12619650D02*
X18521134Y-12591079D01*
X18521134Y-12591079D02*
X18530658Y-12572031D01*
X18530658Y-12572031D02*
X18540182Y-12543460D01*
X18540182Y-12543460D02*
X18549706Y-12495841D01*
X18549706Y-12495841D02*
X18549706Y-12457746D01*
X18549706Y-12457746D02*
X18540182Y-12410127D01*
X18540182Y-12410127D02*
X18530658Y-12381555D01*
X18530658Y-12381555D02*
X18521134Y-12362508D01*
X18521134Y-12362508D02*
X18502087Y-12333936D01*
X18502087Y-12333936D02*
X18492563Y-12324412D01*
D12*
X13699720Y-12707720D02*
X13699720Y-12743280D01*
X13681940Y-12725500D02*
X13717500Y-12725500D01*
D11*
X14016372Y-12616984D02*
X14035420Y-12616984D01*
X14035420Y-12616984D02*
X14054467Y-12626508D01*
X14054467Y-12626508D02*
X14063991Y-12636031D01*
X14063991Y-12636031D02*
X14073515Y-12655079D01*
X14073515Y-12655079D02*
X14083039Y-12693174D01*
X14083039Y-12693174D02*
X14083039Y-12740793D01*
X14083039Y-12740793D02*
X14073515Y-12778888D01*
X14073515Y-12778888D02*
X14063991Y-12797936D01*
X14063991Y-12797936D02*
X14054467Y-12807460D01*
X14054467Y-12807460D02*
X14035420Y-12816984D01*
X14035420Y-12816984D02*
X14016372Y-12816984D01*
X14016372Y-12816984D02*
X13997324Y-12807460D01*
X13997324Y-12807460D02*
X13987801Y-12797936D01*
X13987801Y-12797936D02*
X13978277Y-12778888D01*
X13978277Y-12778888D02*
X13968753Y-12740793D01*
X13968753Y-12740793D02*
X13968753Y-12693174D01*
X13968753Y-12693174D02*
X13978277Y-12655079D01*
X13978277Y-12655079D02*
X13987801Y-12636031D01*
X13987801Y-12636031D02*
X13997324Y-12626508D01*
X13997324Y-12626508D02*
X14016372Y-12616984D01*
X14168753Y-12797936D02*
X14178277Y-12807460D01*
X14178277Y-12807460D02*
X14168753Y-12816984D01*
X14168753Y-12816984D02*
X14159229Y-12807460D01*
X14159229Y-12807460D02*
X14168753Y-12797936D01*
X14168753Y-12797936D02*
X14168753Y-12816984D01*
X14244943Y-12616984D02*
X14368753Y-12616984D01*
X14368753Y-12616984D02*
X14302086Y-12693174D01*
X14302086Y-12693174D02*
X14330658Y-12693174D01*
X14330658Y-12693174D02*
X14349705Y-12702698D01*
X14349705Y-12702698D02*
X14359229Y-12712222D01*
X14359229Y-12712222D02*
X14368753Y-12731269D01*
X14368753Y-12731269D02*
X14368753Y-12778888D01*
X14368753Y-12778888D02*
X14359229Y-12797936D01*
X14359229Y-12797936D02*
X14349705Y-12807460D01*
X14349705Y-12807460D02*
X14330658Y-12816984D01*
X14330658Y-12816984D02*
X14273515Y-12816984D01*
X14273515Y-12816984D02*
X14254467Y-12807460D01*
X14254467Y-12807460D02*
X14244943Y-12797936D01*
X14549705Y-12616984D02*
X14454467Y-12616984D01*
X14454467Y-12616984D02*
X14444943Y-12712222D01*
X14444943Y-12712222D02*
X14454467Y-12702698D01*
X14454467Y-12702698D02*
X14473515Y-12693174D01*
X14473515Y-12693174D02*
X14521134Y-12693174D01*
X14521134Y-12693174D02*
X14540182Y-12702698D01*
X14540182Y-12702698D02*
X14549705Y-12712222D01*
X14549705Y-12712222D02*
X14559229Y-12731269D01*
X14559229Y-12731269D02*
X14559229Y-12778888D01*
X14559229Y-12778888D02*
X14549705Y-12797936D01*
X14549705Y-12797936D02*
X14540182Y-12807460D01*
X14540182Y-12807460D02*
X14521134Y-12816984D01*
X14521134Y-12816984D02*
X14473515Y-12816984D01*
X14473515Y-12816984D02*
X14454467Y-12807460D01*
X14454467Y-12807460D02*
X14444943Y-12797936D01*
X14730658Y-12616984D02*
X14692562Y-12616984D01*
X14692562Y-12616984D02*
X14673515Y-12626508D01*
X14673515Y-12626508D02*
X14663991Y-12636031D01*
X14663991Y-12636031D02*
X14644943Y-12664603D01*
X14644943Y-12664603D02*
X14635420Y-12702698D01*
X14635420Y-12702698D02*
X14635420Y-12778888D01*
X14635420Y-12778888D02*
X14644943Y-12797936D01*
X14644943Y-12797936D02*
X14654467Y-12807460D01*
X14654467Y-12807460D02*
X14673515Y-12816984D01*
X14673515Y-12816984D02*
X14711610Y-12816984D01*
X14711610Y-12816984D02*
X14730658Y-12807460D01*
X14730658Y-12807460D02*
X14740182Y-12797936D01*
X14740182Y-12797936D02*
X14749705Y-12778888D01*
X14749705Y-12778888D02*
X14749705Y-12731269D01*
X14749705Y-12731269D02*
X14740182Y-12712222D01*
X14740182Y-12712222D02*
X14730658Y-12702698D01*
X14730658Y-12702698D02*
X14711610Y-12693174D01*
X14711610Y-12693174D02*
X14673515Y-12693174D01*
X14673515Y-12693174D02*
X14654467Y-12702698D01*
X14654467Y-12702698D02*
X14644943Y-12712222D01*
X14644943Y-12712222D02*
X14635420Y-12731269D01*
X14835420Y-12816984D02*
X14835420Y-12683650D01*
X14835420Y-12702698D02*
X14844943Y-12693174D01*
X14844943Y-12693174D02*
X14863991Y-12683650D01*
X14863991Y-12683650D02*
X14892563Y-12683650D01*
X14892563Y-12683650D02*
X14911610Y-12693174D01*
X14911610Y-12693174D02*
X14921134Y-12712222D01*
X14921134Y-12712222D02*
X14921134Y-12816984D01*
X14921134Y-12712222D02*
X14930658Y-12693174D01*
X14930658Y-12693174D02*
X14949705Y-12683650D01*
X14949705Y-12683650D02*
X14978277Y-12683650D01*
X14978277Y-12683650D02*
X14997324Y-12693174D01*
X14997324Y-12693174D02*
X15006848Y-12712222D01*
X15006848Y-12712222D02*
X15006848Y-12816984D01*
X15102086Y-12816984D02*
X15102086Y-12683650D01*
X15102086Y-12702698D02*
X15111610Y-12693174D01*
X15111610Y-12693174D02*
X15130658Y-12683650D01*
X15130658Y-12683650D02*
X15159229Y-12683650D01*
X15159229Y-12683650D02*
X15178277Y-12693174D01*
X15178277Y-12693174D02*
X15187801Y-12712222D01*
X15187801Y-12712222D02*
X15187801Y-12816984D01*
X15187801Y-12712222D02*
X15197324Y-12693174D01*
X15197324Y-12693174D02*
X15216372Y-12683650D01*
X15216372Y-12683650D02*
X15244943Y-12683650D01*
X15244943Y-12683650D02*
X15263991Y-12693174D01*
X15263991Y-12693174D02*
X15273515Y-12712222D01*
X15273515Y-12712222D02*
X15273515Y-12816984D01*
X15663991Y-12607460D02*
X15492563Y-12864603D01*
X15921134Y-12616984D02*
X15940182Y-12616984D01*
X15940182Y-12616984D02*
X15959229Y-12626508D01*
X15959229Y-12626508D02*
X15968753Y-12636031D01*
X15968753Y-12636031D02*
X15978277Y-12655079D01*
X15978277Y-12655079D02*
X15987801Y-12693174D01*
X15987801Y-12693174D02*
X15987801Y-12740793D01*
X15987801Y-12740793D02*
X15978277Y-12778888D01*
X15978277Y-12778888D02*
X15968753Y-12797936D01*
X15968753Y-12797936D02*
X15959229Y-12807460D01*
X15959229Y-12807460D02*
X15940182Y-12816984D01*
X15940182Y-12816984D02*
X15921134Y-12816984D01*
X15921134Y-12816984D02*
X15902086Y-12807460D01*
X15902086Y-12807460D02*
X15892563Y-12797936D01*
X15892563Y-12797936D02*
X15883039Y-12778888D01*
X15883039Y-12778888D02*
X15873515Y-12740793D01*
X15873515Y-12740793D02*
X15873515Y-12693174D01*
X15873515Y-12693174D02*
X15883039Y-12655079D01*
X15883039Y-12655079D02*
X15892563Y-12636031D01*
X15892563Y-12636031D02*
X15902086Y-12626508D01*
X15902086Y-12626508D02*
X15921134Y-12616984D01*
X16073515Y-12797936D02*
X16083039Y-12807460D01*
X16083039Y-12807460D02*
X16073515Y-12816984D01*
X16073515Y-12816984D02*
X16063991Y-12807460D01*
X16063991Y-12807460D02*
X16073515Y-12797936D01*
X16073515Y-12797936D02*
X16073515Y-12816984D01*
X16206848Y-12616984D02*
X16225896Y-12616984D01*
X16225896Y-12616984D02*
X16244944Y-12626508D01*
X16244944Y-12626508D02*
X16254467Y-12636031D01*
X16254467Y-12636031D02*
X16263991Y-12655079D01*
X16263991Y-12655079D02*
X16273515Y-12693174D01*
X16273515Y-12693174D02*
X16273515Y-12740793D01*
X16273515Y-12740793D02*
X16263991Y-12778888D01*
X16263991Y-12778888D02*
X16254467Y-12797936D01*
X16254467Y-12797936D02*
X16244944Y-12807460D01*
X16244944Y-12807460D02*
X16225896Y-12816984D01*
X16225896Y-12816984D02*
X16206848Y-12816984D01*
X16206848Y-12816984D02*
X16187801Y-12807460D01*
X16187801Y-12807460D02*
X16178277Y-12797936D01*
X16178277Y-12797936D02*
X16168753Y-12778888D01*
X16168753Y-12778888D02*
X16159229Y-12740793D01*
X16159229Y-12740793D02*
X16159229Y-12693174D01*
X16159229Y-12693174D02*
X16168753Y-12655079D01*
X16168753Y-12655079D02*
X16178277Y-12636031D01*
X16178277Y-12636031D02*
X16187801Y-12626508D01*
X16187801Y-12626508D02*
X16206848Y-12616984D01*
X16463991Y-12816984D02*
X16349706Y-12816984D01*
X16406848Y-12816984D02*
X16406848Y-12616984D01*
X16406848Y-12616984D02*
X16387801Y-12645555D01*
X16387801Y-12645555D02*
X16368753Y-12664603D01*
X16368753Y-12664603D02*
X16349706Y-12674127D01*
X16635420Y-12683650D02*
X16635420Y-12816984D01*
X16587801Y-12607460D02*
X16540182Y-12750317D01*
X16540182Y-12750317D02*
X16663991Y-12750317D01*
X16778277Y-12616984D02*
X16797325Y-12616984D01*
X16797325Y-12616984D02*
X16816372Y-12626508D01*
X16816372Y-12626508D02*
X16825896Y-12636031D01*
X16825896Y-12636031D02*
X16835420Y-12655079D01*
X16835420Y-12655079D02*
X16844944Y-12693174D01*
X16844944Y-12693174D02*
X16844944Y-12740793D01*
X16844944Y-12740793D02*
X16835420Y-12778888D01*
X16835420Y-12778888D02*
X16825896Y-12797936D01*
X16825896Y-12797936D02*
X16816372Y-12807460D01*
X16816372Y-12807460D02*
X16797325Y-12816984D01*
X16797325Y-12816984D02*
X16778277Y-12816984D01*
X16778277Y-12816984D02*
X16759229Y-12807460D01*
X16759229Y-12807460D02*
X16749706Y-12797936D01*
X16749706Y-12797936D02*
X16740182Y-12778888D01*
X16740182Y-12778888D02*
X16730658Y-12740793D01*
X16730658Y-12740793D02*
X16730658Y-12693174D01*
X16730658Y-12693174D02*
X16740182Y-12655079D01*
X16740182Y-12655079D02*
X16749706Y-12636031D01*
X16749706Y-12636031D02*
X16759229Y-12626508D01*
X16759229Y-12626508D02*
X16778277Y-12616984D01*
X16921134Y-12616984D02*
X16921134Y-12655079D01*
X16997325Y-12616984D02*
X16997325Y-12655079D01*
X17292563Y-12893174D02*
X17283039Y-12883650D01*
X17283039Y-12883650D02*
X17263991Y-12855079D01*
X17263991Y-12855079D02*
X17254468Y-12836031D01*
X17254468Y-12836031D02*
X17244944Y-12807460D01*
X17244944Y-12807460D02*
X17235420Y-12759841D01*
X17235420Y-12759841D02*
X17235420Y-12721746D01*
X17235420Y-12721746D02*
X17244944Y-12674127D01*
X17244944Y-12674127D02*
X17254468Y-12645555D01*
X17254468Y-12645555D02*
X17263991Y-12626508D01*
X17263991Y-12626508D02*
X17283039Y-12597936D01*
X17283039Y-12597936D02*
X17292563Y-12588412D01*
X17378277Y-12816984D02*
X17416372Y-12816984D01*
X17416372Y-12816984D02*
X17435420Y-12807460D01*
X17435420Y-12807460D02*
X17444944Y-12797936D01*
X17444944Y-12797936D02*
X17463991Y-12769365D01*
X17463991Y-12769365D02*
X17473515Y-12731269D01*
X17473515Y-12731269D02*
X17473515Y-12655079D01*
X17473515Y-12655079D02*
X17463991Y-12636031D01*
X17463991Y-12636031D02*
X17454468Y-12626508D01*
X17454468Y-12626508D02*
X17435420Y-12616984D01*
X17435420Y-12616984D02*
X17397325Y-12616984D01*
X17397325Y-12616984D02*
X17378277Y-12626508D01*
X17378277Y-12626508D02*
X17368753Y-12636031D01*
X17368753Y-12636031D02*
X17359230Y-12655079D01*
X17359230Y-12655079D02*
X17359230Y-12702698D01*
X17359230Y-12702698D02*
X17368753Y-12721746D01*
X17368753Y-12721746D02*
X17378277Y-12731269D01*
X17378277Y-12731269D02*
X17397325Y-12740793D01*
X17397325Y-12740793D02*
X17435420Y-12740793D01*
X17435420Y-12740793D02*
X17454468Y-12731269D01*
X17454468Y-12731269D02*
X17463991Y-12721746D01*
X17463991Y-12721746D02*
X17473515Y-12702698D01*
X17711611Y-12816984D02*
X17711611Y-12616984D01*
X17797325Y-12816984D02*
X17797325Y-12712222D01*
X17797325Y-12712222D02*
X17787801Y-12693174D01*
X17787801Y-12693174D02*
X17768753Y-12683650D01*
X17768753Y-12683650D02*
X17740182Y-12683650D01*
X17740182Y-12683650D02*
X17721134Y-12693174D01*
X17721134Y-12693174D02*
X17711611Y-12702698D01*
X17921134Y-12816984D02*
X17902087Y-12807460D01*
X17902087Y-12807460D02*
X17892563Y-12797936D01*
X17892563Y-12797936D02*
X17883039Y-12778888D01*
X17883039Y-12778888D02*
X17883039Y-12721746D01*
X17883039Y-12721746D02*
X17892563Y-12702698D01*
X17892563Y-12702698D02*
X17902087Y-12693174D01*
X17902087Y-12693174D02*
X17921134Y-12683650D01*
X17921134Y-12683650D02*
X17949706Y-12683650D01*
X17949706Y-12683650D02*
X17968753Y-12693174D01*
X17968753Y-12693174D02*
X17978277Y-12702698D01*
X17978277Y-12702698D02*
X17987801Y-12721746D01*
X17987801Y-12721746D02*
X17987801Y-12778888D01*
X17987801Y-12778888D02*
X17978277Y-12797936D01*
X17978277Y-12797936D02*
X17968753Y-12807460D01*
X17968753Y-12807460D02*
X17949706Y-12816984D01*
X17949706Y-12816984D02*
X17921134Y-12816984D01*
X18102087Y-12816984D02*
X18083039Y-12807460D01*
X18083039Y-12807460D02*
X18073515Y-12788412D01*
X18073515Y-12788412D02*
X18073515Y-12616984D01*
X18254468Y-12807460D02*
X18235420Y-12816984D01*
X18235420Y-12816984D02*
X18197325Y-12816984D01*
X18197325Y-12816984D02*
X18178277Y-12807460D01*
X18178277Y-12807460D02*
X18168753Y-12788412D01*
X18168753Y-12788412D02*
X18168753Y-12712222D01*
X18168753Y-12712222D02*
X18178277Y-12693174D01*
X18178277Y-12693174D02*
X18197325Y-12683650D01*
X18197325Y-12683650D02*
X18235420Y-12683650D01*
X18235420Y-12683650D02*
X18254468Y-12693174D01*
X18254468Y-12693174D02*
X18263992Y-12712222D01*
X18263992Y-12712222D02*
X18263992Y-12731269D01*
X18263992Y-12731269D02*
X18168753Y-12750317D01*
X18340182Y-12807460D02*
X18359230Y-12816984D01*
X18359230Y-12816984D02*
X18397325Y-12816984D01*
X18397325Y-12816984D02*
X18416373Y-12807460D01*
X18416373Y-12807460D02*
X18425896Y-12788412D01*
X18425896Y-12788412D02*
X18425896Y-12778888D01*
X18425896Y-12778888D02*
X18416373Y-12759841D01*
X18416373Y-12759841D02*
X18397325Y-12750317D01*
X18397325Y-12750317D02*
X18368753Y-12750317D01*
X18368753Y-12750317D02*
X18349706Y-12740793D01*
X18349706Y-12740793D02*
X18340182Y-12721746D01*
X18340182Y-12721746D02*
X18340182Y-12712222D01*
X18340182Y-12712222D02*
X18349706Y-12693174D01*
X18349706Y-12693174D02*
X18368753Y-12683650D01*
X18368753Y-12683650D02*
X18397325Y-12683650D01*
X18397325Y-12683650D02*
X18416373Y-12693174D01*
X18492563Y-12893174D02*
X18502087Y-12883650D01*
X18502087Y-12883650D02*
X18521134Y-12855079D01*
X18521134Y-12855079D02*
X18530658Y-12836031D01*
X18530658Y-12836031D02*
X18540182Y-12807460D01*
X18540182Y-12807460D02*
X18549706Y-12759841D01*
X18549706Y-12759841D02*
X18549706Y-12721746D01*
X18549706Y-12721746D02*
X18540182Y-12674127D01*
X18540182Y-12674127D02*
X18530658Y-12645555D01*
X18530658Y-12645555D02*
X18521134Y-12626508D01*
X18521134Y-12626508D02*
X18502087Y-12597936D01*
X18502087Y-12597936D02*
X18492563Y-12588412D01*
D12*
X13710178Y-13007178D02*
X13710178Y-12971822D01*
X13674822Y-12971822D01*
X13674822Y-13007178D01*
X13710178Y-13007178D01*
D11*
X14016372Y-12880984D02*
X14035420Y-12880984D01*
X14035420Y-12880984D02*
X14054467Y-12890508D01*
X14054467Y-12890508D02*
X14063991Y-12900031D01*
X14063991Y-12900031D02*
X14073515Y-12919079D01*
X14073515Y-12919079D02*
X14083039Y-12957174D01*
X14083039Y-12957174D02*
X14083039Y-13004793D01*
X14083039Y-13004793D02*
X14073515Y-13042888D01*
X14073515Y-13042888D02*
X14063991Y-13061936D01*
X14063991Y-13061936D02*
X14054467Y-13071460D01*
X14054467Y-13071460D02*
X14035420Y-13080984D01*
X14035420Y-13080984D02*
X14016372Y-13080984D01*
X14016372Y-13080984D02*
X13997324Y-13071460D01*
X13997324Y-13071460D02*
X13987801Y-13061936D01*
X13987801Y-13061936D02*
X13978277Y-13042888D01*
X13978277Y-13042888D02*
X13968753Y-13004793D01*
X13968753Y-13004793D02*
X13968753Y-12957174D01*
X13968753Y-12957174D02*
X13978277Y-12919079D01*
X13978277Y-12919079D02*
X13987801Y-12900031D01*
X13987801Y-12900031D02*
X13997324Y-12890508D01*
X13997324Y-12890508D02*
X14016372Y-12880984D01*
X14168753Y-13061936D02*
X14178277Y-13071460D01*
X14178277Y-13071460D02*
X14168753Y-13080984D01*
X14168753Y-13080984D02*
X14159229Y-13071460D01*
X14159229Y-13071460D02*
X14168753Y-13061936D01*
X14168753Y-13061936D02*
X14168753Y-13080984D01*
X14359229Y-12880984D02*
X14263991Y-12880984D01*
X14263991Y-12880984D02*
X14254467Y-12976222D01*
X14254467Y-12976222D02*
X14263991Y-12966698D01*
X14263991Y-12966698D02*
X14283039Y-12957174D01*
X14283039Y-12957174D02*
X14330658Y-12957174D01*
X14330658Y-12957174D02*
X14349705Y-12966698D01*
X14349705Y-12966698D02*
X14359229Y-12976222D01*
X14359229Y-12976222D02*
X14368753Y-12995269D01*
X14368753Y-12995269D02*
X14368753Y-13042888D01*
X14368753Y-13042888D02*
X14359229Y-13061936D01*
X14359229Y-13061936D02*
X14349705Y-13071460D01*
X14349705Y-13071460D02*
X14330658Y-13080984D01*
X14330658Y-13080984D02*
X14283039Y-13080984D01*
X14283039Y-13080984D02*
X14263991Y-13071460D01*
X14263991Y-13071460D02*
X14254467Y-13061936D01*
X14492562Y-12880984D02*
X14511610Y-12880984D01*
X14511610Y-12880984D02*
X14530658Y-12890508D01*
X14530658Y-12890508D02*
X14540182Y-12900031D01*
X14540182Y-12900031D02*
X14549705Y-12919079D01*
X14549705Y-12919079D02*
X14559229Y-12957174D01*
X14559229Y-12957174D02*
X14559229Y-13004793D01*
X14559229Y-13004793D02*
X14549705Y-13042888D01*
X14549705Y-13042888D02*
X14540182Y-13061936D01*
X14540182Y-13061936D02*
X14530658Y-13071460D01*
X14530658Y-13071460D02*
X14511610Y-13080984D01*
X14511610Y-13080984D02*
X14492562Y-13080984D01*
X14492562Y-13080984D02*
X14473515Y-13071460D01*
X14473515Y-13071460D02*
X14463991Y-13061936D01*
X14463991Y-13061936D02*
X14454467Y-13042888D01*
X14454467Y-13042888D02*
X14444943Y-13004793D01*
X14444943Y-13004793D02*
X14444943Y-12957174D01*
X14444943Y-12957174D02*
X14454467Y-12919079D01*
X14454467Y-12919079D02*
X14463991Y-12900031D01*
X14463991Y-12900031D02*
X14473515Y-12890508D01*
X14473515Y-12890508D02*
X14492562Y-12880984D01*
X14683039Y-12880984D02*
X14702086Y-12880984D01*
X14702086Y-12880984D02*
X14721134Y-12890508D01*
X14721134Y-12890508D02*
X14730658Y-12900031D01*
X14730658Y-12900031D02*
X14740182Y-12919079D01*
X14740182Y-12919079D02*
X14749705Y-12957174D01*
X14749705Y-12957174D02*
X14749705Y-13004793D01*
X14749705Y-13004793D02*
X14740182Y-13042888D01*
X14740182Y-13042888D02*
X14730658Y-13061936D01*
X14730658Y-13061936D02*
X14721134Y-13071460D01*
X14721134Y-13071460D02*
X14702086Y-13080984D01*
X14702086Y-13080984D02*
X14683039Y-13080984D01*
X14683039Y-13080984D02*
X14663991Y-13071460D01*
X14663991Y-13071460D02*
X14654467Y-13061936D01*
X14654467Y-13061936D02*
X14644943Y-13042888D01*
X14644943Y-13042888D02*
X14635420Y-13004793D01*
X14635420Y-13004793D02*
X14635420Y-12957174D01*
X14635420Y-12957174D02*
X14644943Y-12919079D01*
X14644943Y-12919079D02*
X14654467Y-12900031D01*
X14654467Y-12900031D02*
X14663991Y-12890508D01*
X14663991Y-12890508D02*
X14683039Y-12880984D01*
X14835420Y-13080984D02*
X14835420Y-12947650D01*
X14835420Y-12966698D02*
X14844943Y-12957174D01*
X14844943Y-12957174D02*
X14863991Y-12947650D01*
X14863991Y-12947650D02*
X14892563Y-12947650D01*
X14892563Y-12947650D02*
X14911610Y-12957174D01*
X14911610Y-12957174D02*
X14921134Y-12976222D01*
X14921134Y-12976222D02*
X14921134Y-13080984D01*
X14921134Y-12976222D02*
X14930658Y-12957174D01*
X14930658Y-12957174D02*
X14949705Y-12947650D01*
X14949705Y-12947650D02*
X14978277Y-12947650D01*
X14978277Y-12947650D02*
X14997324Y-12957174D01*
X14997324Y-12957174D02*
X15006848Y-12976222D01*
X15006848Y-12976222D02*
X15006848Y-13080984D01*
X15102086Y-13080984D02*
X15102086Y-12947650D01*
X15102086Y-12966698D02*
X15111610Y-12957174D01*
X15111610Y-12957174D02*
X15130658Y-12947650D01*
X15130658Y-12947650D02*
X15159229Y-12947650D01*
X15159229Y-12947650D02*
X15178277Y-12957174D01*
X15178277Y-12957174D02*
X15187801Y-12976222D01*
X15187801Y-12976222D02*
X15187801Y-13080984D01*
X15187801Y-12976222D02*
X15197324Y-12957174D01*
X15197324Y-12957174D02*
X15216372Y-12947650D01*
X15216372Y-12947650D02*
X15244943Y-12947650D01*
X15244943Y-12947650D02*
X15263991Y-12957174D01*
X15263991Y-12957174D02*
X15273515Y-12976222D01*
X15273515Y-12976222D02*
X15273515Y-13080984D01*
X15663991Y-12871460D02*
X15492563Y-13128603D01*
X15921134Y-12880984D02*
X15940182Y-12880984D01*
X15940182Y-12880984D02*
X15959229Y-12890508D01*
X15959229Y-12890508D02*
X15968753Y-12900031D01*
X15968753Y-12900031D02*
X15978277Y-12919079D01*
X15978277Y-12919079D02*
X15987801Y-12957174D01*
X15987801Y-12957174D02*
X15987801Y-13004793D01*
X15987801Y-13004793D02*
X15978277Y-13042888D01*
X15978277Y-13042888D02*
X15968753Y-13061936D01*
X15968753Y-13061936D02*
X15959229Y-13071460D01*
X15959229Y-13071460D02*
X15940182Y-13080984D01*
X15940182Y-13080984D02*
X15921134Y-13080984D01*
X15921134Y-13080984D02*
X15902086Y-13071460D01*
X15902086Y-13071460D02*
X15892563Y-13061936D01*
X15892563Y-13061936D02*
X15883039Y-13042888D01*
X15883039Y-13042888D02*
X15873515Y-13004793D01*
X15873515Y-13004793D02*
X15873515Y-12957174D01*
X15873515Y-12957174D02*
X15883039Y-12919079D01*
X15883039Y-12919079D02*
X15892563Y-12900031D01*
X15892563Y-12900031D02*
X15902086Y-12890508D01*
X15902086Y-12890508D02*
X15921134Y-12880984D01*
X16073515Y-13061936D02*
X16083039Y-13071460D01*
X16083039Y-13071460D02*
X16073515Y-13080984D01*
X16073515Y-13080984D02*
X16063991Y-13071460D01*
X16063991Y-13071460D02*
X16073515Y-13061936D01*
X16073515Y-13061936D02*
X16073515Y-13080984D01*
X16206848Y-12880984D02*
X16225896Y-12880984D01*
X16225896Y-12880984D02*
X16244944Y-12890508D01*
X16244944Y-12890508D02*
X16254467Y-12900031D01*
X16254467Y-12900031D02*
X16263991Y-12919079D01*
X16263991Y-12919079D02*
X16273515Y-12957174D01*
X16273515Y-12957174D02*
X16273515Y-13004793D01*
X16273515Y-13004793D02*
X16263991Y-13042888D01*
X16263991Y-13042888D02*
X16254467Y-13061936D01*
X16254467Y-13061936D02*
X16244944Y-13071460D01*
X16244944Y-13071460D02*
X16225896Y-13080984D01*
X16225896Y-13080984D02*
X16206848Y-13080984D01*
X16206848Y-13080984D02*
X16187801Y-13071460D01*
X16187801Y-13071460D02*
X16178277Y-13061936D01*
X16178277Y-13061936D02*
X16168753Y-13042888D01*
X16168753Y-13042888D02*
X16159229Y-13004793D01*
X16159229Y-13004793D02*
X16159229Y-12957174D01*
X16159229Y-12957174D02*
X16168753Y-12919079D01*
X16168753Y-12919079D02*
X16178277Y-12900031D01*
X16178277Y-12900031D02*
X16187801Y-12890508D01*
X16187801Y-12890508D02*
X16206848Y-12880984D01*
X16463991Y-13080984D02*
X16349706Y-13080984D01*
X16406848Y-13080984D02*
X16406848Y-12880984D01*
X16406848Y-12880984D02*
X16387801Y-12909555D01*
X16387801Y-12909555D02*
X16368753Y-12928603D01*
X16368753Y-12928603D02*
X16349706Y-12938127D01*
X16559229Y-13080984D02*
X16597325Y-13080984D01*
X16597325Y-13080984D02*
X16616372Y-13071460D01*
X16616372Y-13071460D02*
X16625896Y-13061936D01*
X16625896Y-13061936D02*
X16644944Y-13033365D01*
X16644944Y-13033365D02*
X16654467Y-12995269D01*
X16654467Y-12995269D02*
X16654467Y-12919079D01*
X16654467Y-12919079D02*
X16644944Y-12900031D01*
X16644944Y-12900031D02*
X16635420Y-12890508D01*
X16635420Y-12890508D02*
X16616372Y-12880984D01*
X16616372Y-12880984D02*
X16578277Y-12880984D01*
X16578277Y-12880984D02*
X16559229Y-12890508D01*
X16559229Y-12890508D02*
X16549706Y-12900031D01*
X16549706Y-12900031D02*
X16540182Y-12919079D01*
X16540182Y-12919079D02*
X16540182Y-12966698D01*
X16540182Y-12966698D02*
X16549706Y-12985746D01*
X16549706Y-12985746D02*
X16559229Y-12995269D01*
X16559229Y-12995269D02*
X16578277Y-13004793D01*
X16578277Y-13004793D02*
X16616372Y-13004793D01*
X16616372Y-13004793D02*
X16635420Y-12995269D01*
X16635420Y-12995269D02*
X16644944Y-12985746D01*
X16644944Y-12985746D02*
X16654467Y-12966698D01*
X16721134Y-12880984D02*
X16854468Y-12880984D01*
X16854468Y-12880984D02*
X16768753Y-13080984D01*
X16921134Y-12880984D02*
X16921134Y-12919079D01*
X16997325Y-12880984D02*
X16997325Y-12919079D01*
X17292563Y-13157174D02*
X17283039Y-13147650D01*
X17283039Y-13147650D02*
X17263991Y-13119079D01*
X17263991Y-13119079D02*
X17254468Y-13100031D01*
X17254468Y-13100031D02*
X17244944Y-13071460D01*
X17244944Y-13071460D02*
X17235420Y-13023841D01*
X17235420Y-13023841D02*
X17235420Y-12985746D01*
X17235420Y-12985746D02*
X17244944Y-12938127D01*
X17244944Y-12938127D02*
X17254468Y-12909555D01*
X17254468Y-12909555D02*
X17263991Y-12890508D01*
X17263991Y-12890508D02*
X17283039Y-12861936D01*
X17283039Y-12861936D02*
X17292563Y-12852412D01*
X17349706Y-12880984D02*
X17473515Y-12880984D01*
X17473515Y-12880984D02*
X17406849Y-12957174D01*
X17406849Y-12957174D02*
X17435420Y-12957174D01*
X17435420Y-12957174D02*
X17454468Y-12966698D01*
X17454468Y-12966698D02*
X17463991Y-12976222D01*
X17463991Y-12976222D02*
X17473515Y-12995269D01*
X17473515Y-12995269D02*
X17473515Y-13042888D01*
X17473515Y-13042888D02*
X17463991Y-13061936D01*
X17463991Y-13061936D02*
X17454468Y-13071460D01*
X17454468Y-13071460D02*
X17435420Y-13080984D01*
X17435420Y-13080984D02*
X17378277Y-13080984D01*
X17378277Y-13080984D02*
X17359230Y-13071460D01*
X17359230Y-13071460D02*
X17349706Y-13061936D01*
X17549706Y-12900031D02*
X17559230Y-12890508D01*
X17559230Y-12890508D02*
X17578277Y-12880984D01*
X17578277Y-12880984D02*
X17625896Y-12880984D01*
X17625896Y-12880984D02*
X17644944Y-12890508D01*
X17644944Y-12890508D02*
X17654468Y-12900031D01*
X17654468Y-12900031D02*
X17663991Y-12919079D01*
X17663991Y-12919079D02*
X17663991Y-12938127D01*
X17663991Y-12938127D02*
X17654468Y-12966698D01*
X17654468Y-12966698D02*
X17540182Y-13080984D01*
X17540182Y-13080984D02*
X17663991Y-13080984D01*
X17902087Y-13080984D02*
X17902087Y-12880984D01*
X17987801Y-13080984D02*
X17987801Y-12976222D01*
X17987801Y-12976222D02*
X17978277Y-12957174D01*
X17978277Y-12957174D02*
X17959230Y-12947650D01*
X17959230Y-12947650D02*
X17930658Y-12947650D01*
X17930658Y-12947650D02*
X17911611Y-12957174D01*
X17911611Y-12957174D02*
X17902087Y-12966698D01*
X18111611Y-13080984D02*
X18092563Y-13071460D01*
X18092563Y-13071460D02*
X18083039Y-13061936D01*
X18083039Y-13061936D02*
X18073515Y-13042888D01*
X18073515Y-13042888D02*
X18073515Y-12985746D01*
X18073515Y-12985746D02*
X18083039Y-12966698D01*
X18083039Y-12966698D02*
X18092563Y-12957174D01*
X18092563Y-12957174D02*
X18111611Y-12947650D01*
X18111611Y-12947650D02*
X18140182Y-12947650D01*
X18140182Y-12947650D02*
X18159230Y-12957174D01*
X18159230Y-12957174D02*
X18168753Y-12966698D01*
X18168753Y-12966698D02*
X18178277Y-12985746D01*
X18178277Y-12985746D02*
X18178277Y-13042888D01*
X18178277Y-13042888D02*
X18168753Y-13061936D01*
X18168753Y-13061936D02*
X18159230Y-13071460D01*
X18159230Y-13071460D02*
X18140182Y-13080984D01*
X18140182Y-13080984D02*
X18111611Y-13080984D01*
X18292563Y-13080984D02*
X18273515Y-13071460D01*
X18273515Y-13071460D02*
X18263992Y-13052412D01*
X18263992Y-13052412D02*
X18263992Y-12880984D01*
X18444944Y-13071460D02*
X18425896Y-13080984D01*
X18425896Y-13080984D02*
X18387801Y-13080984D01*
X18387801Y-13080984D02*
X18368753Y-13071460D01*
X18368753Y-13071460D02*
X18359230Y-13052412D01*
X18359230Y-13052412D02*
X18359230Y-12976222D01*
X18359230Y-12976222D02*
X18368753Y-12957174D01*
X18368753Y-12957174D02*
X18387801Y-12947650D01*
X18387801Y-12947650D02*
X18425896Y-12947650D01*
X18425896Y-12947650D02*
X18444944Y-12957174D01*
X18444944Y-12957174D02*
X18454468Y-12976222D01*
X18454468Y-12976222D02*
X18454468Y-12995269D01*
X18454468Y-12995269D02*
X18359230Y-13014317D01*
X18530658Y-13071460D02*
X18549706Y-13080984D01*
X18549706Y-13080984D02*
X18587801Y-13080984D01*
X18587801Y-13080984D02*
X18606849Y-13071460D01*
X18606849Y-13071460D02*
X18616373Y-13052412D01*
X18616373Y-13052412D02*
X18616373Y-13042888D01*
X18616373Y-13042888D02*
X18606849Y-13023841D01*
X18606849Y-13023841D02*
X18587801Y-13014317D01*
X18587801Y-13014317D02*
X18559230Y-13014317D01*
X18559230Y-13014317D02*
X18540182Y-13004793D01*
X18540182Y-13004793D02*
X18530658Y-12985746D01*
X18530658Y-12985746D02*
X18530658Y-12976222D01*
X18530658Y-12976222D02*
X18540182Y-12957174D01*
X18540182Y-12957174D02*
X18559230Y-12947650D01*
X18559230Y-12947650D02*
X18587801Y-12947650D01*
X18587801Y-12947650D02*
X18606849Y-12957174D01*
X18683039Y-13157174D02*
X18692563Y-13147650D01*
X18692563Y-13147650D02*
X18711611Y-13119079D01*
X18711611Y-13119079D02*
X18721134Y-13100031D01*
X18721134Y-13100031D02*
X18730658Y-13071460D01*
X18730658Y-13071460D02*
X18740182Y-13023841D01*
X18740182Y-13023841D02*
X18740182Y-12985746D01*
X18740182Y-12985746D02*
X18730658Y-12938127D01*
X18730658Y-12938127D02*
X18721134Y-12909555D01*
X18721134Y-12909555D02*
X18711611Y-12890508D01*
X18711611Y-12890508D02*
X18692563Y-12861936D01*
X18692563Y-12861936D02*
X18683039Y-12852412D01*
D12*
X13675500Y-13295500D02*
X13717500Y-13253500D01*
X13675500Y-13211500D01*
X13633500Y-13253500D01*
X13675500Y-13295500D01*
D11*
X14016372Y-13144984D02*
X14035420Y-13144984D01*
X14035420Y-13144984D02*
X14054467Y-13154508D01*
X14054467Y-13154508D02*
X14063991Y-13164031D01*
X14063991Y-13164031D02*
X14073515Y-13183079D01*
X14073515Y-13183079D02*
X14083039Y-13221174D01*
X14083039Y-13221174D02*
X14083039Y-13268793D01*
X14083039Y-13268793D02*
X14073515Y-13306888D01*
X14073515Y-13306888D02*
X14063991Y-13325936D01*
X14063991Y-13325936D02*
X14054467Y-13335460D01*
X14054467Y-13335460D02*
X14035420Y-13344984D01*
X14035420Y-13344984D02*
X14016372Y-13344984D01*
X14016372Y-13344984D02*
X13997324Y-13335460D01*
X13997324Y-13335460D02*
X13987801Y-13325936D01*
X13987801Y-13325936D02*
X13978277Y-13306888D01*
X13978277Y-13306888D02*
X13968753Y-13268793D01*
X13968753Y-13268793D02*
X13968753Y-13221174D01*
X13968753Y-13221174D02*
X13978277Y-13183079D01*
X13978277Y-13183079D02*
X13987801Y-13164031D01*
X13987801Y-13164031D02*
X13997324Y-13154508D01*
X13997324Y-13154508D02*
X14016372Y-13144984D01*
X14168753Y-13325936D02*
X14178277Y-13335460D01*
X14178277Y-13335460D02*
X14168753Y-13344984D01*
X14168753Y-13344984D02*
X14159229Y-13335460D01*
X14159229Y-13335460D02*
X14168753Y-13325936D01*
X14168753Y-13325936D02*
X14168753Y-13344984D01*
X14292562Y-13230698D02*
X14273515Y-13221174D01*
X14273515Y-13221174D02*
X14263991Y-13211650D01*
X14263991Y-13211650D02*
X14254467Y-13192603D01*
X14254467Y-13192603D02*
X14254467Y-13183079D01*
X14254467Y-13183079D02*
X14263991Y-13164031D01*
X14263991Y-13164031D02*
X14273515Y-13154508D01*
X14273515Y-13154508D02*
X14292562Y-13144984D01*
X14292562Y-13144984D02*
X14330658Y-13144984D01*
X14330658Y-13144984D02*
X14349705Y-13154508D01*
X14349705Y-13154508D02*
X14359229Y-13164031D01*
X14359229Y-13164031D02*
X14368753Y-13183079D01*
X14368753Y-13183079D02*
X14368753Y-13192603D01*
X14368753Y-13192603D02*
X14359229Y-13211650D01*
X14359229Y-13211650D02*
X14349705Y-13221174D01*
X14349705Y-13221174D02*
X14330658Y-13230698D01*
X14330658Y-13230698D02*
X14292562Y-13230698D01*
X14292562Y-13230698D02*
X14273515Y-13240222D01*
X14273515Y-13240222D02*
X14263991Y-13249746D01*
X14263991Y-13249746D02*
X14254467Y-13268793D01*
X14254467Y-13268793D02*
X14254467Y-13306888D01*
X14254467Y-13306888D02*
X14263991Y-13325936D01*
X14263991Y-13325936D02*
X14273515Y-13335460D01*
X14273515Y-13335460D02*
X14292562Y-13344984D01*
X14292562Y-13344984D02*
X14330658Y-13344984D01*
X14330658Y-13344984D02*
X14349705Y-13335460D01*
X14349705Y-13335460D02*
X14359229Y-13325936D01*
X14359229Y-13325936D02*
X14368753Y-13306888D01*
X14368753Y-13306888D02*
X14368753Y-13268793D01*
X14368753Y-13268793D02*
X14359229Y-13249746D01*
X14359229Y-13249746D02*
X14349705Y-13240222D01*
X14349705Y-13240222D02*
X14330658Y-13230698D01*
X14540182Y-13211650D02*
X14540182Y-13344984D01*
X14492562Y-13135460D02*
X14444943Y-13278317D01*
X14444943Y-13278317D02*
X14568753Y-13278317D01*
X14683039Y-13144984D02*
X14702086Y-13144984D01*
X14702086Y-13144984D02*
X14721134Y-13154508D01*
X14721134Y-13154508D02*
X14730658Y-13164031D01*
X14730658Y-13164031D02*
X14740182Y-13183079D01*
X14740182Y-13183079D02*
X14749705Y-13221174D01*
X14749705Y-13221174D02*
X14749705Y-13268793D01*
X14749705Y-13268793D02*
X14740182Y-13306888D01*
X14740182Y-13306888D02*
X14730658Y-13325936D01*
X14730658Y-13325936D02*
X14721134Y-13335460D01*
X14721134Y-13335460D02*
X14702086Y-13344984D01*
X14702086Y-13344984D02*
X14683039Y-13344984D01*
X14683039Y-13344984D02*
X14663991Y-13335460D01*
X14663991Y-13335460D02*
X14654467Y-13325936D01*
X14654467Y-13325936D02*
X14644943Y-13306888D01*
X14644943Y-13306888D02*
X14635420Y-13268793D01*
X14635420Y-13268793D02*
X14635420Y-13221174D01*
X14635420Y-13221174D02*
X14644943Y-13183079D01*
X14644943Y-13183079D02*
X14654467Y-13164031D01*
X14654467Y-13164031D02*
X14663991Y-13154508D01*
X14663991Y-13154508D02*
X14683039Y-13144984D01*
X14835420Y-13344984D02*
X14835420Y-13211650D01*
X14835420Y-13230698D02*
X14844943Y-13221174D01*
X14844943Y-13221174D02*
X14863991Y-13211650D01*
X14863991Y-13211650D02*
X14892563Y-13211650D01*
X14892563Y-13211650D02*
X14911610Y-13221174D01*
X14911610Y-13221174D02*
X14921134Y-13240222D01*
X14921134Y-13240222D02*
X14921134Y-13344984D01*
X14921134Y-13240222D02*
X14930658Y-13221174D01*
X14930658Y-13221174D02*
X14949705Y-13211650D01*
X14949705Y-13211650D02*
X14978277Y-13211650D01*
X14978277Y-13211650D02*
X14997324Y-13221174D01*
X14997324Y-13221174D02*
X15006848Y-13240222D01*
X15006848Y-13240222D02*
X15006848Y-13344984D01*
X15102086Y-13344984D02*
X15102086Y-13211650D01*
X15102086Y-13230698D02*
X15111610Y-13221174D01*
X15111610Y-13221174D02*
X15130658Y-13211650D01*
X15130658Y-13211650D02*
X15159229Y-13211650D01*
X15159229Y-13211650D02*
X15178277Y-13221174D01*
X15178277Y-13221174D02*
X15187801Y-13240222D01*
X15187801Y-13240222D02*
X15187801Y-13344984D01*
X15187801Y-13240222D02*
X15197324Y-13221174D01*
X15197324Y-13221174D02*
X15216372Y-13211650D01*
X15216372Y-13211650D02*
X15244943Y-13211650D01*
X15244943Y-13211650D02*
X15263991Y-13221174D01*
X15263991Y-13221174D02*
X15273515Y-13240222D01*
X15273515Y-13240222D02*
X15273515Y-13344984D01*
X15663991Y-13135460D02*
X15492563Y-13392603D01*
X15921134Y-13144984D02*
X15940182Y-13144984D01*
X15940182Y-13144984D02*
X15959229Y-13154508D01*
X15959229Y-13154508D02*
X15968753Y-13164031D01*
X15968753Y-13164031D02*
X15978277Y-13183079D01*
X15978277Y-13183079D02*
X15987801Y-13221174D01*
X15987801Y-13221174D02*
X15987801Y-13268793D01*
X15987801Y-13268793D02*
X15978277Y-13306888D01*
X15978277Y-13306888D02*
X15968753Y-13325936D01*
X15968753Y-13325936D02*
X15959229Y-13335460D01*
X15959229Y-13335460D02*
X15940182Y-13344984D01*
X15940182Y-13344984D02*
X15921134Y-13344984D01*
X15921134Y-13344984D02*
X15902086Y-13335460D01*
X15902086Y-13335460D02*
X15892563Y-13325936D01*
X15892563Y-13325936D02*
X15883039Y-13306888D01*
X15883039Y-13306888D02*
X15873515Y-13268793D01*
X15873515Y-13268793D02*
X15873515Y-13221174D01*
X15873515Y-13221174D02*
X15883039Y-13183079D01*
X15883039Y-13183079D02*
X15892563Y-13164031D01*
X15892563Y-13164031D02*
X15902086Y-13154508D01*
X15902086Y-13154508D02*
X15921134Y-13144984D01*
X16073515Y-13325936D02*
X16083039Y-13335460D01*
X16083039Y-13335460D02*
X16073515Y-13344984D01*
X16073515Y-13344984D02*
X16063991Y-13335460D01*
X16063991Y-13335460D02*
X16073515Y-13325936D01*
X16073515Y-13325936D02*
X16073515Y-13344984D01*
X16206848Y-13144984D02*
X16225896Y-13144984D01*
X16225896Y-13144984D02*
X16244944Y-13154508D01*
X16244944Y-13154508D02*
X16254467Y-13164031D01*
X16254467Y-13164031D02*
X16263991Y-13183079D01*
X16263991Y-13183079D02*
X16273515Y-13221174D01*
X16273515Y-13221174D02*
X16273515Y-13268793D01*
X16273515Y-13268793D02*
X16263991Y-13306888D01*
X16263991Y-13306888D02*
X16254467Y-13325936D01*
X16254467Y-13325936D02*
X16244944Y-13335460D01*
X16244944Y-13335460D02*
X16225896Y-13344984D01*
X16225896Y-13344984D02*
X16206848Y-13344984D01*
X16206848Y-13344984D02*
X16187801Y-13335460D01*
X16187801Y-13335460D02*
X16178277Y-13325936D01*
X16178277Y-13325936D02*
X16168753Y-13306888D01*
X16168753Y-13306888D02*
X16159229Y-13268793D01*
X16159229Y-13268793D02*
X16159229Y-13221174D01*
X16159229Y-13221174D02*
X16168753Y-13183079D01*
X16168753Y-13183079D02*
X16178277Y-13164031D01*
X16178277Y-13164031D02*
X16187801Y-13154508D01*
X16187801Y-13154508D02*
X16206848Y-13144984D01*
X16340182Y-13144984D02*
X16463991Y-13144984D01*
X16463991Y-13144984D02*
X16397325Y-13221174D01*
X16397325Y-13221174D02*
X16425896Y-13221174D01*
X16425896Y-13221174D02*
X16444944Y-13230698D01*
X16444944Y-13230698D02*
X16454467Y-13240222D01*
X16454467Y-13240222D02*
X16463991Y-13259269D01*
X16463991Y-13259269D02*
X16463991Y-13306888D01*
X16463991Y-13306888D02*
X16454467Y-13325936D01*
X16454467Y-13325936D02*
X16444944Y-13335460D01*
X16444944Y-13335460D02*
X16425896Y-13344984D01*
X16425896Y-13344984D02*
X16368753Y-13344984D01*
X16368753Y-13344984D02*
X16349706Y-13335460D01*
X16349706Y-13335460D02*
X16340182Y-13325936D01*
X16530658Y-13144984D02*
X16654467Y-13144984D01*
X16654467Y-13144984D02*
X16587801Y-13221174D01*
X16587801Y-13221174D02*
X16616372Y-13221174D01*
X16616372Y-13221174D02*
X16635420Y-13230698D01*
X16635420Y-13230698D02*
X16644944Y-13240222D01*
X16644944Y-13240222D02*
X16654467Y-13259269D01*
X16654467Y-13259269D02*
X16654467Y-13306888D01*
X16654467Y-13306888D02*
X16644944Y-13325936D01*
X16644944Y-13325936D02*
X16635420Y-13335460D01*
X16635420Y-13335460D02*
X16616372Y-13344984D01*
X16616372Y-13344984D02*
X16559229Y-13344984D01*
X16559229Y-13344984D02*
X16540182Y-13335460D01*
X16540182Y-13335460D02*
X16530658Y-13325936D01*
X16844944Y-13344984D02*
X16730658Y-13344984D01*
X16787801Y-13344984D02*
X16787801Y-13144984D01*
X16787801Y-13144984D02*
X16768753Y-13173555D01*
X16768753Y-13173555D02*
X16749706Y-13192603D01*
X16749706Y-13192603D02*
X16730658Y-13202127D01*
X16921134Y-13144984D02*
X16921134Y-13183079D01*
X16997325Y-13144984D02*
X16997325Y-13183079D01*
X17292563Y-13421174D02*
X17283039Y-13411650D01*
X17283039Y-13411650D02*
X17263991Y-13383079D01*
X17263991Y-13383079D02*
X17254468Y-13364031D01*
X17254468Y-13364031D02*
X17244944Y-13335460D01*
X17244944Y-13335460D02*
X17235420Y-13287841D01*
X17235420Y-13287841D02*
X17235420Y-13249746D01*
X17235420Y-13249746D02*
X17244944Y-13202127D01*
X17244944Y-13202127D02*
X17254468Y-13173555D01*
X17254468Y-13173555D02*
X17263991Y-13154508D01*
X17263991Y-13154508D02*
X17283039Y-13125936D01*
X17283039Y-13125936D02*
X17292563Y-13116412D01*
X17463991Y-13144984D02*
X17368753Y-13144984D01*
X17368753Y-13144984D02*
X17359230Y-13240222D01*
X17359230Y-13240222D02*
X17368753Y-13230698D01*
X17368753Y-13230698D02*
X17387801Y-13221174D01*
X17387801Y-13221174D02*
X17435420Y-13221174D01*
X17435420Y-13221174D02*
X17454468Y-13230698D01*
X17454468Y-13230698D02*
X17463991Y-13240222D01*
X17463991Y-13240222D02*
X17473515Y-13259269D01*
X17473515Y-13259269D02*
X17473515Y-13306888D01*
X17473515Y-13306888D02*
X17463991Y-13325936D01*
X17463991Y-13325936D02*
X17454468Y-13335460D01*
X17454468Y-13335460D02*
X17435420Y-13344984D01*
X17435420Y-13344984D02*
X17387801Y-13344984D01*
X17387801Y-13344984D02*
X17368753Y-13335460D01*
X17368753Y-13335460D02*
X17359230Y-13325936D01*
X17711611Y-13344984D02*
X17711611Y-13144984D01*
X17797325Y-13344984D02*
X17797325Y-13240222D01*
X17797325Y-13240222D02*
X17787801Y-13221174D01*
X17787801Y-13221174D02*
X17768753Y-13211650D01*
X17768753Y-13211650D02*
X17740182Y-13211650D01*
X17740182Y-13211650D02*
X17721134Y-13221174D01*
X17721134Y-13221174D02*
X17711611Y-13230698D01*
X17921134Y-13344984D02*
X17902087Y-13335460D01*
X17902087Y-13335460D02*
X17892563Y-13325936D01*
X17892563Y-13325936D02*
X17883039Y-13306888D01*
X17883039Y-13306888D02*
X17883039Y-13249746D01*
X17883039Y-13249746D02*
X17892563Y-13230698D01*
X17892563Y-13230698D02*
X17902087Y-13221174D01*
X17902087Y-13221174D02*
X17921134Y-13211650D01*
X17921134Y-13211650D02*
X17949706Y-13211650D01*
X17949706Y-13211650D02*
X17968753Y-13221174D01*
X17968753Y-13221174D02*
X17978277Y-13230698D01*
X17978277Y-13230698D02*
X17987801Y-13249746D01*
X17987801Y-13249746D02*
X17987801Y-13306888D01*
X17987801Y-13306888D02*
X17978277Y-13325936D01*
X17978277Y-13325936D02*
X17968753Y-13335460D01*
X17968753Y-13335460D02*
X17949706Y-13344984D01*
X17949706Y-13344984D02*
X17921134Y-13344984D01*
X18102087Y-13344984D02*
X18083039Y-13335460D01*
X18083039Y-13335460D02*
X18073515Y-13316412D01*
X18073515Y-13316412D02*
X18073515Y-13144984D01*
X18254468Y-13335460D02*
X18235420Y-13344984D01*
X18235420Y-13344984D02*
X18197325Y-13344984D01*
X18197325Y-13344984D02*
X18178277Y-13335460D01*
X18178277Y-13335460D02*
X18168753Y-13316412D01*
X18168753Y-13316412D02*
X18168753Y-13240222D01*
X18168753Y-13240222D02*
X18178277Y-13221174D01*
X18178277Y-13221174D02*
X18197325Y-13211650D01*
X18197325Y-13211650D02*
X18235420Y-13211650D01*
X18235420Y-13211650D02*
X18254468Y-13221174D01*
X18254468Y-13221174D02*
X18263992Y-13240222D01*
X18263992Y-13240222D02*
X18263992Y-13259269D01*
X18263992Y-13259269D02*
X18168753Y-13278317D01*
X18340182Y-13335460D02*
X18359230Y-13344984D01*
X18359230Y-13344984D02*
X18397325Y-13344984D01*
X18397325Y-13344984D02*
X18416373Y-13335460D01*
X18416373Y-13335460D02*
X18425896Y-13316412D01*
X18425896Y-13316412D02*
X18425896Y-13306888D01*
X18425896Y-13306888D02*
X18416373Y-13287841D01*
X18416373Y-13287841D02*
X18397325Y-13278317D01*
X18397325Y-13278317D02*
X18368753Y-13278317D01*
X18368753Y-13278317D02*
X18349706Y-13268793D01*
X18349706Y-13268793D02*
X18340182Y-13249746D01*
X18340182Y-13249746D02*
X18340182Y-13240222D01*
X18340182Y-13240222D02*
X18349706Y-13221174D01*
X18349706Y-13221174D02*
X18368753Y-13211650D01*
X18368753Y-13211650D02*
X18397325Y-13211650D01*
X18397325Y-13211650D02*
X18416373Y-13221174D01*
X18492563Y-13421174D02*
X18502087Y-13411650D01*
X18502087Y-13411650D02*
X18521134Y-13383079D01*
X18521134Y-13383079D02*
X18530658Y-13364031D01*
X18530658Y-13364031D02*
X18540182Y-13335460D01*
X18540182Y-13335460D02*
X18549706Y-13287841D01*
X18549706Y-13287841D02*
X18549706Y-13249746D01*
X18549706Y-13249746D02*
X18540182Y-13202127D01*
X18540182Y-13202127D02*
X18530658Y-13173555D01*
X18530658Y-13173555D02*
X18521134Y-13154508D01*
X18521134Y-13154508D02*
X18502087Y-13125936D01*
X18502087Y-13125936D02*
X18492563Y-13116412D01*
X13517500Y-13417500D02*
X13717500Y-13617500D01*
X13717500Y-13417500D02*
X13517500Y-13617500D01*
X13717500Y-13517500D02*
G75*
G03*
X13517500Y-13517500I-100000J0D01*
G01*
X13517500Y-13517500D02*
G75*
G03*
X13717500Y-13517500I100000J0D01*
G01*
X13959229Y-13408984D02*
X14083039Y-13408984D01*
X14083039Y-13408984D02*
X14016372Y-13485174D01*
X14016372Y-13485174D02*
X14044943Y-13485174D01*
X14044943Y-13485174D02*
X14063991Y-13494698D01*
X14063991Y-13494698D02*
X14073515Y-13504222D01*
X14073515Y-13504222D02*
X14083039Y-13523269D01*
X14083039Y-13523269D02*
X14083039Y-13570888D01*
X14083039Y-13570888D02*
X14073515Y-13589936D01*
X14073515Y-13589936D02*
X14063991Y-13599460D01*
X14063991Y-13599460D02*
X14044943Y-13608984D01*
X14044943Y-13608984D02*
X13987801Y-13608984D01*
X13987801Y-13608984D02*
X13968753Y-13599460D01*
X13968753Y-13599460D02*
X13959229Y-13589936D01*
X14168753Y-13589936D02*
X14178277Y-13599460D01*
X14178277Y-13599460D02*
X14168753Y-13608984D01*
X14168753Y-13608984D02*
X14159229Y-13599460D01*
X14159229Y-13599460D02*
X14168753Y-13589936D01*
X14168753Y-13589936D02*
X14168753Y-13608984D01*
X14254467Y-13428031D02*
X14263991Y-13418508D01*
X14263991Y-13418508D02*
X14283039Y-13408984D01*
X14283039Y-13408984D02*
X14330658Y-13408984D01*
X14330658Y-13408984D02*
X14349705Y-13418508D01*
X14349705Y-13418508D02*
X14359229Y-13428031D01*
X14359229Y-13428031D02*
X14368753Y-13447079D01*
X14368753Y-13447079D02*
X14368753Y-13466127D01*
X14368753Y-13466127D02*
X14359229Y-13494698D01*
X14359229Y-13494698D02*
X14244943Y-13608984D01*
X14244943Y-13608984D02*
X14368753Y-13608984D01*
X14492562Y-13408984D02*
X14511610Y-13408984D01*
X14511610Y-13408984D02*
X14530658Y-13418508D01*
X14530658Y-13418508D02*
X14540182Y-13428031D01*
X14540182Y-13428031D02*
X14549705Y-13447079D01*
X14549705Y-13447079D02*
X14559229Y-13485174D01*
X14559229Y-13485174D02*
X14559229Y-13532793D01*
X14559229Y-13532793D02*
X14549705Y-13570888D01*
X14549705Y-13570888D02*
X14540182Y-13589936D01*
X14540182Y-13589936D02*
X14530658Y-13599460D01*
X14530658Y-13599460D02*
X14511610Y-13608984D01*
X14511610Y-13608984D02*
X14492562Y-13608984D01*
X14492562Y-13608984D02*
X14473515Y-13599460D01*
X14473515Y-13599460D02*
X14463991Y-13589936D01*
X14463991Y-13589936D02*
X14454467Y-13570888D01*
X14454467Y-13570888D02*
X14444943Y-13532793D01*
X14444943Y-13532793D02*
X14444943Y-13485174D01*
X14444943Y-13485174D02*
X14454467Y-13447079D01*
X14454467Y-13447079D02*
X14463991Y-13428031D01*
X14463991Y-13428031D02*
X14473515Y-13418508D01*
X14473515Y-13418508D02*
X14492562Y-13408984D01*
X14683039Y-13408984D02*
X14702086Y-13408984D01*
X14702086Y-13408984D02*
X14721134Y-13418508D01*
X14721134Y-13418508D02*
X14730658Y-13428031D01*
X14730658Y-13428031D02*
X14740182Y-13447079D01*
X14740182Y-13447079D02*
X14749705Y-13485174D01*
X14749705Y-13485174D02*
X14749705Y-13532793D01*
X14749705Y-13532793D02*
X14740182Y-13570888D01*
X14740182Y-13570888D02*
X14730658Y-13589936D01*
X14730658Y-13589936D02*
X14721134Y-13599460D01*
X14721134Y-13599460D02*
X14702086Y-13608984D01*
X14702086Y-13608984D02*
X14683039Y-13608984D01*
X14683039Y-13608984D02*
X14663991Y-13599460D01*
X14663991Y-13599460D02*
X14654467Y-13589936D01*
X14654467Y-13589936D02*
X14644943Y-13570888D01*
X14644943Y-13570888D02*
X14635420Y-13532793D01*
X14635420Y-13532793D02*
X14635420Y-13485174D01*
X14635420Y-13485174D02*
X14644943Y-13447079D01*
X14644943Y-13447079D02*
X14654467Y-13428031D01*
X14654467Y-13428031D02*
X14663991Y-13418508D01*
X14663991Y-13418508D02*
X14683039Y-13408984D01*
X14835420Y-13608984D02*
X14835420Y-13475650D01*
X14835420Y-13494698D02*
X14844943Y-13485174D01*
X14844943Y-13485174D02*
X14863991Y-13475650D01*
X14863991Y-13475650D02*
X14892563Y-13475650D01*
X14892563Y-13475650D02*
X14911610Y-13485174D01*
X14911610Y-13485174D02*
X14921134Y-13504222D01*
X14921134Y-13504222D02*
X14921134Y-13608984D01*
X14921134Y-13504222D02*
X14930658Y-13485174D01*
X14930658Y-13485174D02*
X14949705Y-13475650D01*
X14949705Y-13475650D02*
X14978277Y-13475650D01*
X14978277Y-13475650D02*
X14997324Y-13485174D01*
X14997324Y-13485174D02*
X15006848Y-13504222D01*
X15006848Y-13504222D02*
X15006848Y-13608984D01*
X15102086Y-13608984D02*
X15102086Y-13475650D01*
X15102086Y-13494698D02*
X15111610Y-13485174D01*
X15111610Y-13485174D02*
X15130658Y-13475650D01*
X15130658Y-13475650D02*
X15159229Y-13475650D01*
X15159229Y-13475650D02*
X15178277Y-13485174D01*
X15178277Y-13485174D02*
X15187801Y-13504222D01*
X15187801Y-13504222D02*
X15187801Y-13608984D01*
X15187801Y-13504222D02*
X15197324Y-13485174D01*
X15197324Y-13485174D02*
X15216372Y-13475650D01*
X15216372Y-13475650D02*
X15244943Y-13475650D01*
X15244943Y-13475650D02*
X15263991Y-13485174D01*
X15263991Y-13485174D02*
X15273515Y-13504222D01*
X15273515Y-13504222D02*
X15273515Y-13608984D01*
X15663991Y-13399460D02*
X15492563Y-13656603D01*
X15921134Y-13408984D02*
X15940182Y-13408984D01*
X15940182Y-13408984D02*
X15959229Y-13418508D01*
X15959229Y-13418508D02*
X15968753Y-13428031D01*
X15968753Y-13428031D02*
X15978277Y-13447079D01*
X15978277Y-13447079D02*
X15987801Y-13485174D01*
X15987801Y-13485174D02*
X15987801Y-13532793D01*
X15987801Y-13532793D02*
X15978277Y-13570888D01*
X15978277Y-13570888D02*
X15968753Y-13589936D01*
X15968753Y-13589936D02*
X15959229Y-13599460D01*
X15959229Y-13599460D02*
X15940182Y-13608984D01*
X15940182Y-13608984D02*
X15921134Y-13608984D01*
X15921134Y-13608984D02*
X15902086Y-13599460D01*
X15902086Y-13599460D02*
X15892563Y-13589936D01*
X15892563Y-13589936D02*
X15883039Y-13570888D01*
X15883039Y-13570888D02*
X15873515Y-13532793D01*
X15873515Y-13532793D02*
X15873515Y-13485174D01*
X15873515Y-13485174D02*
X15883039Y-13447079D01*
X15883039Y-13447079D02*
X15892563Y-13428031D01*
X15892563Y-13428031D02*
X15902086Y-13418508D01*
X15902086Y-13418508D02*
X15921134Y-13408984D01*
X16073515Y-13589936D02*
X16083039Y-13599460D01*
X16083039Y-13599460D02*
X16073515Y-13608984D01*
X16073515Y-13608984D02*
X16063991Y-13599460D01*
X16063991Y-13599460D02*
X16073515Y-13589936D01*
X16073515Y-13589936D02*
X16073515Y-13608984D01*
X16273515Y-13608984D02*
X16159229Y-13608984D01*
X16216372Y-13608984D02*
X16216372Y-13408984D01*
X16216372Y-13408984D02*
X16197325Y-13437555D01*
X16197325Y-13437555D02*
X16178277Y-13456603D01*
X16178277Y-13456603D02*
X16159229Y-13466127D01*
X16349706Y-13428031D02*
X16359229Y-13418508D01*
X16359229Y-13418508D02*
X16378277Y-13408984D01*
X16378277Y-13408984D02*
X16425896Y-13408984D01*
X16425896Y-13408984D02*
X16444944Y-13418508D01*
X16444944Y-13418508D02*
X16454467Y-13428031D01*
X16454467Y-13428031D02*
X16463991Y-13447079D01*
X16463991Y-13447079D02*
X16463991Y-13466127D01*
X16463991Y-13466127D02*
X16454467Y-13494698D01*
X16454467Y-13494698D02*
X16340182Y-13608984D01*
X16340182Y-13608984D02*
X16463991Y-13608984D01*
X16635420Y-13408984D02*
X16597325Y-13408984D01*
X16597325Y-13408984D02*
X16578277Y-13418508D01*
X16578277Y-13418508D02*
X16568753Y-13428031D01*
X16568753Y-13428031D02*
X16549706Y-13456603D01*
X16549706Y-13456603D02*
X16540182Y-13494698D01*
X16540182Y-13494698D02*
X16540182Y-13570888D01*
X16540182Y-13570888D02*
X16549706Y-13589936D01*
X16549706Y-13589936D02*
X16559229Y-13599460D01*
X16559229Y-13599460D02*
X16578277Y-13608984D01*
X16578277Y-13608984D02*
X16616372Y-13608984D01*
X16616372Y-13608984D02*
X16635420Y-13599460D01*
X16635420Y-13599460D02*
X16644944Y-13589936D01*
X16644944Y-13589936D02*
X16654467Y-13570888D01*
X16654467Y-13570888D02*
X16654467Y-13523269D01*
X16654467Y-13523269D02*
X16644944Y-13504222D01*
X16644944Y-13504222D02*
X16635420Y-13494698D01*
X16635420Y-13494698D02*
X16616372Y-13485174D01*
X16616372Y-13485174D02*
X16578277Y-13485174D01*
X16578277Y-13485174D02*
X16559229Y-13494698D01*
X16559229Y-13494698D02*
X16549706Y-13504222D01*
X16549706Y-13504222D02*
X16540182Y-13523269D01*
X16778277Y-13408984D02*
X16797325Y-13408984D01*
X16797325Y-13408984D02*
X16816372Y-13418508D01*
X16816372Y-13418508D02*
X16825896Y-13428031D01*
X16825896Y-13428031D02*
X16835420Y-13447079D01*
X16835420Y-13447079D02*
X16844944Y-13485174D01*
X16844944Y-13485174D02*
X16844944Y-13532793D01*
X16844944Y-13532793D02*
X16835420Y-13570888D01*
X16835420Y-13570888D02*
X16825896Y-13589936D01*
X16825896Y-13589936D02*
X16816372Y-13599460D01*
X16816372Y-13599460D02*
X16797325Y-13608984D01*
X16797325Y-13608984D02*
X16778277Y-13608984D01*
X16778277Y-13608984D02*
X16759229Y-13599460D01*
X16759229Y-13599460D02*
X16749706Y-13589936D01*
X16749706Y-13589936D02*
X16740182Y-13570888D01*
X16740182Y-13570888D02*
X16730658Y-13532793D01*
X16730658Y-13532793D02*
X16730658Y-13485174D01*
X16730658Y-13485174D02*
X16740182Y-13447079D01*
X16740182Y-13447079D02*
X16749706Y-13428031D01*
X16749706Y-13428031D02*
X16759229Y-13418508D01*
X16759229Y-13418508D02*
X16778277Y-13408984D01*
X16921134Y-13408984D02*
X16921134Y-13447079D01*
X16997325Y-13408984D02*
X16997325Y-13447079D01*
X17292563Y-13685174D02*
X17283039Y-13675650D01*
X17283039Y-13675650D02*
X17263991Y-13647079D01*
X17263991Y-13647079D02*
X17254468Y-13628031D01*
X17254468Y-13628031D02*
X17244944Y-13599460D01*
X17244944Y-13599460D02*
X17235420Y-13551841D01*
X17235420Y-13551841D02*
X17235420Y-13513746D01*
X17235420Y-13513746D02*
X17244944Y-13466127D01*
X17244944Y-13466127D02*
X17254468Y-13437555D01*
X17254468Y-13437555D02*
X17263991Y-13418508D01*
X17263991Y-13418508D02*
X17283039Y-13389936D01*
X17283039Y-13389936D02*
X17292563Y-13380412D01*
X17454468Y-13475650D02*
X17454468Y-13608984D01*
X17406849Y-13399460D02*
X17359230Y-13542317D01*
X17359230Y-13542317D02*
X17483039Y-13542317D01*
X17711611Y-13608984D02*
X17711611Y-13408984D01*
X17797325Y-13608984D02*
X17797325Y-13504222D01*
X17797325Y-13504222D02*
X17787801Y-13485174D01*
X17787801Y-13485174D02*
X17768753Y-13475650D01*
X17768753Y-13475650D02*
X17740182Y-13475650D01*
X17740182Y-13475650D02*
X17721134Y-13485174D01*
X17721134Y-13485174D02*
X17711611Y-13494698D01*
X17921134Y-13608984D02*
X17902087Y-13599460D01*
X17902087Y-13599460D02*
X17892563Y-13589936D01*
X17892563Y-13589936D02*
X17883039Y-13570888D01*
X17883039Y-13570888D02*
X17883039Y-13513746D01*
X17883039Y-13513746D02*
X17892563Y-13494698D01*
X17892563Y-13494698D02*
X17902087Y-13485174D01*
X17902087Y-13485174D02*
X17921134Y-13475650D01*
X17921134Y-13475650D02*
X17949706Y-13475650D01*
X17949706Y-13475650D02*
X17968753Y-13485174D01*
X17968753Y-13485174D02*
X17978277Y-13494698D01*
X17978277Y-13494698D02*
X17987801Y-13513746D01*
X17987801Y-13513746D02*
X17987801Y-13570888D01*
X17987801Y-13570888D02*
X17978277Y-13589936D01*
X17978277Y-13589936D02*
X17968753Y-13599460D01*
X17968753Y-13599460D02*
X17949706Y-13608984D01*
X17949706Y-13608984D02*
X17921134Y-13608984D01*
X18102087Y-13608984D02*
X18083039Y-13599460D01*
X18083039Y-13599460D02*
X18073515Y-13580412D01*
X18073515Y-13580412D02*
X18073515Y-13408984D01*
X18254468Y-13599460D02*
X18235420Y-13608984D01*
X18235420Y-13608984D02*
X18197325Y-13608984D01*
X18197325Y-13608984D02*
X18178277Y-13599460D01*
X18178277Y-13599460D02*
X18168753Y-13580412D01*
X18168753Y-13580412D02*
X18168753Y-13504222D01*
X18168753Y-13504222D02*
X18178277Y-13485174D01*
X18178277Y-13485174D02*
X18197325Y-13475650D01*
X18197325Y-13475650D02*
X18235420Y-13475650D01*
X18235420Y-13475650D02*
X18254468Y-13485174D01*
X18254468Y-13485174D02*
X18263992Y-13504222D01*
X18263992Y-13504222D02*
X18263992Y-13523269D01*
X18263992Y-13523269D02*
X18168753Y-13542317D01*
X18340182Y-13599460D02*
X18359230Y-13608984D01*
X18359230Y-13608984D02*
X18397325Y-13608984D01*
X18397325Y-13608984D02*
X18416373Y-13599460D01*
X18416373Y-13599460D02*
X18425896Y-13580412D01*
X18425896Y-13580412D02*
X18425896Y-13570888D01*
X18425896Y-13570888D02*
X18416373Y-13551841D01*
X18416373Y-13551841D02*
X18397325Y-13542317D01*
X18397325Y-13542317D02*
X18368753Y-13542317D01*
X18368753Y-13542317D02*
X18349706Y-13532793D01*
X18349706Y-13532793D02*
X18340182Y-13513746D01*
X18340182Y-13513746D02*
X18340182Y-13504222D01*
X18340182Y-13504222D02*
X18349706Y-13485174D01*
X18349706Y-13485174D02*
X18368753Y-13475650D01*
X18368753Y-13475650D02*
X18397325Y-13475650D01*
X18397325Y-13475650D02*
X18416373Y-13485174D01*
X18492563Y-13685174D02*
X18502087Y-13675650D01*
X18502087Y-13675650D02*
X18521134Y-13647079D01*
X18521134Y-13647079D02*
X18530658Y-13628031D01*
X18530658Y-13628031D02*
X18540182Y-13599460D01*
X18540182Y-13599460D02*
X18549706Y-13551841D01*
X18549706Y-13551841D02*
X18549706Y-13513746D01*
X18549706Y-13513746D02*
X18540182Y-13466127D01*
X18540182Y-13466127D02*
X18530658Y-13437555D01*
X18530658Y-13437555D02*
X18521134Y-13418508D01*
X18521134Y-13418508D02*
X18502087Y-13389936D01*
X18502087Y-13389936D02*
X18492563Y-13380412D01*
M02*
