G04 #@! TF.GenerationSoftware,KiCad,Pcbnew,7.0.10*
G04 #@! TF.CreationDate,2024-02-03T12:14:10-05:00*
G04 #@! TF.ProjectId,openlst-hw,6f70656e-6c73-4742-9d68-772e6b696361,rev?*
G04 #@! TF.SameCoordinates,Original*
G04 #@! TF.FileFunction,Copper,L2,Inr*
G04 #@! TF.FilePolarity,Positive*
%FSLAX46Y46*%
G04 Gerber Fmt 4.6, Leading zero omitted, Abs format (unit mm)*
G04 Created by KiCad (PCBNEW 7.0.10) date 2024-02-03 12:14:10*
%MOMM*%
%LPD*%
G01*
G04 APERTURE LIST*
G04 #@! TA.AperFunction,ComponentPad*
%ADD10C,0.609600*%
G04 #@! TD*
G04 #@! TA.AperFunction,ComponentPad*
%ADD11C,0.800000*%
G04 #@! TD*
G04 #@! TA.AperFunction,ComponentPad*
%ADD12C,6.400000*%
G04 #@! TD*
G04 #@! TA.AperFunction,ComponentPad*
%ADD13C,1.348000*%
G04 #@! TD*
G04 #@! TA.AperFunction,ComponentPad*
%ADD14C,0.558800*%
G04 #@! TD*
G04 #@! TA.AperFunction,ViaPad*
%ADD15C,0.457200*%
G04 #@! TD*
G04 APERTURE END LIST*
D10*
X151274874Y-98750000D03*
X151274874Y-100250000D03*
X151274874Y-101750000D03*
X152774874Y-98750000D03*
X152774874Y-100250000D03*
X152774874Y-101750000D03*
X154274874Y-98750000D03*
X154274874Y-100250000D03*
X154274874Y-101750000D03*
D11*
X181100000Y-111750000D03*
X181802944Y-110052944D03*
X181802944Y-113447056D03*
X183500000Y-109350000D03*
D12*
X183500000Y-111750000D03*
D11*
X183500000Y-114150000D03*
X185197056Y-110052944D03*
X185197056Y-113447056D03*
X185900000Y-111750000D03*
X181100000Y-90500000D03*
X181802944Y-88802944D03*
X181802944Y-92197056D03*
X183500000Y-88100000D03*
D12*
X183500000Y-90500000D03*
D11*
X183500000Y-92900000D03*
X185197056Y-88802944D03*
X185197056Y-92197056D03*
X185900000Y-90500000D03*
X138600000Y-111750000D03*
X139302944Y-110052944D03*
X139302944Y-113447056D03*
X141000000Y-109350000D03*
D12*
X141000000Y-111750000D03*
D11*
X141000000Y-114150000D03*
X142697056Y-110052944D03*
X142697056Y-113447056D03*
X143400000Y-111750000D03*
D13*
X184254874Y-97520000D03*
X182984874Y-96250000D03*
X182984874Y-98790000D03*
X185524874Y-96250000D03*
X185524874Y-98790000D03*
D11*
X138600000Y-90500000D03*
X139302944Y-88802944D03*
X139302944Y-92197056D03*
X141000000Y-88100000D03*
D12*
X141000000Y-90500000D03*
D11*
X141000000Y-92900000D03*
X142697056Y-88802944D03*
X142697056Y-92197056D03*
X143400000Y-90500000D03*
D14*
X175275000Y-101000000D03*
X175275000Y-99500000D03*
X175275000Y-98000000D03*
X173775000Y-101000000D03*
X173775000Y-99500000D03*
X173775000Y-98000000D03*
X172275000Y-101000000D03*
X172275000Y-99500000D03*
X172275000Y-98000000D03*
D15*
X172250000Y-100250000D03*
X173750000Y-98750000D03*
X172024874Y-94250000D03*
X179024874Y-103500000D03*
X146274874Y-111000000D03*
X176274874Y-103250000D03*
X146274874Y-110250000D03*
X156524874Y-93250000D03*
X177500000Y-96750000D03*
X156774874Y-110750000D03*
X174500000Y-98000000D03*
X160274874Y-99000000D03*
X166524874Y-91250000D03*
X173025000Y-99500000D03*
X171524874Y-96000000D03*
X174500000Y-100250000D03*
X166474874Y-113750000D03*
X173000000Y-98000000D03*
X175024874Y-103250000D03*
X171524874Y-91250000D03*
X178274874Y-98250000D03*
X165774874Y-102000000D03*
X178500000Y-96750000D03*
X149274874Y-111750000D03*
X175524874Y-94250000D03*
X172250000Y-98750000D03*
X174500000Y-99500000D03*
X170274874Y-97000000D03*
X161274874Y-103250000D03*
X154024874Y-92250000D03*
X174474874Y-107250000D03*
X160274874Y-105500000D03*
X168524874Y-94500000D03*
X164274874Y-95750000D03*
X176024874Y-91250000D03*
X148274874Y-110750000D03*
X170524874Y-94750000D03*
X175250000Y-98750000D03*
X174524874Y-94250000D03*
X173000000Y-98750000D03*
X167024874Y-98250000D03*
X175250000Y-100250000D03*
X151774874Y-110500000D03*
X170024874Y-100000000D03*
X150024874Y-107250000D03*
X165024874Y-100000000D03*
X174500000Y-101000000D03*
X158274874Y-97250000D03*
X168524874Y-100000000D03*
X170024874Y-93750000D03*
X172774874Y-94250000D03*
X161774874Y-109250000D03*
X138750000Y-96000000D03*
X173774874Y-90750000D03*
X176024874Y-92750000D03*
X174524874Y-95250000D03*
X168774874Y-98250000D03*
X176024874Y-93500000D03*
X177524874Y-93750000D03*
X146274874Y-92375000D03*
X154774874Y-106250000D03*
X177274874Y-91750000D03*
X173750000Y-100250000D03*
X167274874Y-102000000D03*
X174474874Y-113750000D03*
X160024874Y-98000000D03*
X166974874Y-107250000D03*
X159024874Y-92250000D03*
X170024874Y-92750000D03*
X170274874Y-91750000D03*
X170024874Y-102000000D03*
X177524874Y-92750000D03*
X158524874Y-99750000D03*
X171500000Y-103000000D03*
X173024874Y-95250000D03*
X174500000Y-98750000D03*
X176274874Y-96000000D03*
X138750000Y-95000000D03*
X153524874Y-110500000D03*
X163524874Y-100250000D03*
X147274874Y-111750000D03*
X177024874Y-94750000D03*
X167750000Y-107250000D03*
X138750000Y-97000000D03*
X171524874Y-92750000D03*
X173774874Y-96000000D03*
X154774874Y-93250000D03*
X173000000Y-100250000D03*
X179774874Y-98250000D03*
X146274874Y-111750000D03*
X173000000Y-101000000D03*
X158274874Y-93250000D03*
X179774874Y-96750000D03*
X168774874Y-102000000D03*
X171524874Y-93500000D03*
X156493574Y-103250000D03*
X156774874Y-100806300D03*
X148299874Y-109225000D03*
X153774874Y-95500000D03*
X159274874Y-95500000D03*
X149024188Y-98531300D03*
X181524874Y-106750000D03*
X164024874Y-105500000D03*
X143000000Y-100000000D03*
X144000000Y-107250000D03*
X166274874Y-95750000D03*
X180524874Y-103500000D03*
X173224874Y-113750000D03*
X154524874Y-112250000D03*
X161774874Y-91250000D03*
X173500000Y-107250000D03*
X171500000Y-107250000D03*
X173500000Y-109625000D03*
X167750000Y-106000000D03*
X146250000Y-99500000D03*
X166750000Y-106000000D03*
X172500000Y-107250000D03*
X153274874Y-96500000D03*
X157479974Y-105000000D03*
X169196156Y-110954673D03*
X153274874Y-103750000D03*
X154274874Y-104000000D03*
X152774874Y-96000000D03*
X160774874Y-96250000D03*
X152274874Y-96500000D03*
X177024874Y-101500000D03*
X161524874Y-94750000D03*
X149024874Y-99750000D03*
X178024874Y-106750000D03*
X178024874Y-104750000D03*
X148524874Y-99250000D03*
X172500000Y-105750000D03*
X167750000Y-104250000D03*
X166774874Y-97000000D03*
X169500000Y-103000000D03*
X171500000Y-105705100D03*
X173750000Y-105750000D03*
X164474874Y-108675000D03*
X151274874Y-103750000D03*
X159774874Y-96500000D03*
X155524874Y-97250000D03*
X143974874Y-102350000D03*
X143974874Y-104350000D03*
X168474874Y-110455100D03*
X144224874Y-100850000D03*
G04 #@! TA.AperFunction,Conductor*
G36*
X186868500Y-111995220D02*
G01*
X186868308Y-112002121D01*
X186850706Y-112317921D01*
X186849316Y-112330767D01*
X186799421Y-112640086D01*
X186796701Y-112652717D01*
X186714894Y-112955153D01*
X186710875Y-112967432D01*
X186598044Y-113259707D01*
X186592770Y-113271502D01*
X186450129Y-113550468D01*
X186443655Y-113561650D01*
X186272766Y-113824252D01*
X186265164Y-113834700D01*
X186067879Y-114078090D01*
X186059231Y-114087689D01*
X185837689Y-114309231D01*
X185828090Y-114317879D01*
X185584700Y-114515164D01*
X185574252Y-114522766D01*
X185311650Y-114693655D01*
X185300468Y-114700129D01*
X185021502Y-114842770D01*
X185009707Y-114848044D01*
X184717432Y-114960875D01*
X184705153Y-114964894D01*
X184402717Y-115046701D01*
X184390086Y-115049421D01*
X184080767Y-115099316D01*
X184067921Y-115100706D01*
X183752123Y-115118308D01*
X183745222Y-115118500D01*
X179500000Y-115118500D01*
X179500000Y-108000000D01*
X186868500Y-108000000D01*
X186868500Y-111995220D01*
G37*
G04 #@! TD.AperFunction*
G04 #@! TA.AperFunction,Conductor*
G36*
X186750000Y-100500000D02*
G01*
X181750000Y-100500000D01*
X181750000Y-97520002D01*
X183425157Y-97520002D01*
X183445958Y-97704626D01*
X183492594Y-97837902D01*
X183507325Y-97880001D01*
X183606175Y-98037320D01*
X183737554Y-98168699D01*
X183894873Y-98267549D01*
X184028146Y-98314183D01*
X184070247Y-98328915D01*
X184254871Y-98349717D01*
X184254874Y-98349717D01*
X184254877Y-98349717D01*
X184439500Y-98328915D01*
X184439503Y-98328914D01*
X184614875Y-98267549D01*
X184772194Y-98168699D01*
X184903573Y-98037320D01*
X185002423Y-97880001D01*
X185063788Y-97704629D01*
X185063788Y-97704628D01*
X185063789Y-97704626D01*
X185084591Y-97520002D01*
X185084591Y-97519997D01*
X185063789Y-97335373D01*
X185049057Y-97293272D01*
X185002423Y-97159999D01*
X184903573Y-97002680D01*
X184772194Y-96871301D01*
X184614875Y-96772451D01*
X184572776Y-96757720D01*
X184439500Y-96711084D01*
X184254877Y-96690283D01*
X184254871Y-96690283D01*
X184070247Y-96711084D01*
X183894870Y-96772452D01*
X183737553Y-96871301D01*
X183606175Y-97002679D01*
X183507326Y-97159996D01*
X183445958Y-97335373D01*
X183425157Y-97519997D01*
X183425157Y-97520002D01*
X181750000Y-97520002D01*
X181750000Y-94500000D01*
X186750000Y-94500000D01*
X186750000Y-100500000D01*
G37*
G04 #@! TD.AperFunction*
G04 #@! TA.AperFunction,Conductor*
G36*
X183753243Y-87131669D02*
G01*
X184069500Y-87148243D01*
X184082376Y-87149597D01*
X184391966Y-87198632D01*
X184404627Y-87201322D01*
X184707405Y-87282451D01*
X184719731Y-87286457D01*
X185012344Y-87398780D01*
X185024186Y-87404052D01*
X185303468Y-87546354D01*
X185314699Y-87552839D01*
X185577554Y-87723539D01*
X185588055Y-87731168D01*
X185831637Y-87928416D01*
X185841282Y-87937101D01*
X186062898Y-88158717D01*
X186071583Y-88168362D01*
X186268831Y-88411944D01*
X186276460Y-88422445D01*
X186447158Y-88685296D01*
X186453648Y-88696536D01*
X186595942Y-88975802D01*
X186601221Y-88987660D01*
X186713541Y-89280265D01*
X186717552Y-89292608D01*
X186798672Y-89595352D01*
X186801370Y-89608048D01*
X186850400Y-89917607D01*
X186851757Y-89930516D01*
X186868330Y-90246756D01*
X186868500Y-90253245D01*
X186868500Y-94250000D01*
X179500000Y-94250000D01*
X179500000Y-87131500D01*
X183695149Y-87131500D01*
X183746755Y-87131500D01*
X183753243Y-87131669D01*
G37*
G04 #@! TD.AperFunction*
G04 #@! TA.AperFunction,Conductor*
G36*
X145000000Y-94250000D02*
G01*
X137631500Y-94250000D01*
X137631500Y-90253245D01*
X137631670Y-90246756D01*
X137641493Y-90059314D01*
X137648243Y-89930497D01*
X137649597Y-89917625D01*
X137698632Y-89608029D01*
X137701321Y-89595376D01*
X137782453Y-89292588D01*
X137786455Y-89280273D01*
X137898783Y-88987648D01*
X137904048Y-88975820D01*
X138046358Y-88696523D01*
X138052833Y-88685308D01*
X138223546Y-88422435D01*
X138231161Y-88411953D01*
X138428424Y-88168352D01*
X138437091Y-88158727D01*
X138658727Y-87937091D01*
X138668352Y-87928424D01*
X138911953Y-87731161D01*
X138922435Y-87723546D01*
X139185308Y-87552833D01*
X139196523Y-87546358D01*
X139475820Y-87404048D01*
X139487648Y-87398783D01*
X139780273Y-87286455D01*
X139792588Y-87282453D01*
X140095376Y-87201321D01*
X140108029Y-87198632D01*
X140417625Y-87149597D01*
X140430497Y-87148243D01*
X140746756Y-87131669D01*
X140753245Y-87131500D01*
X145000000Y-87131500D01*
X145000000Y-94250000D01*
G37*
G04 #@! TD.AperFunction*
G04 #@! TA.AperFunction,Conductor*
G36*
X145000000Y-115118500D02*
G01*
X140753245Y-115118500D01*
X140746756Y-115118330D01*
X140430516Y-115101757D01*
X140417607Y-115100400D01*
X140108048Y-115051370D01*
X140095358Y-115048673D01*
X139792606Y-114967551D01*
X139780265Y-114963541D01*
X139487660Y-114851221D01*
X139475802Y-114845942D01*
X139196536Y-114703648D01*
X139185296Y-114697158D01*
X138922445Y-114526460D01*
X138911944Y-114518831D01*
X138668362Y-114321583D01*
X138658717Y-114312898D01*
X138437101Y-114091282D01*
X138428416Y-114081637D01*
X138231168Y-113838055D01*
X138223539Y-113827554D01*
X138052841Y-113564703D01*
X138046351Y-113553463D01*
X137921900Y-113309215D01*
X137904052Y-113274186D01*
X137898778Y-113262339D01*
X137786458Y-112969734D01*
X137782451Y-112957405D01*
X137701322Y-112654627D01*
X137698632Y-112641966D01*
X137649597Y-112332376D01*
X137648243Y-112319500D01*
X137631670Y-112003243D01*
X137631500Y-111996754D01*
X137631500Y-108000000D01*
X145000000Y-108000000D01*
X145000000Y-115118500D01*
G37*
G04 #@! TD.AperFunction*
G04 #@! TA.AperFunction,Conductor*
G36*
X179500000Y-94250000D02*
G01*
X186868500Y-94250000D01*
X186868500Y-108000000D01*
X179500000Y-108000000D01*
X179500000Y-115118500D01*
X145000000Y-115118500D01*
X145000000Y-113750002D01*
X172841048Y-113750002D01*
X172859832Y-113868604D01*
X172859833Y-113868607D01*
X172859834Y-113868609D01*
X172911373Y-113969760D01*
X172914353Y-113975608D01*
X172914356Y-113975612D01*
X172999261Y-114060517D01*
X172999265Y-114060520D01*
X172999267Y-114060522D01*
X173106265Y-114115040D01*
X173106267Y-114115040D01*
X173106269Y-114115041D01*
X173224872Y-114133826D01*
X173224874Y-114133826D01*
X173224876Y-114133826D01*
X173343478Y-114115041D01*
X173343478Y-114115040D01*
X173343483Y-114115040D01*
X173450481Y-114060522D01*
X173535396Y-113975607D01*
X173589914Y-113868609D01*
X173608700Y-113750000D01*
X173600314Y-113697056D01*
X173589915Y-113631395D01*
X173589914Y-113631393D01*
X173589914Y-113631391D01*
X173535396Y-113524393D01*
X173535394Y-113524391D01*
X173535391Y-113524387D01*
X173450486Y-113439482D01*
X173450482Y-113439479D01*
X173450481Y-113439478D01*
X173343483Y-113384960D01*
X173343481Y-113384959D01*
X173343478Y-113384958D01*
X173224876Y-113366174D01*
X173224872Y-113366174D01*
X173106269Y-113384958D01*
X172999265Y-113439479D01*
X172999261Y-113439482D01*
X172914356Y-113524387D01*
X172914353Y-113524391D01*
X172914352Y-113524393D01*
X172861921Y-113627296D01*
X172859832Y-113631395D01*
X172841048Y-113749997D01*
X172841048Y-113750002D01*
X145000000Y-113750002D01*
X145000000Y-112250002D01*
X154141048Y-112250002D01*
X154159832Y-112368604D01*
X154159833Y-112368607D01*
X154159834Y-112368609D01*
X154204926Y-112457107D01*
X154214353Y-112475608D01*
X154214356Y-112475612D01*
X154299261Y-112560517D01*
X154299265Y-112560520D01*
X154299267Y-112560522D01*
X154406265Y-112615040D01*
X154406267Y-112615040D01*
X154406269Y-112615041D01*
X154524872Y-112633826D01*
X154524874Y-112633826D01*
X154524876Y-112633826D01*
X154643478Y-112615041D01*
X154643478Y-112615040D01*
X154643483Y-112615040D01*
X154750481Y-112560522D01*
X154835396Y-112475607D01*
X154889914Y-112368609D01*
X154896919Y-112324383D01*
X154908700Y-112250002D01*
X154908700Y-112249997D01*
X154889915Y-112131395D01*
X154889914Y-112131393D01*
X154889914Y-112131391D01*
X154835396Y-112024393D01*
X154835394Y-112024391D01*
X154835391Y-112024387D01*
X154764581Y-111953577D01*
X164493731Y-111953577D01*
X164503769Y-112138731D01*
X164503770Y-112138736D01*
X164553375Y-112317400D01*
X164553378Y-112317406D01*
X164598051Y-112401668D01*
X164637251Y-112475607D01*
X164640235Y-112481234D01*
X164640236Y-112481237D01*
X164753891Y-112615041D01*
X164760279Y-112622561D01*
X164907899Y-112734778D01*
X165076190Y-112812638D01*
X165076191Y-112812638D01*
X165076193Y-112812639D01*
X165131133Y-112824731D01*
X165257285Y-112852500D01*
X165257288Y-112852500D01*
X165396216Y-112852500D01*
X165396221Y-112852500D01*
X165534343Y-112837478D01*
X165710066Y-112778270D01*
X165868953Y-112682671D01*
X166003575Y-112555151D01*
X166005304Y-112552602D01*
X166028285Y-112518706D01*
X166107635Y-112401673D01*
X166176270Y-112229413D01*
X166206269Y-112046426D01*
X166201235Y-111953577D01*
X175293731Y-111953577D01*
X175303769Y-112138731D01*
X175303770Y-112138736D01*
X175353375Y-112317400D01*
X175353378Y-112317406D01*
X175398051Y-112401668D01*
X175437251Y-112475607D01*
X175440235Y-112481234D01*
X175440236Y-112481237D01*
X175553891Y-112615041D01*
X175560279Y-112622561D01*
X175707899Y-112734778D01*
X175876190Y-112812638D01*
X175876191Y-112812638D01*
X175876193Y-112812639D01*
X175931133Y-112824731D01*
X176057285Y-112852500D01*
X176057288Y-112852500D01*
X176196216Y-112852500D01*
X176196221Y-112852500D01*
X176334343Y-112837478D01*
X176510066Y-112778270D01*
X176668953Y-112682671D01*
X176803575Y-112555151D01*
X176805304Y-112552602D01*
X176828285Y-112518706D01*
X176907635Y-112401673D01*
X176976270Y-112229413D01*
X177006269Y-112046426D01*
X176996230Y-111861268D01*
X176971053Y-111770587D01*
X176946624Y-111682599D01*
X176946621Y-111682593D01*
X176901946Y-111598327D01*
X176859766Y-111518767D01*
X176859763Y-111518764D01*
X176859763Y-111518762D01*
X176739721Y-111377439D01*
X176688496Y-111338499D01*
X176592101Y-111265222D01*
X176423810Y-111187362D01*
X176423806Y-111187360D01*
X176242715Y-111147500D01*
X176103779Y-111147500D01*
X176103777Y-111147500D01*
X175965658Y-111162521D01*
X175965654Y-111162522D01*
X175789933Y-111221730D01*
X175631045Y-111317330D01*
X175631044Y-111317331D01*
X175496423Y-111444849D01*
X175392363Y-111598329D01*
X175392362Y-111598331D01*
X175323731Y-111770581D01*
X175323730Y-111770586D01*
X175323730Y-111770587D01*
X175295113Y-111945149D01*
X175293731Y-111953577D01*
X166201235Y-111953577D01*
X166196230Y-111861268D01*
X166171053Y-111770587D01*
X166146624Y-111682599D01*
X166146621Y-111682593D01*
X166101946Y-111598327D01*
X166059766Y-111518767D01*
X166059763Y-111518764D01*
X166059763Y-111518762D01*
X165939721Y-111377439D01*
X165888496Y-111338499D01*
X165792101Y-111265222D01*
X165623810Y-111187362D01*
X165623806Y-111187360D01*
X165442715Y-111147500D01*
X165303779Y-111147500D01*
X165303777Y-111147500D01*
X165165658Y-111162521D01*
X165165654Y-111162522D01*
X164989933Y-111221730D01*
X164831045Y-111317330D01*
X164831044Y-111317331D01*
X164696423Y-111444849D01*
X164592363Y-111598329D01*
X164592362Y-111598331D01*
X164523731Y-111770581D01*
X164523730Y-111770586D01*
X164523730Y-111770587D01*
X164495113Y-111945149D01*
X164493731Y-111953577D01*
X154764581Y-111953577D01*
X154750486Y-111939482D01*
X154750482Y-111939479D01*
X154750481Y-111939478D01*
X154643483Y-111884960D01*
X154643481Y-111884959D01*
X154643478Y-111884958D01*
X154524876Y-111866174D01*
X154524872Y-111866174D01*
X154406269Y-111884958D01*
X154299265Y-111939479D01*
X154299261Y-111939482D01*
X154214356Y-112024387D01*
X154214353Y-112024391D01*
X154159832Y-112131395D01*
X154141048Y-112249997D01*
X154141048Y-112250002D01*
X145000000Y-112250002D01*
X145000000Y-110455102D01*
X168091048Y-110455102D01*
X168109832Y-110573704D01*
X168109833Y-110573707D01*
X168109834Y-110573709D01*
X168147077Y-110646802D01*
X168164353Y-110680708D01*
X168164356Y-110680712D01*
X168249261Y-110765617D01*
X168249265Y-110765620D01*
X168249267Y-110765622D01*
X168356265Y-110820140D01*
X168356267Y-110820140D01*
X168356269Y-110820141D01*
X168474872Y-110838926D01*
X168474874Y-110838926D01*
X168474876Y-110838926D01*
X168593478Y-110820141D01*
X168593478Y-110820140D01*
X168593483Y-110820140D01*
X168637884Y-110797516D01*
X168706550Y-110784621D01*
X168771290Y-110810897D01*
X168811548Y-110868003D01*
X168816649Y-110927398D01*
X168812331Y-110954670D01*
X168812330Y-110954675D01*
X168831114Y-111073277D01*
X168831115Y-111073280D01*
X168831116Y-111073282D01*
X168876586Y-111162522D01*
X168885635Y-111180281D01*
X168885638Y-111180285D01*
X168970543Y-111265190D01*
X168970547Y-111265193D01*
X168970549Y-111265195D01*
X169077547Y-111319713D01*
X169077549Y-111319713D01*
X169077551Y-111319714D01*
X169196154Y-111338499D01*
X169196156Y-111338499D01*
X169196158Y-111338499D01*
X169314760Y-111319714D01*
X169314760Y-111319713D01*
X169314765Y-111319713D01*
X169421763Y-111265195D01*
X169506678Y-111180280D01*
X169561196Y-111073282D01*
X169579982Y-110954673D01*
X169575662Y-110927399D01*
X169561197Y-110836068D01*
X169561196Y-110836066D01*
X169561196Y-110836064D01*
X169506678Y-110729066D01*
X169506676Y-110729064D01*
X169506673Y-110729060D01*
X169421768Y-110644155D01*
X169421764Y-110644152D01*
X169421763Y-110644151D01*
X169314765Y-110589633D01*
X169314763Y-110589632D01*
X169314760Y-110589631D01*
X169196158Y-110570847D01*
X169196154Y-110570847D01*
X169077550Y-110589631D01*
X169033146Y-110612256D01*
X168964476Y-110625151D01*
X168899736Y-110598873D01*
X168859480Y-110541766D01*
X168854380Y-110482372D01*
X168858700Y-110455100D01*
X168848911Y-110393297D01*
X168839915Y-110336495D01*
X168839914Y-110336493D01*
X168839914Y-110336491D01*
X168785396Y-110229493D01*
X168785394Y-110229491D01*
X168785391Y-110229487D01*
X168700486Y-110144582D01*
X168700482Y-110144579D01*
X168700481Y-110144578D01*
X168593483Y-110090060D01*
X168593481Y-110090059D01*
X168593478Y-110090058D01*
X168474876Y-110071274D01*
X168474872Y-110071274D01*
X168356269Y-110090058D01*
X168249265Y-110144579D01*
X168249261Y-110144582D01*
X168164356Y-110229487D01*
X168164353Y-110229491D01*
X168164352Y-110229493D01*
X168111412Y-110333395D01*
X168109832Y-110336495D01*
X168091048Y-110455097D01*
X168091048Y-110455102D01*
X145000000Y-110455102D01*
X145000000Y-109625002D01*
X173116174Y-109625002D01*
X173134958Y-109743604D01*
X173134959Y-109743607D01*
X173134960Y-109743609D01*
X173189478Y-109850607D01*
X173189479Y-109850608D01*
X173189482Y-109850612D01*
X173274387Y-109935517D01*
X173274391Y-109935520D01*
X173274393Y-109935522D01*
X173381391Y-109990040D01*
X173381393Y-109990040D01*
X173381395Y-109990041D01*
X173499998Y-110008826D01*
X173500000Y-110008826D01*
X173500002Y-110008826D01*
X173618604Y-109990041D01*
X173618604Y-109990040D01*
X173618609Y-109990040D01*
X173725607Y-109935522D01*
X173810522Y-109850607D01*
X173865040Y-109743609D01*
X173865041Y-109743604D01*
X173883826Y-109625002D01*
X173883826Y-109624997D01*
X173865041Y-109506395D01*
X173865040Y-109506393D01*
X173865040Y-109506391D01*
X173810522Y-109399393D01*
X173810520Y-109399391D01*
X173810517Y-109399387D01*
X173725612Y-109314482D01*
X173725608Y-109314479D01*
X173725607Y-109314478D01*
X173618609Y-109259960D01*
X173618607Y-109259959D01*
X173618604Y-109259958D01*
X173500002Y-109241174D01*
X173499998Y-109241174D01*
X173381395Y-109259958D01*
X173274391Y-109314479D01*
X173274387Y-109314482D01*
X173189482Y-109399387D01*
X173189479Y-109399391D01*
X173134958Y-109506395D01*
X173116174Y-109624997D01*
X173116174Y-109625002D01*
X145000000Y-109625002D01*
X145000000Y-109225002D01*
X147916048Y-109225002D01*
X147934832Y-109343604D01*
X147934833Y-109343607D01*
X147934834Y-109343609D01*
X147987792Y-109447545D01*
X147989353Y-109450608D01*
X147989356Y-109450612D01*
X148074261Y-109535517D01*
X148074265Y-109535520D01*
X148074267Y-109535522D01*
X148181265Y-109590040D01*
X148181267Y-109590040D01*
X148181269Y-109590041D01*
X148299872Y-109608826D01*
X148299874Y-109608826D01*
X148299876Y-109608826D01*
X148418478Y-109590041D01*
X148418478Y-109590040D01*
X148418483Y-109590040D01*
X148525481Y-109535522D01*
X148610396Y-109450607D01*
X148664914Y-109343609D01*
X148664915Y-109343604D01*
X148683700Y-109225002D01*
X148683700Y-109224997D01*
X148664915Y-109106395D01*
X148664914Y-109106393D01*
X148664914Y-109106391D01*
X148610396Y-108999393D01*
X148610394Y-108999391D01*
X148610391Y-108999387D01*
X148525486Y-108914482D01*
X148525482Y-108914479D01*
X148525481Y-108914478D01*
X148418483Y-108859960D01*
X148418481Y-108859959D01*
X148418478Y-108859958D01*
X148299876Y-108841174D01*
X148299872Y-108841174D01*
X148181269Y-108859958D01*
X148074265Y-108914479D01*
X148074261Y-108914482D01*
X147989356Y-108999387D01*
X147989353Y-108999391D01*
X147934832Y-109106395D01*
X147916048Y-109224997D01*
X147916048Y-109225002D01*
X145000000Y-109225002D01*
X145000000Y-108675002D01*
X164091048Y-108675002D01*
X164109832Y-108793604D01*
X164109833Y-108793607D01*
X164109834Y-108793609D01*
X164159091Y-108890281D01*
X164164353Y-108900608D01*
X164164356Y-108900612D01*
X164249261Y-108985517D01*
X164249265Y-108985520D01*
X164249267Y-108985522D01*
X164356265Y-109040040D01*
X164356267Y-109040040D01*
X164356269Y-109040041D01*
X164474872Y-109058826D01*
X164474874Y-109058826D01*
X164474876Y-109058826D01*
X164593478Y-109040041D01*
X164593478Y-109040040D01*
X164593483Y-109040040D01*
X164700481Y-108985522D01*
X164785396Y-108900607D01*
X164839914Y-108793609D01*
X164858700Y-108675000D01*
X164839914Y-108556391D01*
X164785396Y-108449393D01*
X164785394Y-108449391D01*
X164785391Y-108449387D01*
X164700486Y-108364482D01*
X164700482Y-108364479D01*
X164700481Y-108364478D01*
X164593483Y-108309960D01*
X164593481Y-108309959D01*
X164593478Y-108309958D01*
X164474876Y-108291174D01*
X164474872Y-108291174D01*
X164356269Y-108309958D01*
X164249265Y-108364479D01*
X164249261Y-108364482D01*
X164164356Y-108449387D01*
X164164353Y-108449391D01*
X164109832Y-108556395D01*
X164091048Y-108674997D01*
X164091048Y-108675002D01*
X145000000Y-108675002D01*
X145000000Y-108000000D01*
X137631500Y-108000000D01*
X137631500Y-107250002D01*
X143616174Y-107250002D01*
X143634958Y-107368604D01*
X143634959Y-107368607D01*
X143634960Y-107368609D01*
X143689478Y-107475607D01*
X143689479Y-107475608D01*
X143689482Y-107475612D01*
X143774387Y-107560517D01*
X143774391Y-107560520D01*
X143774393Y-107560522D01*
X143881391Y-107615040D01*
X143881393Y-107615040D01*
X143881395Y-107615041D01*
X143999998Y-107633826D01*
X144000000Y-107633826D01*
X144000002Y-107633826D01*
X144118604Y-107615041D01*
X144118604Y-107615040D01*
X144118609Y-107615040D01*
X144225607Y-107560522D01*
X144310522Y-107475607D01*
X144365040Y-107368609D01*
X144383826Y-107250002D01*
X171116174Y-107250002D01*
X171134958Y-107368604D01*
X171134959Y-107368607D01*
X171134960Y-107368609D01*
X171189478Y-107475607D01*
X171189479Y-107475608D01*
X171189482Y-107475612D01*
X171274387Y-107560517D01*
X171274391Y-107560520D01*
X171274393Y-107560522D01*
X171381391Y-107615040D01*
X171381393Y-107615040D01*
X171381395Y-107615041D01*
X171499998Y-107633826D01*
X171500000Y-107633826D01*
X171500002Y-107633826D01*
X171618604Y-107615041D01*
X171618604Y-107615040D01*
X171618609Y-107615040D01*
X171725607Y-107560522D01*
X171810522Y-107475607D01*
X171865040Y-107368609D01*
X171877527Y-107289772D01*
X171896029Y-107250741D01*
X171895351Y-107249257D01*
X172103970Y-107249257D01*
X172122473Y-107289772D01*
X172134958Y-107368604D01*
X172134959Y-107368607D01*
X172134960Y-107368609D01*
X172189478Y-107475607D01*
X172189479Y-107475608D01*
X172189482Y-107475612D01*
X172274387Y-107560517D01*
X172274391Y-107560520D01*
X172274393Y-107560522D01*
X172381391Y-107615040D01*
X172381393Y-107615040D01*
X172381395Y-107615041D01*
X172499998Y-107633826D01*
X172500000Y-107633826D01*
X172500002Y-107633826D01*
X172618604Y-107615041D01*
X172618604Y-107615040D01*
X172618609Y-107615040D01*
X172725607Y-107560522D01*
X172810522Y-107475607D01*
X172865040Y-107368609D01*
X172877527Y-107289772D01*
X172896029Y-107250741D01*
X172895351Y-107249257D01*
X173103970Y-107249257D01*
X173122473Y-107289772D01*
X173134958Y-107368604D01*
X173134959Y-107368607D01*
X173134960Y-107368609D01*
X173189478Y-107475607D01*
X173189479Y-107475608D01*
X173189482Y-107475612D01*
X173274387Y-107560517D01*
X173274391Y-107560520D01*
X173274393Y-107560522D01*
X173381391Y-107615040D01*
X173381393Y-107615040D01*
X173381395Y-107615041D01*
X173499998Y-107633826D01*
X173500000Y-107633826D01*
X173500002Y-107633826D01*
X173618604Y-107615041D01*
X173618604Y-107615040D01*
X173618609Y-107615040D01*
X173725607Y-107560522D01*
X173810522Y-107475607D01*
X173865040Y-107368609D01*
X173883826Y-107250000D01*
X173883708Y-107249257D01*
X173865041Y-107131395D01*
X173865040Y-107131393D01*
X173865040Y-107131391D01*
X173810522Y-107024393D01*
X173810520Y-107024391D01*
X173810517Y-107024387D01*
X173725612Y-106939482D01*
X173725608Y-106939479D01*
X173725607Y-106939478D01*
X173618609Y-106884960D01*
X173618607Y-106884959D01*
X173618604Y-106884958D01*
X173500002Y-106866174D01*
X173499998Y-106866174D01*
X173381395Y-106884958D01*
X173274391Y-106939479D01*
X173274387Y-106939482D01*
X173189482Y-107024387D01*
X173189479Y-107024391D01*
X173134958Y-107131395D01*
X173122473Y-107210227D01*
X173103970Y-107249257D01*
X172895351Y-107249257D01*
X172877527Y-107210227D01*
X172865041Y-107131395D01*
X172865040Y-107131393D01*
X172865040Y-107131391D01*
X172810522Y-107024393D01*
X172810520Y-107024391D01*
X172810517Y-107024387D01*
X172725612Y-106939482D01*
X172725608Y-106939479D01*
X172725607Y-106939478D01*
X172618609Y-106884960D01*
X172618607Y-106884959D01*
X172618604Y-106884958D01*
X172500002Y-106866174D01*
X172499998Y-106866174D01*
X172381395Y-106884958D01*
X172274391Y-106939479D01*
X172274387Y-106939482D01*
X172189482Y-107024387D01*
X172189479Y-107024391D01*
X172134958Y-107131395D01*
X172122473Y-107210227D01*
X172103970Y-107249257D01*
X171895351Y-107249257D01*
X171877527Y-107210227D01*
X171865041Y-107131395D01*
X171865040Y-107131393D01*
X171865040Y-107131391D01*
X171810522Y-107024393D01*
X171810520Y-107024391D01*
X171810517Y-107024387D01*
X171725612Y-106939482D01*
X171725608Y-106939479D01*
X171725607Y-106939478D01*
X171618609Y-106884960D01*
X171618607Y-106884959D01*
X171618604Y-106884958D01*
X171500002Y-106866174D01*
X171499998Y-106866174D01*
X171381395Y-106884958D01*
X171274391Y-106939479D01*
X171274387Y-106939482D01*
X171189482Y-107024387D01*
X171189479Y-107024391D01*
X171134958Y-107131395D01*
X171116174Y-107249997D01*
X171116174Y-107250002D01*
X144383826Y-107250002D01*
X144383826Y-107250000D01*
X144383708Y-107249257D01*
X144365041Y-107131395D01*
X144365040Y-107131393D01*
X144365040Y-107131391D01*
X144310522Y-107024393D01*
X144310520Y-107024391D01*
X144310517Y-107024387D01*
X144225612Y-106939482D01*
X144225608Y-106939479D01*
X144225607Y-106939478D01*
X144118609Y-106884960D01*
X144118607Y-106884959D01*
X144118604Y-106884958D01*
X144000002Y-106866174D01*
X143999998Y-106866174D01*
X143881395Y-106884958D01*
X143774391Y-106939479D01*
X143774387Y-106939482D01*
X143689482Y-107024387D01*
X143689479Y-107024391D01*
X143634958Y-107131395D01*
X143616174Y-107249997D01*
X143616174Y-107250002D01*
X137631500Y-107250002D01*
X137631500Y-106750002D01*
X177641048Y-106750002D01*
X177659832Y-106868604D01*
X177659833Y-106868607D01*
X177659834Y-106868609D01*
X177714352Y-106975607D01*
X177714353Y-106975608D01*
X177714356Y-106975612D01*
X177799261Y-107060517D01*
X177799265Y-107060520D01*
X177799267Y-107060522D01*
X177906265Y-107115040D01*
X177906267Y-107115040D01*
X177906269Y-107115041D01*
X178024872Y-107133826D01*
X178024874Y-107133826D01*
X178024876Y-107133826D01*
X178143478Y-107115041D01*
X178143478Y-107115040D01*
X178143483Y-107115040D01*
X178250481Y-107060522D01*
X178335396Y-106975607D01*
X178389914Y-106868609D01*
X178408700Y-106750002D01*
X181141048Y-106750002D01*
X181159832Y-106868604D01*
X181159833Y-106868607D01*
X181159834Y-106868609D01*
X181214352Y-106975607D01*
X181214353Y-106975608D01*
X181214356Y-106975612D01*
X181299261Y-107060517D01*
X181299265Y-107060520D01*
X181299267Y-107060522D01*
X181406265Y-107115040D01*
X181406267Y-107115040D01*
X181406269Y-107115041D01*
X181524872Y-107133826D01*
X181524874Y-107133826D01*
X181524876Y-107133826D01*
X181643478Y-107115041D01*
X181643478Y-107115040D01*
X181643483Y-107115040D01*
X181750481Y-107060522D01*
X181835396Y-106975607D01*
X181889914Y-106868609D01*
X181908700Y-106750000D01*
X181889914Y-106631391D01*
X181835396Y-106524393D01*
X181835394Y-106524391D01*
X181835391Y-106524387D01*
X181750486Y-106439482D01*
X181750482Y-106439479D01*
X181750481Y-106439478D01*
X181643483Y-106384960D01*
X181643481Y-106384959D01*
X181643478Y-106384958D01*
X181524876Y-106366174D01*
X181524872Y-106366174D01*
X181406269Y-106384958D01*
X181299265Y-106439479D01*
X181299261Y-106439482D01*
X181214356Y-106524387D01*
X181214353Y-106524391D01*
X181159832Y-106631395D01*
X181141048Y-106749997D01*
X181141048Y-106750002D01*
X178408700Y-106750002D01*
X178408700Y-106750000D01*
X178389914Y-106631391D01*
X178335396Y-106524393D01*
X178335394Y-106524391D01*
X178335391Y-106524387D01*
X178250486Y-106439482D01*
X178250482Y-106439479D01*
X178250481Y-106439478D01*
X178143483Y-106384960D01*
X178143481Y-106384959D01*
X178143478Y-106384958D01*
X178024876Y-106366174D01*
X178024872Y-106366174D01*
X177906269Y-106384958D01*
X177799265Y-106439479D01*
X177799261Y-106439482D01*
X177714356Y-106524387D01*
X177714353Y-106524391D01*
X177659832Y-106631395D01*
X177641048Y-106749997D01*
X177641048Y-106750002D01*
X137631500Y-106750002D01*
X137631500Y-106000002D01*
X166366174Y-106000002D01*
X166384958Y-106118604D01*
X166384959Y-106118607D01*
X166384960Y-106118609D01*
X166439478Y-106225607D01*
X166439479Y-106225608D01*
X166439482Y-106225612D01*
X166524387Y-106310517D01*
X166524391Y-106310520D01*
X166524393Y-106310522D01*
X166631391Y-106365040D01*
X166631393Y-106365040D01*
X166631395Y-106365041D01*
X166749998Y-106383826D01*
X166750000Y-106383826D01*
X166750002Y-106383826D01*
X166868604Y-106365041D01*
X166868604Y-106365040D01*
X166868609Y-106365040D01*
X166975607Y-106310522D01*
X167060522Y-106225607D01*
X167115040Y-106118609D01*
X167115605Y-106115040D01*
X167127527Y-106039772D01*
X167146029Y-106000741D01*
X167145351Y-105999257D01*
X167353970Y-105999257D01*
X167372473Y-106039772D01*
X167384958Y-106118604D01*
X167384959Y-106118607D01*
X167384960Y-106118609D01*
X167439478Y-106225607D01*
X167439479Y-106225608D01*
X167439482Y-106225612D01*
X167524387Y-106310517D01*
X167524391Y-106310520D01*
X167524393Y-106310522D01*
X167631391Y-106365040D01*
X167631393Y-106365040D01*
X167631395Y-106365041D01*
X167749998Y-106383826D01*
X167750000Y-106383826D01*
X167750002Y-106383826D01*
X167868604Y-106365041D01*
X167868604Y-106365040D01*
X167868609Y-106365040D01*
X167975607Y-106310522D01*
X168060522Y-106225607D01*
X168115040Y-106118609D01*
X168115605Y-106115040D01*
X168133826Y-106000002D01*
X168133826Y-105999997D01*
X168115041Y-105881395D01*
X168115040Y-105881393D01*
X168115040Y-105881391D01*
X168060522Y-105774393D01*
X168060520Y-105774391D01*
X168060517Y-105774387D01*
X167991232Y-105705102D01*
X171116174Y-105705102D01*
X171134958Y-105823704D01*
X171134959Y-105823707D01*
X171134960Y-105823709D01*
X171189478Y-105930707D01*
X171189479Y-105930708D01*
X171189482Y-105930712D01*
X171274387Y-106015617D01*
X171274391Y-106015620D01*
X171274393Y-106015622D01*
X171381391Y-106070140D01*
X171381393Y-106070140D01*
X171381395Y-106070141D01*
X171499998Y-106088926D01*
X171500000Y-106088926D01*
X171500002Y-106088926D01*
X171618604Y-106070141D01*
X171618604Y-106070140D01*
X171618609Y-106070140D01*
X171725607Y-106015622D01*
X171810522Y-105930707D01*
X171865040Y-105823709D01*
X171867129Y-105810520D01*
X171873971Y-105767323D01*
X171889555Y-105734447D01*
X172103903Y-105734447D01*
X172118917Y-105767322D01*
X172134958Y-105868604D01*
X172134959Y-105868607D01*
X172134960Y-105868609D01*
X172166601Y-105930708D01*
X172189479Y-105975608D01*
X172189482Y-105975612D01*
X172274387Y-106060517D01*
X172274391Y-106060520D01*
X172274393Y-106060522D01*
X172381391Y-106115040D01*
X172381393Y-106115040D01*
X172381395Y-106115041D01*
X172499998Y-106133826D01*
X172500000Y-106133826D01*
X172500002Y-106133826D01*
X172618604Y-106115041D01*
X172618604Y-106115040D01*
X172618609Y-106115040D01*
X172725607Y-106060522D01*
X172810522Y-105975607D01*
X172865040Y-105868609D01*
X172872152Y-105823709D01*
X172883826Y-105750002D01*
X173366174Y-105750002D01*
X173384958Y-105868604D01*
X173384959Y-105868607D01*
X173384960Y-105868609D01*
X173416601Y-105930708D01*
X173439479Y-105975608D01*
X173439482Y-105975612D01*
X173524387Y-106060517D01*
X173524391Y-106060520D01*
X173524393Y-106060522D01*
X173631391Y-106115040D01*
X173631393Y-106115040D01*
X173631395Y-106115041D01*
X173749998Y-106133826D01*
X173750000Y-106133826D01*
X173750002Y-106133826D01*
X173868604Y-106115041D01*
X173868604Y-106115040D01*
X173868609Y-106115040D01*
X173975607Y-106060522D01*
X174060522Y-105975607D01*
X174115040Y-105868609D01*
X174122152Y-105823709D01*
X174133826Y-105750002D01*
X174133826Y-105749997D01*
X174115041Y-105631395D01*
X174115040Y-105631393D01*
X174115040Y-105631391D01*
X174060522Y-105524393D01*
X174060520Y-105524391D01*
X174060517Y-105524387D01*
X173975612Y-105439482D01*
X173975608Y-105439479D01*
X173975607Y-105439478D01*
X173868609Y-105384960D01*
X173868607Y-105384959D01*
X173868604Y-105384958D01*
X173750002Y-105366174D01*
X173749998Y-105366174D01*
X173631395Y-105384958D01*
X173524391Y-105439479D01*
X173524387Y-105439482D01*
X173439482Y-105524387D01*
X173439479Y-105524391D01*
X173384958Y-105631395D01*
X173366174Y-105749997D01*
X173366174Y-105750002D01*
X172883826Y-105750002D01*
X172883826Y-105749997D01*
X172865041Y-105631395D01*
X172865040Y-105631393D01*
X172865040Y-105631391D01*
X172810522Y-105524393D01*
X172810520Y-105524391D01*
X172810517Y-105524387D01*
X172725612Y-105439482D01*
X172725608Y-105439479D01*
X172725607Y-105439478D01*
X172618609Y-105384960D01*
X172618607Y-105384959D01*
X172618604Y-105384958D01*
X172500002Y-105366174D01*
X172499998Y-105366174D01*
X172381395Y-105384958D01*
X172274391Y-105439479D01*
X172274387Y-105439482D01*
X172189482Y-105524387D01*
X172189479Y-105524391D01*
X172134958Y-105631395D01*
X172126028Y-105687778D01*
X172103903Y-105734447D01*
X171889555Y-105734447D01*
X171896095Y-105720651D01*
X171881082Y-105687776D01*
X171865041Y-105586495D01*
X171865040Y-105586493D01*
X171865040Y-105586491D01*
X171810522Y-105479493D01*
X171810520Y-105479491D01*
X171810517Y-105479487D01*
X171725612Y-105394582D01*
X171725608Y-105394579D01*
X171725607Y-105394578D01*
X171618609Y-105340060D01*
X171618607Y-105340059D01*
X171618604Y-105340058D01*
X171500002Y-105321274D01*
X171499998Y-105321274D01*
X171381395Y-105340058D01*
X171274391Y-105394579D01*
X171274387Y-105394582D01*
X171189482Y-105479487D01*
X171189479Y-105479491D01*
X171134958Y-105586495D01*
X171116174Y-105705097D01*
X171116174Y-105705102D01*
X167991232Y-105705102D01*
X167975612Y-105689482D01*
X167975608Y-105689479D01*
X167975607Y-105689478D01*
X167868609Y-105634960D01*
X167868607Y-105634959D01*
X167868604Y-105634958D01*
X167750002Y-105616174D01*
X167749998Y-105616174D01*
X167631395Y-105634958D01*
X167524391Y-105689479D01*
X167524387Y-105689482D01*
X167439482Y-105774387D01*
X167439479Y-105774391D01*
X167384958Y-105881395D01*
X167372473Y-105960227D01*
X167353970Y-105999257D01*
X167145351Y-105999257D01*
X167127527Y-105960227D01*
X167115041Y-105881395D01*
X167115040Y-105881393D01*
X167115040Y-105881391D01*
X167060522Y-105774393D01*
X167060520Y-105774391D01*
X167060517Y-105774387D01*
X166975612Y-105689482D01*
X166975608Y-105689479D01*
X166975607Y-105689478D01*
X166868609Y-105634960D01*
X166868607Y-105634959D01*
X166868604Y-105634958D01*
X166750002Y-105616174D01*
X166749998Y-105616174D01*
X166631395Y-105634958D01*
X166524391Y-105689479D01*
X166524387Y-105689482D01*
X166439482Y-105774387D01*
X166439479Y-105774391D01*
X166384958Y-105881395D01*
X166366174Y-105999997D01*
X166366174Y-106000002D01*
X137631500Y-106000002D01*
X137631500Y-105500002D01*
X163641048Y-105500002D01*
X163659832Y-105618604D01*
X163659833Y-105618607D01*
X163659834Y-105618609D01*
X163711827Y-105720651D01*
X163714353Y-105725608D01*
X163714356Y-105725612D01*
X163799261Y-105810517D01*
X163799265Y-105810520D01*
X163799267Y-105810522D01*
X163906265Y-105865040D01*
X163906267Y-105865040D01*
X163906269Y-105865041D01*
X164024872Y-105883826D01*
X164024874Y-105883826D01*
X164024876Y-105883826D01*
X164143478Y-105865041D01*
X164143478Y-105865040D01*
X164143483Y-105865040D01*
X164250481Y-105810522D01*
X164335396Y-105725607D01*
X164389914Y-105618609D01*
X164390300Y-105616174D01*
X164408700Y-105500002D01*
X164408700Y-105499997D01*
X164389915Y-105381395D01*
X164389914Y-105381393D01*
X164389914Y-105381391D01*
X164335396Y-105274393D01*
X164335394Y-105274391D01*
X164335391Y-105274387D01*
X164250486Y-105189482D01*
X164250482Y-105189479D01*
X164250481Y-105189478D01*
X164143483Y-105134960D01*
X164143481Y-105134959D01*
X164143478Y-105134958D01*
X164024876Y-105116174D01*
X164024872Y-105116174D01*
X163906269Y-105134958D01*
X163799265Y-105189479D01*
X163799261Y-105189482D01*
X163714356Y-105274387D01*
X163714353Y-105274391D01*
X163659832Y-105381395D01*
X163641048Y-105499997D01*
X163641048Y-105500002D01*
X137631500Y-105500002D01*
X137631500Y-105000002D01*
X157096148Y-105000002D01*
X157114932Y-105118604D01*
X157114933Y-105118607D01*
X157114934Y-105118609D01*
X157169452Y-105225607D01*
X157169453Y-105225608D01*
X157169456Y-105225612D01*
X157254361Y-105310517D01*
X157254365Y-105310520D01*
X157254367Y-105310522D01*
X157361365Y-105365040D01*
X157361367Y-105365040D01*
X157361369Y-105365041D01*
X157479972Y-105383826D01*
X157479974Y-105383826D01*
X157479976Y-105383826D01*
X157598578Y-105365041D01*
X157598578Y-105365040D01*
X157598583Y-105365040D01*
X157705581Y-105310522D01*
X157790496Y-105225607D01*
X157845014Y-105118609D01*
X157854214Y-105060522D01*
X157863800Y-105000002D01*
X157863800Y-104999997D01*
X157845015Y-104881395D01*
X157845014Y-104881393D01*
X157845014Y-104881391D01*
X157790496Y-104774393D01*
X157790494Y-104774391D01*
X157790491Y-104774387D01*
X157766106Y-104750002D01*
X177641048Y-104750002D01*
X177659832Y-104868604D01*
X177659833Y-104868607D01*
X177659834Y-104868609D01*
X177666347Y-104881391D01*
X177714353Y-104975608D01*
X177714356Y-104975612D01*
X177799261Y-105060517D01*
X177799265Y-105060520D01*
X177799267Y-105060522D01*
X177906265Y-105115040D01*
X177906267Y-105115040D01*
X177906269Y-105115041D01*
X178024872Y-105133826D01*
X178024874Y-105133826D01*
X178024876Y-105133826D01*
X178143478Y-105115041D01*
X178143478Y-105115040D01*
X178143483Y-105115040D01*
X178250481Y-105060522D01*
X178335396Y-104975607D01*
X178389914Y-104868609D01*
X178389915Y-104868604D01*
X178408700Y-104750002D01*
X178408700Y-104749997D01*
X178389915Y-104631395D01*
X178389914Y-104631393D01*
X178389914Y-104631391D01*
X178335396Y-104524393D01*
X178335394Y-104524391D01*
X178335391Y-104524387D01*
X178250486Y-104439482D01*
X178250482Y-104439479D01*
X178250481Y-104439478D01*
X178143483Y-104384960D01*
X178143481Y-104384959D01*
X178143478Y-104384958D01*
X178024876Y-104366174D01*
X178024872Y-104366174D01*
X177906269Y-104384958D01*
X177799265Y-104439479D01*
X177799261Y-104439482D01*
X177714356Y-104524387D01*
X177714353Y-104524391D01*
X177659832Y-104631395D01*
X177641048Y-104749997D01*
X177641048Y-104750002D01*
X157766106Y-104750002D01*
X157705586Y-104689482D01*
X157705582Y-104689479D01*
X157705581Y-104689478D01*
X157598583Y-104634960D01*
X157598581Y-104634959D01*
X157598578Y-104634958D01*
X157479976Y-104616174D01*
X157479972Y-104616174D01*
X157361369Y-104634958D01*
X157361365Y-104634959D01*
X157361365Y-104634960D01*
X157311197Y-104660522D01*
X157254365Y-104689479D01*
X157254361Y-104689482D01*
X157169456Y-104774387D01*
X157169453Y-104774391D01*
X157114932Y-104881395D01*
X157096148Y-104999997D01*
X157096148Y-105000002D01*
X137631500Y-105000002D01*
X137631500Y-104350002D01*
X143591048Y-104350002D01*
X143609832Y-104468604D01*
X143609833Y-104468607D01*
X143609834Y-104468609D01*
X143656665Y-104560520D01*
X143664353Y-104575608D01*
X143664356Y-104575612D01*
X143749261Y-104660517D01*
X143749265Y-104660520D01*
X143749267Y-104660522D01*
X143856265Y-104715040D01*
X143856267Y-104715040D01*
X143856269Y-104715041D01*
X143974872Y-104733826D01*
X143974874Y-104733826D01*
X143974876Y-104733826D01*
X144093478Y-104715041D01*
X144093478Y-104715040D01*
X144093483Y-104715040D01*
X144200481Y-104660522D01*
X144285396Y-104575607D01*
X144339914Y-104468609D01*
X144339915Y-104468604D01*
X144358700Y-104350002D01*
X144358700Y-104349997D01*
X144339915Y-104231395D01*
X144339914Y-104231393D01*
X144339914Y-104231391D01*
X144285396Y-104124393D01*
X144285394Y-104124391D01*
X144285391Y-104124387D01*
X144200486Y-104039482D01*
X144200482Y-104039479D01*
X144200481Y-104039478D01*
X144093483Y-103984960D01*
X144093481Y-103984959D01*
X144093478Y-103984958D01*
X143974876Y-103966174D01*
X143974872Y-103966174D01*
X143856269Y-103984958D01*
X143749265Y-104039479D01*
X143749261Y-104039482D01*
X143664356Y-104124387D01*
X143664353Y-104124391D01*
X143609832Y-104231395D01*
X143591048Y-104349997D01*
X143591048Y-104350002D01*
X137631500Y-104350002D01*
X137631500Y-103750002D01*
X150891048Y-103750002D01*
X150909832Y-103868604D01*
X150909833Y-103868607D01*
X150909834Y-103868609D01*
X150959546Y-103966174D01*
X150964353Y-103975608D01*
X150964356Y-103975612D01*
X151049261Y-104060517D01*
X151049265Y-104060520D01*
X151049267Y-104060522D01*
X151156265Y-104115040D01*
X151156267Y-104115040D01*
X151156269Y-104115041D01*
X151274872Y-104133826D01*
X151274874Y-104133826D01*
X151274876Y-104133826D01*
X151393478Y-104115041D01*
X151393478Y-104115040D01*
X151393483Y-104115040D01*
X151500481Y-104060522D01*
X151585396Y-103975607D01*
X151639914Y-103868609D01*
X151649114Y-103810522D01*
X151658700Y-103750002D01*
X152891048Y-103750002D01*
X152909832Y-103868604D01*
X152909833Y-103868607D01*
X152909834Y-103868609D01*
X152959546Y-103966174D01*
X152964353Y-103975608D01*
X152964356Y-103975612D01*
X153049261Y-104060517D01*
X153049265Y-104060520D01*
X153049267Y-104060522D01*
X153156265Y-104115040D01*
X153156267Y-104115040D01*
X153156269Y-104115041D01*
X153274872Y-104133826D01*
X153274874Y-104133826D01*
X153274876Y-104133826D01*
X153393478Y-104115041D01*
X153393478Y-104115040D01*
X153393483Y-104115040D01*
X153500481Y-104060522D01*
X153561001Y-104000002D01*
X153891048Y-104000002D01*
X153909832Y-104118604D01*
X153909833Y-104118607D01*
X153909834Y-104118609D01*
X153964352Y-104225607D01*
X153964353Y-104225608D01*
X153964356Y-104225612D01*
X154049261Y-104310517D01*
X154049265Y-104310520D01*
X154049267Y-104310522D01*
X154156265Y-104365040D01*
X154156267Y-104365040D01*
X154156269Y-104365041D01*
X154274872Y-104383826D01*
X154274874Y-104383826D01*
X154274876Y-104383826D01*
X154393478Y-104365041D01*
X154393478Y-104365040D01*
X154393483Y-104365040D01*
X154500481Y-104310522D01*
X154561001Y-104250002D01*
X167366174Y-104250002D01*
X167384958Y-104368604D01*
X167384959Y-104368607D01*
X167384960Y-104368609D01*
X167439478Y-104475607D01*
X167439479Y-104475608D01*
X167439482Y-104475612D01*
X167524387Y-104560517D01*
X167524391Y-104560520D01*
X167524393Y-104560522D01*
X167631391Y-104615040D01*
X167631393Y-104615040D01*
X167631395Y-104615041D01*
X167749998Y-104633826D01*
X167750000Y-104633826D01*
X167750002Y-104633826D01*
X167868604Y-104615041D01*
X167868604Y-104615040D01*
X167868609Y-104615040D01*
X167975607Y-104560522D01*
X168060522Y-104475607D01*
X168115040Y-104368609D01*
X168117987Y-104350002D01*
X168133826Y-104250002D01*
X168133826Y-104249997D01*
X168115041Y-104131395D01*
X168115040Y-104131393D01*
X168115040Y-104131391D01*
X168060522Y-104024393D01*
X168060520Y-104024391D01*
X168060517Y-104024387D01*
X167975612Y-103939482D01*
X167975608Y-103939479D01*
X167975607Y-103939478D01*
X167868609Y-103884960D01*
X167868607Y-103884959D01*
X167868604Y-103884958D01*
X167750002Y-103866174D01*
X167749998Y-103866174D01*
X167631395Y-103884958D01*
X167524391Y-103939479D01*
X167524387Y-103939482D01*
X167439482Y-104024387D01*
X167439479Y-104024391D01*
X167384958Y-104131395D01*
X167366174Y-104249997D01*
X167366174Y-104250002D01*
X154561001Y-104250002D01*
X154585396Y-104225607D01*
X154639914Y-104118609D01*
X154649114Y-104060522D01*
X154658700Y-104000002D01*
X154658700Y-103999997D01*
X154639915Y-103881395D01*
X154639914Y-103881393D01*
X154639914Y-103881391D01*
X154585396Y-103774393D01*
X154585394Y-103774391D01*
X154585391Y-103774387D01*
X154500486Y-103689482D01*
X154500482Y-103689479D01*
X154500481Y-103689478D01*
X154393483Y-103634960D01*
X154393481Y-103634959D01*
X154393478Y-103634958D01*
X154274876Y-103616174D01*
X154274872Y-103616174D01*
X154156269Y-103634958D01*
X154049265Y-103689479D01*
X154049261Y-103689482D01*
X153964356Y-103774387D01*
X153964353Y-103774391D01*
X153909832Y-103881395D01*
X153891048Y-103999997D01*
X153891048Y-104000002D01*
X153561001Y-104000002D01*
X153585396Y-103975607D01*
X153639914Y-103868609D01*
X153649114Y-103810522D01*
X153658700Y-103750002D01*
X153658700Y-103749997D01*
X153639915Y-103631395D01*
X153639914Y-103631393D01*
X153639914Y-103631391D01*
X153585396Y-103524393D01*
X153585394Y-103524391D01*
X153585391Y-103524387D01*
X153500486Y-103439482D01*
X153500482Y-103439479D01*
X153500481Y-103439478D01*
X153393483Y-103384960D01*
X153393481Y-103384959D01*
X153393478Y-103384958D01*
X153274876Y-103366174D01*
X153274872Y-103366174D01*
X153156269Y-103384958D01*
X153049265Y-103439479D01*
X153049261Y-103439482D01*
X152964356Y-103524387D01*
X152964353Y-103524391D01*
X152909832Y-103631395D01*
X152891048Y-103749997D01*
X152891048Y-103750002D01*
X151658700Y-103750002D01*
X151658700Y-103749997D01*
X151639915Y-103631395D01*
X151639914Y-103631393D01*
X151639914Y-103631391D01*
X151585396Y-103524393D01*
X151585394Y-103524391D01*
X151585391Y-103524387D01*
X151500486Y-103439482D01*
X151500482Y-103439479D01*
X151500481Y-103439478D01*
X151393483Y-103384960D01*
X151393481Y-103384959D01*
X151393478Y-103384958D01*
X151274876Y-103366174D01*
X151274872Y-103366174D01*
X151156269Y-103384958D01*
X151049265Y-103439479D01*
X151049261Y-103439482D01*
X150964356Y-103524387D01*
X150964353Y-103524391D01*
X150909832Y-103631395D01*
X150891048Y-103749997D01*
X150891048Y-103750002D01*
X137631500Y-103750002D01*
X137631500Y-103250002D01*
X156109748Y-103250002D01*
X156128532Y-103368604D01*
X156128533Y-103368607D01*
X156128534Y-103368609D01*
X156183052Y-103475607D01*
X156183053Y-103475608D01*
X156183056Y-103475612D01*
X156267961Y-103560517D01*
X156267965Y-103560520D01*
X156267967Y-103560522D01*
X156374965Y-103615040D01*
X156374967Y-103615040D01*
X156374969Y-103615041D01*
X156493572Y-103633826D01*
X156493574Y-103633826D01*
X156493576Y-103633826D01*
X156612178Y-103615041D01*
X156612178Y-103615040D01*
X156612183Y-103615040D01*
X156719181Y-103560522D01*
X156779701Y-103500002D01*
X180141048Y-103500002D01*
X180159832Y-103618604D01*
X180159833Y-103618607D01*
X180159834Y-103618609D01*
X180214352Y-103725607D01*
X180214353Y-103725608D01*
X180214356Y-103725612D01*
X180299261Y-103810517D01*
X180299265Y-103810520D01*
X180299267Y-103810522D01*
X180406265Y-103865040D01*
X180406267Y-103865040D01*
X180406269Y-103865041D01*
X180524872Y-103883826D01*
X180524874Y-103883826D01*
X180524876Y-103883826D01*
X180643478Y-103865041D01*
X180643478Y-103865040D01*
X180643483Y-103865040D01*
X180750481Y-103810522D01*
X180835396Y-103725607D01*
X180889914Y-103618609D01*
X180899114Y-103560522D01*
X180908700Y-103500002D01*
X180908700Y-103499997D01*
X180889915Y-103381395D01*
X180889914Y-103381393D01*
X180889914Y-103381391D01*
X180835396Y-103274393D01*
X180835394Y-103274391D01*
X180835391Y-103274387D01*
X180750486Y-103189482D01*
X180750482Y-103189479D01*
X180750481Y-103189478D01*
X180643483Y-103134960D01*
X180643481Y-103134959D01*
X180643478Y-103134958D01*
X180524876Y-103116174D01*
X180524872Y-103116174D01*
X180406269Y-103134958D01*
X180299265Y-103189479D01*
X180299261Y-103189482D01*
X180214356Y-103274387D01*
X180214353Y-103274391D01*
X180159832Y-103381395D01*
X180141048Y-103499997D01*
X180141048Y-103500002D01*
X156779701Y-103500002D01*
X156804096Y-103475607D01*
X156858614Y-103368609D01*
X156867814Y-103310522D01*
X156877400Y-103250002D01*
X156877400Y-103249997D01*
X156858615Y-103131395D01*
X156858614Y-103131393D01*
X156858614Y-103131391D01*
X156804096Y-103024393D01*
X156804094Y-103024391D01*
X156804091Y-103024387D01*
X156779706Y-103000002D01*
X169116174Y-103000002D01*
X169134958Y-103118604D01*
X169134959Y-103118607D01*
X169134960Y-103118609D01*
X169189478Y-103225607D01*
X169189479Y-103225608D01*
X169189482Y-103225612D01*
X169274387Y-103310517D01*
X169274391Y-103310520D01*
X169274393Y-103310522D01*
X169381391Y-103365040D01*
X169381393Y-103365040D01*
X169381395Y-103365041D01*
X169499998Y-103383826D01*
X169500000Y-103383826D01*
X169500002Y-103383826D01*
X169618604Y-103365041D01*
X169618604Y-103365040D01*
X169618609Y-103365040D01*
X169725607Y-103310522D01*
X169810522Y-103225607D01*
X169865040Y-103118609D01*
X169865426Y-103116174D01*
X169883826Y-103000002D01*
X169883826Y-102999997D01*
X169865041Y-102881395D01*
X169865040Y-102881393D01*
X169865040Y-102881391D01*
X169810522Y-102774393D01*
X169810520Y-102774391D01*
X169810517Y-102774387D01*
X169725612Y-102689482D01*
X169725608Y-102689479D01*
X169725607Y-102689478D01*
X169618609Y-102634960D01*
X169618607Y-102634959D01*
X169618604Y-102634958D01*
X169500002Y-102616174D01*
X169499998Y-102616174D01*
X169381395Y-102634958D01*
X169381391Y-102634959D01*
X169381391Y-102634960D01*
X169331223Y-102660522D01*
X169274391Y-102689479D01*
X169274387Y-102689482D01*
X169189482Y-102774387D01*
X169189479Y-102774391D01*
X169134958Y-102881395D01*
X169116174Y-102999997D01*
X169116174Y-103000002D01*
X156779706Y-103000002D01*
X156719186Y-102939482D01*
X156719182Y-102939479D01*
X156719181Y-102939478D01*
X156612183Y-102884960D01*
X156612181Y-102884959D01*
X156612178Y-102884958D01*
X156493576Y-102866174D01*
X156493572Y-102866174D01*
X156374969Y-102884958D01*
X156267965Y-102939479D01*
X156267961Y-102939482D01*
X156183056Y-103024387D01*
X156183053Y-103024391D01*
X156128532Y-103131395D01*
X156109748Y-103249997D01*
X156109748Y-103250002D01*
X137631500Y-103250002D01*
X137631500Y-102350002D01*
X143591048Y-102350002D01*
X143609832Y-102468604D01*
X143609833Y-102468607D01*
X143609834Y-102468609D01*
X143664352Y-102575607D01*
X143664353Y-102575608D01*
X143664356Y-102575612D01*
X143749261Y-102660517D01*
X143749265Y-102660520D01*
X143749267Y-102660522D01*
X143856265Y-102715040D01*
X143856267Y-102715040D01*
X143856269Y-102715041D01*
X143974872Y-102733826D01*
X143974874Y-102733826D01*
X143974876Y-102733826D01*
X144093478Y-102715041D01*
X144093478Y-102715040D01*
X144093483Y-102715040D01*
X144200481Y-102660522D01*
X144285396Y-102575607D01*
X144339914Y-102468609D01*
X144358700Y-102350000D01*
X144352299Y-102309587D01*
X144349931Y-102294634D01*
X151161290Y-102294634D01*
X151274873Y-102309587D01*
X151274875Y-102309587D01*
X151388456Y-102294634D01*
X152661290Y-102294634D01*
X152774873Y-102309587D01*
X152774875Y-102309587D01*
X152888456Y-102294634D01*
X154161290Y-102294634D01*
X154274873Y-102309587D01*
X154274875Y-102309587D01*
X154388456Y-102294634D01*
X154274875Y-102181052D01*
X154161290Y-102294634D01*
X152888456Y-102294634D01*
X152774875Y-102181052D01*
X152661290Y-102294634D01*
X151388456Y-102294634D01*
X151274875Y-102181052D01*
X151161290Y-102294634D01*
X144349931Y-102294634D01*
X144339915Y-102231395D01*
X144339914Y-102231393D01*
X144339914Y-102231391D01*
X144285396Y-102124393D01*
X144285394Y-102124391D01*
X144285391Y-102124387D01*
X144200486Y-102039482D01*
X144200482Y-102039479D01*
X144200481Y-102039478D01*
X144093483Y-101984960D01*
X144093481Y-101984959D01*
X144093478Y-101984958D01*
X143974876Y-101966174D01*
X143974872Y-101966174D01*
X143856269Y-101984958D01*
X143749265Y-102039479D01*
X143749261Y-102039482D01*
X143664356Y-102124387D01*
X143664353Y-102124391D01*
X143609832Y-102231395D01*
X143591048Y-102349997D01*
X143591048Y-102350002D01*
X137631500Y-102350002D01*
X137631500Y-101750002D01*
X150715287Y-101750002D01*
X150730238Y-101863581D01*
X150730238Y-101863582D01*
X150843821Y-101749999D01*
X150821749Y-101727927D01*
X151093088Y-101727927D01*
X151103653Y-101814936D01*
X151153442Y-101887068D01*
X151231050Y-101927800D01*
X151296463Y-101927800D01*
X151359975Y-101912146D01*
X151425580Y-101854025D01*
X151456660Y-101772073D01*
X151453980Y-101750000D01*
X151705926Y-101750000D01*
X151819508Y-101863582D01*
X151834461Y-101750002D01*
X152215287Y-101750002D01*
X152230238Y-101863581D01*
X152230238Y-101863582D01*
X152343821Y-101749999D01*
X152321749Y-101727927D01*
X152593088Y-101727927D01*
X152603653Y-101814936D01*
X152653442Y-101887068D01*
X152731050Y-101927800D01*
X152796463Y-101927800D01*
X152859975Y-101912146D01*
X152925580Y-101854025D01*
X152956660Y-101772073D01*
X152953980Y-101750000D01*
X153205925Y-101750000D01*
X153319508Y-101863582D01*
X153334461Y-101750002D01*
X153715287Y-101750002D01*
X153730238Y-101863581D01*
X153730238Y-101863582D01*
X153843821Y-101749999D01*
X153821749Y-101727927D01*
X154093088Y-101727927D01*
X154103653Y-101814936D01*
X154153442Y-101887068D01*
X154231050Y-101927800D01*
X154296463Y-101927800D01*
X154359975Y-101912146D01*
X154425580Y-101854025D01*
X154456660Y-101772073D01*
X154453980Y-101750000D01*
X154705926Y-101750000D01*
X154819508Y-101863582D01*
X154834461Y-101750001D01*
X154834461Y-101749998D01*
X154819508Y-101636417D01*
X154705926Y-101750000D01*
X154453980Y-101750000D01*
X154446095Y-101685064D01*
X154396306Y-101612932D01*
X154318698Y-101572200D01*
X154253285Y-101572200D01*
X154189773Y-101587854D01*
X154124168Y-101645975D01*
X154093088Y-101727927D01*
X153821749Y-101727927D01*
X153730238Y-101636416D01*
X153730238Y-101636417D01*
X153715287Y-101749996D01*
X153715287Y-101750002D01*
X153334461Y-101750002D01*
X153334461Y-101750001D01*
X153334461Y-101749998D01*
X153319508Y-101636417D01*
X153205925Y-101750000D01*
X152953980Y-101750000D01*
X152946095Y-101685064D01*
X152896306Y-101612932D01*
X152818698Y-101572200D01*
X152753285Y-101572200D01*
X152689773Y-101587854D01*
X152624168Y-101645975D01*
X152593088Y-101727927D01*
X152321749Y-101727927D01*
X152230238Y-101636416D01*
X152230238Y-101636417D01*
X152215287Y-101749996D01*
X152215287Y-101750002D01*
X151834461Y-101750002D01*
X151834461Y-101750001D01*
X151834461Y-101749998D01*
X151819508Y-101636417D01*
X151705926Y-101750000D01*
X151453980Y-101750000D01*
X151446095Y-101685064D01*
X151396306Y-101612932D01*
X151318698Y-101572200D01*
X151253285Y-101572200D01*
X151189773Y-101587854D01*
X151124168Y-101645975D01*
X151093088Y-101727927D01*
X150821749Y-101727927D01*
X150730238Y-101636416D01*
X150730238Y-101636417D01*
X150715287Y-101749996D01*
X150715287Y-101750002D01*
X137631500Y-101750002D01*
X137631500Y-101517815D01*
X172152315Y-101517815D01*
X172274999Y-101533968D01*
X172275001Y-101533968D01*
X172397684Y-101517815D01*
X173652315Y-101517815D01*
X173774999Y-101533968D01*
X173775001Y-101533968D01*
X173897684Y-101517815D01*
X175152315Y-101517815D01*
X175274999Y-101533968D01*
X175275001Y-101533968D01*
X175397684Y-101517815D01*
X175397684Y-101517814D01*
X175379872Y-101500002D01*
X176641048Y-101500002D01*
X176659832Y-101618604D01*
X176659833Y-101618607D01*
X176659834Y-101618609D01*
X176714352Y-101725607D01*
X176714353Y-101725608D01*
X176714356Y-101725612D01*
X176799261Y-101810517D01*
X176799265Y-101810520D01*
X176799267Y-101810522D01*
X176906265Y-101865040D01*
X176906267Y-101865040D01*
X176906269Y-101865041D01*
X177024872Y-101883826D01*
X177024874Y-101883826D01*
X177024876Y-101883826D01*
X177143478Y-101865041D01*
X177143478Y-101865040D01*
X177143483Y-101865040D01*
X177250481Y-101810522D01*
X177335396Y-101725607D01*
X177389914Y-101618609D01*
X177403320Y-101533968D01*
X177408700Y-101500002D01*
X177408700Y-101499997D01*
X177389915Y-101381395D01*
X177389914Y-101381393D01*
X177389914Y-101381391D01*
X177335396Y-101274393D01*
X177335394Y-101274391D01*
X177335391Y-101274387D01*
X177250486Y-101189482D01*
X177250482Y-101189479D01*
X177250481Y-101189478D01*
X177143483Y-101134960D01*
X177143481Y-101134959D01*
X177143478Y-101134958D01*
X177024876Y-101116174D01*
X177024872Y-101116174D01*
X176906269Y-101134958D01*
X176906265Y-101134959D01*
X176906265Y-101134960D01*
X176856097Y-101160522D01*
X176799265Y-101189479D01*
X176799261Y-101189482D01*
X176714356Y-101274387D01*
X176714353Y-101274391D01*
X176659832Y-101381395D01*
X176641048Y-101499997D01*
X176641048Y-101500002D01*
X175379872Y-101500002D01*
X175275001Y-101395131D01*
X175152315Y-101517815D01*
X173897684Y-101517815D01*
X173897684Y-101517814D01*
X173775001Y-101395131D01*
X173652315Y-101517815D01*
X172397684Y-101517815D01*
X172397684Y-101517814D01*
X172275001Y-101395131D01*
X172152315Y-101517815D01*
X137631500Y-101517815D01*
X137631500Y-100850002D01*
X143841048Y-100850002D01*
X143859832Y-100968604D01*
X143859833Y-100968607D01*
X143859834Y-100968609D01*
X143903845Y-101054985D01*
X143914353Y-101075608D01*
X143914356Y-101075612D01*
X143999261Y-101160517D01*
X143999265Y-101160520D01*
X143999267Y-101160522D01*
X144106265Y-101215040D01*
X144106267Y-101215040D01*
X144106269Y-101215041D01*
X144224872Y-101233826D01*
X144224874Y-101233826D01*
X144224876Y-101233826D01*
X144343478Y-101215041D01*
X144343478Y-101215040D01*
X144343483Y-101215040D01*
X144362473Y-101205364D01*
X151161290Y-101205364D01*
X151274873Y-101318947D01*
X151388456Y-101205364D01*
X152661290Y-101205364D01*
X152774873Y-101318947D01*
X152888456Y-101205364D01*
X154161290Y-101205364D01*
X154274873Y-101318947D01*
X154388456Y-101205364D01*
X154274877Y-101190413D01*
X154274870Y-101190413D01*
X154161291Y-101205364D01*
X154161290Y-101205364D01*
X152888456Y-101205364D01*
X152774877Y-101190413D01*
X152774870Y-101190413D01*
X152661291Y-101205364D01*
X152661290Y-101205364D01*
X151388456Y-101205364D01*
X151274877Y-101190413D01*
X151274870Y-101190413D01*
X151161291Y-101205364D01*
X151161290Y-101205364D01*
X144362473Y-101205364D01*
X144450481Y-101160522D01*
X144535396Y-101075607D01*
X144589914Y-100968609D01*
X144593651Y-100945015D01*
X144608700Y-100850002D01*
X144608700Y-100849997D01*
X144599931Y-100794634D01*
X151161290Y-100794634D01*
X151274873Y-100809587D01*
X151274875Y-100809587D01*
X151388456Y-100794634D01*
X152661290Y-100794634D01*
X152774873Y-100809587D01*
X152774875Y-100809587D01*
X152888456Y-100794634D01*
X154161290Y-100794634D01*
X154274873Y-100809587D01*
X154274875Y-100809587D01*
X154299827Y-100806302D01*
X156391048Y-100806302D01*
X156409832Y-100924904D01*
X156409833Y-100924907D01*
X156409834Y-100924909D01*
X156457693Y-101018837D01*
X156464353Y-101031908D01*
X156464356Y-101031912D01*
X156549261Y-101116817D01*
X156549265Y-101116820D01*
X156549267Y-101116822D01*
X156656265Y-101171340D01*
X156656267Y-101171340D01*
X156656269Y-101171341D01*
X156774872Y-101190126D01*
X156774874Y-101190126D01*
X156774876Y-101190126D01*
X156893478Y-101171341D01*
X156893478Y-101171340D01*
X156893483Y-101171340D01*
X157000481Y-101116822D01*
X157085396Y-101031907D01*
X157101653Y-101000000D01*
X171741031Y-101000000D01*
X171757184Y-101122683D01*
X171861031Y-101018837D01*
X172143985Y-101018837D01*
X172174967Y-101086679D01*
X172237709Y-101127000D01*
X172293261Y-101127000D01*
X172346560Y-101111350D01*
X172395401Y-101054985D01*
X172403307Y-101000001D01*
X172670131Y-101000001D01*
X172792814Y-101122684D01*
X172792815Y-101122684D01*
X172808968Y-101000000D01*
X173241032Y-101000000D01*
X173257184Y-101122683D01*
X173361031Y-101018837D01*
X173643985Y-101018837D01*
X173674967Y-101086679D01*
X173737709Y-101127000D01*
X173793261Y-101127000D01*
X173846560Y-101111350D01*
X173895401Y-101054985D01*
X173903307Y-101000001D01*
X174170131Y-101000001D01*
X174292814Y-101122684D01*
X174292815Y-101122684D01*
X174308968Y-101000000D01*
X174741032Y-101000000D01*
X174757184Y-101122683D01*
X174861031Y-101018837D01*
X175143985Y-101018837D01*
X175174967Y-101086679D01*
X175237709Y-101127000D01*
X175293261Y-101127000D01*
X175346560Y-101111350D01*
X175395401Y-101054985D01*
X175403307Y-101000001D01*
X175670131Y-101000001D01*
X175792814Y-101122684D01*
X175792815Y-101122684D01*
X175808968Y-101000000D01*
X175808968Y-100999999D01*
X175792815Y-100877315D01*
X175670131Y-101000000D01*
X175670131Y-101000001D01*
X175403307Y-101000001D01*
X175406015Y-100981163D01*
X175375033Y-100913321D01*
X175312291Y-100873000D01*
X175256739Y-100873000D01*
X175203440Y-100888650D01*
X175154599Y-100945015D01*
X175143985Y-101018837D01*
X174861031Y-101018837D01*
X174879869Y-100999999D01*
X174757184Y-100877314D01*
X174741032Y-101000000D01*
X174308968Y-101000000D01*
X174308968Y-100999999D01*
X174292815Y-100877315D01*
X174170131Y-101000000D01*
X174170131Y-101000001D01*
X173903307Y-101000001D01*
X173906015Y-100981163D01*
X173875033Y-100913321D01*
X173812291Y-100873000D01*
X173756739Y-100873000D01*
X173703440Y-100888650D01*
X173654599Y-100945015D01*
X173643985Y-101018837D01*
X173361031Y-101018837D01*
X173379869Y-100999999D01*
X173257184Y-100877314D01*
X173241032Y-101000000D01*
X172808968Y-101000000D01*
X172808968Y-100999999D01*
X172792815Y-100877315D01*
X172670131Y-101000000D01*
X172670131Y-101000001D01*
X172403307Y-101000001D01*
X172406015Y-100981163D01*
X172375033Y-100913321D01*
X172312291Y-100873000D01*
X172256739Y-100873000D01*
X172203440Y-100888650D01*
X172154599Y-100945015D01*
X172143985Y-101018837D01*
X171861031Y-101018837D01*
X171879869Y-100999999D01*
X171757184Y-100877314D01*
X171741031Y-101000000D01*
X157101653Y-101000000D01*
X157139914Y-100924909D01*
X157139915Y-100924904D01*
X157158700Y-100806302D01*
X157158700Y-100806297D01*
X157139915Y-100687695D01*
X157139914Y-100687693D01*
X157139914Y-100687691D01*
X157085396Y-100580693D01*
X157085394Y-100580691D01*
X157085391Y-100580687D01*
X157000486Y-100495782D01*
X157000482Y-100495779D01*
X157000481Y-100495778D01*
X156973801Y-100482184D01*
X172152314Y-100482184D01*
X172274999Y-100604868D01*
X172397683Y-100482184D01*
X173652314Y-100482184D01*
X173774999Y-100604868D01*
X173897683Y-100482184D01*
X175152314Y-100482184D01*
X175274999Y-100604868D01*
X175397683Y-100482184D01*
X175275001Y-100466032D01*
X175275000Y-100466032D01*
X175152314Y-100482184D01*
X173897683Y-100482184D01*
X173775001Y-100466032D01*
X173775000Y-100466032D01*
X173652314Y-100482184D01*
X172397683Y-100482184D01*
X172275001Y-100466032D01*
X172275000Y-100466032D01*
X172152314Y-100482184D01*
X156973801Y-100482184D01*
X156893483Y-100441260D01*
X156893481Y-100441259D01*
X156893478Y-100441258D01*
X156774876Y-100422474D01*
X156774872Y-100422474D01*
X156656269Y-100441258D01*
X156549265Y-100495779D01*
X156549261Y-100495782D01*
X156464356Y-100580687D01*
X156464353Y-100580691D01*
X156409832Y-100687695D01*
X156391048Y-100806297D01*
X156391048Y-100806302D01*
X154299827Y-100806302D01*
X154388456Y-100794634D01*
X154274875Y-100681052D01*
X154161290Y-100794634D01*
X152888456Y-100794634D01*
X152774875Y-100681052D01*
X152661290Y-100794634D01*
X151388456Y-100794634D01*
X151274875Y-100681052D01*
X151161290Y-100794634D01*
X144599931Y-100794634D01*
X144589915Y-100731395D01*
X144589914Y-100731393D01*
X144589914Y-100731391D01*
X144535396Y-100624393D01*
X144535394Y-100624391D01*
X144535391Y-100624387D01*
X144450486Y-100539482D01*
X144450482Y-100539479D01*
X144450481Y-100539478D01*
X144343483Y-100484960D01*
X144343481Y-100484959D01*
X144343478Y-100484958D01*
X144224876Y-100466174D01*
X144224872Y-100466174D01*
X144106269Y-100484958D01*
X143999265Y-100539479D01*
X143999261Y-100539482D01*
X143914356Y-100624387D01*
X143914353Y-100624391D01*
X143859832Y-100731395D01*
X143841048Y-100849997D01*
X143841048Y-100850002D01*
X137631500Y-100850002D01*
X137631500Y-100000002D01*
X142616174Y-100000002D01*
X142634958Y-100118604D01*
X142634959Y-100118607D01*
X142634960Y-100118609D01*
X142689478Y-100225607D01*
X142689479Y-100225608D01*
X142689482Y-100225612D01*
X142774387Y-100310517D01*
X142774391Y-100310520D01*
X142774393Y-100310522D01*
X142881391Y-100365040D01*
X142881393Y-100365040D01*
X142881395Y-100365041D01*
X142999998Y-100383826D01*
X143000000Y-100383826D01*
X143000002Y-100383826D01*
X143118604Y-100365041D01*
X143118604Y-100365040D01*
X143118609Y-100365040D01*
X143225607Y-100310522D01*
X143286127Y-100250002D01*
X150715287Y-100250002D01*
X150730238Y-100363581D01*
X150730238Y-100363582D01*
X150843821Y-100249999D01*
X150821749Y-100227927D01*
X151093088Y-100227927D01*
X151103653Y-100314936D01*
X151153442Y-100387068D01*
X151231050Y-100427800D01*
X151296463Y-100427800D01*
X151359975Y-100412146D01*
X151425580Y-100354025D01*
X151456660Y-100272073D01*
X151453980Y-100250000D01*
X151705926Y-100250000D01*
X151819508Y-100363582D01*
X151834461Y-100250002D01*
X152215287Y-100250002D01*
X152230238Y-100363581D01*
X152230238Y-100363582D01*
X152343821Y-100249999D01*
X152321749Y-100227927D01*
X152593088Y-100227927D01*
X152603653Y-100314936D01*
X152653442Y-100387068D01*
X152731050Y-100427800D01*
X152796463Y-100427800D01*
X152859975Y-100412146D01*
X152925580Y-100354025D01*
X152956660Y-100272073D01*
X152953980Y-100250000D01*
X153205926Y-100250000D01*
X153319508Y-100363582D01*
X153334461Y-100250002D01*
X153715287Y-100250002D01*
X153730238Y-100363581D01*
X153730238Y-100363582D01*
X153843821Y-100249999D01*
X153821749Y-100227927D01*
X154093088Y-100227927D01*
X154103653Y-100314936D01*
X154153442Y-100387068D01*
X154231050Y-100427800D01*
X154296463Y-100427800D01*
X154359975Y-100412146D01*
X154425580Y-100354025D01*
X154456660Y-100272073D01*
X154453980Y-100250000D01*
X154705926Y-100250000D01*
X154819508Y-100363582D01*
X154834461Y-100250001D01*
X154834461Y-100249998D01*
X154819508Y-100136417D01*
X154705926Y-100250000D01*
X154453980Y-100250000D01*
X154446095Y-100185064D01*
X154396306Y-100112932D01*
X154318698Y-100072200D01*
X154253285Y-100072200D01*
X154189773Y-100087854D01*
X154124168Y-100145975D01*
X154093088Y-100227927D01*
X153821749Y-100227927D01*
X153730238Y-100136416D01*
X153730238Y-100136417D01*
X153715287Y-100249996D01*
X153715287Y-100250002D01*
X153334461Y-100250002D01*
X153334461Y-100250001D01*
X153334461Y-100249998D01*
X153319508Y-100136417D01*
X153205926Y-100250000D01*
X152953980Y-100250000D01*
X152946095Y-100185064D01*
X152896306Y-100112932D01*
X152818698Y-100072200D01*
X152753285Y-100072200D01*
X152689773Y-100087854D01*
X152624168Y-100145975D01*
X152593088Y-100227927D01*
X152321749Y-100227927D01*
X152230238Y-100136416D01*
X152230238Y-100136417D01*
X152215287Y-100249996D01*
X152215287Y-100250002D01*
X151834461Y-100250002D01*
X151834461Y-100250001D01*
X151834461Y-100249998D01*
X151819508Y-100136417D01*
X151705926Y-100250000D01*
X151453980Y-100250000D01*
X151446095Y-100185064D01*
X151396306Y-100112932D01*
X151318698Y-100072200D01*
X151253285Y-100072200D01*
X151189773Y-100087854D01*
X151124168Y-100145975D01*
X151093088Y-100227927D01*
X150821749Y-100227927D01*
X150730238Y-100136416D01*
X150730238Y-100136417D01*
X150715287Y-100249996D01*
X150715287Y-100250002D01*
X143286127Y-100250002D01*
X143310522Y-100225607D01*
X143365040Y-100118609D01*
X143374240Y-100060522D01*
X143383826Y-100000002D01*
X143383826Y-99999997D01*
X143365041Y-99881395D01*
X143365040Y-99881393D01*
X143365040Y-99881391D01*
X143310522Y-99774393D01*
X143310520Y-99774391D01*
X143310517Y-99774387D01*
X143225612Y-99689482D01*
X143225608Y-99689479D01*
X143225607Y-99689478D01*
X143118609Y-99634960D01*
X143118607Y-99634959D01*
X143118604Y-99634958D01*
X143000002Y-99616174D01*
X142999998Y-99616174D01*
X142881395Y-99634958D01*
X142881391Y-99634959D01*
X142881391Y-99634960D01*
X142810059Y-99671305D01*
X142774391Y-99689479D01*
X142774387Y-99689482D01*
X142689482Y-99774387D01*
X142689479Y-99774391D01*
X142634958Y-99881395D01*
X142616174Y-99999997D01*
X142616174Y-100000002D01*
X137631500Y-100000002D01*
X137631500Y-99500002D01*
X145866174Y-99500002D01*
X145884958Y-99618604D01*
X145884959Y-99618607D01*
X145884960Y-99618609D01*
X145933564Y-99714000D01*
X145939479Y-99725608D01*
X145939482Y-99725612D01*
X146024387Y-99810517D01*
X146024391Y-99810520D01*
X146024393Y-99810522D01*
X146131391Y-99865040D01*
X146131393Y-99865040D01*
X146131395Y-99865041D01*
X146249998Y-99883826D01*
X146250000Y-99883826D01*
X146250002Y-99883826D01*
X146368604Y-99865041D01*
X146368604Y-99865040D01*
X146368609Y-99865040D01*
X146475607Y-99810522D01*
X146560522Y-99725607D01*
X146615040Y-99618609D01*
X146618296Y-99598054D01*
X146633826Y-99500002D01*
X146633826Y-99499997D01*
X146615041Y-99381395D01*
X146615040Y-99381393D01*
X146615040Y-99381391D01*
X146560522Y-99274393D01*
X146560520Y-99274391D01*
X146560517Y-99274387D01*
X146536132Y-99250002D01*
X148141048Y-99250002D01*
X148159832Y-99368604D01*
X148159833Y-99368607D01*
X148159834Y-99368609D01*
X148198765Y-99445015D01*
X148214353Y-99475608D01*
X148214356Y-99475612D01*
X148299261Y-99560517D01*
X148299265Y-99560520D01*
X148299267Y-99560522D01*
X148406265Y-99615040D01*
X148406267Y-99615040D01*
X148406269Y-99615041D01*
X148534513Y-99635353D01*
X148533967Y-99638794D01*
X148584087Y-99653511D01*
X148629842Y-99706315D01*
X148637324Y-99740708D01*
X148639521Y-99740361D01*
X148659832Y-99868604D01*
X148659833Y-99868607D01*
X148659834Y-99868609D01*
X148673348Y-99895131D01*
X148714353Y-99975608D01*
X148714356Y-99975612D01*
X148799261Y-100060517D01*
X148799265Y-100060520D01*
X148799267Y-100060522D01*
X148906265Y-100115040D01*
X148906267Y-100115040D01*
X148906269Y-100115041D01*
X149024872Y-100133826D01*
X149024874Y-100133826D01*
X149024876Y-100133826D01*
X149143478Y-100115041D01*
X149143478Y-100115040D01*
X149143483Y-100115040D01*
X149250481Y-100060522D01*
X149293188Y-100017815D01*
X172152315Y-100017815D01*
X172274999Y-100033968D01*
X172275001Y-100033968D01*
X172397684Y-100017815D01*
X173652315Y-100017815D01*
X173774999Y-100033968D01*
X173775001Y-100033968D01*
X173897684Y-100017815D01*
X175152315Y-100017815D01*
X175274999Y-100033968D01*
X175275001Y-100033968D01*
X175397684Y-100017815D01*
X175397684Y-100017814D01*
X175275001Y-99895131D01*
X175152315Y-100017815D01*
X173897684Y-100017815D01*
X173897684Y-100017814D01*
X173775001Y-99895131D01*
X173652315Y-100017815D01*
X172397684Y-100017815D01*
X172397684Y-100017814D01*
X172275001Y-99895131D01*
X172152315Y-100017815D01*
X149293188Y-100017815D01*
X149335396Y-99975607D01*
X149389914Y-99868609D01*
X149399114Y-99810522D01*
X149408700Y-99750002D01*
X149408700Y-99749997D01*
X149401631Y-99705364D01*
X151161290Y-99705364D01*
X151274873Y-99818947D01*
X151388456Y-99705364D01*
X152661290Y-99705364D01*
X152774873Y-99818947D01*
X152888456Y-99705364D01*
X154161290Y-99705364D01*
X154274873Y-99818947D01*
X154388456Y-99705364D01*
X154274877Y-99690413D01*
X154274870Y-99690413D01*
X154161291Y-99705364D01*
X154161290Y-99705364D01*
X152888456Y-99705364D01*
X152774877Y-99690413D01*
X152774870Y-99690413D01*
X152661291Y-99705364D01*
X152661290Y-99705364D01*
X151388456Y-99705364D01*
X151274877Y-99690413D01*
X151274870Y-99690413D01*
X151161291Y-99705364D01*
X151161290Y-99705364D01*
X149401631Y-99705364D01*
X149389915Y-99631395D01*
X149389914Y-99631393D01*
X149389914Y-99631391D01*
X149335396Y-99524393D01*
X149335394Y-99524391D01*
X149335391Y-99524387D01*
X149311004Y-99500000D01*
X171741032Y-99500000D01*
X171757184Y-99622683D01*
X171861031Y-99518837D01*
X172143985Y-99518837D01*
X172174967Y-99586679D01*
X172237709Y-99627000D01*
X172293261Y-99627000D01*
X172346560Y-99611350D01*
X172395401Y-99554985D01*
X172403307Y-99500001D01*
X172670131Y-99500001D01*
X172792814Y-99622684D01*
X172792815Y-99622684D01*
X172808968Y-99500000D01*
X173241031Y-99500000D01*
X173257184Y-99622683D01*
X173361031Y-99518837D01*
X173643985Y-99518837D01*
X173674967Y-99586679D01*
X173737709Y-99627000D01*
X173793261Y-99627000D01*
X173846560Y-99611350D01*
X173895401Y-99554985D01*
X173903307Y-99500001D01*
X174170131Y-99500001D01*
X174292814Y-99622684D01*
X174292815Y-99622684D01*
X174308968Y-99500000D01*
X174741031Y-99500000D01*
X174757184Y-99622683D01*
X174861031Y-99518837D01*
X175143985Y-99518837D01*
X175174967Y-99586679D01*
X175237709Y-99627000D01*
X175293261Y-99627000D01*
X175346560Y-99611350D01*
X175395401Y-99554985D01*
X175403307Y-99500001D01*
X175670131Y-99500001D01*
X175792814Y-99622684D01*
X175792815Y-99622684D01*
X175808968Y-99500000D01*
X175808968Y-99499999D01*
X175792815Y-99377315D01*
X175670131Y-99500000D01*
X175670131Y-99500001D01*
X175403307Y-99500001D01*
X175406015Y-99481163D01*
X175375033Y-99413321D01*
X175312291Y-99373000D01*
X175256739Y-99373000D01*
X175203440Y-99388650D01*
X175154599Y-99445015D01*
X175143985Y-99518837D01*
X174861031Y-99518837D01*
X174879869Y-99499999D01*
X174757184Y-99377314D01*
X174741031Y-99500000D01*
X174308968Y-99500000D01*
X174308968Y-99499999D01*
X174292815Y-99377315D01*
X174170131Y-99500000D01*
X174170131Y-99500001D01*
X173903307Y-99500001D01*
X173906015Y-99481163D01*
X173875033Y-99413321D01*
X173812291Y-99373000D01*
X173756739Y-99373000D01*
X173703440Y-99388650D01*
X173654599Y-99445015D01*
X173643985Y-99518837D01*
X173361031Y-99518837D01*
X173379869Y-99499999D01*
X173257184Y-99377314D01*
X173241031Y-99500000D01*
X172808968Y-99500000D01*
X172808968Y-99499999D01*
X172792815Y-99377315D01*
X172670131Y-99500000D01*
X172670131Y-99500001D01*
X172403307Y-99500001D01*
X172406015Y-99481163D01*
X172375033Y-99413321D01*
X172312291Y-99373000D01*
X172256739Y-99373000D01*
X172203440Y-99388650D01*
X172154599Y-99445015D01*
X172143985Y-99518837D01*
X171861031Y-99518837D01*
X171879869Y-99499999D01*
X171757184Y-99377314D01*
X171741032Y-99500000D01*
X149311004Y-99500000D01*
X149250486Y-99439482D01*
X149250482Y-99439479D01*
X149250481Y-99439478D01*
X149143483Y-99384960D01*
X149143481Y-99384959D01*
X149143478Y-99384958D01*
X149015235Y-99364647D01*
X149015780Y-99361205D01*
X148965661Y-99346489D01*
X148920728Y-99294634D01*
X151161290Y-99294634D01*
X151274873Y-99309587D01*
X151274875Y-99309587D01*
X151388456Y-99294634D01*
X152661290Y-99294634D01*
X152774873Y-99309587D01*
X152774875Y-99309587D01*
X152888456Y-99294634D01*
X154161290Y-99294634D01*
X154274873Y-99309587D01*
X154274875Y-99309587D01*
X154388456Y-99294634D01*
X154274875Y-99181052D01*
X154161290Y-99294634D01*
X152888456Y-99294634D01*
X152774875Y-99181052D01*
X152661290Y-99294634D01*
X151388456Y-99294634D01*
X151274875Y-99181052D01*
X151161290Y-99294634D01*
X148920728Y-99294634D01*
X148919906Y-99293685D01*
X148912423Y-99259291D01*
X148910227Y-99259639D01*
X148889915Y-99131395D01*
X148889914Y-99131393D01*
X148889914Y-99131391D01*
X148868744Y-99089843D01*
X148855849Y-99021176D01*
X148871675Y-98982184D01*
X172152314Y-98982184D01*
X172274999Y-99104868D01*
X172397683Y-98982184D01*
X173652314Y-98982184D01*
X173774999Y-99104868D01*
X173897683Y-98982184D01*
X175152314Y-98982184D01*
X175274999Y-99104868D01*
X175397683Y-98982184D01*
X175275001Y-98966032D01*
X175275000Y-98966032D01*
X175152314Y-98982184D01*
X173897683Y-98982184D01*
X173775001Y-98966032D01*
X173775000Y-98966032D01*
X173652314Y-98982184D01*
X172397683Y-98982184D01*
X172275001Y-98966032D01*
X172275000Y-98966032D01*
X172152314Y-98982184D01*
X148871675Y-98982184D01*
X148882125Y-98956436D01*
X148939232Y-98916179D01*
X148998628Y-98911078D01*
X149024186Y-98915126D01*
X149024188Y-98915126D01*
X149024190Y-98915126D01*
X149142792Y-98896341D01*
X149142792Y-98896340D01*
X149142797Y-98896340D01*
X149249795Y-98841822D01*
X149334710Y-98756907D01*
X149338228Y-98750002D01*
X150715287Y-98750002D01*
X150730238Y-98863581D01*
X150730238Y-98863582D01*
X150843821Y-98749999D01*
X150821749Y-98727927D01*
X151093088Y-98727927D01*
X151103653Y-98814936D01*
X151153442Y-98887068D01*
X151231050Y-98927800D01*
X151296463Y-98927800D01*
X151359975Y-98912146D01*
X151425580Y-98854025D01*
X151456660Y-98772073D01*
X151453980Y-98750000D01*
X151705926Y-98750000D01*
X151819508Y-98863582D01*
X151834461Y-98750002D01*
X152215287Y-98750002D01*
X152230238Y-98863581D01*
X152230238Y-98863582D01*
X152343821Y-98749999D01*
X152321749Y-98727927D01*
X152593088Y-98727927D01*
X152603653Y-98814936D01*
X152653442Y-98887068D01*
X152731050Y-98927800D01*
X152796463Y-98927800D01*
X152859975Y-98912146D01*
X152925580Y-98854025D01*
X152956660Y-98772073D01*
X152953980Y-98750000D01*
X153205926Y-98750000D01*
X153319508Y-98863582D01*
X153334461Y-98750002D01*
X153715287Y-98750002D01*
X153730238Y-98863581D01*
X153730238Y-98863582D01*
X153843821Y-98749999D01*
X153821749Y-98727927D01*
X154093088Y-98727927D01*
X154103653Y-98814936D01*
X154153442Y-98887068D01*
X154231050Y-98927800D01*
X154296463Y-98927800D01*
X154359975Y-98912146D01*
X154425580Y-98854025D01*
X154456660Y-98772073D01*
X154453980Y-98750000D01*
X154705926Y-98750000D01*
X154819508Y-98863582D01*
X154834461Y-98750001D01*
X154834461Y-98749998D01*
X154819508Y-98636417D01*
X154705926Y-98750000D01*
X154453980Y-98750000D01*
X154446095Y-98685064D01*
X154396306Y-98612932D01*
X154318698Y-98572200D01*
X154253285Y-98572200D01*
X154189773Y-98587854D01*
X154124168Y-98645975D01*
X154093088Y-98727927D01*
X153821749Y-98727927D01*
X153730238Y-98636416D01*
X153730238Y-98636417D01*
X153715287Y-98749996D01*
X153715287Y-98750002D01*
X153334461Y-98750002D01*
X153334461Y-98750001D01*
X153334461Y-98749998D01*
X153319508Y-98636417D01*
X153205926Y-98750000D01*
X152953980Y-98750000D01*
X152946095Y-98685064D01*
X152896306Y-98612932D01*
X152818698Y-98572200D01*
X152753285Y-98572200D01*
X152689773Y-98587854D01*
X152624168Y-98645975D01*
X152593088Y-98727927D01*
X152321749Y-98727927D01*
X152230238Y-98636416D01*
X152230238Y-98636417D01*
X152215287Y-98749996D01*
X152215287Y-98750002D01*
X151834461Y-98750002D01*
X151834461Y-98750001D01*
X151834461Y-98749998D01*
X151819508Y-98636417D01*
X151705926Y-98750000D01*
X151453980Y-98750000D01*
X151446095Y-98685064D01*
X151396306Y-98612932D01*
X151318698Y-98572200D01*
X151253285Y-98572200D01*
X151189773Y-98587854D01*
X151124168Y-98645975D01*
X151093088Y-98727927D01*
X150821749Y-98727927D01*
X150730238Y-98636416D01*
X150730238Y-98636417D01*
X150715287Y-98749996D01*
X150715287Y-98750002D01*
X149338228Y-98750002D01*
X149389228Y-98649909D01*
X149395085Y-98612932D01*
X149408014Y-98531302D01*
X149408014Y-98531297D01*
X149405879Y-98517815D01*
X172152315Y-98517815D01*
X172274999Y-98533968D01*
X172275001Y-98533968D01*
X172397684Y-98517815D01*
X173652315Y-98517815D01*
X173774999Y-98533968D01*
X173775001Y-98533968D01*
X173897684Y-98517815D01*
X175152315Y-98517815D01*
X175274999Y-98533968D01*
X175275001Y-98533968D01*
X175397684Y-98517815D01*
X175397684Y-98517814D01*
X175275001Y-98395131D01*
X175152315Y-98517815D01*
X173897684Y-98517815D01*
X173897684Y-98517814D01*
X173775001Y-98395131D01*
X173652315Y-98517815D01*
X172397684Y-98517815D01*
X172397684Y-98517814D01*
X172275001Y-98395131D01*
X172152315Y-98517815D01*
X149405879Y-98517815D01*
X149389229Y-98412695D01*
X149389228Y-98412693D01*
X149389228Y-98412691D01*
X149334710Y-98305693D01*
X149334708Y-98305691D01*
X149334705Y-98305687D01*
X149249800Y-98220782D01*
X149249796Y-98220779D01*
X149249795Y-98220778D01*
X149219543Y-98205364D01*
X151161290Y-98205364D01*
X151274873Y-98318947D01*
X151388456Y-98205364D01*
X152661290Y-98205364D01*
X152774873Y-98318947D01*
X152888456Y-98205364D01*
X154161290Y-98205364D01*
X154274873Y-98318947D01*
X154388456Y-98205364D01*
X154274877Y-98190413D01*
X154274870Y-98190413D01*
X154161291Y-98205364D01*
X154161290Y-98205364D01*
X152888456Y-98205364D01*
X152774877Y-98190413D01*
X152774870Y-98190413D01*
X152661291Y-98205364D01*
X152661290Y-98205364D01*
X151388456Y-98205364D01*
X151274877Y-98190413D01*
X151274870Y-98190413D01*
X151161291Y-98205364D01*
X151161290Y-98205364D01*
X149219543Y-98205364D01*
X149142797Y-98166260D01*
X149142795Y-98166259D01*
X149142792Y-98166258D01*
X149024190Y-98147474D01*
X149024186Y-98147474D01*
X148905583Y-98166258D01*
X148798579Y-98220779D01*
X148798575Y-98220782D01*
X148713670Y-98305687D01*
X148713667Y-98305691D01*
X148659146Y-98412695D01*
X148640362Y-98531297D01*
X148640362Y-98531302D01*
X148659146Y-98649906D01*
X148680316Y-98691454D01*
X148693212Y-98760123D01*
X148666935Y-98824864D01*
X148609828Y-98865120D01*
X148550436Y-98870222D01*
X148524874Y-98866174D01*
X148524872Y-98866174D01*
X148406269Y-98884958D01*
X148299265Y-98939479D01*
X148299261Y-98939482D01*
X148214356Y-99024387D01*
X148214353Y-99024391D01*
X148159832Y-99131395D01*
X148141048Y-99249997D01*
X148141048Y-99250002D01*
X146536132Y-99250002D01*
X146475612Y-99189482D01*
X146475608Y-99189479D01*
X146475607Y-99189478D01*
X146368609Y-99134960D01*
X146368607Y-99134959D01*
X146368604Y-99134958D01*
X146250002Y-99116174D01*
X146249998Y-99116174D01*
X146131395Y-99134958D01*
X146024391Y-99189479D01*
X146024387Y-99189482D01*
X145939482Y-99274387D01*
X145939479Y-99274391D01*
X145884958Y-99381395D01*
X145866174Y-99499997D01*
X145866174Y-99500002D01*
X137631500Y-99500002D01*
X137631500Y-98000000D01*
X171741031Y-98000000D01*
X171757184Y-98122683D01*
X171861031Y-98018837D01*
X172143985Y-98018837D01*
X172174967Y-98086679D01*
X172237709Y-98127000D01*
X172293261Y-98127000D01*
X172346560Y-98111350D01*
X172395401Y-98054985D01*
X172403307Y-98000001D01*
X172670131Y-98000001D01*
X172792814Y-98122684D01*
X172792815Y-98122684D01*
X172808968Y-98000000D01*
X173241032Y-98000000D01*
X173257184Y-98122683D01*
X173361030Y-98018837D01*
X173643985Y-98018837D01*
X173674967Y-98086679D01*
X173737709Y-98127000D01*
X173793261Y-98127000D01*
X173846560Y-98111350D01*
X173895401Y-98054985D01*
X173903307Y-98000001D01*
X174170131Y-98000001D01*
X174292814Y-98122684D01*
X174292815Y-98122684D01*
X174308968Y-98000000D01*
X174741032Y-98000000D01*
X174757184Y-98122683D01*
X174861031Y-98018837D01*
X175143985Y-98018837D01*
X175174967Y-98086679D01*
X175237709Y-98127000D01*
X175293261Y-98127000D01*
X175346560Y-98111350D01*
X175395401Y-98054985D01*
X175403307Y-98000001D01*
X175670131Y-98000001D01*
X175792814Y-98122684D01*
X175792815Y-98122684D01*
X175808968Y-98000000D01*
X175808968Y-97999999D01*
X175792815Y-97877315D01*
X175670131Y-98000000D01*
X175670131Y-98000001D01*
X175403307Y-98000001D01*
X175406015Y-97981163D01*
X175375033Y-97913321D01*
X175312291Y-97873000D01*
X175256739Y-97873000D01*
X175203440Y-97888650D01*
X175154599Y-97945015D01*
X175143985Y-98018837D01*
X174861031Y-98018837D01*
X174879869Y-97999999D01*
X174757184Y-97877314D01*
X174741032Y-98000000D01*
X174308968Y-98000000D01*
X174308968Y-97999999D01*
X174292815Y-97877315D01*
X174170131Y-98000000D01*
X174170131Y-98000001D01*
X173903307Y-98000001D01*
X173906015Y-97981163D01*
X173875033Y-97913321D01*
X173812291Y-97873000D01*
X173756739Y-97873000D01*
X173703440Y-97888650D01*
X173654599Y-97945015D01*
X173643985Y-98018837D01*
X173361030Y-98018837D01*
X173379868Y-97999999D01*
X173257184Y-97877314D01*
X173241032Y-98000000D01*
X172808968Y-98000000D01*
X172808968Y-97999999D01*
X172792815Y-97877315D01*
X172670131Y-98000000D01*
X172670131Y-98000001D01*
X172403307Y-98000001D01*
X172406015Y-97981163D01*
X172375033Y-97913321D01*
X172312291Y-97873000D01*
X172256739Y-97873000D01*
X172203440Y-97888650D01*
X172154599Y-97945015D01*
X172143985Y-98018837D01*
X171861031Y-98018837D01*
X171879869Y-97999999D01*
X171757184Y-97877314D01*
X171741031Y-98000000D01*
X137631500Y-98000000D01*
X137631500Y-97250002D01*
X155141048Y-97250002D01*
X155159832Y-97368604D01*
X155159833Y-97368607D01*
X155159834Y-97368609D01*
X155214352Y-97475607D01*
X155214353Y-97475608D01*
X155214356Y-97475612D01*
X155299261Y-97560517D01*
X155299265Y-97560520D01*
X155299267Y-97560522D01*
X155406265Y-97615040D01*
X155406267Y-97615040D01*
X155406269Y-97615041D01*
X155524872Y-97633826D01*
X155524874Y-97633826D01*
X155524876Y-97633826D01*
X155643478Y-97615041D01*
X155643478Y-97615040D01*
X155643483Y-97615040D01*
X155750481Y-97560522D01*
X155828819Y-97482184D01*
X172152314Y-97482184D01*
X172274999Y-97604868D01*
X172397683Y-97482184D01*
X173652314Y-97482184D01*
X173774999Y-97604868D01*
X173897683Y-97482184D01*
X175152314Y-97482184D01*
X175274999Y-97604868D01*
X175397683Y-97482184D01*
X175275001Y-97466032D01*
X175275000Y-97466032D01*
X175152314Y-97482184D01*
X173897683Y-97482184D01*
X173775001Y-97466032D01*
X173775000Y-97466032D01*
X173652314Y-97482184D01*
X172397683Y-97482184D01*
X172275001Y-97466032D01*
X172275000Y-97466032D01*
X172152314Y-97482184D01*
X155828819Y-97482184D01*
X155835396Y-97475607D01*
X155889914Y-97368609D01*
X155890479Y-97365040D01*
X155908700Y-97250002D01*
X155908700Y-97249997D01*
X155889915Y-97131395D01*
X155889914Y-97131393D01*
X155889914Y-97131391D01*
X155835396Y-97024393D01*
X155835394Y-97024391D01*
X155835391Y-97024387D01*
X155811006Y-97000002D01*
X166391048Y-97000002D01*
X166409832Y-97118604D01*
X166409833Y-97118607D01*
X166409834Y-97118609D01*
X166464352Y-97225607D01*
X166464353Y-97225608D01*
X166464356Y-97225612D01*
X166549261Y-97310517D01*
X166549265Y-97310520D01*
X166549267Y-97310522D01*
X166656265Y-97365040D01*
X166656267Y-97365040D01*
X166656269Y-97365041D01*
X166774872Y-97383826D01*
X166774874Y-97383826D01*
X166774876Y-97383826D01*
X166893478Y-97365041D01*
X166893478Y-97365040D01*
X166893483Y-97365040D01*
X167000481Y-97310522D01*
X167085396Y-97225607D01*
X167139914Y-97118609D01*
X167140940Y-97112133D01*
X167158700Y-97000002D01*
X167158700Y-96999997D01*
X167139915Y-96881395D01*
X167139914Y-96881393D01*
X167139914Y-96881391D01*
X167085396Y-96774393D01*
X167085394Y-96774391D01*
X167085391Y-96774387D01*
X167000486Y-96689482D01*
X167000482Y-96689479D01*
X167000481Y-96689478D01*
X166893483Y-96634960D01*
X166893481Y-96634959D01*
X166893478Y-96634958D01*
X166774876Y-96616174D01*
X166774872Y-96616174D01*
X166656269Y-96634958D01*
X166549265Y-96689479D01*
X166549261Y-96689482D01*
X166464356Y-96774387D01*
X166464353Y-96774391D01*
X166409832Y-96881395D01*
X166391048Y-96999997D01*
X166391048Y-97000002D01*
X155811006Y-97000002D01*
X155750486Y-96939482D01*
X155750482Y-96939479D01*
X155750481Y-96939478D01*
X155643483Y-96884960D01*
X155643481Y-96884959D01*
X155643478Y-96884958D01*
X155524876Y-96866174D01*
X155524872Y-96866174D01*
X155406269Y-96884958D01*
X155299265Y-96939479D01*
X155299261Y-96939482D01*
X155214356Y-97024387D01*
X155214353Y-97024391D01*
X155214352Y-97024393D01*
X155164916Y-97121418D01*
X155159832Y-97131395D01*
X155141048Y-97249997D01*
X155141048Y-97250002D01*
X137631500Y-97250002D01*
X137631500Y-96500002D01*
X151891048Y-96500002D01*
X151909832Y-96618604D01*
X151909833Y-96618607D01*
X151909834Y-96618609D01*
X151964352Y-96725607D01*
X151964353Y-96725608D01*
X151964356Y-96725612D01*
X152049261Y-96810517D01*
X152049265Y-96810520D01*
X152049267Y-96810522D01*
X152156265Y-96865040D01*
X152156267Y-96865040D01*
X152156269Y-96865041D01*
X152274872Y-96883826D01*
X152274874Y-96883826D01*
X152274876Y-96883826D01*
X152393478Y-96865041D01*
X152393478Y-96865040D01*
X152393483Y-96865040D01*
X152500481Y-96810522D01*
X152585396Y-96725607D01*
X152639914Y-96618609D01*
X152643808Y-96594022D01*
X152652401Y-96539772D01*
X152682330Y-96476638D01*
X152741641Y-96439706D01*
X152811504Y-96440704D01*
X152869737Y-96479313D01*
X152897347Y-96539772D01*
X152909832Y-96618604D01*
X152909833Y-96618607D01*
X152909834Y-96618609D01*
X152964352Y-96725607D01*
X152964353Y-96725608D01*
X152964356Y-96725612D01*
X153049261Y-96810517D01*
X153049265Y-96810520D01*
X153049267Y-96810522D01*
X153156265Y-96865040D01*
X153156267Y-96865040D01*
X153156269Y-96865041D01*
X153274872Y-96883826D01*
X153274874Y-96883826D01*
X153274876Y-96883826D01*
X153393478Y-96865041D01*
X153393478Y-96865040D01*
X153393483Y-96865040D01*
X153500481Y-96810522D01*
X153585396Y-96725607D01*
X153639914Y-96618609D01*
X153643808Y-96594022D01*
X153658700Y-96500002D01*
X159391048Y-96500002D01*
X159409832Y-96618604D01*
X159409833Y-96618607D01*
X159409834Y-96618609D01*
X159464352Y-96725607D01*
X159464353Y-96725608D01*
X159464356Y-96725612D01*
X159549261Y-96810517D01*
X159549265Y-96810520D01*
X159549267Y-96810522D01*
X159656265Y-96865040D01*
X159656267Y-96865040D01*
X159656269Y-96865041D01*
X159774872Y-96883826D01*
X159774874Y-96883826D01*
X159774876Y-96883826D01*
X159893478Y-96865041D01*
X159893478Y-96865040D01*
X159893483Y-96865040D01*
X160000481Y-96810522D01*
X160085396Y-96725607D01*
X160139914Y-96618609D01*
X160143808Y-96594022D01*
X160158700Y-96500002D01*
X160158700Y-96499997D01*
X160139915Y-96381395D01*
X160139914Y-96381393D01*
X160139914Y-96381391D01*
X160085396Y-96274393D01*
X160085394Y-96274391D01*
X160085391Y-96274387D01*
X160061006Y-96250002D01*
X160391048Y-96250002D01*
X160409832Y-96368604D01*
X160409833Y-96368607D01*
X160409834Y-96368609D01*
X160451097Y-96449592D01*
X160464353Y-96475608D01*
X160464356Y-96475612D01*
X160549261Y-96560517D01*
X160549265Y-96560520D01*
X160549267Y-96560522D01*
X160656265Y-96615040D01*
X160656267Y-96615040D01*
X160656269Y-96615041D01*
X160774872Y-96633826D01*
X160774874Y-96633826D01*
X160774876Y-96633826D01*
X160893478Y-96615041D01*
X160893478Y-96615040D01*
X160893483Y-96615040D01*
X161000481Y-96560522D01*
X161085396Y-96475607D01*
X161139914Y-96368609D01*
X161143170Y-96348054D01*
X161158700Y-96250002D01*
X161158700Y-96249997D01*
X161139915Y-96131395D01*
X161139914Y-96131393D01*
X161139914Y-96131391D01*
X161085396Y-96024393D01*
X161085394Y-96024391D01*
X161085391Y-96024387D01*
X161000486Y-95939482D01*
X161000482Y-95939479D01*
X161000481Y-95939478D01*
X160893483Y-95884960D01*
X160893481Y-95884959D01*
X160893478Y-95884958D01*
X160774876Y-95866174D01*
X160774872Y-95866174D01*
X160656269Y-95884958D01*
X160549265Y-95939479D01*
X160549261Y-95939482D01*
X160464356Y-96024387D01*
X160464353Y-96024391D01*
X160409832Y-96131395D01*
X160391048Y-96249997D01*
X160391048Y-96250002D01*
X160061006Y-96250002D01*
X160000486Y-96189482D01*
X160000482Y-96189479D01*
X160000481Y-96189478D01*
X159893483Y-96134960D01*
X159893481Y-96134959D01*
X159893478Y-96134958D01*
X159774876Y-96116174D01*
X159774872Y-96116174D01*
X159656269Y-96134958D01*
X159549265Y-96189479D01*
X159549261Y-96189482D01*
X159464356Y-96274387D01*
X159464353Y-96274391D01*
X159409832Y-96381395D01*
X159391048Y-96499997D01*
X159391048Y-96500002D01*
X153658700Y-96500002D01*
X153658700Y-96499997D01*
X153639915Y-96381395D01*
X153639914Y-96381393D01*
X153639914Y-96381391D01*
X153585396Y-96274393D01*
X153585394Y-96274391D01*
X153585391Y-96274387D01*
X153500486Y-96189482D01*
X153500482Y-96189479D01*
X153500481Y-96189478D01*
X153393483Y-96134960D01*
X153393481Y-96134959D01*
X153393478Y-96134958D01*
X153265235Y-96114647D01*
X153265780Y-96111205D01*
X153215661Y-96096489D01*
X153169906Y-96043685D01*
X153162423Y-96009291D01*
X153160227Y-96009639D01*
X153139915Y-95881395D01*
X153139914Y-95881393D01*
X153139914Y-95881391D01*
X153085396Y-95774393D01*
X153085394Y-95774391D01*
X153085391Y-95774387D01*
X153000486Y-95689482D01*
X153000482Y-95689479D01*
X153000481Y-95689478D01*
X152893483Y-95634960D01*
X152893481Y-95634959D01*
X152893478Y-95634958D01*
X152774876Y-95616174D01*
X152774872Y-95616174D01*
X152656269Y-95634958D01*
X152549265Y-95689479D01*
X152549261Y-95689482D01*
X152464356Y-95774387D01*
X152464353Y-95774391D01*
X152409832Y-95881395D01*
X152389521Y-96009639D01*
X152386079Y-96009093D01*
X152371363Y-96059213D01*
X152318559Y-96104968D01*
X152284165Y-96112450D01*
X152284513Y-96114647D01*
X152156269Y-96134958D01*
X152049265Y-96189479D01*
X152049261Y-96189482D01*
X151964356Y-96274387D01*
X151964353Y-96274391D01*
X151909832Y-96381395D01*
X151891048Y-96499997D01*
X151891048Y-96500002D01*
X137631500Y-96500002D01*
X137631500Y-95500002D01*
X153391048Y-95500002D01*
X153409832Y-95618604D01*
X153409833Y-95618607D01*
X153409834Y-95618609D01*
X153464352Y-95725607D01*
X153464353Y-95725608D01*
X153464356Y-95725612D01*
X153549261Y-95810517D01*
X153549265Y-95810520D01*
X153549267Y-95810522D01*
X153656265Y-95865040D01*
X153656267Y-95865040D01*
X153656269Y-95865041D01*
X153774872Y-95883826D01*
X153774874Y-95883826D01*
X153774876Y-95883826D01*
X153893478Y-95865041D01*
X153893478Y-95865040D01*
X153893483Y-95865040D01*
X154000481Y-95810522D01*
X154085396Y-95725607D01*
X154139914Y-95618609D01*
X154151907Y-95542892D01*
X154158700Y-95500002D01*
X158891048Y-95500002D01*
X158909832Y-95618604D01*
X158909833Y-95618607D01*
X158909834Y-95618609D01*
X158964352Y-95725607D01*
X158964353Y-95725608D01*
X158964356Y-95725612D01*
X159049261Y-95810517D01*
X159049265Y-95810520D01*
X159049267Y-95810522D01*
X159156265Y-95865040D01*
X159156267Y-95865040D01*
X159156269Y-95865041D01*
X159274872Y-95883826D01*
X159274874Y-95883826D01*
X159274876Y-95883826D01*
X159393478Y-95865041D01*
X159393478Y-95865040D01*
X159393483Y-95865040D01*
X159500481Y-95810522D01*
X159561001Y-95750002D01*
X165891048Y-95750002D01*
X165909832Y-95868604D01*
X165909833Y-95868607D01*
X165909834Y-95868609D01*
X165964352Y-95975607D01*
X165964353Y-95975608D01*
X165964356Y-95975612D01*
X166049261Y-96060517D01*
X166049265Y-96060520D01*
X166049267Y-96060522D01*
X166156265Y-96115040D01*
X166156267Y-96115040D01*
X166156269Y-96115041D01*
X166274872Y-96133826D01*
X166274874Y-96133826D01*
X166274876Y-96133826D01*
X166393478Y-96115041D01*
X166393478Y-96115040D01*
X166393483Y-96115040D01*
X166500481Y-96060522D01*
X166585396Y-95975607D01*
X166639914Y-95868609D01*
X166649114Y-95810522D01*
X166658700Y-95750002D01*
X166658700Y-95749997D01*
X166639915Y-95631395D01*
X166639914Y-95631393D01*
X166639914Y-95631391D01*
X166585396Y-95524393D01*
X166585394Y-95524391D01*
X166585391Y-95524387D01*
X166500486Y-95439482D01*
X166500482Y-95439479D01*
X166500481Y-95439478D01*
X166393483Y-95384960D01*
X166393481Y-95384959D01*
X166393478Y-95384958D01*
X166274876Y-95366174D01*
X166274872Y-95366174D01*
X166156269Y-95384958D01*
X166049265Y-95439479D01*
X166049261Y-95439482D01*
X165964356Y-95524387D01*
X165964353Y-95524391D01*
X165909832Y-95631395D01*
X165891048Y-95749997D01*
X165891048Y-95750002D01*
X159561001Y-95750002D01*
X159585396Y-95725607D01*
X159639914Y-95618609D01*
X159651907Y-95542892D01*
X159658700Y-95500002D01*
X159658700Y-95499997D01*
X159639915Y-95381395D01*
X159639914Y-95381393D01*
X159639914Y-95381391D01*
X159585396Y-95274393D01*
X159585394Y-95274391D01*
X159585391Y-95274387D01*
X159500486Y-95189482D01*
X159500482Y-95189479D01*
X159500481Y-95189478D01*
X159393483Y-95134960D01*
X159393481Y-95134959D01*
X159393478Y-95134958D01*
X159274876Y-95116174D01*
X159274872Y-95116174D01*
X159156269Y-95134958D01*
X159049265Y-95189479D01*
X159049261Y-95189482D01*
X158964356Y-95274387D01*
X158964353Y-95274391D01*
X158909832Y-95381395D01*
X158891048Y-95499997D01*
X158891048Y-95500002D01*
X154158700Y-95500002D01*
X154158700Y-95499997D01*
X154139915Y-95381395D01*
X154139914Y-95381393D01*
X154139914Y-95381391D01*
X154085396Y-95274393D01*
X154085394Y-95274391D01*
X154085391Y-95274387D01*
X154000486Y-95189482D01*
X154000482Y-95189479D01*
X154000481Y-95189478D01*
X153893483Y-95134960D01*
X153893481Y-95134959D01*
X153893478Y-95134958D01*
X153774876Y-95116174D01*
X153774872Y-95116174D01*
X153656269Y-95134958D01*
X153549265Y-95189479D01*
X153549261Y-95189482D01*
X153464356Y-95274387D01*
X153464353Y-95274391D01*
X153409832Y-95381395D01*
X153391048Y-95499997D01*
X153391048Y-95500002D01*
X137631500Y-95500002D01*
X137631500Y-94750002D01*
X161141048Y-94750002D01*
X161159832Y-94868604D01*
X161159833Y-94868607D01*
X161159834Y-94868609D01*
X161214352Y-94975607D01*
X161214353Y-94975608D01*
X161214356Y-94975612D01*
X161299261Y-95060517D01*
X161299265Y-95060520D01*
X161299267Y-95060522D01*
X161406265Y-95115040D01*
X161406267Y-95115040D01*
X161406269Y-95115041D01*
X161524872Y-95133826D01*
X161524874Y-95133826D01*
X161524876Y-95133826D01*
X161643478Y-95115041D01*
X161643478Y-95115040D01*
X161643483Y-95115040D01*
X161750481Y-95060522D01*
X161835396Y-94975607D01*
X161889914Y-94868609D01*
X161908700Y-94750000D01*
X161889914Y-94631391D01*
X161835396Y-94524393D01*
X161835394Y-94524391D01*
X161835391Y-94524387D01*
X161811004Y-94500000D01*
X181750000Y-94500000D01*
X181750000Y-100500000D01*
X186750000Y-100500000D01*
X186750000Y-94500000D01*
X181750000Y-94500000D01*
X161811004Y-94500000D01*
X161750486Y-94439482D01*
X161750482Y-94439479D01*
X161750481Y-94439478D01*
X161643483Y-94384960D01*
X161643481Y-94384959D01*
X161643478Y-94384958D01*
X161524876Y-94366174D01*
X161524872Y-94366174D01*
X161406269Y-94384958D01*
X161299265Y-94439479D01*
X161299261Y-94439482D01*
X161214356Y-94524387D01*
X161214353Y-94524391D01*
X161159832Y-94631395D01*
X161141048Y-94749997D01*
X161141048Y-94750002D01*
X137631500Y-94750002D01*
X137631500Y-94250000D01*
X145000000Y-94250000D01*
X145000000Y-91250002D01*
X161391048Y-91250002D01*
X161409832Y-91368604D01*
X161409833Y-91368607D01*
X161409834Y-91368609D01*
X161464352Y-91475607D01*
X161464353Y-91475608D01*
X161464356Y-91475612D01*
X161549261Y-91560517D01*
X161549265Y-91560520D01*
X161549267Y-91560522D01*
X161656265Y-91615040D01*
X161656267Y-91615040D01*
X161656269Y-91615041D01*
X161774872Y-91633826D01*
X161774874Y-91633826D01*
X161774876Y-91633826D01*
X161893478Y-91615041D01*
X161893478Y-91615040D01*
X161893483Y-91615040D01*
X162000481Y-91560522D01*
X162085396Y-91475607D01*
X162139914Y-91368609D01*
X162158700Y-91250000D01*
X162151906Y-91207107D01*
X162139915Y-91131395D01*
X162139914Y-91131393D01*
X162139914Y-91131391D01*
X162085396Y-91024393D01*
X162085394Y-91024391D01*
X162085391Y-91024387D01*
X162000486Y-90939482D01*
X162000482Y-90939479D01*
X162000481Y-90939478D01*
X161893483Y-90884960D01*
X161893481Y-90884959D01*
X161893478Y-90884958D01*
X161774876Y-90866174D01*
X161774872Y-90866174D01*
X161656269Y-90884958D01*
X161549265Y-90939479D01*
X161549261Y-90939482D01*
X161464356Y-91024387D01*
X161464353Y-91024391D01*
X161409832Y-91131395D01*
X161391048Y-91249997D01*
X161391048Y-91250002D01*
X145000000Y-91250002D01*
X145000000Y-87131500D01*
X179500000Y-87131500D01*
X179500000Y-94250000D01*
G37*
G04 #@! TD.AperFunction*
M02*
