G04 #@! TF.GenerationSoftware,KiCad,Pcbnew,7.0.10*
G04 #@! TF.CreationDate,2024-02-03T12:14:10-05:00*
G04 #@! TF.ProjectId,openlst-hw,6f70656e-6c73-4742-9d68-772e6b696361,rev?*
G04 #@! TF.SameCoordinates,Original*
G04 #@! TF.FileFunction,Copper,L1,Top*
G04 #@! TF.FilePolarity,Positive*
%FSLAX46Y46*%
G04 Gerber Fmt 4.6, Leading zero omitted, Abs format (unit mm)*
G04 Created by KiCad (PCBNEW 7.0.10) date 2024-02-03 12:14:10*
%MOMM*%
%LPD*%
G01*
G04 APERTURE LIST*
G04 Aperture macros list*
%AMRoundRect*
0 Rectangle with rounded corners*
0 $1 Rounding radius*
0 $2 $3 $4 $5 $6 $7 $8 $9 X,Y pos of 4 corners*
0 Add a 4 corners polygon primitive as box body*
4,1,4,$2,$3,$4,$5,$6,$7,$8,$9,$2,$3,0*
0 Add four circle primitives for the rounded corners*
1,1,$1+$1,$2,$3*
1,1,$1+$1,$4,$5*
1,1,$1+$1,$6,$7*
1,1,$1+$1,$8,$9*
0 Add four rect primitives between the rounded corners*
20,1,$1+$1,$2,$3,$4,$5,0*
20,1,$1+$1,$4,$5,$6,$7,0*
20,1,$1+$1,$6,$7,$8,$9,0*
20,1,$1+$1,$8,$9,$2,$3,0*%
G04 Aperture macros list end*
G04 #@! TA.AperFunction,SMDPad,CuDef*
%ADD10RoundRect,0.225000X0.250000X-0.225000X0.250000X0.225000X-0.250000X0.225000X-0.250000X-0.225000X0*%
G04 #@! TD*
G04 #@! TA.AperFunction,SMDPad,CuDef*
%ADD11RoundRect,0.225000X-0.225000X-0.250000X0.225000X-0.250000X0.225000X0.250000X-0.225000X0.250000X0*%
G04 #@! TD*
G04 #@! TA.AperFunction,SMDPad,CuDef*
%ADD12RoundRect,0.140000X0.140000X0.170000X-0.140000X0.170000X-0.140000X-0.170000X0.140000X-0.170000X0*%
G04 #@! TD*
G04 #@! TA.AperFunction,SMDPad,CuDef*
%ADD13R,0.750000X0.280000*%
G04 #@! TD*
G04 #@! TA.AperFunction,SMDPad,CuDef*
%ADD14R,0.280000X0.750000*%
G04 #@! TD*
G04 #@! TA.AperFunction,ComponentPad*
%ADD15C,0.609600*%
G04 #@! TD*
G04 #@! TA.AperFunction,SMDPad,CuDef*
%ADD16R,4.400000X4.400000*%
G04 #@! TD*
G04 #@! TA.AperFunction,SMDPad,CuDef*
%ADD17RoundRect,0.218750X0.256250X-0.218750X0.256250X0.218750X-0.256250X0.218750X-0.256250X-0.218750X0*%
G04 #@! TD*
G04 #@! TA.AperFunction,SMDPad,CuDef*
%ADD18RoundRect,0.200000X0.275000X-0.200000X0.275000X0.200000X-0.275000X0.200000X-0.275000X-0.200000X0*%
G04 #@! TD*
G04 #@! TA.AperFunction,SMDPad,CuDef*
%ADD19RoundRect,0.200000X0.200000X0.275000X-0.200000X0.275000X-0.200000X-0.275000X0.200000X-0.275000X0*%
G04 #@! TD*
G04 #@! TA.AperFunction,SMDPad,CuDef*
%ADD20RoundRect,0.140000X-0.170000X0.140000X-0.170000X-0.140000X0.170000X-0.140000X0.170000X0.140000X0*%
G04 #@! TD*
G04 #@! TA.AperFunction,SMDPad,CuDef*
%ADD21RoundRect,0.225000X0.225000X0.250000X-0.225000X0.250000X-0.225000X-0.250000X0.225000X-0.250000X0*%
G04 #@! TD*
G04 #@! TA.AperFunction,SMDPad,CuDef*
%ADD22RoundRect,0.140000X-0.140000X-0.170000X0.140000X-0.170000X0.140000X0.170000X-0.140000X0.170000X0*%
G04 #@! TD*
G04 #@! TA.AperFunction,SMDPad,CuDef*
%ADD23RoundRect,0.200000X-0.275000X0.200000X-0.275000X-0.200000X0.275000X-0.200000X0.275000X0.200000X0*%
G04 #@! TD*
G04 #@! TA.AperFunction,SMDPad,CuDef*
%ADD24RoundRect,0.225000X-0.250000X0.225000X-0.250000X-0.225000X0.250000X-0.225000X0.250000X0.225000X0*%
G04 #@! TD*
G04 #@! TA.AperFunction,SMDPad,CuDef*
%ADD25RoundRect,0.140000X0.170000X-0.140000X0.170000X0.140000X-0.170000X0.140000X-0.170000X-0.140000X0*%
G04 #@! TD*
G04 #@! TA.AperFunction,SMDPad,CuDef*
%ADD26RoundRect,0.147500X0.147500X0.172500X-0.147500X0.172500X-0.147500X-0.172500X0.147500X-0.172500X0*%
G04 #@! TD*
G04 #@! TA.AperFunction,SMDPad,CuDef*
%ADD27R,0.800000X2.700000*%
G04 #@! TD*
G04 #@! TA.AperFunction,ComponentPad*
%ADD28C,0.800000*%
G04 #@! TD*
G04 #@! TA.AperFunction,ComponentPad*
%ADD29C,6.400000*%
G04 #@! TD*
G04 #@! TA.AperFunction,SMDPad,CuDef*
%ADD30RoundRect,0.218750X-0.256250X0.218750X-0.256250X-0.218750X0.256250X-0.218750X0.256250X0.218750X0*%
G04 #@! TD*
G04 #@! TA.AperFunction,ComponentPad*
%ADD31C,1.348000*%
G04 #@! TD*
G04 #@! TA.AperFunction,SMDPad,CuDef*
%ADD32RoundRect,0.100000X-0.712500X-0.100000X0.712500X-0.100000X0.712500X0.100000X-0.712500X0.100000X0*%
G04 #@! TD*
G04 #@! TA.AperFunction,SMDPad,CuDef*
%ADD33R,1.500000X1.600000*%
G04 #@! TD*
G04 #@! TA.AperFunction,SMDPad,CuDef*
%ADD34RoundRect,0.218750X-0.218750X-0.256250X0.218750X-0.256250X0.218750X0.256250X-0.218750X0.256250X0*%
G04 #@! TD*
G04 #@! TA.AperFunction,SMDPad,CuDef*
%ADD35R,0.550000X0.500000*%
G04 #@! TD*
G04 #@! TA.AperFunction,SMDPad,CuDef*
%ADD36R,0.550000X0.400000*%
G04 #@! TD*
G04 #@! TA.AperFunction,SMDPad,CuDef*
%ADD37R,0.400000X0.550000*%
G04 #@! TD*
G04 #@! TA.AperFunction,ComponentPad*
%ADD38C,0.558800*%
G04 #@! TD*
G04 #@! TA.AperFunction,SMDPad,CuDef*
%ADD39R,0.600000X3.500000*%
G04 #@! TD*
G04 #@! TA.AperFunction,SMDPad,CuDef*
%ADD40R,3.500000X0.600000*%
G04 #@! TD*
G04 #@! TA.AperFunction,SMDPad,CuDef*
%ADD41R,3.875000X3.875000*%
G04 #@! TD*
G04 #@! TA.AperFunction,SMDPad,CuDef*
%ADD42RoundRect,0.250000X0.700000X-0.275000X0.700000X0.275000X-0.700000X0.275000X-0.700000X-0.275000X0*%
G04 #@! TD*
G04 #@! TA.AperFunction,SMDPad,CuDef*
%ADD43R,1.700000X0.810000*%
G04 #@! TD*
G04 #@! TA.AperFunction,SMDPad,CuDef*
%ADD44R,1.050000X0.810000*%
G04 #@! TD*
G04 #@! TA.AperFunction,SMDPad,CuDef*
%ADD45RoundRect,0.150000X-0.587500X-0.150000X0.587500X-0.150000X0.587500X0.150000X-0.587500X0.150000X0*%
G04 #@! TD*
G04 #@! TA.AperFunction,SMDPad,CuDef*
%ADD46RoundRect,0.200000X-0.200000X-0.275000X0.200000X-0.275000X0.200000X0.275000X-0.200000X0.275000X0*%
G04 #@! TD*
G04 #@! TA.AperFunction,SMDPad,CuDef*
%ADD47RoundRect,0.147500X-0.147500X-0.172500X0.147500X-0.172500X0.147500X0.172500X-0.147500X0.172500X0*%
G04 #@! TD*
G04 #@! TA.AperFunction,ViaPad*
%ADD48C,0.457200*%
G04 #@! TD*
G04 #@! TA.AperFunction,Conductor*
%ADD49C,0.300000*%
G04 #@! TD*
G04 #@! TA.AperFunction,Conductor*
%ADD50C,0.200000*%
G04 #@! TD*
G04 #@! TA.AperFunction,Conductor*
%ADD51C,0.203200*%
G04 #@! TD*
G04 #@! TA.AperFunction,Conductor*
%ADD52C,0.340000*%
G04 #@! TD*
G04 #@! TA.AperFunction,Conductor*
%ADD53C,0.250000*%
G04 #@! TD*
G04 #@! TA.AperFunction,Conductor*
%ADD54C,0.349000*%
G04 #@! TD*
G04 APERTURE END LIST*
D10*
X154774874Y-95775000D03*
X154774874Y-94225000D03*
D11*
X178999874Y-99500000D03*
X180549874Y-99500000D03*
D12*
X180254874Y-97500000D03*
X179294874Y-97500000D03*
D13*
X149994874Y-98250000D03*
X149994874Y-98750000D03*
X149994874Y-99250000D03*
X149994874Y-99750000D03*
X149994874Y-100250000D03*
X149994874Y-100750000D03*
X149994874Y-101250000D03*
X149994874Y-101750000D03*
X149994874Y-102250000D03*
D14*
X150774874Y-103030000D03*
X151274874Y-103030000D03*
X151774874Y-103030000D03*
X152274874Y-103030000D03*
X152774874Y-103030000D03*
X153274874Y-103030000D03*
X153774874Y-103030000D03*
X154274874Y-103030000D03*
X154774874Y-103030000D03*
D13*
X155554874Y-102250000D03*
X155554874Y-101750000D03*
X155554874Y-101250000D03*
X155554874Y-100750000D03*
X155554874Y-100250000D03*
X155554874Y-99750000D03*
X155554874Y-99250000D03*
X155554874Y-98750000D03*
X155554874Y-98250000D03*
D14*
X154774874Y-97470000D03*
X154274874Y-97470000D03*
X153774874Y-97470000D03*
X153274874Y-97470000D03*
X152774874Y-97470000D03*
X152274874Y-97470000D03*
X151774874Y-97470000D03*
X151274874Y-97470000D03*
X150774874Y-97470000D03*
D15*
X151274874Y-98750000D03*
X151274874Y-100250000D03*
X151274874Y-101750000D03*
X152774874Y-98750000D03*
X152774874Y-100250000D03*
D16*
X152774874Y-100250000D03*
D15*
X152774874Y-101750000D03*
X154274874Y-98750000D03*
X154274874Y-100250000D03*
X154274874Y-101750000D03*
D17*
X153524874Y-109537500D03*
X153524874Y-107962500D03*
D18*
X151774874Y-106325000D03*
X151774874Y-104675000D03*
D19*
X146849874Y-104250000D03*
X145199874Y-104250000D03*
X146849874Y-102500000D03*
X145199874Y-102500000D03*
D12*
X159254874Y-98000000D03*
X158294874Y-98000000D03*
D10*
X153024874Y-94000000D03*
X153024874Y-92450000D03*
D20*
X155274874Y-104520000D03*
X155274874Y-105480000D03*
D10*
X155774874Y-112275000D03*
X155774874Y-110725000D03*
X149274874Y-110775000D03*
X149274874Y-109225000D03*
D21*
X173049874Y-104250000D03*
X171499874Y-104250000D03*
D22*
X168294874Y-99000000D03*
X169254874Y-99000000D03*
D19*
X146849874Y-100750000D03*
X145199874Y-100750000D03*
D23*
X162774874Y-108175000D03*
X162774874Y-109825000D03*
D10*
X167774874Y-97275000D03*
X167774874Y-95725000D03*
D18*
X153524874Y-106325000D03*
X153524874Y-104675000D03*
D17*
X151774874Y-109537500D03*
X151774874Y-107962500D03*
D23*
X146275000Y-96550000D03*
X146275000Y-98200000D03*
D24*
X150024874Y-104725000D03*
X150024874Y-106275000D03*
D25*
X157024874Y-98230000D03*
X157024874Y-97270000D03*
D26*
X159259874Y-102000000D03*
X158289874Y-102000000D03*
D18*
X161774874Y-93825000D03*
X161774874Y-92175000D03*
D27*
X150774874Y-90000000D03*
D23*
X179024874Y-100925000D03*
X179024874Y-102575000D03*
D18*
X149024874Y-94075000D03*
X149024874Y-92425000D03*
X155774874Y-108825000D03*
X155774874Y-107175000D03*
X167024874Y-93825000D03*
X167024874Y-92175000D03*
D28*
X181100000Y-111750000D03*
X181802944Y-110052944D03*
X181802944Y-113447056D03*
X183500000Y-109350000D03*
D29*
X183500000Y-111750000D03*
D28*
X183500000Y-114150000D03*
X185197056Y-110052944D03*
X185197056Y-113447056D03*
X185900000Y-111750000D03*
D30*
X165274874Y-95712500D03*
X165274874Y-97287500D03*
D12*
X160254874Y-103000000D03*
X159294874Y-103000000D03*
D10*
X158274874Y-95775000D03*
X158274874Y-94225000D03*
D28*
X181100000Y-90500000D03*
X181802944Y-88802944D03*
X181802944Y-92197056D03*
X183500000Y-88100000D03*
D29*
X183500000Y-90500000D03*
D28*
X183500000Y-92900000D03*
X185197056Y-88802944D03*
X185197056Y-92197056D03*
X185900000Y-90500000D03*
X138600000Y-111750000D03*
X139302944Y-110052944D03*
X139302944Y-113447056D03*
X141000000Y-109350000D03*
D29*
X141000000Y-111750000D03*
D28*
X141000000Y-114150000D03*
X142697056Y-110052944D03*
X142697056Y-113447056D03*
X143400000Y-111750000D03*
D31*
X184254874Y-97520000D03*
X182984874Y-96250000D03*
X182984874Y-98790000D03*
X185524874Y-96250000D03*
X185524874Y-98790000D03*
D18*
X180524874Y-102575000D03*
X180524874Y-100925000D03*
D28*
X138600000Y-90500000D03*
X139302944Y-88802944D03*
X139302944Y-92197056D03*
X141000000Y-88100000D03*
D29*
X141000000Y-90500000D03*
D28*
X141000000Y-92900000D03*
X142697056Y-88802944D03*
X142697056Y-92197056D03*
X143400000Y-90500000D03*
D22*
X168294874Y-101000000D03*
X169254874Y-101000000D03*
D32*
X162162374Y-99025000D03*
X162162374Y-99675000D03*
X162162374Y-100325000D03*
X162162374Y-100975000D03*
X166387374Y-100975000D03*
X166387374Y-100325000D03*
X166387374Y-99675000D03*
X166387374Y-99025000D03*
D33*
X160374874Y-111770000D03*
X160374874Y-109230000D03*
X158174874Y-109230000D03*
X158174874Y-111770000D03*
D23*
X146274874Y-93300000D03*
X146274874Y-94950000D03*
D10*
X158774874Y-106275000D03*
X158774874Y-104725000D03*
D34*
X145399874Y-106600000D03*
X146974874Y-106600000D03*
D35*
X176400000Y-102150000D03*
D36*
X176400000Y-101375000D03*
X176400000Y-100625000D03*
X176400000Y-99875000D03*
X176400000Y-99125000D03*
X176400000Y-98375000D03*
X176400000Y-97625000D03*
D35*
X176400000Y-96850000D03*
D37*
X175588000Y-96875000D03*
X174863000Y-96875000D03*
X174138000Y-96875000D03*
X173412000Y-96875000D03*
X172687000Y-96875000D03*
X171962000Y-96875000D03*
D35*
X171150000Y-96850000D03*
D36*
X171150000Y-97625000D03*
X171150000Y-98375000D03*
X171150000Y-99125000D03*
X171150000Y-99875000D03*
X171150000Y-100625000D03*
X171150000Y-101375000D03*
D35*
X171150000Y-102150000D03*
D37*
X171962000Y-102125000D03*
X172687000Y-102125000D03*
X173412000Y-102125000D03*
X174138000Y-102125000D03*
X174863000Y-102125000D03*
X175588000Y-102125000D03*
D38*
X175275000Y-101000000D03*
X175275000Y-99500000D03*
X175275000Y-98000000D03*
D39*
X174525000Y-99500000D03*
D38*
X173775000Y-101000000D03*
D40*
X173775000Y-100250000D03*
D38*
X173775000Y-99500000D03*
D41*
X173775000Y-99500000D03*
D40*
X173775000Y-98750000D03*
D38*
X173775000Y-98000000D03*
D39*
X173025000Y-99500000D03*
D38*
X172275000Y-101000000D03*
X172275000Y-99500000D03*
X172275000Y-98000000D03*
D23*
X165474874Y-108675000D03*
X165474874Y-110325000D03*
D42*
X169500000Y-107575000D03*
X169500000Y-104425000D03*
D23*
X162774874Y-111175000D03*
X162774874Y-112825000D03*
D22*
X159294874Y-100000000D03*
X160254874Y-100000000D03*
D43*
X174524874Y-93195000D03*
D44*
X174849874Y-92000000D03*
X174849874Y-90805000D03*
X172699874Y-90805000D03*
X172699874Y-92000000D03*
X172699874Y-93195000D03*
D27*
X149024874Y-90000000D03*
D22*
X158294874Y-101000000D03*
X159254874Y-101000000D03*
D23*
X160024874Y-92175000D03*
X160024874Y-93825000D03*
D10*
X163274874Y-97275000D03*
X163274874Y-95725000D03*
D45*
X160837374Y-104550000D03*
X160837374Y-106450000D03*
X162712374Y-105500000D03*
D10*
X156524874Y-95775000D03*
X156524874Y-94225000D03*
D18*
X150774874Y-94075000D03*
X150774874Y-92425000D03*
D10*
X169274874Y-97275000D03*
X169274874Y-95725000D03*
X147274874Y-110775000D03*
X147274874Y-109225000D03*
D11*
X174499874Y-104250000D03*
X176049874Y-104250000D03*
D46*
X178949874Y-104750000D03*
X180599874Y-104750000D03*
D47*
X158289874Y-99000000D03*
X159259874Y-99000000D03*
D46*
X178949874Y-106750000D03*
X180599874Y-106750000D03*
D48*
X172250000Y-100250000D03*
X173750000Y-98750000D03*
X172024874Y-94250000D03*
X179024874Y-103500000D03*
X146274874Y-111000000D03*
X176274874Y-103250000D03*
X146274874Y-110250000D03*
X156524874Y-93250000D03*
X177500000Y-96750000D03*
X156774874Y-110750000D03*
X174500000Y-98000000D03*
X160274874Y-99000000D03*
X166524874Y-91250000D03*
X173025000Y-99500000D03*
X171524874Y-96000000D03*
X174500000Y-100250000D03*
X166474874Y-113750000D03*
X173000000Y-98000000D03*
X175024874Y-103250000D03*
X171524874Y-91250000D03*
X178274874Y-98250000D03*
X165774874Y-102000000D03*
X178500000Y-96750000D03*
X149274874Y-111750000D03*
X175524874Y-94250000D03*
X172250000Y-98750000D03*
X174500000Y-99500000D03*
X170274874Y-97000000D03*
X161274874Y-103250000D03*
X154024874Y-92250000D03*
X174474874Y-107250000D03*
X160274874Y-105500000D03*
X168524874Y-94500000D03*
X164274874Y-95750000D03*
X176024874Y-91250000D03*
X148274874Y-110750000D03*
X170524874Y-94750000D03*
X175250000Y-98750000D03*
X174524874Y-94250000D03*
X173000000Y-98750000D03*
X167024874Y-98250000D03*
X175250000Y-100250000D03*
X151774874Y-110500000D03*
X170024874Y-100000000D03*
X150024874Y-107250000D03*
X165024874Y-100000000D03*
X174500000Y-101000000D03*
X158274874Y-97250000D03*
X168524874Y-100000000D03*
X170024874Y-93750000D03*
X172774874Y-94250000D03*
X161774874Y-109250000D03*
X138750000Y-96000000D03*
X173774874Y-90750000D03*
X176024874Y-92750000D03*
X174524874Y-95250000D03*
X168774874Y-98250000D03*
X176024874Y-93500000D03*
X177524874Y-93750000D03*
X146274874Y-92375000D03*
X154774874Y-106250000D03*
X177274874Y-91750000D03*
X173750000Y-100250000D03*
X167274874Y-102000000D03*
X174474874Y-113750000D03*
X160024874Y-98000000D03*
X166974874Y-107250000D03*
X159024874Y-92250000D03*
X170024874Y-92750000D03*
X170274874Y-91750000D03*
X170024874Y-102000000D03*
X177524874Y-92750000D03*
X158524874Y-99750000D03*
X171500000Y-103000000D03*
X173024874Y-95250000D03*
X174500000Y-98750000D03*
X176274874Y-96000000D03*
X138750000Y-95000000D03*
X153524874Y-110500000D03*
X163524874Y-100250000D03*
X147274874Y-111750000D03*
X177024874Y-94750000D03*
X167750000Y-107250000D03*
X138750000Y-97000000D03*
X171524874Y-92750000D03*
X173774874Y-96000000D03*
X154774874Y-93250000D03*
X173000000Y-100250000D03*
X179774874Y-98250000D03*
X146274874Y-111750000D03*
X173000000Y-101000000D03*
X158274874Y-93250000D03*
X179774874Y-96750000D03*
X168774874Y-102000000D03*
X171524874Y-93500000D03*
X156493574Y-103250000D03*
X156774874Y-100806300D03*
X148299874Y-109225000D03*
X153774874Y-95500000D03*
X159274874Y-95500000D03*
X149024188Y-98531300D03*
X181524874Y-106750000D03*
X164024874Y-105500000D03*
X143000000Y-100000000D03*
X144000000Y-107250000D03*
X166274874Y-95750000D03*
X180524874Y-103500000D03*
X173224874Y-113750000D03*
X154524874Y-112250000D03*
X161774874Y-91250000D03*
X173500000Y-107250000D03*
X171500000Y-107250000D03*
X173500000Y-109625000D03*
X167750000Y-106000000D03*
X146250000Y-99500000D03*
X166750000Y-106000000D03*
X172500000Y-107250000D03*
X153274874Y-96500000D03*
X157479974Y-105000000D03*
X169196156Y-110954673D03*
X153274874Y-103750000D03*
X154274874Y-104000000D03*
X152774874Y-96000000D03*
X160774874Y-96250000D03*
X152274874Y-96500000D03*
X177024874Y-101500000D03*
X161524874Y-94750000D03*
X149024874Y-99750000D03*
X178024874Y-106750000D03*
X178024874Y-104750000D03*
X148524874Y-99250000D03*
X172500000Y-105750000D03*
X167750000Y-104250000D03*
X166774874Y-97000000D03*
X169500000Y-103000000D03*
X171500000Y-105705100D03*
X173750000Y-105750000D03*
X164474874Y-108675000D03*
X151274874Y-103750000D03*
X159774874Y-96500000D03*
X155524874Y-97250000D03*
X143974874Y-102350000D03*
X143974874Y-104350000D03*
X168474874Y-110455100D03*
X144224874Y-100850000D03*
D49*
X154774874Y-105980000D02*
X155274874Y-105480000D01*
X153524874Y-110500000D02*
X153524874Y-109537500D01*
D50*
X176399874Y-103125000D02*
X176399874Y-102150000D01*
X179774874Y-104250000D02*
X179024874Y-103500000D01*
D49*
X146274874Y-111750000D02*
X146274874Y-111000000D01*
X176274874Y-96725000D02*
X176399874Y-96850000D01*
X148274874Y-110750000D02*
X147299874Y-110750000D01*
D50*
X174862874Y-103088000D02*
X174862874Y-102125000D01*
D49*
X158274874Y-94225000D02*
X158274874Y-93250000D01*
X160024874Y-92175000D02*
X159099874Y-92175000D01*
D50*
X174524874Y-94250000D02*
X174524874Y-93195000D01*
D49*
X149274874Y-110775000D02*
X149274874Y-111750000D01*
D50*
X174137874Y-96875000D02*
X174137874Y-96363000D01*
X173411874Y-96875000D02*
X174137874Y-96875000D01*
X171149874Y-102649874D02*
X171149874Y-102150000D01*
X171499874Y-103000126D02*
X171499874Y-104250000D01*
X176274874Y-103250000D02*
X176399874Y-103125000D01*
D49*
X160274874Y-105500000D02*
X159549874Y-105500000D01*
X160837374Y-104550000D02*
X160837374Y-104937500D01*
D50*
X146274874Y-92375000D02*
X146274874Y-93300000D01*
X176399874Y-102150000D02*
X175612874Y-102150000D01*
X173411874Y-96875000D02*
X173411874Y-96363000D01*
D49*
X150024874Y-106275000D02*
X150024874Y-107250000D01*
X173719874Y-90805000D02*
X173774874Y-90750000D01*
D50*
X179774874Y-104500000D02*
X179774874Y-104250000D01*
D49*
X160837374Y-103582500D02*
X160254874Y-103000000D01*
D50*
X170424874Y-96850000D02*
X170274874Y-97000000D01*
X171500000Y-103000000D02*
X171149874Y-102649874D01*
D49*
X151774874Y-110500000D02*
X151774874Y-109537500D01*
D50*
X171500000Y-103000000D02*
X171499874Y-103000126D01*
D49*
X148274874Y-110750000D02*
X149249874Y-110750000D01*
X180274874Y-98250000D02*
X179774874Y-98250000D01*
D50*
X173411874Y-96363000D02*
X173774874Y-96000000D01*
X171149874Y-96850000D02*
X171149874Y-96375000D01*
D49*
X168524874Y-95700000D02*
X168549874Y-95725000D01*
X159549874Y-105500000D02*
X158774874Y-104725000D01*
D50*
X172774874Y-94250000D02*
X172774874Y-93270000D01*
D49*
X154774874Y-106250000D02*
X154774874Y-105980000D01*
X174849874Y-90805000D02*
X173829874Y-90805000D01*
D50*
X175024874Y-103250000D02*
X174862874Y-103088000D01*
X180024874Y-104750000D02*
X179774874Y-104500000D01*
D49*
X153024874Y-92450000D02*
X153824874Y-92450000D01*
D50*
X174862874Y-102125000D02*
X175587874Y-102125000D01*
X179024874Y-102575000D02*
X179024874Y-103500000D01*
D49*
X154774874Y-94225000D02*
X156524874Y-94225000D01*
D50*
X174137874Y-96363000D02*
X173774874Y-96000000D01*
D49*
X159099874Y-92175000D02*
X159024874Y-92250000D01*
X176274874Y-103250000D02*
X176049874Y-103475000D01*
X166524874Y-91675000D02*
X167024874Y-92175000D01*
X168549874Y-95725000D02*
X169274874Y-95725000D01*
X153824874Y-92450000D02*
X154024874Y-92250000D01*
X160837374Y-104550000D02*
X160837374Y-103582500D01*
X161169874Y-103250000D02*
X160837374Y-103582500D01*
X176274874Y-96000000D02*
X176274874Y-96725000D01*
X160837374Y-104937500D02*
X160274874Y-105500000D01*
X164249874Y-95725000D02*
X164274874Y-95750000D01*
X167774874Y-95725000D02*
X168549874Y-95725000D01*
X157024874Y-97270000D02*
X158254874Y-97270000D01*
X168524874Y-94500000D02*
X168524874Y-95700000D01*
X180549874Y-98525000D02*
X180274874Y-98250000D01*
X180549874Y-99500000D02*
X180549874Y-98525000D01*
D50*
X171149874Y-96375000D02*
X171524874Y-96000000D01*
D49*
X176049874Y-103475000D02*
X176049874Y-104250000D01*
X156524874Y-93250000D02*
X156524874Y-94225000D01*
X146274874Y-110250000D02*
X146274874Y-111000000D01*
X166524874Y-91250000D02*
X166524874Y-91675000D01*
X158274874Y-94225000D02*
X156524874Y-94225000D01*
D50*
X171149874Y-96850000D02*
X170424874Y-96850000D01*
D49*
X163274874Y-95725000D02*
X164249874Y-95725000D01*
X161774874Y-109250000D02*
X160394874Y-109250000D01*
X161274874Y-103250000D02*
X161169874Y-103250000D01*
D50*
X180599874Y-104750000D02*
X180024874Y-104750000D01*
D49*
X146274874Y-111000000D02*
X147049874Y-111000000D01*
X154774874Y-94225000D02*
X154774874Y-93250000D01*
X156774874Y-110750000D02*
X155799874Y-110750000D01*
X147274874Y-110775000D02*
X147274874Y-111750000D01*
X172699874Y-90805000D02*
X173719874Y-90805000D01*
X173829874Y-90805000D02*
X173774874Y-90750000D01*
X158254874Y-97270000D02*
X158274874Y-97250000D01*
X147274874Y-108250000D02*
X148524874Y-107000000D01*
X149994874Y-98750000D02*
X149242888Y-98750000D01*
X156524874Y-103218700D02*
X156493574Y-103250000D01*
X154774874Y-95775000D02*
X154049874Y-95775000D01*
X150024874Y-103500000D02*
X150024874Y-104725000D01*
X148524874Y-107000000D02*
X148124874Y-106600000D01*
X154049874Y-95775000D02*
X153774874Y-95500000D01*
X150774874Y-103030000D02*
X150494874Y-103030000D01*
X155554874Y-104240000D02*
X155274874Y-104520000D01*
X155554874Y-98750000D02*
X156504874Y-98750000D01*
X147249874Y-109250000D02*
X147274874Y-109225000D01*
X158274874Y-95775000D02*
X156524874Y-95775000D01*
X148124874Y-106600000D02*
X146974874Y-106600000D01*
X149242888Y-98750000D02*
X149024188Y-98531300D01*
X156524874Y-102500000D02*
X156524874Y-103218700D01*
X156504874Y-98750000D02*
X157024874Y-98230000D01*
X158999874Y-95775000D02*
X159274874Y-95500000D01*
X158274874Y-95775000D02*
X158999874Y-95775000D01*
X154774874Y-95775000D02*
X156524874Y-95775000D01*
X156274874Y-102250000D02*
X156524874Y-102500000D01*
X155554874Y-102250000D02*
X156274874Y-102250000D01*
X155554874Y-102250000D02*
X155554874Y-104240000D01*
X147274874Y-109225000D02*
X148299874Y-109225000D01*
X155554874Y-99250000D02*
X155554874Y-98750000D01*
X156974184Y-98230000D02*
X156274874Y-97530690D01*
X156274874Y-97530690D02*
X156274874Y-96750000D01*
D50*
X155554874Y-100750000D02*
X156718574Y-100750000D01*
D49*
X148524874Y-107000000D02*
X148524874Y-105250000D01*
X148299874Y-109225000D02*
X149274874Y-109225000D01*
X150024874Y-104725000D02*
X149049874Y-104725000D01*
X156524874Y-96500000D02*
X156524874Y-95775000D01*
X154774874Y-97470000D02*
X154774874Y-95775000D01*
X156274874Y-96750000D02*
X156524874Y-96500000D01*
D50*
X156718574Y-100750000D02*
X156774874Y-100806300D01*
D49*
X147274874Y-109225000D02*
X147274874Y-108250000D01*
X150494874Y-103030000D02*
X150024874Y-103500000D01*
X149049874Y-104725000D02*
X148524874Y-105250000D01*
X154274874Y-97470000D02*
X154774874Y-97470000D01*
D50*
X161949874Y-112825000D02*
X161524874Y-113250000D01*
X158174874Y-112900000D02*
X158174874Y-111770000D01*
X161524874Y-113250000D02*
X158524874Y-113250000D01*
D49*
X166237374Y-95712500D02*
X166274874Y-95750000D01*
X145124874Y-106600000D02*
X145399874Y-106600000D01*
D50*
X162774874Y-112825000D02*
X161949874Y-112825000D01*
D49*
X162712374Y-105500000D02*
X164024874Y-105500000D01*
X144474874Y-107250000D02*
X145124874Y-106600000D01*
X155774874Y-112275000D02*
X154549874Y-112275000D01*
X180599874Y-106750000D02*
X181524874Y-106750000D01*
X154549874Y-112275000D02*
X154524874Y-112250000D01*
X155774874Y-112275000D02*
X157669874Y-112275000D01*
X144000000Y-107250000D02*
X144474874Y-107250000D01*
X165274874Y-95712500D02*
X166237374Y-95712500D01*
D50*
X158524874Y-113250000D02*
X158174874Y-112900000D01*
D49*
X161774874Y-92175000D02*
X161774874Y-91250000D01*
X180524874Y-102575000D02*
X180524874Y-103500000D01*
X146275000Y-98200000D02*
X146275000Y-99475000D01*
X146275000Y-99475000D02*
X146250000Y-99500000D01*
D50*
X180524874Y-100925000D02*
X179024874Y-100925000D01*
X178624874Y-99125000D02*
X178999874Y-99500000D01*
X178999874Y-99500000D02*
X178999874Y-100900000D01*
X176399874Y-99125000D02*
X178624874Y-99125000D01*
D51*
X159294874Y-103000000D02*
X159294874Y-102035000D01*
D52*
X159259874Y-99000000D02*
X159259874Y-99965000D01*
X159254874Y-101000000D02*
X159254874Y-100040000D01*
D50*
X153774874Y-97470000D02*
X153774874Y-96251388D01*
X153024874Y-95501388D02*
X153024874Y-94000000D01*
X153774874Y-96251388D02*
X153024874Y-95501388D01*
X160837374Y-106450000D02*
X158949874Y-106450000D01*
X157479974Y-105000000D02*
X158754974Y-106275000D01*
X160837374Y-107062500D02*
X160837374Y-106450000D01*
X162774874Y-108175000D02*
X161949874Y-108175000D01*
X153274874Y-96500000D02*
X153274874Y-97470000D01*
X158754974Y-106275000D02*
X158774874Y-106275000D01*
X161949874Y-108175000D02*
X160837374Y-107062500D01*
D52*
X158294874Y-98000000D02*
X158294874Y-98995000D01*
D53*
X157774874Y-99000000D02*
X158289874Y-99000000D01*
X157024874Y-99750000D02*
X157774874Y-99000000D01*
X155554874Y-99750000D02*
X157024874Y-99750000D01*
X157774874Y-101000000D02*
X158294874Y-101000000D01*
X157024874Y-100250000D02*
X157774874Y-101000000D01*
D52*
X158289874Y-102000000D02*
X158289874Y-101005000D01*
D53*
X155554874Y-100250000D02*
X157024874Y-100250000D01*
D52*
X160579874Y-100325000D02*
X160254874Y-100000000D01*
X162162374Y-100325000D02*
X160579874Y-100325000D01*
D50*
X163274874Y-97275000D02*
X165262374Y-97275000D01*
X162162374Y-98612500D02*
X162162374Y-99025000D01*
X162774874Y-98500000D02*
X162274874Y-98500000D01*
X163274874Y-98000000D02*
X162774874Y-98500000D01*
X162274874Y-98500000D02*
X162162374Y-98612500D01*
X163274874Y-97275000D02*
X163274874Y-98000000D01*
X162774874Y-109825000D02*
X162774874Y-110500000D01*
X162774874Y-110500000D02*
X162774874Y-111175000D01*
X163770201Y-110954673D02*
X163549874Y-111175000D01*
X163549874Y-111175000D02*
X162774874Y-111175000D01*
X169196156Y-110954673D02*
X163770201Y-110954673D01*
X153274874Y-103030000D02*
X153274874Y-103750000D01*
X153774874Y-103500000D02*
X154274874Y-104000000D01*
X153774874Y-103030000D02*
X153774874Y-103500000D01*
D49*
X150774874Y-92425000D02*
X150774874Y-90000000D01*
X149024874Y-90000000D02*
X149024874Y-92425000D01*
D52*
X166387374Y-99025000D02*
X168269874Y-99025000D01*
D50*
X161024874Y-96500000D02*
X160774874Y-96250000D01*
X161199874Y-99675000D02*
X161024874Y-99500000D01*
X161024874Y-99500000D02*
X161024874Y-96500000D01*
X165024874Y-94750000D02*
X165274874Y-94500000D01*
X165274874Y-94500000D02*
X165274874Y-93825000D01*
X162274874Y-94750000D02*
X165024874Y-94750000D01*
X160774874Y-96250000D02*
X162274874Y-94750000D01*
X152774874Y-97470000D02*
X152774874Y-96000000D01*
X165274874Y-93825000D02*
X167024874Y-93825000D01*
X162162374Y-99675000D02*
X161199874Y-99675000D01*
X176899874Y-101375000D02*
X176399874Y-101375000D01*
X152274874Y-97470000D02*
X152274874Y-96500000D01*
X177024874Y-101500000D02*
X176899874Y-101375000D01*
X161774874Y-93825000D02*
X161774874Y-94500000D01*
X161774874Y-94500000D02*
X161524874Y-94750000D01*
D52*
X170274874Y-99000000D02*
X169254874Y-99000000D01*
X171149874Y-99125000D02*
X170399874Y-99125000D01*
X170399874Y-99125000D02*
X170274874Y-99000000D01*
X166387374Y-100975000D02*
X168269874Y-100975000D01*
X170649874Y-100625000D02*
X170274874Y-101000000D01*
X171149874Y-100625000D02*
X170649874Y-100625000D01*
X170274874Y-101000000D02*
X169254874Y-101000000D01*
D54*
X184254874Y-97520000D02*
X184234874Y-97500000D01*
X184234874Y-97500000D02*
X180254874Y-97500000D01*
D50*
X176399874Y-100625000D02*
X177149874Y-100625000D01*
X177524874Y-101000000D02*
X177524874Y-106250000D01*
X178949874Y-106750000D02*
X178024874Y-106750000D01*
X177524874Y-106250000D02*
X178024874Y-106750000D01*
X177149874Y-100625000D02*
X177524874Y-101000000D01*
X149994874Y-99750000D02*
X149024874Y-99750000D01*
D52*
X177149874Y-97625000D02*
X177274874Y-97500000D01*
X177274874Y-97500000D02*
X179294874Y-97500000D01*
X176399874Y-97625000D02*
X177149874Y-97625000D01*
D50*
X151774874Y-107962500D02*
X151774874Y-106325000D01*
X153524874Y-106325000D02*
X153524874Y-107962500D01*
X146274874Y-94950000D02*
X146274874Y-96550000D01*
X148524874Y-100250000D02*
X147774874Y-99500000D01*
X149994874Y-100250000D02*
X148524874Y-100250000D01*
X147774874Y-99500000D02*
X147774874Y-97750000D01*
X146574874Y-96550000D02*
X146274874Y-96550000D01*
X147774874Y-97750000D02*
X146574874Y-96550000D01*
X149994874Y-99250000D02*
X148524874Y-99250000D01*
X178024874Y-100750000D02*
X178024874Y-104750000D01*
X176399874Y-99875000D02*
X177149874Y-99875000D01*
X177149874Y-99875000D02*
X178024874Y-100750000D01*
X178949874Y-104750000D02*
X178024874Y-104750000D01*
X151774874Y-103030000D02*
X151774874Y-104675000D01*
X153524874Y-104675000D02*
X152949874Y-104675000D01*
X152274874Y-104000000D02*
X152274874Y-103030000D01*
X152949874Y-104675000D02*
X152274874Y-104000000D01*
D49*
X174499874Y-104000000D02*
X173049874Y-104000000D01*
X167049874Y-97275000D02*
X166774874Y-97000000D01*
X171149874Y-98375000D02*
X170374874Y-98375000D01*
X170374874Y-98375000D02*
X169274874Y-97275000D01*
X167774874Y-97275000D02*
X167049874Y-97275000D01*
D50*
X171961874Y-102125000D02*
X172686874Y-102125000D01*
D49*
X167774874Y-97275000D02*
X169274874Y-97275000D01*
D50*
X146849874Y-100750000D02*
X148024874Y-100750000D01*
X148024874Y-100750000D02*
X148524874Y-101250000D01*
X148524874Y-101250000D02*
X149994874Y-101250000D01*
X147774874Y-102500000D02*
X146849874Y-102500000D01*
X148524874Y-101750000D02*
X147774874Y-102500000D01*
X149994874Y-101750000D02*
X148524874Y-101750000D01*
D51*
X147774874Y-104250000D02*
X148274874Y-103750000D01*
D50*
X149994874Y-102250000D02*
X149024874Y-102250000D01*
D51*
X148274874Y-102750000D02*
X148774874Y-102250000D01*
X146849874Y-104250000D02*
X147774874Y-104250000D01*
X148774874Y-102250000D02*
X149024874Y-102250000D01*
X148274874Y-103750000D02*
X148274874Y-102750000D01*
D50*
X151274874Y-103030000D02*
X151274874Y-103750000D01*
X164474874Y-108675000D02*
X165024874Y-108675000D01*
X149024874Y-95000000D02*
X149274874Y-95250000D01*
X149274874Y-95250000D02*
X150024874Y-95250000D01*
X151274874Y-96500000D02*
X151274874Y-97470000D01*
X149024874Y-94075000D02*
X149024874Y-95000000D01*
X150024874Y-95250000D02*
X151274874Y-96500000D01*
X150774874Y-95250000D02*
X150774874Y-94075000D01*
X151774874Y-97470000D02*
X151774874Y-96250000D01*
X151774874Y-96250000D02*
X150774874Y-95250000D01*
X160024874Y-96250000D02*
X160024874Y-93825000D01*
X155524874Y-97250000D02*
X155524874Y-98220000D01*
X159774874Y-96500000D02*
X160024874Y-96250000D01*
X156179874Y-109230000D02*
X155774874Y-108825000D01*
X158174874Y-109230000D02*
X156179874Y-109230000D01*
X155554874Y-101250000D02*
X156274874Y-101250000D01*
X157024874Y-106000000D02*
X155849874Y-107175000D01*
X157024874Y-102000000D02*
X157024874Y-106000000D01*
X156274874Y-101250000D02*
X157024874Y-102000000D01*
D52*
X174862874Y-96875000D02*
X174862874Y-95912000D01*
X176774874Y-94000000D02*
X176774874Y-92500000D01*
X174862874Y-95912000D02*
X176774874Y-94000000D01*
X176774874Y-92500000D02*
X176274874Y-92000000D01*
X176274874Y-92000000D02*
X174849874Y-92000000D01*
X170774874Y-93912000D02*
X172686874Y-95824000D01*
X172686874Y-95824000D02*
X172686874Y-96875000D01*
X170774874Y-92500000D02*
X170774874Y-93912000D01*
X172699874Y-92000000D02*
X171274874Y-92000000D01*
X171274874Y-92000000D02*
X170774874Y-92500000D01*
D50*
X145199874Y-102500000D02*
X144124874Y-102500000D01*
X144124874Y-102500000D02*
X143974874Y-102350000D01*
X144074874Y-104250000D02*
X143974874Y-104350000D01*
X145199874Y-104250000D02*
X144074874Y-104250000D01*
X168474874Y-110455100D02*
X168344774Y-110325000D01*
X168344774Y-110325000D02*
X165474874Y-110325000D01*
X145199874Y-100750000D02*
X144324874Y-100750000D01*
X144324874Y-100750000D02*
X144224874Y-100850000D01*
G04 #@! TA.AperFunction,Conductor*
G36*
X166869641Y-97519685D02*
G01*
X166886137Y-97532360D01*
X166888941Y-97534916D01*
X166895402Y-97537419D01*
X166920683Y-97550745D01*
X166926394Y-97554657D01*
X166952391Y-97560771D01*
X166968792Y-97565851D01*
X166993698Y-97575500D01*
X166993701Y-97575500D01*
X167000626Y-97575500D01*
X167029014Y-97578793D01*
X167035755Y-97580379D01*
X167050104Y-97578377D01*
X167119218Y-97588611D01*
X167171829Y-97634586D01*
X167178634Y-97646727D01*
X167215048Y-97721211D01*
X167215048Y-97721212D01*
X167303663Y-97809827D01*
X167405927Y-97859820D01*
X167416249Y-97864866D01*
X167489238Y-97875500D01*
X167489244Y-97875500D01*
X168060504Y-97875500D01*
X168060510Y-97875500D01*
X168133499Y-97864866D01*
X168195830Y-97834394D01*
X168246084Y-97809827D01*
X168334699Y-97721212D01*
X168334700Y-97721211D01*
X168359176Y-97671145D01*
X168371939Y-97645039D01*
X168419067Y-97593457D01*
X168483339Y-97575500D01*
X168566409Y-97575500D01*
X168633448Y-97595185D01*
X168677809Y-97645039D01*
X168715048Y-97721212D01*
X168803663Y-97809827D01*
X168905927Y-97859820D01*
X168916249Y-97864866D01*
X168989238Y-97875500D01*
X169399041Y-97875500D01*
X169466080Y-97895185D01*
X169486722Y-97911819D01*
X170042722Y-98467819D01*
X170076207Y-98529142D01*
X170071223Y-98598834D01*
X170029351Y-98654767D01*
X169963887Y-98679184D01*
X169955041Y-98679500D01*
X169706566Y-98679500D01*
X169639527Y-98659815D01*
X169618885Y-98643182D01*
X169561889Y-98586186D01*
X169462537Y-98542318D01*
X169438247Y-98539500D01*
X169071508Y-98539500D01*
X169071485Y-98539502D01*
X169047214Y-98542317D01*
X169047211Y-98542318D01*
X168947858Y-98586186D01*
X168947857Y-98586187D01*
X168862936Y-98671109D01*
X168859949Y-98668122D01*
X168823029Y-98698252D01*
X168753607Y-98706147D01*
X168690937Y-98675256D01*
X168687096Y-98670824D01*
X168686812Y-98671109D01*
X168601890Y-98586187D01*
X168502537Y-98542318D01*
X168478247Y-98539500D01*
X168111508Y-98539500D01*
X168111485Y-98539502D01*
X168087214Y-98542317D01*
X168087211Y-98542318D01*
X167987858Y-98586186D01*
X167987857Y-98586187D01*
X167905864Y-98668181D01*
X167844541Y-98701666D01*
X167818183Y-98704500D01*
X167258375Y-98704500D01*
X167210276Y-98690376D01*
X167208897Y-98693707D01*
X167197614Y-98689033D01*
X167124550Y-98674500D01*
X167124548Y-98674500D01*
X165650200Y-98674500D01*
X165650197Y-98674500D01*
X165577138Y-98689032D01*
X165577134Y-98689033D01*
X165494273Y-98744399D01*
X165438907Y-98827260D01*
X165438906Y-98827264D01*
X165424374Y-98900321D01*
X165424374Y-98900326D01*
X165424374Y-99149674D01*
X165424374Y-99149676D01*
X165424373Y-99149676D01*
X165441290Y-99234717D01*
X165437027Y-99235564D01*
X165441994Y-99281538D01*
X165410751Y-99344033D01*
X165407636Y-99347264D01*
X165383747Y-99371152D01*
X165335323Y-99474999D01*
X165335323Y-99475000D01*
X167439425Y-99475000D01*
X167451333Y-99456306D01*
X167450805Y-99452827D01*
X167479325Y-99389043D01*
X167537802Y-99350804D01*
X167573679Y-99345500D01*
X167868183Y-99345500D01*
X167935222Y-99365185D01*
X167955864Y-99381819D01*
X167987858Y-99413813D01*
X168087212Y-99457682D01*
X168111501Y-99460500D01*
X168478246Y-99460499D01*
X168502536Y-99457682D01*
X168601890Y-99413813D01*
X168678687Y-99337016D01*
X168678687Y-99337015D01*
X168686812Y-99328891D01*
X168689804Y-99331883D01*
X168726623Y-99301788D01*
X168796039Y-99293835D01*
X168858735Y-99324673D01*
X168862643Y-99329183D01*
X168862936Y-99328891D01*
X168871061Y-99337016D01*
X168947858Y-99413813D01*
X169047212Y-99457682D01*
X169071501Y-99460500D01*
X169438246Y-99460499D01*
X169462536Y-99457682D01*
X169561890Y-99413813D01*
X169618885Y-99356818D01*
X169680209Y-99323334D01*
X169706566Y-99320500D01*
X170087713Y-99320500D01*
X170154752Y-99340185D01*
X170182701Y-99364793D01*
X170190679Y-99374301D01*
X170190681Y-99374303D01*
X170190683Y-99374305D01*
X170190684Y-99374305D01*
X170190688Y-99374309D01*
X170222819Y-99392860D01*
X170231938Y-99398669D01*
X170252865Y-99413321D01*
X170262336Y-99419952D01*
X170262338Y-99419952D01*
X170267779Y-99422490D01*
X170282916Y-99428760D01*
X170288564Y-99430816D01*
X170288566Y-99430817D01*
X170325109Y-99437260D01*
X170335653Y-99439597D01*
X170371509Y-99449206D01*
X170408473Y-99445971D01*
X170419281Y-99445500D01*
X170514658Y-99445500D01*
X170581697Y-99465185D01*
X170627452Y-99517989D01*
X170637396Y-99587147D01*
X170636275Y-99593692D01*
X170625000Y-99650373D01*
X170625000Y-99675000D01*
X171226000Y-99675000D01*
X171293039Y-99694685D01*
X171338794Y-99747489D01*
X171350000Y-99799000D01*
X171350000Y-99951000D01*
X171330315Y-100018039D01*
X171277511Y-100063794D01*
X171226000Y-100075000D01*
X170625000Y-100075000D01*
X170625000Y-100099623D01*
X170639539Y-100172720D01*
X170633310Y-100242312D01*
X170590447Y-100297488D01*
X170548637Y-100315148D01*
X170548756Y-100315474D01*
X170542338Y-100317809D01*
X170539461Y-100319025D01*
X170538563Y-100319183D01*
X170532973Y-100321217D01*
X170517730Y-100327531D01*
X170512333Y-100330048D01*
X170481938Y-100351330D01*
X170472821Y-100357138D01*
X170440685Y-100375692D01*
X170440684Y-100375693D01*
X170416833Y-100404117D01*
X170409527Y-100412089D01*
X170178435Y-100643182D01*
X170117115Y-100676666D01*
X170090756Y-100679500D01*
X169706566Y-100679500D01*
X169639527Y-100659815D01*
X169618885Y-100643182D01*
X169561889Y-100586186D01*
X169462537Y-100542318D01*
X169438247Y-100539500D01*
X169071508Y-100539500D01*
X169071485Y-100539502D01*
X169047214Y-100542317D01*
X169047211Y-100542318D01*
X168947858Y-100586186D01*
X168947857Y-100586187D01*
X168862936Y-100671109D01*
X168859949Y-100668122D01*
X168823029Y-100698252D01*
X168753607Y-100706147D01*
X168690937Y-100675256D01*
X168687096Y-100670824D01*
X168686812Y-100671109D01*
X168601890Y-100586187D01*
X168502537Y-100542318D01*
X168478247Y-100539500D01*
X168111508Y-100539500D01*
X168111485Y-100539502D01*
X168087214Y-100542317D01*
X168087211Y-100542318D01*
X167987858Y-100586186D01*
X167987857Y-100586187D01*
X167955864Y-100618181D01*
X167894541Y-100651666D01*
X167868183Y-100654500D01*
X167573679Y-100654500D01*
X167506640Y-100634815D01*
X167460885Y-100582011D01*
X167456553Y-100551887D01*
X167439424Y-100525000D01*
X165335323Y-100525000D01*
X165383748Y-100628848D01*
X165407634Y-100652734D01*
X165441119Y-100714057D01*
X165437509Y-100764530D01*
X165441290Y-100765283D01*
X165424374Y-100850323D01*
X165424374Y-101099678D01*
X165438906Y-101172735D01*
X165438907Y-101172739D01*
X165450525Y-101190126D01*
X165494273Y-101255601D01*
X165563398Y-101301788D01*
X165577134Y-101310966D01*
X165577138Y-101310967D01*
X165650195Y-101325499D01*
X165650198Y-101325500D01*
X165650200Y-101325500D01*
X167124550Y-101325500D01*
X167197614Y-101310966D01*
X167208897Y-101306293D01*
X167210373Y-101309858D01*
X167256150Y-101295520D01*
X167258375Y-101295500D01*
X167265782Y-101295500D01*
X167332821Y-101315185D01*
X167378576Y-101367989D01*
X167388520Y-101437147D01*
X167369177Y-101485458D01*
X167369406Y-101485576D01*
X167368173Y-101487966D01*
X167366787Y-101491430D01*
X167365342Y-101493458D01*
X167365339Y-101493464D01*
X167339000Y-101569567D01*
X167334015Y-101639258D01*
X167333663Y-101646655D01*
X167333663Y-101646656D01*
X167352650Y-101724919D01*
X167352651Y-101724920D01*
X167386135Y-101786242D01*
X167412665Y-101821683D01*
X167412668Y-101821687D01*
X167412673Y-101821693D01*
X167412678Y-101821698D01*
X167444067Y-101853087D01*
X167466870Y-101884472D01*
X167481186Y-101912568D01*
X167493175Y-101949464D01*
X167498107Y-101980600D01*
X167498107Y-102019399D01*
X167493175Y-102050536D01*
X167481187Y-102087432D01*
X167466876Y-102115519D01*
X167444072Y-102146905D01*
X167421779Y-102169198D01*
X167390391Y-102192003D01*
X167361997Y-102206470D01*
X167332230Y-102216713D01*
X167332311Y-102217064D01*
X167309714Y-102222233D01*
X167309692Y-102222239D01*
X167277591Y-102231915D01*
X167277585Y-102231918D01*
X167220607Y-102263297D01*
X167167802Y-102309052D01*
X167162323Y-102314032D01*
X167120407Y-102382799D01*
X167112145Y-102410936D01*
X167074369Y-102469714D01*
X167010813Y-102498738D01*
X166993168Y-102500000D01*
X160636523Y-102500000D01*
X160582062Y-102487400D01*
X160534874Y-102464331D01*
X160534874Y-102500000D01*
X159974874Y-102500000D01*
X159974874Y-102464331D01*
X159974873Y-102464331D01*
X159927686Y-102487400D01*
X159873225Y-102500000D01*
X159778827Y-102500000D01*
X159711788Y-102480315D01*
X159666033Y-102427511D01*
X159656089Y-102358353D01*
X159665392Y-102325915D01*
X159702482Y-102241911D01*
X159702483Y-102241909D01*
X159705374Y-102216991D01*
X159705373Y-101783010D01*
X159704614Y-101776466D01*
X159702484Y-101758096D01*
X159702483Y-101758092D01*
X159702482Y-101758090D01*
X159657482Y-101656172D01*
X159578702Y-101577392D01*
X159576187Y-101574877D01*
X159542702Y-101513554D01*
X159547686Y-101443862D01*
X159576183Y-101399519D01*
X159638687Y-101337016D01*
X159682556Y-101237662D01*
X159685374Y-101213373D01*
X159685374Y-101175000D01*
X161110323Y-101175000D01*
X161158748Y-101278848D01*
X161246025Y-101366125D01*
X161357892Y-101418289D01*
X161357891Y-101418289D01*
X161408854Y-101424998D01*
X161408871Y-101424999D01*
X161962373Y-101424999D01*
X161962374Y-101424998D01*
X161962374Y-101175000D01*
X162362374Y-101175000D01*
X162362374Y-101424999D01*
X162915884Y-101424999D01*
X162966854Y-101418289D01*
X162966861Y-101418287D01*
X163078722Y-101366125D01*
X163165999Y-101278848D01*
X163214424Y-101175000D01*
X162362374Y-101175000D01*
X161962374Y-101175000D01*
X161110323Y-101175000D01*
X159685374Y-101175000D01*
X159685373Y-100786628D01*
X159682556Y-100762338D01*
X159638687Y-100662984D01*
X159611693Y-100635990D01*
X159578208Y-100574667D01*
X159575374Y-100548309D01*
X159575374Y-100491691D01*
X159595059Y-100424652D01*
X159611693Y-100404010D01*
X159686812Y-100328891D01*
X159689804Y-100331883D01*
X159726623Y-100301788D01*
X159796039Y-100293835D01*
X159858735Y-100324673D01*
X159862643Y-100329183D01*
X159862936Y-100328891D01*
X159871061Y-100337016D01*
X159947858Y-100413813D01*
X160047212Y-100457682D01*
X160071501Y-100460500D01*
X160210753Y-100460499D01*
X160277793Y-100480183D01*
X160298435Y-100496818D01*
X160339526Y-100537909D01*
X160346834Y-100545884D01*
X160370679Y-100574301D01*
X160370682Y-100574304D01*
X160370683Y-100574305D01*
X160402826Y-100592862D01*
X160411938Y-100598667D01*
X160435760Y-100615348D01*
X160442335Y-100619952D01*
X160447780Y-100622491D01*
X160462908Y-100628757D01*
X160468566Y-100630817D01*
X160505125Y-100637262D01*
X160515645Y-100639594D01*
X160551509Y-100649205D01*
X160588467Y-100645971D01*
X160599272Y-100645500D01*
X160976069Y-100645500D01*
X161043108Y-100665185D01*
X161088863Y-100717989D01*
X161093194Y-100748112D01*
X161110323Y-100775000D01*
X163214425Y-100775000D01*
X163214424Y-100774999D01*
X163165999Y-100671151D01*
X163142114Y-100647266D01*
X163108629Y-100585943D01*
X163112238Y-100535470D01*
X163108458Y-100534719D01*
X163121983Y-100466719D01*
X163125374Y-100449674D01*
X163125374Y-100200326D01*
X163125374Y-100200323D01*
X163125373Y-100200321D01*
X163110841Y-100127264D01*
X163110840Y-100127262D01*
X163110840Y-100127260D01*
X163109329Y-100124998D01*
X165335322Y-100124998D01*
X165335323Y-100125000D01*
X166187374Y-100125000D01*
X166187374Y-99875000D01*
X166587374Y-99875000D01*
X166587374Y-100125000D01*
X167439425Y-100125000D01*
X167439424Y-100124999D01*
X167405573Y-100052405D01*
X167395081Y-99983327D01*
X167405573Y-99947595D01*
X167439424Y-99875000D01*
X166587374Y-99875000D01*
X166187374Y-99875000D01*
X165335324Y-99875000D01*
X165335322Y-99875001D01*
X165369174Y-99947596D01*
X165379666Y-100016673D01*
X165369174Y-100052404D01*
X165335322Y-100124998D01*
X163109329Y-100124998D01*
X163071838Y-100068888D01*
X163050961Y-100002213D01*
X163069446Y-99934833D01*
X163071820Y-99931138D01*
X163110840Y-99872740D01*
X163125374Y-99799674D01*
X163125374Y-99550326D01*
X163125374Y-99550323D01*
X163125373Y-99550321D01*
X163110841Y-99477264D01*
X163110840Y-99477262D01*
X163110840Y-99477260D01*
X163071838Y-99418888D01*
X163050961Y-99352213D01*
X163069446Y-99284833D01*
X163071820Y-99281138D01*
X163110840Y-99222740D01*
X163125374Y-99149674D01*
X163125374Y-98900326D01*
X163125374Y-98900323D01*
X163125373Y-98900321D01*
X163110841Y-98827264D01*
X163110840Y-98827260D01*
X163103648Y-98816496D01*
X163055475Y-98744399D01*
X163055473Y-98744398D01*
X163048689Y-98734244D01*
X163050366Y-98733122D01*
X163024301Y-98685387D01*
X163029285Y-98615695D01*
X163057786Y-98571348D01*
X163229381Y-98399753D01*
X163425925Y-98203208D01*
X163444710Y-98187792D01*
X163455475Y-98180601D01*
X163510840Y-98097740D01*
X163519345Y-98054985D01*
X163521007Y-98046631D01*
X163521007Y-98046628D01*
X163530283Y-97999999D01*
X163530283Y-97987787D01*
X163534652Y-97987787D01*
X163538764Y-97941777D01*
X163581620Y-97886595D01*
X163624740Y-97869136D01*
X163624299Y-97867709D01*
X163633496Y-97864866D01*
X163633499Y-97864866D01*
X163643821Y-97859820D01*
X163746084Y-97809827D01*
X163834701Y-97721210D01*
X163893970Y-97599974D01*
X163896244Y-97601086D01*
X163927028Y-97554646D01*
X163990988Y-97526524D01*
X164006895Y-97525500D01*
X164541304Y-97525500D01*
X164608343Y-97545185D01*
X164654098Y-97597989D01*
X164659777Y-97612890D01*
X164659831Y-97613067D01*
X164710727Y-97717178D01*
X164713956Y-97723782D01*
X164801091Y-97810917D01*
X164801092Y-97810917D01*
X164801094Y-97810919D01*
X164911807Y-97865043D01*
X164983579Y-97875500D01*
X165566168Y-97875499D01*
X165637941Y-97865043D01*
X165748654Y-97810919D01*
X165835793Y-97723780D01*
X165889917Y-97613067D01*
X165890928Y-97606122D01*
X165920072Y-97542622D01*
X165978920Y-97504958D01*
X166013633Y-97500000D01*
X166802602Y-97500000D01*
X166869641Y-97519685D01*
G37*
G04 #@! TD.AperFunction*
G04 #@! TA.AperFunction,Conductor*
G36*
X171293039Y-101194685D02*
G01*
X171338794Y-101247489D01*
X171350000Y-101299000D01*
X171350000Y-101617956D01*
X171370210Y-101654968D01*
X171369591Y-101696701D01*
X171371649Y-101696910D01*
X171370752Y-101705740D01*
X171374105Y-101786197D01*
X171374105Y-101786200D01*
X171374106Y-101786201D01*
X171394335Y-101850809D01*
X171400000Y-101887857D01*
X171400000Y-102276000D01*
X171380315Y-102343039D01*
X171327511Y-102388794D01*
X171276000Y-102400000D01*
X171024000Y-102400000D01*
X170956961Y-102380315D01*
X170911206Y-102327511D01*
X170900000Y-102276000D01*
X170900000Y-101890344D01*
X170908865Y-101848788D01*
X170907387Y-101848259D01*
X170908972Y-101843830D01*
X170927453Y-101776466D01*
X170927457Y-101776452D01*
X170929245Y-101769266D01*
X170925894Y-101688802D01*
X170925892Y-101688797D01*
X170925847Y-101687701D01*
X170942725Y-101619900D01*
X170950000Y-101610478D01*
X170950000Y-101299000D01*
X170969685Y-101231961D01*
X171022489Y-101186206D01*
X171074000Y-101175000D01*
X171226000Y-101175000D01*
X171293039Y-101194685D01*
G37*
G04 #@! TD.AperFunction*
G04 #@! TA.AperFunction,Conductor*
G36*
X168858267Y-101749942D02*
G01*
X168884233Y-101782759D01*
X168886135Y-101786242D01*
X168912665Y-101821683D01*
X168912668Y-101821687D01*
X168912673Y-101821693D01*
X168912678Y-101821698D01*
X168944067Y-101853087D01*
X168966870Y-101884472D01*
X168981186Y-101912568D01*
X168993175Y-101949464D01*
X168998107Y-101980600D01*
X168998107Y-102019399D01*
X168993175Y-102050536D01*
X168981187Y-102087432D01*
X168966876Y-102115519D01*
X168944072Y-102146905D01*
X168921780Y-102169197D01*
X168890394Y-102192001D01*
X168862301Y-102206315D01*
X168825404Y-102218303D01*
X168794277Y-102223233D01*
X168755481Y-102223233D01*
X168724336Y-102218300D01*
X168687441Y-102206313D01*
X168659351Y-102192000D01*
X168627965Y-102169197D01*
X168605678Y-102146910D01*
X168582876Y-102115527D01*
X168568560Y-102087432D01*
X168556570Y-102050532D01*
X168553731Y-102032606D01*
X168551639Y-102019395D01*
X168551639Y-101980602D01*
X168556571Y-101949464D01*
X168568556Y-101912574D01*
X168582873Y-101884474D01*
X168605670Y-101853096D01*
X168637075Y-101821693D01*
X168640924Y-101817703D01*
X168646956Y-101811225D01*
X168672304Y-101773291D01*
X168725915Y-101728491D01*
X168795240Y-101719785D01*
X168858267Y-101749942D01*
G37*
G04 #@! TD.AperFunction*
G04 #@! TA.AperFunction,Conductor*
G36*
X170108267Y-101749942D02*
G01*
X170134233Y-101782759D01*
X170136135Y-101786242D01*
X170162665Y-101821683D01*
X170162668Y-101821687D01*
X170162673Y-101821693D01*
X170162678Y-101821698D01*
X170194067Y-101853087D01*
X170216870Y-101884472D01*
X170231186Y-101912568D01*
X170243175Y-101949464D01*
X170248107Y-101980600D01*
X170248107Y-102019399D01*
X170243175Y-102050536D01*
X170231187Y-102087432D01*
X170216876Y-102115519D01*
X170194072Y-102146905D01*
X170171780Y-102169197D01*
X170140394Y-102192001D01*
X170112301Y-102206315D01*
X170075404Y-102218303D01*
X170044277Y-102223233D01*
X170005481Y-102223233D01*
X169974336Y-102218300D01*
X169937441Y-102206313D01*
X169909351Y-102192000D01*
X169877965Y-102169197D01*
X169855678Y-102146910D01*
X169832876Y-102115527D01*
X169818560Y-102087432D01*
X169806570Y-102050532D01*
X169803731Y-102032606D01*
X169801639Y-102019395D01*
X169801639Y-101980602D01*
X169806571Y-101949464D01*
X169818556Y-101912574D01*
X169832873Y-101884474D01*
X169855670Y-101853096D01*
X169887075Y-101821693D01*
X169890924Y-101817703D01*
X169896956Y-101811225D01*
X169922304Y-101773291D01*
X169975915Y-101728491D01*
X170045240Y-101719785D01*
X170108267Y-101749942D01*
G37*
G04 #@! TD.AperFunction*
G04 #@! TA.AperFunction,Conductor*
G36*
X158818208Y-99315616D02*
G01*
X158862555Y-99344117D01*
X158903055Y-99384617D01*
X158936540Y-99445940D01*
X158939374Y-99472298D01*
X158939374Y-99583309D01*
X158919689Y-99650348D01*
X158917291Y-99653323D01*
X158917555Y-99653504D01*
X158911061Y-99662983D01*
X158867192Y-99762335D01*
X158867192Y-99762337D01*
X158864374Y-99786625D01*
X158864374Y-100213365D01*
X158864376Y-100213388D01*
X158867191Y-100237659D01*
X158867192Y-100237662D01*
X158908794Y-100331883D01*
X158911061Y-100337016D01*
X158911063Y-100337018D01*
X158912673Y-100339368D01*
X158914288Y-100344325D01*
X158915702Y-100347527D01*
X158915378Y-100347669D01*
X158934320Y-100405799D01*
X158934374Y-100409446D01*
X158934374Y-100548309D01*
X158914689Y-100615348D01*
X158898055Y-100635990D01*
X158862936Y-100671109D01*
X158859949Y-100668122D01*
X158823029Y-100698252D01*
X158753607Y-100706147D01*
X158690937Y-100675256D01*
X158687096Y-100670824D01*
X158686812Y-100671109D01*
X158601890Y-100586187D01*
X158502537Y-100542318D01*
X158478247Y-100539500D01*
X158111508Y-100539500D01*
X158111485Y-100539502D01*
X158087214Y-100542317D01*
X158087211Y-100542318D01*
X157987858Y-100586186D01*
X157987856Y-100586187D01*
X157956947Y-100617097D01*
X157895624Y-100650582D01*
X157825932Y-100645596D01*
X157781586Y-100617096D01*
X157252170Y-100087680D01*
X157218685Y-100026357D01*
X157223669Y-99956665D01*
X157252168Y-99912320D01*
X157768784Y-99395704D01*
X157830105Y-99362221D01*
X157899797Y-99367205D01*
X157944144Y-99395706D01*
X157971046Y-99422608D01*
X158072965Y-99467609D01*
X158097883Y-99470500D01*
X158481864Y-99470499D01*
X158489894Y-99469567D01*
X158506777Y-99467610D01*
X158506779Y-99467609D01*
X158506783Y-99467609D01*
X158608702Y-99422608D01*
X158687193Y-99344117D01*
X158748516Y-99310632D01*
X158818208Y-99315616D01*
G37*
G04 #@! TD.AperFunction*
G04 #@! TA.AperFunction,Conductor*
G36*
X160717413Y-97519685D02*
G01*
X160763168Y-97572489D01*
X160774374Y-97624000D01*
X160774374Y-99463111D01*
X160771992Y-99487300D01*
X160767084Y-99511977D01*
X160764458Y-99511454D01*
X160749781Y-99561440D01*
X160696977Y-99607195D01*
X160627819Y-99617139D01*
X160572059Y-99591674D01*
X160571370Y-99592681D01*
X160565582Y-99588716D01*
X160564263Y-99588114D01*
X160563038Y-99586974D01*
X160561890Y-99586187D01*
X160462537Y-99542318D01*
X160438247Y-99539500D01*
X160071508Y-99539500D01*
X160071485Y-99539502D01*
X160047214Y-99542317D01*
X160047211Y-99542318D01*
X159947858Y-99586186D01*
X159947857Y-99586187D01*
X159862936Y-99671109D01*
X159859949Y-99668122D01*
X159823029Y-99698252D01*
X159753607Y-99706147D01*
X159690937Y-99675256D01*
X159687096Y-99670824D01*
X159686812Y-99671109D01*
X159616693Y-99600990D01*
X159583208Y-99539667D01*
X159580374Y-99513309D01*
X159580374Y-99472298D01*
X159600059Y-99405259D01*
X159616693Y-99384617D01*
X159636517Y-99364793D01*
X159657482Y-99343828D01*
X159702483Y-99241909D01*
X159705374Y-99216991D01*
X159705373Y-98783010D01*
X159702483Y-98758091D01*
X159657482Y-98656172D01*
X159646545Y-98645235D01*
X159613060Y-98583912D01*
X159618044Y-98514220D01*
X159646545Y-98469872D01*
X159716664Y-98399753D01*
X159773829Y-98282819D01*
X159774241Y-98280000D01*
X159098874Y-98280000D01*
X159031835Y-98260315D01*
X158986080Y-98207511D01*
X158974874Y-98156000D01*
X158974874Y-97844000D01*
X158994559Y-97776961D01*
X159047363Y-97731206D01*
X159098874Y-97720000D01*
X159774240Y-97720000D01*
X159773829Y-97717180D01*
X159773829Y-97717178D01*
X159754901Y-97678461D01*
X159743141Y-97609588D01*
X159770484Y-97545291D01*
X159828248Y-97505983D01*
X159866301Y-97500000D01*
X160650374Y-97500000D01*
X160717413Y-97519685D01*
G37*
G04 #@! TD.AperFunction*
G04 #@! TA.AperFunction,Conductor*
G36*
X170724500Y-97839820D02*
G01*
X170724500Y-97839822D01*
X170724499Y-97839822D01*
X170733231Y-97883717D01*
X170737906Y-97895002D01*
X170736232Y-97895695D01*
X170752699Y-97948292D01*
X170734212Y-98015671D01*
X170682231Y-98062359D01*
X170628719Y-98074500D01*
X170550707Y-98074500D01*
X170483668Y-98054815D01*
X170463026Y-98038181D01*
X169936693Y-97511848D01*
X169930223Y-97500000D01*
X170724500Y-97500000D01*
X170724500Y-97839820D01*
G37*
G04 #@! TD.AperFunction*
G04 #@! TA.AperFunction,Conductor*
G36*
X168506421Y-101519685D02*
G01*
X168552176Y-101572489D01*
X168562120Y-101641647D01*
X168533095Y-101705203D01*
X168527063Y-101711681D01*
X168464356Y-101774387D01*
X168464353Y-101774391D01*
X168409832Y-101881395D01*
X168391048Y-101999997D01*
X168391048Y-102000002D01*
X168409832Y-102118604D01*
X168409833Y-102118607D01*
X168409834Y-102118609D01*
X168464352Y-102225607D01*
X168464353Y-102225608D01*
X168464356Y-102225612D01*
X168549261Y-102310517D01*
X168549265Y-102310520D01*
X168549267Y-102310522D01*
X168656265Y-102365040D01*
X168656267Y-102365040D01*
X168656269Y-102365041D01*
X168774872Y-102383826D01*
X168774874Y-102383826D01*
X168774876Y-102383826D01*
X168893478Y-102365041D01*
X168893478Y-102365040D01*
X168893483Y-102365040D01*
X169000481Y-102310522D01*
X169085396Y-102225607D01*
X169139914Y-102118609D01*
X169158700Y-102000000D01*
X169142782Y-101899500D01*
X169139915Y-101881395D01*
X169139914Y-101881393D01*
X169139914Y-101881391D01*
X169085396Y-101774393D01*
X169085394Y-101774391D01*
X169085391Y-101774387D01*
X169022685Y-101711681D01*
X168989200Y-101650358D01*
X168994184Y-101580666D01*
X169036056Y-101524733D01*
X169101520Y-101500316D01*
X169110366Y-101500000D01*
X169689382Y-101500000D01*
X169756421Y-101519685D01*
X169802176Y-101572489D01*
X169812120Y-101641647D01*
X169783095Y-101705203D01*
X169777063Y-101711681D01*
X169714356Y-101774387D01*
X169714353Y-101774391D01*
X169659832Y-101881395D01*
X169641048Y-101999997D01*
X169641048Y-102000002D01*
X169659832Y-102118604D01*
X169659833Y-102118607D01*
X169659834Y-102118609D01*
X169714352Y-102225607D01*
X169714353Y-102225608D01*
X169714356Y-102225612D01*
X169799261Y-102310517D01*
X169799265Y-102310520D01*
X169799267Y-102310522D01*
X169906265Y-102365040D01*
X169906267Y-102365040D01*
X169906269Y-102365041D01*
X170024872Y-102383826D01*
X170024874Y-102383826D01*
X170024876Y-102383826D01*
X170143478Y-102365041D01*
X170143478Y-102365040D01*
X170143483Y-102365040D01*
X170250481Y-102310522D01*
X170335396Y-102225607D01*
X170389914Y-102118609D01*
X170408700Y-102000000D01*
X170392782Y-101899500D01*
X170389915Y-101881395D01*
X170389914Y-101881393D01*
X170389914Y-101881391D01*
X170335396Y-101774393D01*
X170335394Y-101774391D01*
X170335391Y-101774387D01*
X170272685Y-101711681D01*
X170239200Y-101650358D01*
X170244184Y-101580666D01*
X170286056Y-101524733D01*
X170351520Y-101500316D01*
X170360366Y-101500000D01*
X170604869Y-101500000D01*
X170671908Y-101519685D01*
X170717663Y-101572489D01*
X170726486Y-101599807D01*
X170733231Y-101633718D01*
X170733234Y-101633723D01*
X170756544Y-101668611D01*
X170777421Y-101735289D01*
X170758935Y-101802669D01*
X170756544Y-101806389D01*
X170733234Y-101841276D01*
X170733231Y-101841282D01*
X170724500Y-101885177D01*
X170724500Y-101885180D01*
X170724500Y-102414820D01*
X170724500Y-102414822D01*
X170724499Y-102414822D01*
X170733231Y-102458717D01*
X170733234Y-102458724D01*
X170766495Y-102508503D01*
X170766496Y-102508504D01*
X170816273Y-102541764D01*
X170816274Y-102541764D01*
X170816278Y-102541767D01*
X170816282Y-102541767D01*
X170817917Y-102542445D01*
X170820950Y-102544889D01*
X170826432Y-102548552D01*
X170826104Y-102549042D01*
X170872321Y-102586285D01*
X170889660Y-102638377D01*
X170892083Y-102637896D01*
X170913906Y-102747612D01*
X170913907Y-102747614D01*
X170913908Y-102747615D01*
X170924877Y-102764032D01*
X170924878Y-102764033D01*
X170931801Y-102774393D01*
X170969273Y-102830475D01*
X170980042Y-102837670D01*
X170998831Y-102853091D01*
X171082120Y-102936380D01*
X171115605Y-102997703D01*
X171116912Y-103004663D01*
X171134958Y-103118604D01*
X171134959Y-103118607D01*
X171134960Y-103118609D01*
X171189478Y-103225607D01*
X171213055Y-103249184D01*
X171246540Y-103310505D01*
X171249374Y-103336865D01*
X171249374Y-103517979D01*
X171229689Y-103585018D01*
X171176885Y-103630773D01*
X171169096Y-103633741D01*
X171053663Y-103690172D01*
X170965046Y-103778789D01*
X170910009Y-103891371D01*
X170910008Y-103891373D01*
X170910008Y-103891375D01*
X170899374Y-103964364D01*
X170899374Y-104535636D01*
X170910008Y-104608625D01*
X170910008Y-104608626D01*
X170910009Y-104608628D01*
X170965046Y-104721210D01*
X171053663Y-104809827D01*
X171130458Y-104847369D01*
X171166249Y-104864866D01*
X171239238Y-104875500D01*
X171239244Y-104875500D01*
X171760504Y-104875500D01*
X171760510Y-104875500D01*
X171833499Y-104864866D01*
X171890992Y-104836759D01*
X171946084Y-104809827D01*
X172034701Y-104721210D01*
X172061633Y-104666118D01*
X172089740Y-104608625D01*
X172100374Y-104535636D01*
X172100374Y-103964364D01*
X172089740Y-103891375D01*
X172087392Y-103886572D01*
X172034701Y-103778789D01*
X171946084Y-103690172D01*
X171824848Y-103630904D01*
X171825960Y-103628629D01*
X171779520Y-103597846D01*
X171751398Y-103533886D01*
X171750374Y-103517979D01*
X171750374Y-103337117D01*
X171770059Y-103270078D01*
X171786689Y-103249439D01*
X171810522Y-103225607D01*
X171865040Y-103118609D01*
X171875731Y-103051111D01*
X171883826Y-103000002D01*
X171883826Y-102999997D01*
X171865041Y-102881395D01*
X171865040Y-102881393D01*
X171865040Y-102881391D01*
X171810522Y-102774393D01*
X171810520Y-102774391D01*
X171810517Y-102774387D01*
X171725612Y-102689482D01*
X171725609Y-102689480D01*
X171725607Y-102689478D01*
X171618609Y-102634960D01*
X171618607Y-102634959D01*
X171616416Y-102633843D01*
X171565620Y-102585868D01*
X171548825Y-102518047D01*
X171564242Y-102470891D01*
X171562094Y-102470002D01*
X171566764Y-102458726D01*
X171566767Y-102458722D01*
X171566768Y-102458717D01*
X171575500Y-102414822D01*
X171575500Y-101885177D01*
X171566768Y-101841282D01*
X171566767Y-101841281D01*
X171566767Y-101841278D01*
X171543455Y-101806389D01*
X171522578Y-101739713D01*
X171541063Y-101672333D01*
X171543456Y-101668609D01*
X171566767Y-101633722D01*
X171566768Y-101633715D01*
X171571442Y-101622436D01*
X171574826Y-101623838D01*
X171597363Y-101580733D01*
X171658072Y-101546146D01*
X171727842Y-101549872D01*
X171755495Y-101563710D01*
X171778778Y-101579267D01*
X171778780Y-101579267D01*
X171778781Y-101579268D01*
X171822677Y-101588000D01*
X172974072Y-101588000D01*
X173041111Y-101607685D01*
X173086866Y-101660489D01*
X173096810Y-101729647D01*
X173077175Y-101780887D01*
X173070233Y-101791278D01*
X173070231Y-101791281D01*
X173070231Y-101791282D01*
X173061500Y-101835177D01*
X173061500Y-101835180D01*
X173061500Y-102414820D01*
X173061500Y-102414822D01*
X173061499Y-102414822D01*
X173070231Y-102458717D01*
X173070234Y-102458724D01*
X173103495Y-102508503D01*
X173103496Y-102508504D01*
X173153278Y-102541767D01*
X173153281Y-102541767D01*
X173153282Y-102541768D01*
X173197177Y-102550500D01*
X173197180Y-102550500D01*
X173626822Y-102550500D01*
X173670717Y-102541768D01*
X173670717Y-102541767D01*
X173670722Y-102541767D01*
X173720504Y-102508504D01*
X173753767Y-102458722D01*
X173753768Y-102458717D01*
X173762500Y-102414822D01*
X173762500Y-101835177D01*
X173753768Y-101791282D01*
X173753768Y-101791281D01*
X173753767Y-101791280D01*
X173753767Y-101791278D01*
X173746824Y-101780888D01*
X173725948Y-101714214D01*
X173744432Y-101646834D01*
X173796410Y-101600144D01*
X173849928Y-101588000D01*
X174425072Y-101588000D01*
X174492111Y-101607685D01*
X174537866Y-101660489D01*
X174547810Y-101729647D01*
X174528175Y-101780887D01*
X174521233Y-101791278D01*
X174521231Y-101791281D01*
X174521231Y-101791282D01*
X174512500Y-101835177D01*
X174512500Y-101835180D01*
X174512500Y-102414820D01*
X174512500Y-102414822D01*
X174512499Y-102414822D01*
X174521231Y-102458717D01*
X174521234Y-102458724D01*
X174554494Y-102508502D01*
X174554495Y-102508502D01*
X174554496Y-102508504D01*
X174557261Y-102510351D01*
X174561933Y-102515941D01*
X174563132Y-102517140D01*
X174563024Y-102517247D01*
X174602068Y-102563960D01*
X174612374Y-102613455D01*
X174612374Y-103051111D01*
X174609992Y-103075300D01*
X174607466Y-103088000D01*
X174607466Y-103088002D01*
X174626906Y-103185739D01*
X174631582Y-103197026D01*
X174627347Y-103198779D01*
X174641016Y-103241723D01*
X174641048Y-103244519D01*
X174641048Y-103250002D01*
X174659832Y-103368604D01*
X174659833Y-103368607D01*
X174659834Y-103368609D01*
X174714352Y-103475607D01*
X174714353Y-103475608D01*
X174714356Y-103475612D01*
X174799261Y-103560517D01*
X174799265Y-103560520D01*
X174799267Y-103560522D01*
X174906265Y-103615040D01*
X174906267Y-103615040D01*
X174906269Y-103615041D01*
X175024872Y-103633826D01*
X175024874Y-103633826D01*
X175024876Y-103633826D01*
X175143478Y-103615041D01*
X175143478Y-103615040D01*
X175143483Y-103615040D01*
X175250481Y-103560522D01*
X175335396Y-103475607D01*
X175389914Y-103368609D01*
X175403077Y-103285503D01*
X175408700Y-103250002D01*
X175408700Y-103249997D01*
X175389915Y-103131395D01*
X175389914Y-103131393D01*
X175389914Y-103131391D01*
X175335396Y-103024393D01*
X175335394Y-103024391D01*
X175335391Y-103024387D01*
X175250486Y-102939482D01*
X175250477Y-102939475D01*
X175181079Y-102904115D01*
X175130283Y-102856141D01*
X175113374Y-102793631D01*
X175113374Y-102629491D01*
X175133059Y-102562452D01*
X175185863Y-102516697D01*
X175255021Y-102506753D01*
X175306261Y-102526387D01*
X175329278Y-102541767D01*
X175329281Y-102541767D01*
X175329282Y-102541768D01*
X175373177Y-102550500D01*
X175626000Y-102550500D01*
X175693039Y-102570185D01*
X175738794Y-102622989D01*
X175750000Y-102674500D01*
X175750000Y-103403987D01*
X175749374Y-103410744D01*
X175749374Y-103425751D01*
X175746080Y-103454141D01*
X175744495Y-103460877D01*
X175744495Y-103460882D01*
X175748185Y-103487333D01*
X175749374Y-103504464D01*
X175749374Y-103541535D01*
X175729689Y-103608574D01*
X175679835Y-103652935D01*
X175603661Y-103690174D01*
X175515046Y-103778789D01*
X175460009Y-103891371D01*
X175460008Y-103891373D01*
X175460008Y-103891375D01*
X175449374Y-103964364D01*
X175449374Y-104535636D01*
X175460008Y-104608625D01*
X175460008Y-104608626D01*
X175460009Y-104608628D01*
X175515046Y-104721210D01*
X175603660Y-104809824D01*
X175603661Y-104809824D01*
X175603663Y-104809826D01*
X175680461Y-104847370D01*
X175732042Y-104894497D01*
X175750000Y-104958770D01*
X175750000Y-106126000D01*
X175730315Y-106193039D01*
X175677511Y-106238794D01*
X175626000Y-106250000D01*
X168239415Y-106250000D01*
X168172376Y-106230315D01*
X168126621Y-106177511D01*
X168116677Y-106108353D01*
X168116942Y-106106602D01*
X168133826Y-106000001D01*
X168133826Y-105999997D01*
X168115041Y-105881395D01*
X168115040Y-105881393D01*
X168115040Y-105881391D01*
X168060522Y-105774393D01*
X168060520Y-105774391D01*
X168060517Y-105774387D01*
X167975612Y-105689482D01*
X167975608Y-105689479D01*
X167975607Y-105689478D01*
X167868609Y-105634960D01*
X167868607Y-105634959D01*
X167868604Y-105634958D01*
X167750002Y-105616174D01*
X167749998Y-105616174D01*
X167631395Y-105634958D01*
X167524391Y-105689479D01*
X167524387Y-105689482D01*
X167461681Y-105752189D01*
X167400358Y-105785674D01*
X167330666Y-105780690D01*
X167274733Y-105738818D01*
X167250316Y-105673354D01*
X167250000Y-105664508D01*
X167250000Y-102493671D01*
X167269685Y-102426632D01*
X167322489Y-102380877D01*
X167354597Y-102371198D01*
X167393483Y-102365040D01*
X167500481Y-102310522D01*
X167585396Y-102225607D01*
X167639914Y-102118609D01*
X167658700Y-102000000D01*
X167642782Y-101899500D01*
X167639915Y-101881395D01*
X167639914Y-101881393D01*
X167639914Y-101881391D01*
X167585396Y-101774393D01*
X167585394Y-101774391D01*
X167585391Y-101774387D01*
X167522685Y-101711681D01*
X167489200Y-101650358D01*
X167494184Y-101580666D01*
X167536056Y-101524733D01*
X167601520Y-101500316D01*
X167610366Y-101500000D01*
X168439382Y-101500000D01*
X168506421Y-101519685D01*
G37*
G04 #@! TD.AperFunction*
G04 #@! TA.AperFunction,Conductor*
G36*
X179858735Y-97824673D02*
G01*
X179862643Y-97829183D01*
X179862936Y-97828891D01*
X179871061Y-97837016D01*
X179947858Y-97913813D01*
X180047212Y-97957682D01*
X180071501Y-97960500D01*
X180438246Y-97960499D01*
X180462536Y-97957682D01*
X180561890Y-97913813D01*
X180614384Y-97861319D01*
X180675707Y-97827834D01*
X180702065Y-97825000D01*
X181750000Y-97825000D01*
X181750000Y-100500000D01*
X186750000Y-100500000D01*
X186750000Y-99374070D01*
X186765335Y-99393018D01*
X186774874Y-99440711D01*
X186774874Y-101376000D01*
X186755189Y-101443039D01*
X186702385Y-101488794D01*
X186650874Y-101500000D01*
X181206383Y-101500000D01*
X181139344Y-101480315D01*
X181093589Y-101427511D01*
X181083645Y-101358353D01*
X181093999Y-101323599D01*
X181143654Y-101217116D01*
X181150374Y-101166071D01*
X181150373Y-100683930D01*
X181143654Y-100632884D01*
X181096663Y-100532112D01*
X181086172Y-100463039D01*
X181114691Y-100399255D01*
X181143950Y-100374172D01*
X181227605Y-100322573D01*
X181347446Y-100202732D01*
X181347449Y-100202728D01*
X181436416Y-100058492D01*
X181436421Y-100058481D01*
X181489729Y-99897606D01*
X181499873Y-99798322D01*
X181499874Y-99798309D01*
X181499874Y-99750000D01*
X180423874Y-99750000D01*
X180356835Y-99730315D01*
X180311080Y-99677511D01*
X180299874Y-99626000D01*
X180299874Y-98525000D01*
X180799874Y-98525000D01*
X180799874Y-99250000D01*
X181499873Y-99250000D01*
X181499873Y-99201692D01*
X181499872Y-99201677D01*
X181489729Y-99102392D01*
X181436421Y-98941518D01*
X181436416Y-98941507D01*
X181347449Y-98797271D01*
X181347446Y-98797267D01*
X181227606Y-98677427D01*
X181227602Y-98677424D01*
X181083366Y-98588457D01*
X181083355Y-98588452D01*
X180922480Y-98535144D01*
X180823196Y-98525000D01*
X180799874Y-98525000D01*
X180299874Y-98525000D01*
X180299874Y-98524999D01*
X180276567Y-98525000D01*
X180276548Y-98525001D01*
X180177266Y-98535144D01*
X180016392Y-98588452D01*
X180016381Y-98588457D01*
X179872145Y-98677424D01*
X179872141Y-98677427D01*
X179752301Y-98797267D01*
X179752298Y-98797271D01*
X179663585Y-98941097D01*
X179611637Y-98987822D01*
X179558047Y-99000000D01*
X179557274Y-99000000D01*
X179490235Y-98980315D01*
X179469593Y-98963681D01*
X179446084Y-98940172D01*
X179333502Y-98885135D01*
X179333500Y-98885134D01*
X179333499Y-98885134D01*
X179260510Y-98874500D01*
X178739238Y-98874500D01*
X178739236Y-98874500D01*
X178708592Y-98878964D01*
X178666528Y-98877877D01*
X178648722Y-98874335D01*
X178624874Y-98869592D01*
X178624873Y-98869592D01*
X178612180Y-98872117D01*
X178587988Y-98874500D01*
X177275534Y-98874500D01*
X177208495Y-98854815D01*
X177162740Y-98802011D01*
X177152796Y-98732853D01*
X177159352Y-98707168D01*
X177168596Y-98682382D01*
X177168598Y-98682372D01*
X177174999Y-98622844D01*
X177175000Y-98622827D01*
X177175000Y-98575000D01*
X176324000Y-98575000D01*
X176256961Y-98555315D01*
X176211206Y-98502511D01*
X176200000Y-98451000D01*
X176200000Y-98099500D01*
X176219685Y-98032461D01*
X176272489Y-97986706D01*
X176324000Y-97975500D01*
X176476000Y-97975500D01*
X176543039Y-97995185D01*
X176588794Y-98047989D01*
X176600000Y-98099500D01*
X176600000Y-98175000D01*
X177175000Y-98175000D01*
X177175000Y-98127172D01*
X177174999Y-98127160D01*
X177168275Y-98064630D01*
X177180679Y-97995870D01*
X177228288Y-97944732D01*
X177251565Y-97936104D01*
X177250991Y-97934526D01*
X177261179Y-97930817D01*
X177261182Y-97930817D01*
X177261184Y-97930815D01*
X177266837Y-97928758D01*
X177281941Y-97922502D01*
X177287410Y-97919952D01*
X177287413Y-97919952D01*
X177317824Y-97898656D01*
X177326914Y-97892866D01*
X177359065Y-97874305D01*
X177367044Y-97864796D01*
X177425215Y-97826093D01*
X177462035Y-97820500D01*
X178843182Y-97820500D01*
X178910221Y-97840185D01*
X178930863Y-97856818D01*
X178987858Y-97913813D01*
X179087212Y-97957682D01*
X179111501Y-97960500D01*
X179478246Y-97960499D01*
X179502536Y-97957682D01*
X179601890Y-97913813D01*
X179678687Y-97837016D01*
X179678687Y-97837015D01*
X179686812Y-97828891D01*
X179689804Y-97831883D01*
X179726623Y-97801788D01*
X179796039Y-97793835D01*
X179858735Y-97824673D01*
G37*
G04 #@! TD.AperFunction*
G04 #@! TA.AperFunction,Conductor*
G36*
X173968039Y-98519685D02*
G01*
X174013794Y-98572489D01*
X174025000Y-98624000D01*
X174025000Y-99000000D01*
X173525000Y-99000000D01*
X173525000Y-98624000D01*
X173544685Y-98556961D01*
X173597489Y-98511206D01*
X173649000Y-98500000D01*
X173901000Y-98500000D01*
X173968039Y-98519685D01*
G37*
G04 #@! TD.AperFunction*
G04 #@! TA.AperFunction,Conductor*
G36*
X170042722Y-98467819D02*
G01*
X170076207Y-98529142D01*
X170071223Y-98598834D01*
X170029351Y-98654767D01*
X169963887Y-98679184D01*
X169955041Y-98679500D01*
X169706566Y-98679500D01*
X169639527Y-98659815D01*
X169618885Y-98643182D01*
X169561889Y-98586186D01*
X169524874Y-98569842D01*
X169524874Y-97949971D01*
X170042722Y-98467819D01*
G37*
G04 #@! TD.AperFunction*
G04 #@! TA.AperFunction,Conductor*
G36*
X186765335Y-96853018D02*
G01*
X186774874Y-96900711D01*
X186774874Y-98139289D01*
X186755189Y-98206328D01*
X186750000Y-98210824D01*
X186750000Y-96834070D01*
X186765335Y-96853018D01*
G37*
G04 #@! TD.AperFunction*
G04 #@! TA.AperFunction,Conductor*
G36*
X177967913Y-89269685D02*
G01*
X178013668Y-89322489D01*
X178024874Y-89374000D01*
X178024874Y-93750000D01*
X179500000Y-93750000D01*
X179500000Y-94250000D01*
X186774874Y-94250000D01*
X186774874Y-95599289D01*
X186755189Y-95666328D01*
X186750000Y-95670824D01*
X186750000Y-94500000D01*
X181750000Y-94500000D01*
X181750000Y-97175000D01*
X180702065Y-97175000D01*
X180635026Y-97155315D01*
X180614384Y-97138681D01*
X180561890Y-97086187D01*
X180462537Y-97042318D01*
X180438247Y-97039500D01*
X180071508Y-97039500D01*
X180071485Y-97039502D01*
X180047214Y-97042317D01*
X180047211Y-97042318D01*
X179947858Y-97086186D01*
X179947857Y-97086187D01*
X179862936Y-97171109D01*
X179859949Y-97168122D01*
X179823029Y-97198252D01*
X179753607Y-97206147D01*
X179690937Y-97175256D01*
X179687096Y-97170824D01*
X179686812Y-97171109D01*
X179601890Y-97086187D01*
X179502537Y-97042318D01*
X179478247Y-97039500D01*
X179111508Y-97039500D01*
X179111485Y-97039502D01*
X179087214Y-97042317D01*
X179087211Y-97042318D01*
X178987859Y-97086186D01*
X178930863Y-97143182D01*
X178869539Y-97176666D01*
X178843182Y-97179500D01*
X177299000Y-97179500D01*
X177231961Y-97159815D01*
X177211470Y-97136167D01*
X177211319Y-97136319D01*
X177175000Y-97100000D01*
X176650000Y-97100000D01*
X176650000Y-97150500D01*
X176630315Y-97217539D01*
X176577511Y-97263294D01*
X176526000Y-97274500D01*
X176274000Y-97274500D01*
X176206961Y-97254815D01*
X176161206Y-97202011D01*
X176150000Y-97150500D01*
X176150000Y-97100000D01*
X175658282Y-97100000D01*
X175591243Y-97080315D01*
X175584647Y-97075000D01*
X175337500Y-97075000D01*
X175270461Y-97055315D01*
X175224706Y-97002511D01*
X175213500Y-96951000D01*
X175213500Y-96799000D01*
X175233185Y-96731961D01*
X175285989Y-96686206D01*
X175337500Y-96675000D01*
X175388000Y-96675000D01*
X175388000Y-96100000D01*
X175788000Y-96100000D01*
X175788000Y-96600000D01*
X176150000Y-96600000D01*
X176150000Y-96100000D01*
X176650000Y-96100000D01*
X176650000Y-96600000D01*
X177175000Y-96600000D01*
X177175000Y-96552172D01*
X177174999Y-96552155D01*
X177168598Y-96492627D01*
X177168596Y-96492620D01*
X177118354Y-96357913D01*
X177118350Y-96357906D01*
X177032190Y-96242812D01*
X177032187Y-96242809D01*
X176917093Y-96156649D01*
X176917086Y-96156645D01*
X176782379Y-96106403D01*
X176782372Y-96106401D01*
X176722844Y-96100000D01*
X176650000Y-96100000D01*
X176150000Y-96100000D01*
X176077155Y-96100000D01*
X176017624Y-96106401D01*
X176017623Y-96106402D01*
X175999830Y-96113038D01*
X175930138Y-96118020D01*
X175913170Y-96113038D01*
X175895376Y-96106402D01*
X175895375Y-96106401D01*
X175835844Y-96100000D01*
X175788000Y-96100000D01*
X175388000Y-96100000D01*
X175371583Y-96083583D01*
X175360452Y-96080315D01*
X175314697Y-96027511D01*
X175304753Y-95958353D01*
X175333778Y-95894797D01*
X175339810Y-95888319D01*
X175644483Y-95583646D01*
X176987783Y-94240344D01*
X176995751Y-94233044D01*
X177024175Y-94209194D01*
X177024179Y-94209191D01*
X177042733Y-94177051D01*
X177048544Y-94167931D01*
X177050112Y-94165690D01*
X177069826Y-94137539D01*
X177069827Y-94137533D01*
X177072377Y-94132067D01*
X177078634Y-94116959D01*
X177080690Y-94111311D01*
X177082685Y-94100000D01*
X177087136Y-94074752D01*
X177089470Y-94064222D01*
X177099079Y-94028365D01*
X177095846Y-93991407D01*
X177095374Y-93980600D01*
X177095374Y-92519407D01*
X177095846Y-92508599D01*
X177099080Y-92471635D01*
X177099080Y-92471634D01*
X177089471Y-92435779D01*
X177087133Y-92425229D01*
X177080691Y-92388692D01*
X177080690Y-92388690D01*
X177078634Y-92383042D01*
X177072364Y-92367905D01*
X177069826Y-92362464D01*
X177069826Y-92362462D01*
X177064209Y-92354440D01*
X177048543Y-92332064D01*
X177042734Y-92322945D01*
X177024183Y-92290814D01*
X177024179Y-92290810D01*
X177024179Y-92290809D01*
X177024177Y-92290807D01*
X177024176Y-92290806D01*
X176995756Y-92266959D01*
X176987781Y-92259651D01*
X176515221Y-91787091D01*
X176507913Y-91779116D01*
X176495864Y-91764757D01*
X176484065Y-91750695D01*
X176484062Y-91750693D01*
X176484061Y-91750692D01*
X176451931Y-91732142D01*
X176442808Y-91726330D01*
X176412413Y-91705047D01*
X176407013Y-91702529D01*
X176391814Y-91696233D01*
X176386182Y-91694183D01*
X176349645Y-91687740D01*
X176339088Y-91685399D01*
X176303238Y-91675793D01*
X176266274Y-91679028D01*
X176255466Y-91679500D01*
X175895709Y-91679500D01*
X175828670Y-91659815D01*
X175782915Y-91607011D01*
X175772971Y-91537853D01*
X175796443Y-91481188D01*
X175818226Y-91452089D01*
X175818228Y-91452086D01*
X175868470Y-91317379D01*
X175868472Y-91317372D01*
X175874873Y-91257844D01*
X175874874Y-91257827D01*
X175874874Y-91055000D01*
X174723874Y-91055000D01*
X174656835Y-91035315D01*
X174611080Y-90982511D01*
X174599874Y-90931000D01*
X174599874Y-89900000D01*
X175099874Y-89900000D01*
X175099874Y-90555000D01*
X175874874Y-90555000D01*
X175874874Y-90352172D01*
X175874873Y-90352155D01*
X175868472Y-90292627D01*
X175868470Y-90292620D01*
X175818228Y-90157913D01*
X175818224Y-90157906D01*
X175732064Y-90042812D01*
X175732061Y-90042809D01*
X175616967Y-89956649D01*
X175616960Y-89956645D01*
X175482253Y-89906403D01*
X175482246Y-89906401D01*
X175422718Y-89900000D01*
X175099874Y-89900000D01*
X174599874Y-89900000D01*
X174277029Y-89900000D01*
X174217501Y-89906401D01*
X174217494Y-89906403D01*
X174082787Y-89956645D01*
X174082780Y-89956649D01*
X173967686Y-90042809D01*
X173967683Y-90042812D01*
X173876205Y-90165011D01*
X173874146Y-90163469D01*
X173834292Y-90203318D01*
X173766017Y-90218164D01*
X173700555Y-90193742D01*
X173674826Y-90164049D01*
X173673543Y-90165011D01*
X173582064Y-90042812D01*
X173582061Y-90042809D01*
X173466967Y-89956649D01*
X173466960Y-89956645D01*
X173332253Y-89906403D01*
X173332246Y-89906401D01*
X173272718Y-89900000D01*
X172949874Y-89900000D01*
X172949874Y-90931000D01*
X172930189Y-90998039D01*
X172877385Y-91043794D01*
X172825874Y-91055000D01*
X171674874Y-91055000D01*
X171674874Y-91257844D01*
X171681275Y-91317372D01*
X171681277Y-91317379D01*
X171731519Y-91452086D01*
X171731521Y-91452089D01*
X171753305Y-91481188D01*
X171777723Y-91546652D01*
X171762872Y-91614925D01*
X171713468Y-91664331D01*
X171654039Y-91679500D01*
X171294282Y-91679500D01*
X171283474Y-91679028D01*
X171246507Y-91675793D01*
X171210658Y-91685399D01*
X171200102Y-91687739D01*
X171163570Y-91694181D01*
X171157958Y-91696223D01*
X171142738Y-91702528D01*
X171137337Y-91705046D01*
X171106940Y-91726329D01*
X171097826Y-91732135D01*
X171065684Y-91750693D01*
X171041833Y-91779117D01*
X171034527Y-91787089D01*
X170561963Y-92259653D01*
X170553991Y-92266959D01*
X170525567Y-92290810D01*
X170525566Y-92290811D01*
X170507012Y-92322947D01*
X170501204Y-92332064D01*
X170479922Y-92362459D01*
X170477405Y-92367856D01*
X170471091Y-92383099D01*
X170469058Y-92388687D01*
X170462614Y-92425229D01*
X170460273Y-92435787D01*
X170450667Y-92471634D01*
X170453902Y-92508598D01*
X170454374Y-92519407D01*
X170454374Y-93892592D01*
X170453902Y-93903400D01*
X170450667Y-93940365D01*
X170460273Y-93976214D01*
X170462614Y-93986771D01*
X170469057Y-94023308D01*
X170471107Y-94028940D01*
X170477403Y-94044139D01*
X170479921Y-94049539D01*
X170501204Y-94079934D01*
X170507016Y-94089057D01*
X170525566Y-94121187D01*
X170525567Y-94121188D01*
X170525569Y-94121191D01*
X170545052Y-94137539D01*
X170553990Y-94145039D01*
X170561965Y-94152347D01*
X171456889Y-95047271D01*
X172330055Y-95920436D01*
X172363540Y-95981759D01*
X172366374Y-96008117D01*
X172366374Y-96336110D01*
X172346689Y-96403149D01*
X172293885Y-96448904D01*
X172224727Y-96458848D01*
X172218183Y-96457727D01*
X172176823Y-96449500D01*
X172176820Y-96449500D01*
X171988608Y-96449500D01*
X171921569Y-96429815D01*
X171875814Y-96377011D01*
X171872426Y-96368833D01*
X171868350Y-96357907D01*
X171782190Y-96242812D01*
X171782187Y-96242809D01*
X171667093Y-96156649D01*
X171667086Y-96156645D01*
X171532379Y-96106403D01*
X171532372Y-96106401D01*
X171472844Y-96100000D01*
X171400000Y-96100000D01*
X171400000Y-96976000D01*
X171380315Y-97043039D01*
X171327511Y-97088794D01*
X171276000Y-97100000D01*
X170375000Y-97100000D01*
X170375000Y-97147844D01*
X170381401Y-97207372D01*
X170381403Y-97207379D01*
X170431645Y-97342086D01*
X170431649Y-97342093D01*
X170517809Y-97457187D01*
X170517812Y-97457190D01*
X170632908Y-97543351D01*
X170632910Y-97543353D01*
X170643829Y-97547425D01*
X170699764Y-97589294D01*
X170724184Y-97654757D01*
X170724500Y-97663608D01*
X170724500Y-97839820D01*
X170724500Y-97839822D01*
X170724499Y-97839822D01*
X170733231Y-97883717D01*
X170737906Y-97895002D01*
X170736232Y-97895695D01*
X170752699Y-97948292D01*
X170734212Y-98015671D01*
X170682231Y-98062359D01*
X170628719Y-98074500D01*
X170550707Y-98074500D01*
X170483668Y-98054815D01*
X170463026Y-98038181D01*
X169936693Y-97511848D01*
X169903208Y-97450525D01*
X169900374Y-97424167D01*
X169900374Y-97014369D01*
X169900374Y-97014364D01*
X169889740Y-96941375D01*
X169855179Y-96870679D01*
X169834701Y-96828789D01*
X169810714Y-96804802D01*
X169777229Y-96743479D01*
X169782213Y-96673787D01*
X169824085Y-96617854D01*
X169833298Y-96611582D01*
X169852075Y-96600000D01*
X170375000Y-96600000D01*
X170900000Y-96600000D01*
X170900000Y-96100000D01*
X170827155Y-96100000D01*
X170767627Y-96106401D01*
X170767620Y-96106403D01*
X170632913Y-96156645D01*
X170632906Y-96156649D01*
X170517812Y-96242809D01*
X170517809Y-96242812D01*
X170431649Y-96357906D01*
X170431645Y-96357913D01*
X170381403Y-96492620D01*
X170381401Y-96492627D01*
X170375000Y-96552155D01*
X170375000Y-96600000D01*
X169852075Y-96600000D01*
X169977607Y-96522571D01*
X170097446Y-96402732D01*
X170097449Y-96402728D01*
X170186416Y-96258492D01*
X170186421Y-96258481D01*
X170239729Y-96097606D01*
X170249873Y-95998322D01*
X170249874Y-95998309D01*
X170249874Y-95975000D01*
X169524874Y-95975000D01*
X169524874Y-95475000D01*
X170249873Y-95475000D01*
X170249873Y-95451692D01*
X170249872Y-95451677D01*
X170239729Y-95352392D01*
X170186421Y-95191518D01*
X170186416Y-95191507D01*
X170097449Y-95047271D01*
X170097446Y-95047267D01*
X169977606Y-94927427D01*
X169977602Y-94927424D01*
X169833366Y-94838457D01*
X169833355Y-94838452D01*
X169672481Y-94785144D01*
X169636269Y-94781444D01*
X169571578Y-94755047D01*
X169531428Y-94697865D01*
X169524874Y-94658086D01*
X169524874Y-90555000D01*
X171674874Y-90555000D01*
X172449874Y-90555000D01*
X172449874Y-89900000D01*
X172127029Y-89900000D01*
X172067501Y-89906401D01*
X172067494Y-89906403D01*
X171932787Y-89956645D01*
X171932780Y-89956649D01*
X171817686Y-90042809D01*
X171817683Y-90042812D01*
X171731523Y-90157906D01*
X171731519Y-90157913D01*
X171681277Y-90292620D01*
X171681275Y-90292627D01*
X171674874Y-90352155D01*
X171674874Y-90555000D01*
X169524874Y-90555000D01*
X169524874Y-89374000D01*
X169544559Y-89306961D01*
X169597363Y-89261206D01*
X169648874Y-89250000D01*
X177900874Y-89250000D01*
X177967913Y-89269685D01*
G37*
G04 #@! TD.AperFunction*
G04 #@! TA.AperFunction,Conductor*
G36*
X171721078Y-92340185D02*
G01*
X171766833Y-92392989D01*
X171776777Y-92462147D01*
X171753305Y-92518812D01*
X171731521Y-92547910D01*
X171731519Y-92547913D01*
X171681277Y-92682620D01*
X171681275Y-92682627D01*
X171674874Y-92742155D01*
X171674874Y-92945000D01*
X175874874Y-92945000D01*
X175874874Y-92742172D01*
X175874873Y-92742155D01*
X175868472Y-92682627D01*
X175868470Y-92682620D01*
X175818228Y-92547913D01*
X175818226Y-92547910D01*
X175796443Y-92518812D01*
X175772025Y-92453348D01*
X175786876Y-92385075D01*
X175836280Y-92335669D01*
X175895709Y-92320500D01*
X176090756Y-92320500D01*
X176157795Y-92340185D01*
X176178437Y-92356819D01*
X176418055Y-92596437D01*
X176451540Y-92657760D01*
X176454374Y-92684118D01*
X176454374Y-93815881D01*
X176434689Y-93882920D01*
X176418055Y-93903562D01*
X174649963Y-95671653D01*
X174641991Y-95678959D01*
X174613567Y-95702810D01*
X174613566Y-95702811D01*
X174595012Y-95734947D01*
X174589204Y-95744064D01*
X174567922Y-95774459D01*
X174565405Y-95779856D01*
X174559091Y-95795099D01*
X174557058Y-95800687D01*
X174557057Y-95800691D01*
X174557057Y-95800692D01*
X174552932Y-95824083D01*
X174550614Y-95837229D01*
X174548273Y-95847787D01*
X174538667Y-95883634D01*
X174541902Y-95920598D01*
X174542374Y-95931407D01*
X174542374Y-95978784D01*
X174522689Y-96045823D01*
X174469885Y-96091578D01*
X174405119Y-96102074D01*
X174385828Y-96100000D01*
X174338000Y-96100000D01*
X174338000Y-96675000D01*
X174388500Y-96675000D01*
X174455539Y-96694685D01*
X174501294Y-96747489D01*
X174512500Y-96799000D01*
X174512500Y-96951000D01*
X174492815Y-97018039D01*
X174440011Y-97063794D01*
X174388500Y-97075000D01*
X173336000Y-97075000D01*
X173268961Y-97055315D01*
X173223206Y-97002511D01*
X173212000Y-96951000D01*
X173212000Y-96100000D01*
X173612000Y-96100000D01*
X173612000Y-96675000D01*
X173938000Y-96675000D01*
X173938000Y-96100000D01*
X173890155Y-96100000D01*
X173830627Y-96106401D01*
X173830620Y-96106403D01*
X173818333Y-96110986D01*
X173748641Y-96115970D01*
X173731667Y-96110986D01*
X173719379Y-96106403D01*
X173719372Y-96106401D01*
X173659844Y-96100000D01*
X173612000Y-96100000D01*
X173212000Y-96100000D01*
X173164172Y-96100000D01*
X173144629Y-96102101D01*
X173075869Y-96089695D01*
X173024732Y-96042084D01*
X173007374Y-95978811D01*
X173007374Y-95843398D01*
X173007846Y-95832590D01*
X173008591Y-95824081D01*
X173011079Y-95795635D01*
X173001468Y-95759771D01*
X172999136Y-95749251D01*
X172992691Y-95712692D01*
X172990631Y-95707034D01*
X172984365Y-95691906D01*
X172981826Y-95686461D01*
X172960543Y-95656067D01*
X172954727Y-95646937D01*
X172944560Y-95629327D01*
X172936179Y-95614809D01*
X172907750Y-95590954D01*
X172899775Y-95583646D01*
X171131693Y-93815563D01*
X171098208Y-93754240D01*
X171095374Y-93727882D01*
X171095374Y-93445000D01*
X171674874Y-93445000D01*
X171674874Y-93647844D01*
X171681275Y-93707372D01*
X171681277Y-93707379D01*
X171731519Y-93842086D01*
X171731523Y-93842093D01*
X171817683Y-93957187D01*
X171817686Y-93957190D01*
X171932780Y-94043350D01*
X171932787Y-94043354D01*
X172067494Y-94093596D01*
X172067501Y-94093598D01*
X172127029Y-94099999D01*
X172127046Y-94100000D01*
X172449874Y-94100000D01*
X172449874Y-93445000D01*
X172949874Y-93445000D01*
X172949874Y-94100000D01*
X173272702Y-94100000D01*
X173272718Y-94099999D01*
X173332245Y-94093598D01*
X173406540Y-94065888D01*
X173476232Y-94060904D01*
X173493208Y-94065888D01*
X173567502Y-94093598D01*
X173567501Y-94093598D01*
X173627029Y-94099999D01*
X173627046Y-94100000D01*
X174274874Y-94100000D01*
X174274874Y-93445000D01*
X174774874Y-93445000D01*
X174774874Y-94100000D01*
X175422702Y-94100000D01*
X175422718Y-94099999D01*
X175482246Y-94093598D01*
X175482253Y-94093596D01*
X175616960Y-94043354D01*
X175616967Y-94043350D01*
X175732061Y-93957190D01*
X175732064Y-93957187D01*
X175818224Y-93842093D01*
X175818228Y-93842086D01*
X175868470Y-93707379D01*
X175868472Y-93707372D01*
X175874873Y-93647844D01*
X175874874Y-93647827D01*
X175874874Y-93445000D01*
X174774874Y-93445000D01*
X174274874Y-93445000D01*
X172949874Y-93445000D01*
X172449874Y-93445000D01*
X171674874Y-93445000D01*
X171095374Y-93445000D01*
X171095374Y-92684118D01*
X171115059Y-92617079D01*
X171131693Y-92596437D01*
X171371311Y-92356819D01*
X171432634Y-92323334D01*
X171458992Y-92320500D01*
X171654039Y-92320500D01*
X171721078Y-92340185D01*
G37*
G04 #@! TD.AperFunction*
G04 #@! TA.AperFunction,Conductor*
G36*
X186811539Y-108019685D02*
G01*
X186857294Y-108072489D01*
X186868500Y-108124000D01*
X186868500Y-111995220D01*
X186868308Y-112002121D01*
X186850706Y-112317921D01*
X186849316Y-112330767D01*
X186799421Y-112640086D01*
X186796701Y-112652717D01*
X186714894Y-112955153D01*
X186710875Y-112967432D01*
X186598044Y-113259707D01*
X186592770Y-113271502D01*
X186450129Y-113550468D01*
X186443655Y-113561650D01*
X186272766Y-113824252D01*
X186265164Y-113834700D01*
X186067879Y-114078090D01*
X186059231Y-114087689D01*
X185837689Y-114309231D01*
X185828090Y-114317879D01*
X185584700Y-114515164D01*
X185574252Y-114522766D01*
X185311650Y-114693655D01*
X185300468Y-114700129D01*
X185021502Y-114842770D01*
X185009707Y-114848044D01*
X184717432Y-114960875D01*
X184705153Y-114964894D01*
X184402717Y-115046701D01*
X184390086Y-115049421D01*
X184080767Y-115099316D01*
X184067921Y-115100706D01*
X183752123Y-115118308D01*
X183745222Y-115118500D01*
X179624000Y-115118500D01*
X179556961Y-115098815D01*
X179511206Y-115046011D01*
X179500000Y-114994500D01*
X179500000Y-108124000D01*
X179519685Y-108056961D01*
X179572489Y-108011206D01*
X179624000Y-108000000D01*
X186744500Y-108000000D01*
X186811539Y-108019685D01*
G37*
G04 #@! TD.AperFunction*
G04 #@! TA.AperFunction,Conductor*
G36*
X186750000Y-100500000D02*
G01*
X181750000Y-100500000D01*
X181750000Y-97825000D01*
X183404233Y-97825000D01*
X183471272Y-97844685D01*
X183509226Y-97883027D01*
X183606175Y-98037320D01*
X183737554Y-98168699D01*
X183894873Y-98267549D01*
X184028146Y-98314183D01*
X184070247Y-98328915D01*
X184254871Y-98349717D01*
X184254874Y-98349717D01*
X184254877Y-98349717D01*
X184439500Y-98328915D01*
X184439503Y-98328914D01*
X184614875Y-98267549D01*
X184772194Y-98168699D01*
X184903573Y-98037320D01*
X185002423Y-97880001D01*
X185063788Y-97704629D01*
X185063788Y-97704628D01*
X185063789Y-97704626D01*
X185084591Y-97520002D01*
X185084591Y-97519997D01*
X185063789Y-97335373D01*
X185032934Y-97247195D01*
X185002423Y-97159999D01*
X184903573Y-97002680D01*
X184772194Y-96871301D01*
X184614875Y-96772451D01*
X184572776Y-96757720D01*
X184439500Y-96711084D01*
X184254877Y-96690283D01*
X184254871Y-96690283D01*
X184070247Y-96711084D01*
X183894870Y-96772452D01*
X183737553Y-96871301D01*
X183606175Y-97002679D01*
X183534361Y-97116972D01*
X183482026Y-97163263D01*
X183429367Y-97175000D01*
X181750000Y-97175000D01*
X181750000Y-94500000D01*
X186750000Y-94500000D01*
X186750000Y-100500000D01*
G37*
G04 #@! TD.AperFunction*
G04 #@! TA.AperFunction,Conductor*
G36*
X183753243Y-87131669D02*
G01*
X184069500Y-87148243D01*
X184082376Y-87149597D01*
X184391966Y-87198632D01*
X184404627Y-87201322D01*
X184707405Y-87282451D01*
X184719731Y-87286457D01*
X185012344Y-87398780D01*
X185024186Y-87404052D01*
X185303468Y-87546354D01*
X185314699Y-87552839D01*
X185577554Y-87723539D01*
X185588055Y-87731168D01*
X185831637Y-87928416D01*
X185841282Y-87937101D01*
X186062898Y-88158717D01*
X186071583Y-88168362D01*
X186268831Y-88411944D01*
X186276460Y-88422445D01*
X186447158Y-88685296D01*
X186453648Y-88696536D01*
X186595942Y-88975802D01*
X186601221Y-88987660D01*
X186713541Y-89280265D01*
X186717552Y-89292608D01*
X186798672Y-89595352D01*
X186801370Y-89608048D01*
X186850400Y-89917607D01*
X186851757Y-89930516D01*
X186868330Y-90246756D01*
X186868500Y-90253245D01*
X186868500Y-94126000D01*
X186848815Y-94193039D01*
X186796011Y-94238794D01*
X186783318Y-94241555D01*
X186774874Y-94250000D01*
X179500000Y-94250000D01*
X179500000Y-87255500D01*
X179519685Y-87188461D01*
X179572489Y-87142706D01*
X179624000Y-87131500D01*
X183695149Y-87131500D01*
X183746755Y-87131500D01*
X183753243Y-87131669D01*
G37*
G04 #@! TD.AperFunction*
G04 #@! TA.AperFunction,Conductor*
G36*
X144943039Y-87151185D02*
G01*
X144988794Y-87203989D01*
X145000000Y-87255500D01*
X145000000Y-94126000D01*
X144980315Y-94193039D01*
X144927511Y-94238794D01*
X144876000Y-94250000D01*
X137755500Y-94250000D01*
X137688461Y-94230315D01*
X137642706Y-94177511D01*
X137631500Y-94126000D01*
X137631500Y-90253245D01*
X137631670Y-90246756D01*
X137641493Y-90059314D01*
X137648243Y-89930497D01*
X137649597Y-89917625D01*
X137698632Y-89608029D01*
X137701321Y-89595376D01*
X137782453Y-89292588D01*
X137786455Y-89280273D01*
X137898783Y-88987648D01*
X137904048Y-88975820D01*
X138046358Y-88696523D01*
X138052833Y-88685308D01*
X138223546Y-88422435D01*
X138231161Y-88411953D01*
X138428424Y-88168352D01*
X138437091Y-88158727D01*
X138658727Y-87937091D01*
X138668352Y-87928424D01*
X138911953Y-87731161D01*
X138922435Y-87723546D01*
X139185308Y-87552833D01*
X139196523Y-87546358D01*
X139475820Y-87404048D01*
X139487648Y-87398783D01*
X139780273Y-87286455D01*
X139792588Y-87282453D01*
X140095376Y-87201321D01*
X140108029Y-87198632D01*
X140417625Y-87149597D01*
X140430497Y-87148243D01*
X140746756Y-87131669D01*
X140753245Y-87131500D01*
X144876000Y-87131500D01*
X144943039Y-87151185D01*
G37*
G04 #@! TD.AperFunction*
G04 #@! TA.AperFunction,Conductor*
G36*
X144943039Y-108019685D02*
G01*
X144988794Y-108072489D01*
X145000000Y-108124000D01*
X145000000Y-114994500D01*
X144980315Y-115061539D01*
X144927511Y-115107294D01*
X144876000Y-115118500D01*
X140753245Y-115118500D01*
X140746756Y-115118330D01*
X140430516Y-115101757D01*
X140417607Y-115100400D01*
X140108048Y-115051370D01*
X140095358Y-115048673D01*
X139792606Y-114967551D01*
X139780265Y-114963541D01*
X139487660Y-114851221D01*
X139475802Y-114845942D01*
X139196536Y-114703648D01*
X139185296Y-114697158D01*
X138922445Y-114526460D01*
X138911944Y-114518831D01*
X138668362Y-114321583D01*
X138658717Y-114312898D01*
X138437101Y-114091282D01*
X138428416Y-114081637D01*
X138231168Y-113838055D01*
X138223539Y-113827554D01*
X138052841Y-113564703D01*
X138046351Y-113553463D01*
X137921900Y-113309215D01*
X137904052Y-113274186D01*
X137898778Y-113262339D01*
X137786458Y-112969734D01*
X137782451Y-112957405D01*
X137701322Y-112654627D01*
X137698632Y-112641966D01*
X137649597Y-112332376D01*
X137648243Y-112319500D01*
X137631670Y-112003243D01*
X137631500Y-111996754D01*
X137631500Y-108124000D01*
X137651185Y-108056961D01*
X137703989Y-108011206D01*
X137755500Y-108000000D01*
X144876000Y-108000000D01*
X144943039Y-108019685D01*
G37*
G04 #@! TD.AperFunction*
G04 #@! TA.AperFunction,Conductor*
G36*
X167037459Y-105519685D02*
G01*
X167083214Y-105572489D01*
X167094420Y-105624000D01*
X167094420Y-105664535D01*
X167094517Y-105670029D01*
X167094835Y-105678906D01*
X167094835Y-105678908D01*
X167104546Y-105727725D01*
X167122837Y-105776764D01*
X167128963Y-105793188D01*
X167131714Y-105800060D01*
X167131715Y-105800061D01*
X167180580Y-105862201D01*
X167181496Y-105863365D01*
X167237429Y-105905237D01*
X167243463Y-105909534D01*
X167319568Y-105935874D01*
X167379955Y-105940192D01*
X167389258Y-105940858D01*
X167396655Y-105941210D01*
X167396656Y-105941210D01*
X167474920Y-105922223D01*
X167536243Y-105888738D01*
X167571694Y-105862200D01*
X167603095Y-105830797D01*
X167634468Y-105808003D01*
X167662572Y-105793683D01*
X167699462Y-105781697D01*
X167713012Y-105779550D01*
X167730600Y-105776764D01*
X167769389Y-105776764D01*
X167800535Y-105781696D01*
X167837426Y-105793682D01*
X167865526Y-105808000D01*
X167896906Y-105830800D01*
X167919194Y-105853087D01*
X167941997Y-105884472D01*
X167956314Y-105912570D01*
X167968303Y-105949468D01*
X167973233Y-105980595D01*
X167973234Y-106019388D01*
X167963286Y-106082202D01*
X167963084Y-106083515D01*
X167962850Y-106085054D01*
X167962849Y-106085074D01*
X167962680Y-106130489D01*
X167962681Y-106130492D01*
X167962681Y-106130496D01*
X167972625Y-106199654D01*
X167972630Y-106199687D01*
X167973852Y-106206954D01*
X167973852Y-106206955D01*
X168009040Y-106279391D01*
X168009044Y-106279398D01*
X168054774Y-106332173D01*
X168054797Y-106332198D01*
X168059777Y-106337677D01*
X168128543Y-106379593D01*
X168195582Y-106399278D01*
X168239415Y-106405580D01*
X168239418Y-106405580D01*
X170376704Y-106405580D01*
X170443743Y-106425265D01*
X170489498Y-106478069D01*
X170492978Y-106493153D01*
X170499999Y-106500000D01*
X170500000Y-106500000D01*
X175100874Y-106500000D01*
X175167913Y-106519685D01*
X175213668Y-106572489D01*
X175224874Y-106624000D01*
X175224874Y-109876000D01*
X175205189Y-109943039D01*
X175152385Y-109988794D01*
X175100874Y-110000000D01*
X166348874Y-110000000D01*
X166281835Y-109980315D01*
X166236080Y-109927511D01*
X166224874Y-109876000D01*
X166224874Y-107250002D01*
X166591048Y-107250002D01*
X166609832Y-107368604D01*
X166609833Y-107368607D01*
X166609834Y-107368609D01*
X166655252Y-107457747D01*
X166664353Y-107475608D01*
X166664356Y-107475612D01*
X166749261Y-107560517D01*
X166749265Y-107560520D01*
X166749267Y-107560522D01*
X166856265Y-107615040D01*
X166856267Y-107615040D01*
X166856269Y-107615041D01*
X166974872Y-107633826D01*
X166974874Y-107633826D01*
X166974876Y-107633826D01*
X167093478Y-107615041D01*
X167093478Y-107615040D01*
X167093483Y-107615040D01*
X167200481Y-107560522D01*
X167200486Y-107560517D01*
X167274756Y-107486248D01*
X167336079Y-107452763D01*
X167405771Y-107457747D01*
X167450118Y-107486248D01*
X167524387Y-107560517D01*
X167524391Y-107560520D01*
X167524393Y-107560522D01*
X167631391Y-107615040D01*
X167631393Y-107615040D01*
X167631395Y-107615041D01*
X167749998Y-107633826D01*
X167750000Y-107633826D01*
X167750002Y-107633826D01*
X167868604Y-107615041D01*
X167868604Y-107615040D01*
X167868609Y-107615040D01*
X167975607Y-107560522D01*
X168060522Y-107475607D01*
X168115040Y-107368609D01*
X168133826Y-107250002D01*
X174091048Y-107250002D01*
X174109832Y-107368604D01*
X174109833Y-107368607D01*
X174109834Y-107368609D01*
X174155252Y-107457747D01*
X174164353Y-107475608D01*
X174164356Y-107475612D01*
X174249261Y-107560517D01*
X174249265Y-107560520D01*
X174249267Y-107560522D01*
X174356265Y-107615040D01*
X174356267Y-107615040D01*
X174356269Y-107615041D01*
X174474872Y-107633826D01*
X174474874Y-107633826D01*
X174474876Y-107633826D01*
X174593478Y-107615041D01*
X174593478Y-107615040D01*
X174593483Y-107615040D01*
X174700481Y-107560522D01*
X174785396Y-107475607D01*
X174839914Y-107368609D01*
X174858700Y-107250000D01*
X174839914Y-107131391D01*
X174785396Y-107024393D01*
X174785394Y-107024391D01*
X174785391Y-107024387D01*
X174700486Y-106939482D01*
X174700482Y-106939479D01*
X174700481Y-106939478D01*
X174593483Y-106884960D01*
X174593481Y-106884959D01*
X174593478Y-106884958D01*
X174474876Y-106866174D01*
X174474872Y-106866174D01*
X174356269Y-106884958D01*
X174249265Y-106939479D01*
X174249261Y-106939482D01*
X174164356Y-107024387D01*
X174164353Y-107024391D01*
X174109832Y-107131395D01*
X174091048Y-107249997D01*
X174091048Y-107250002D01*
X168133826Y-107250002D01*
X168133826Y-107250000D01*
X168115040Y-107131391D01*
X168060522Y-107024393D01*
X168060520Y-107024391D01*
X168060517Y-107024387D01*
X167975612Y-106939482D01*
X167975608Y-106939479D01*
X167975607Y-106939478D01*
X167868609Y-106884960D01*
X167868607Y-106884959D01*
X167868604Y-106884958D01*
X167750002Y-106866174D01*
X167749998Y-106866174D01*
X167631395Y-106884958D01*
X167524391Y-106939479D01*
X167524387Y-106939482D01*
X167450118Y-107013752D01*
X167388795Y-107047237D01*
X167319103Y-107042253D01*
X167274756Y-107013752D01*
X167200486Y-106939482D01*
X167200482Y-106939479D01*
X167200481Y-106939478D01*
X167093483Y-106884960D01*
X167093481Y-106884959D01*
X167093478Y-106884958D01*
X166974876Y-106866174D01*
X166974872Y-106866174D01*
X166856269Y-106884958D01*
X166749265Y-106939479D01*
X166749261Y-106939482D01*
X166664356Y-107024387D01*
X166664353Y-107024391D01*
X166609832Y-107131395D01*
X166591048Y-107249997D01*
X166591048Y-107250002D01*
X166224874Y-107250002D01*
X166224874Y-105624000D01*
X166244559Y-105556961D01*
X166297363Y-105511206D01*
X166348874Y-105500000D01*
X166970420Y-105500000D01*
X167037459Y-105519685D01*
G37*
G04 #@! TD.AperFunction*
M02*
