M48
; DRILL file {KiCad 7.0.10} date Sat Feb  3 12:14:30 2024
; FORMAT={-:-/ absolute / metric / decimal}
; #@! TF.CreationDate,2024-02-03T12:14:30-05:00
; #@! TF.GenerationSoftware,Kicad,Pcbnew,7.0.10
; #@! TF.FileFunction,Plated,1,4,PTH
FMAT,2
METRIC
; #@! TA.AperFunction,Plated,PTH,ViaDrill
T1C0.254
; #@! TA.AperFunction,Plated,PTH,ComponentDrill
T2C0.254
; #@! TA.AperFunction,Plated,PTH,ComponentDrill
T3C0.356
; #@! TA.AperFunction,Plated,PTH,ComponentDrill
T4C0.500
; #@! TA.AperFunction,Plated,PTH,ComponentDrill
T5C0.840
; #@! TA.AperFunction,Plated,PTH,ComponentDrill
T6C3.200
%
G90
G05
T1
X138.75Y-95.0
X138.75Y-96.0
X138.75Y-97.0
X143.0Y-100.0
X143.975Y-102.35
X143.975Y-104.35
X144.0Y-107.25
X144.225Y-100.85
X146.25Y-99.5
X146.275Y-92.375
X146.275Y-110.25
X146.275Y-111.0
X146.275Y-111.75
X147.275Y-111.75
X148.275Y-110.75
X148.3Y-109.225
X148.525Y-99.25
X149.024Y-98.531
X149.025Y-99.75
X149.275Y-111.75
X150.025Y-107.25
X151.275Y-103.75
X151.775Y-110.5
X152.275Y-96.5
X152.775Y-96.0
X153.275Y-96.5
X153.275Y-103.75
X153.525Y-110.5
X153.775Y-95.5
X154.025Y-92.25
X154.275Y-104.0
X154.525Y-112.25
X154.775Y-93.25
X154.775Y-106.25
X155.525Y-97.25
X156.494Y-103.25
X156.525Y-93.25
X156.775Y-100.806
X156.775Y-110.75
X157.48Y-105.0
X158.275Y-93.25
X158.275Y-97.25
X158.525Y-99.75
X159.025Y-92.25
X159.275Y-95.5
X159.775Y-96.5
X160.025Y-98.0
X160.275Y-99.0
X160.275Y-105.5
X160.775Y-96.25
X161.275Y-103.25
X161.525Y-94.75
X161.775Y-91.25
X161.775Y-109.25
X163.525Y-100.25
X164.025Y-105.5
X164.275Y-95.75
X164.475Y-108.675
X165.025Y-100.0
X165.775Y-102.0
X166.275Y-95.75
X166.475Y-113.75
X166.525Y-91.25
X166.75Y-106.0
X166.775Y-97.0
X166.975Y-107.25
X167.025Y-98.25
X167.275Y-102.0
X167.75Y-104.25
X167.75Y-106.0
X167.75Y-107.25
X168.475Y-110.455
X168.525Y-94.5
X168.525Y-100.0
X168.775Y-98.25
X168.775Y-102.0
X169.196Y-110.955
X169.5Y-103.0
X170.025Y-92.75
X170.025Y-93.75
X170.025Y-100.0
X170.025Y-102.0
X170.275Y-91.75
X170.275Y-97.0
X170.525Y-94.75
X171.5Y-103.0
X171.5Y-105.705
X171.5Y-107.25
X171.525Y-91.25
X171.525Y-92.75
X171.525Y-93.5
X171.525Y-96.0
X172.025Y-94.25
X172.25Y-98.75
X172.25Y-100.25
X172.5Y-105.75
X172.5Y-107.25
X172.775Y-94.25
X173.0Y-98.0
X173.0Y-98.75
X173.0Y-100.25
X173.0Y-101.0
X173.025Y-95.25
X173.025Y-99.5
X173.225Y-113.75
X173.5Y-107.25
X173.5Y-109.625
X173.75Y-98.75
X173.75Y-100.25
X173.75Y-105.75
X173.775Y-90.75
X173.775Y-96.0
X174.475Y-107.25
X174.475Y-113.75
X174.5Y-98.0
X174.5Y-98.75
X174.5Y-99.5
X174.5Y-100.25
X174.5Y-101.0
X174.525Y-94.25
X174.525Y-95.25
X175.025Y-103.25
X175.25Y-98.75
X175.25Y-100.25
X175.525Y-94.25
X176.025Y-91.25
X176.025Y-92.75
X176.025Y-93.5
X176.275Y-96.0
X176.275Y-103.25
X177.025Y-94.75
X177.025Y-101.5
X177.275Y-91.75
X177.5Y-96.75
X177.525Y-92.75
X177.525Y-93.75
X178.025Y-104.75
X178.025Y-106.75
X178.275Y-98.25
X178.5Y-96.75
X179.025Y-103.5
X179.775Y-96.75
X179.775Y-98.25
X180.525Y-103.5
X181.525Y-106.75
T2
X172.275Y-98.0
X172.275Y-99.5
X172.275Y-101.0
X173.775Y-98.0
X173.775Y-99.5
X173.775Y-101.0
X175.275Y-98.0
X175.275Y-99.5
X175.275Y-101.0
T3
X151.275Y-98.75
X151.275Y-100.25
X151.275Y-101.75
X152.775Y-98.75
X152.775Y-100.25
X152.775Y-101.75
X154.275Y-98.75
X154.275Y-100.25
X154.275Y-101.75
T4
X138.6Y-90.5
X138.6Y-111.75
X139.303Y-88.803
X139.303Y-92.197
X139.303Y-110.053
X139.303Y-113.447
X141.0Y-88.1
X141.0Y-92.9
X141.0Y-109.35
X141.0Y-114.15
X142.697Y-88.803
X142.697Y-92.197
X142.697Y-110.053
X142.697Y-113.447
X143.4Y-90.5
X143.4Y-111.75
X181.1Y-90.5
X181.1Y-111.75
X181.803Y-88.803
X181.803Y-92.197
X181.803Y-110.053
X181.803Y-113.447
X183.5Y-88.1
X183.5Y-92.9
X183.5Y-109.35
X183.5Y-114.15
X185.197Y-88.803
X185.197Y-92.197
X185.197Y-110.053
X185.197Y-113.447
X185.9Y-90.5
X185.9Y-111.75
T5
X182.985Y-96.25
X182.985Y-98.79
X184.255Y-97.52
X185.525Y-96.25
X185.525Y-98.79
T6
X141.0Y-90.5
X141.0Y-111.75
X183.5Y-90.5
X183.5Y-111.75
M30
