G04 #@! TF.GenerationSoftware,KiCad,Pcbnew,7.0.10*
G04 #@! TF.CreationDate,2024-02-03T12:14:10-05:00*
G04 #@! TF.ProjectId,openlst-hw,6f70656e-6c73-4742-9d68-772e6b696361,rev?*
G04 #@! TF.SameCoordinates,Original*
G04 #@! TF.FileFunction,Soldermask,Top*
G04 #@! TF.FilePolarity,Negative*
%FSLAX46Y46*%
G04 Gerber Fmt 4.6, Leading zero omitted, Abs format (unit mm)*
G04 Created by KiCad (PCBNEW 7.0.10) date 2024-02-03 12:14:10*
%MOMM*%
%LPD*%
G01*
G04 APERTURE LIST*
G04 Aperture macros list*
%AMRoundRect*
0 Rectangle with rounded corners*
0 $1 Rounding radius*
0 $2 $3 $4 $5 $6 $7 $8 $9 X,Y pos of 4 corners*
0 Add a 4 corners polygon primitive as box body*
4,1,4,$2,$3,$4,$5,$6,$7,$8,$9,$2,$3,0*
0 Add four circle primitives for the rounded corners*
1,1,$1+$1,$2,$3*
1,1,$1+$1,$4,$5*
1,1,$1+$1,$6,$7*
1,1,$1+$1,$8,$9*
0 Add four rect primitives between the rounded corners*
20,1,$1+$1,$2,$3,$4,$5,0*
20,1,$1+$1,$4,$5,$6,$7,0*
20,1,$1+$1,$6,$7,$8,$9,0*
20,1,$1+$1,$8,$9,$2,$3,0*%
G04 Aperture macros list end*
%ADD10C,0.600000*%
%ADD11RoundRect,0.225000X0.250000X-0.225000X0.250000X0.225000X-0.250000X0.225000X-0.250000X-0.225000X0*%
%ADD12RoundRect,0.225000X-0.225000X-0.250000X0.225000X-0.250000X0.225000X0.250000X-0.225000X0.250000X0*%
%ADD13RoundRect,0.140000X0.140000X0.170000X-0.140000X0.170000X-0.140000X-0.170000X0.140000X-0.170000X0*%
%ADD14R,0.750000X0.280000*%
%ADD15R,0.280000X0.750000*%
%ADD16RoundRect,0.218750X0.256250X-0.218750X0.256250X0.218750X-0.256250X0.218750X-0.256250X-0.218750X0*%
%ADD17RoundRect,0.200000X0.275000X-0.200000X0.275000X0.200000X-0.275000X0.200000X-0.275000X-0.200000X0*%
%ADD18RoundRect,0.200000X0.200000X0.275000X-0.200000X0.275000X-0.200000X-0.275000X0.200000X-0.275000X0*%
%ADD19RoundRect,0.140000X-0.170000X0.140000X-0.170000X-0.140000X0.170000X-0.140000X0.170000X0.140000X0*%
%ADD20RoundRect,0.225000X0.225000X0.250000X-0.225000X0.250000X-0.225000X-0.250000X0.225000X-0.250000X0*%
%ADD21RoundRect,0.140000X-0.140000X-0.170000X0.140000X-0.170000X0.140000X0.170000X-0.140000X0.170000X0*%
%ADD22RoundRect,0.200000X-0.275000X0.200000X-0.275000X-0.200000X0.275000X-0.200000X0.275000X0.200000X0*%
%ADD23RoundRect,0.225000X-0.250000X0.225000X-0.250000X-0.225000X0.250000X-0.225000X0.250000X0.225000X0*%
%ADD24RoundRect,0.140000X0.170000X-0.140000X0.170000X0.140000X-0.170000X0.140000X-0.170000X-0.140000X0*%
%ADD25RoundRect,0.147500X0.147500X0.172500X-0.147500X0.172500X-0.147500X-0.172500X0.147500X-0.172500X0*%
%ADD26R,0.800000X2.700000*%
%ADD27C,0.800000*%
%ADD28C,6.400000*%
%ADD29RoundRect,0.218750X-0.256250X0.218750X-0.256250X-0.218750X0.256250X-0.218750X0.256250X0.218750X0*%
%ADD30C,1.552000*%
%ADD31RoundRect,0.100000X-0.712500X-0.100000X0.712500X-0.100000X0.712500X0.100000X-0.712500X0.100000X0*%
%ADD32R,1.500000X1.600000*%
%ADD33RoundRect,0.218750X-0.218750X-0.256250X0.218750X-0.256250X0.218750X0.256250X-0.218750X0.256250X0*%
%ADD34R,0.550000X0.500000*%
%ADD35R,0.550000X0.400000*%
%ADD36R,0.400000X0.550000*%
%ADD37R,0.600000X3.500000*%
%ADD38R,3.500000X0.600000*%
%ADD39RoundRect,0.250000X0.700000X-0.275000X0.700000X0.275000X-0.700000X0.275000X-0.700000X-0.275000X0*%
%ADD40R,1.700000X0.810000*%
%ADD41R,1.050000X0.810000*%
%ADD42RoundRect,0.150000X-0.587500X-0.150000X0.587500X-0.150000X0.587500X0.150000X-0.587500X0.150000X0*%
%ADD43RoundRect,0.200000X-0.200000X-0.275000X0.200000X-0.275000X0.200000X0.275000X-0.200000X0.275000X0*%
%ADD44RoundRect,0.147500X-0.147500X-0.172500X0.147500X-0.172500X0.147500X0.172500X-0.147500X0.172500X0*%
%ADD45C,1.450000*%
G04 APERTURE END LIST*
D10*
X151274874Y-99500000D02*
X154274874Y-99500000D01*
X152024874Y-98750000D02*
X152024874Y-101750000D01*
X153524874Y-98750000D02*
X153524874Y-101750000D01*
X154274874Y-101000000D02*
X151274874Y-101000000D01*
D11*
X154774874Y-95775000D03*
X154774874Y-94225000D03*
D12*
X178999874Y-99500000D03*
X180549874Y-99500000D03*
D13*
X180254874Y-97500000D03*
X179294874Y-97500000D03*
D14*
X149994874Y-98250000D03*
X149994874Y-98750000D03*
X149994874Y-99250000D03*
X149994874Y-99750000D03*
X149994874Y-100250000D03*
X149994874Y-100750000D03*
X149994874Y-101250000D03*
X149994874Y-101750000D03*
X149994874Y-102250000D03*
D15*
X150774874Y-103030000D03*
X151274874Y-103030000D03*
X151774874Y-103030000D03*
X152274874Y-103030000D03*
X152774874Y-103030000D03*
X153274874Y-103030000D03*
X153774874Y-103030000D03*
X154274874Y-103030000D03*
X154774874Y-103030000D03*
D14*
X155554874Y-102250000D03*
X155554874Y-101750000D03*
X155554874Y-101250000D03*
X155554874Y-100750000D03*
X155554874Y-100250000D03*
X155554874Y-99750000D03*
X155554874Y-99250000D03*
X155554874Y-98750000D03*
X155554874Y-98250000D03*
D15*
X154774874Y-97470000D03*
X154274874Y-97470000D03*
X153774874Y-97470000D03*
X153274874Y-97470000D03*
X152774874Y-97470000D03*
X152274874Y-97470000D03*
X151774874Y-97470000D03*
X151274874Y-97470000D03*
X150774874Y-97470000D03*
D16*
X153524874Y-109537500D03*
X153524874Y-107962500D03*
D17*
X151774874Y-106325000D03*
X151774874Y-104675000D03*
D18*
X146849874Y-104250000D03*
X145199874Y-104250000D03*
X146849874Y-102500000D03*
X145199874Y-102500000D03*
D13*
X159254874Y-98000000D03*
X158294874Y-98000000D03*
D11*
X153024874Y-94000000D03*
X153024874Y-92450000D03*
D19*
X155274874Y-104520000D03*
X155274874Y-105480000D03*
D11*
X155774874Y-112275000D03*
X155774874Y-110725000D03*
X149274874Y-110775000D03*
X149274874Y-109225000D03*
D20*
X173049874Y-104250000D03*
X171499874Y-104250000D03*
D21*
X168294874Y-99000000D03*
X169254874Y-99000000D03*
D18*
X146849874Y-100750000D03*
X145199874Y-100750000D03*
D22*
X162774874Y-108175000D03*
X162774874Y-109825000D03*
D11*
X167774874Y-97275000D03*
X167774874Y-95725000D03*
D17*
X153524874Y-106325000D03*
X153524874Y-104675000D03*
D16*
X151774874Y-109537500D03*
X151774874Y-107962500D03*
D22*
X146275000Y-96550000D03*
X146275000Y-98200000D03*
D23*
X150024874Y-104725000D03*
X150024874Y-106275000D03*
D24*
X157024874Y-98230000D03*
X157024874Y-97270000D03*
D25*
X159259874Y-102000000D03*
X158289874Y-102000000D03*
D17*
X161774874Y-93825000D03*
X161774874Y-92175000D03*
D26*
X150774874Y-90000000D03*
D22*
X179024874Y-100925000D03*
X179024874Y-102575000D03*
D17*
X149024874Y-94075000D03*
X149024874Y-92425000D03*
X155774874Y-108825000D03*
X155774874Y-107175000D03*
X167024874Y-93825000D03*
X167024874Y-92175000D03*
D27*
X181100000Y-111750000D03*
X181802944Y-110052944D03*
X181802944Y-113447056D03*
X183500000Y-109350000D03*
D28*
X183500000Y-111750000D03*
D27*
X183500000Y-114150000D03*
X185197056Y-110052944D03*
X185197056Y-113447056D03*
X185900000Y-111750000D03*
D29*
X165274874Y-95712500D03*
X165274874Y-97287500D03*
D13*
X160254874Y-103000000D03*
X159294874Y-103000000D03*
D11*
X158274874Y-95775000D03*
X158274874Y-94225000D03*
D27*
X181100000Y-90500000D03*
X181802944Y-88802944D03*
X181802944Y-92197056D03*
X183500000Y-88100000D03*
D28*
X183500000Y-90500000D03*
D27*
X183500000Y-92900000D03*
X185197056Y-88802944D03*
X185197056Y-92197056D03*
X185900000Y-90500000D03*
X138600000Y-111750000D03*
X139302944Y-110052944D03*
X139302944Y-113447056D03*
X141000000Y-109350000D03*
D28*
X141000000Y-111750000D03*
D27*
X141000000Y-114150000D03*
X142697056Y-110052944D03*
X142697056Y-113447056D03*
X143400000Y-111750000D03*
D30*
X184254874Y-97520000D03*
X182984874Y-96250000D03*
X182984874Y-98790000D03*
X185524874Y-96250000D03*
X185524874Y-98790000D03*
D17*
X180524874Y-102575000D03*
X180524874Y-100925000D03*
D27*
X138600000Y-90500000D03*
X139302944Y-88802944D03*
X139302944Y-92197056D03*
X141000000Y-88100000D03*
D28*
X141000000Y-90500000D03*
D27*
X141000000Y-92900000D03*
X142697056Y-88802944D03*
X142697056Y-92197056D03*
X143400000Y-90500000D03*
D21*
X168294874Y-101000000D03*
X169254874Y-101000000D03*
D31*
X162162374Y-99025000D03*
X162162374Y-99675000D03*
X162162374Y-100325000D03*
X162162374Y-100975000D03*
X166387374Y-100975000D03*
X166387374Y-100325000D03*
X166387374Y-99675000D03*
X166387374Y-99025000D03*
D32*
X160374874Y-111770000D03*
X160374874Y-109230000D03*
X158174874Y-109230000D03*
X158174874Y-111770000D03*
D22*
X146274874Y-93300000D03*
X146274874Y-94950000D03*
D11*
X158774874Y-106275000D03*
X158774874Y-104725000D03*
D33*
X145399874Y-106600000D03*
X146974874Y-106600000D03*
D34*
X176400000Y-102150000D03*
D35*
X176400000Y-101375000D03*
X176400000Y-100625000D03*
X176400000Y-99875000D03*
X176400000Y-99125000D03*
X176400000Y-98375000D03*
X176400000Y-97625000D03*
D34*
X176400000Y-96850000D03*
D36*
X175588000Y-96875000D03*
X174863000Y-96875000D03*
X174138000Y-96875000D03*
X173412000Y-96875000D03*
X172687000Y-96875000D03*
X171962000Y-96875000D03*
D34*
X171150000Y-96850000D03*
D35*
X171150000Y-97625000D03*
X171150000Y-98375000D03*
X171150000Y-99125000D03*
X171150000Y-99875000D03*
X171150000Y-100625000D03*
X171150000Y-101375000D03*
D34*
X171150000Y-102150000D03*
D36*
X171962000Y-102125000D03*
X172687000Y-102125000D03*
X173412000Y-102125000D03*
X174138000Y-102125000D03*
X174863000Y-102125000D03*
X175588000Y-102125000D03*
D37*
X174525000Y-99500000D03*
D38*
X173775000Y-100250000D03*
X173775000Y-98750000D03*
D37*
X173025000Y-99500000D03*
D22*
X165474874Y-108675000D03*
X165474874Y-110325000D03*
D39*
X169500000Y-107575000D03*
X169500000Y-104425000D03*
D22*
X162774874Y-111175000D03*
X162774874Y-112825000D03*
D21*
X159294874Y-100000000D03*
X160254874Y-100000000D03*
D40*
X174524874Y-93195000D03*
D41*
X174849874Y-92000000D03*
X174849874Y-90805000D03*
X172699874Y-90805000D03*
X172699874Y-92000000D03*
X172699874Y-93195000D03*
D26*
X149024874Y-90000000D03*
D21*
X158294874Y-101000000D03*
X159254874Y-101000000D03*
D22*
X160024874Y-92175000D03*
X160024874Y-93825000D03*
D11*
X163274874Y-97275000D03*
X163274874Y-95725000D03*
D42*
X160837374Y-104550000D03*
X160837374Y-106450000D03*
X162712374Y-105500000D03*
D11*
X156524874Y-95775000D03*
X156524874Y-94225000D03*
D17*
X150774874Y-94075000D03*
X150774874Y-92425000D03*
D11*
X169274874Y-97275000D03*
X169274874Y-95725000D03*
X147274874Y-110775000D03*
X147274874Y-109225000D03*
D12*
X174499874Y-104250000D03*
X176049874Y-104250000D03*
D43*
X178949874Y-104750000D03*
X180599874Y-104750000D03*
D44*
X158289874Y-99000000D03*
X159259874Y-99000000D03*
D43*
X178949874Y-106750000D03*
X180599874Y-106750000D03*
D45*
X176150000Y-112000000D03*
X165350000Y-112000000D03*
M02*
