%TF.GenerationSoftware,KiCad,Pcbnew,7.0.10*%
%TF.CreationDate,2024-02-03T12:14:31-05:00*%
%TF.ProjectId,openlst-hw,6f70656e-6c73-4742-9d68-772e6b696361,rev?*%
%TF.SameCoordinates,Original*%
%TF.FileFunction,Drillmap*%
%TF.FilePolarity,Positive*%
%FSLAX45Y45*%
G04 Gerber Fmt 4.5, Leading zero omitted, Abs format (unit mm)*
G04 Created by KiCad (PCBNEW 7.0.10) date 2024-02-03 12:14:31*
%MOMM*%
%LPD*%
G01*
G04 APERTURE LIST*
%ADD10C,0.150000*%
%ADD11C,0.200000*%
%ADD12C,0.145000*%
G04 APERTURE END LIST*
D10*
X13725000Y-9025000D02*
X13725000Y-11200000D01*
X18725000Y-9025000D02*
G75*
G03*
X18375000Y-8675000I-350000J0D01*
G01*
X18375000Y-8675000D02*
X14075000Y-8675000D01*
X14075000Y-8675000D02*
G75*
G03*
X13725000Y-9025000I0J-350000D01*
G01*
X18725000Y-11200000D02*
X18725000Y-9025000D01*
X13725000Y-11200000D02*
G75*
G03*
X14075000Y-11550000I350000J0D01*
G01*
X14075000Y-11550000D02*
X18375000Y-11550000D01*
X18375000Y-11550000D02*
G75*
G03*
X18725000Y-11200000I-1250J351250D01*
G01*
D11*
D12*
X16462500Y-11127500D02*
X16607500Y-11272500D01*
X16607500Y-11127500D02*
X16462500Y-11272500D01*
X17542500Y-11127500D02*
X17687500Y-11272500D01*
X17687500Y-11127500D02*
X17542500Y-11272500D01*
D11*
X13978277Y-11868984D02*
X13978277Y-11668984D01*
X13978277Y-11668984D02*
X14025896Y-11668984D01*
X14025896Y-11668984D02*
X14054467Y-11678508D01*
X14054467Y-11678508D02*
X14073515Y-11697555D01*
X14073515Y-11697555D02*
X14083039Y-11716603D01*
X14083039Y-11716603D02*
X14092562Y-11754698D01*
X14092562Y-11754698D02*
X14092562Y-11783269D01*
X14092562Y-11783269D02*
X14083039Y-11821365D01*
X14083039Y-11821365D02*
X14073515Y-11840412D01*
X14073515Y-11840412D02*
X14054467Y-11859460D01*
X14054467Y-11859460D02*
X14025896Y-11868984D01*
X14025896Y-11868984D02*
X13978277Y-11868984D01*
X14178277Y-11868984D02*
X14178277Y-11735650D01*
X14178277Y-11773746D02*
X14187801Y-11754698D01*
X14187801Y-11754698D02*
X14197324Y-11745174D01*
X14197324Y-11745174D02*
X14216372Y-11735650D01*
X14216372Y-11735650D02*
X14235420Y-11735650D01*
X14302086Y-11868984D02*
X14302086Y-11735650D01*
X14302086Y-11668984D02*
X14292562Y-11678508D01*
X14292562Y-11678508D02*
X14302086Y-11688031D01*
X14302086Y-11688031D02*
X14311610Y-11678508D01*
X14311610Y-11678508D02*
X14302086Y-11668984D01*
X14302086Y-11668984D02*
X14302086Y-11688031D01*
X14425896Y-11868984D02*
X14406848Y-11859460D01*
X14406848Y-11859460D02*
X14397324Y-11840412D01*
X14397324Y-11840412D02*
X14397324Y-11668984D01*
X14530658Y-11868984D02*
X14511610Y-11859460D01*
X14511610Y-11859460D02*
X14502086Y-11840412D01*
X14502086Y-11840412D02*
X14502086Y-11668984D01*
X14759229Y-11868984D02*
X14759229Y-11668984D01*
X14759229Y-11668984D02*
X14825896Y-11811841D01*
X14825896Y-11811841D02*
X14892562Y-11668984D01*
X14892562Y-11668984D02*
X14892562Y-11868984D01*
X15073515Y-11868984D02*
X15073515Y-11764222D01*
X15073515Y-11764222D02*
X15063991Y-11745174D01*
X15063991Y-11745174D02*
X15044943Y-11735650D01*
X15044943Y-11735650D02*
X15006848Y-11735650D01*
X15006848Y-11735650D02*
X14987801Y-11745174D01*
X15073515Y-11859460D02*
X15054467Y-11868984D01*
X15054467Y-11868984D02*
X15006848Y-11868984D01*
X15006848Y-11868984D02*
X14987801Y-11859460D01*
X14987801Y-11859460D02*
X14978277Y-11840412D01*
X14978277Y-11840412D02*
X14978277Y-11821365D01*
X14978277Y-11821365D02*
X14987801Y-11802317D01*
X14987801Y-11802317D02*
X15006848Y-11792793D01*
X15006848Y-11792793D02*
X15054467Y-11792793D01*
X15054467Y-11792793D02*
X15073515Y-11783269D01*
X15168753Y-11735650D02*
X15168753Y-11935650D01*
X15168753Y-11745174D02*
X15187801Y-11735650D01*
X15187801Y-11735650D02*
X15225896Y-11735650D01*
X15225896Y-11735650D02*
X15244943Y-11745174D01*
X15244943Y-11745174D02*
X15254467Y-11754698D01*
X15254467Y-11754698D02*
X15263991Y-11773746D01*
X15263991Y-11773746D02*
X15263991Y-11830888D01*
X15263991Y-11830888D02*
X15254467Y-11849936D01*
X15254467Y-11849936D02*
X15244943Y-11859460D01*
X15244943Y-11859460D02*
X15225896Y-11868984D01*
X15225896Y-11868984D02*
X15187801Y-11868984D01*
X15187801Y-11868984D02*
X15168753Y-11859460D01*
X15349705Y-11849936D02*
X15359229Y-11859460D01*
X15359229Y-11859460D02*
X15349705Y-11868984D01*
X15349705Y-11868984D02*
X15340182Y-11859460D01*
X15340182Y-11859460D02*
X15349705Y-11849936D01*
X15349705Y-11849936D02*
X15349705Y-11868984D01*
X15349705Y-11745174D02*
X15359229Y-11754698D01*
X15359229Y-11754698D02*
X15349705Y-11764222D01*
X15349705Y-11764222D02*
X15340182Y-11754698D01*
X15340182Y-11754698D02*
X15349705Y-11745174D01*
X15349705Y-11745174D02*
X15349705Y-11764222D01*
D12*
X13572500Y-12125000D02*
X13717500Y-12270000D01*
X13717500Y-12125000D02*
X13572500Y-12270000D01*
D11*
X14083039Y-12288984D02*
X13968753Y-12288984D01*
X14025896Y-12288984D02*
X14025896Y-12088984D01*
X14025896Y-12088984D02*
X14006848Y-12117555D01*
X14006848Y-12117555D02*
X13987801Y-12136603D01*
X13987801Y-12136603D02*
X13968753Y-12146127D01*
X14168753Y-12269936D02*
X14178277Y-12279460D01*
X14178277Y-12279460D02*
X14168753Y-12288984D01*
X14168753Y-12288984D02*
X14159229Y-12279460D01*
X14159229Y-12279460D02*
X14168753Y-12269936D01*
X14168753Y-12269936D02*
X14168753Y-12288984D01*
X14349705Y-12155650D02*
X14349705Y-12288984D01*
X14302086Y-12079460D02*
X14254467Y-12222317D01*
X14254467Y-12222317D02*
X14378277Y-12222317D01*
X14549705Y-12088984D02*
X14454467Y-12088984D01*
X14454467Y-12088984D02*
X14444943Y-12184222D01*
X14444943Y-12184222D02*
X14454467Y-12174698D01*
X14454467Y-12174698D02*
X14473515Y-12165174D01*
X14473515Y-12165174D02*
X14521134Y-12165174D01*
X14521134Y-12165174D02*
X14540182Y-12174698D01*
X14540182Y-12174698D02*
X14549705Y-12184222D01*
X14549705Y-12184222D02*
X14559229Y-12203269D01*
X14559229Y-12203269D02*
X14559229Y-12250888D01*
X14559229Y-12250888D02*
X14549705Y-12269936D01*
X14549705Y-12269936D02*
X14540182Y-12279460D01*
X14540182Y-12279460D02*
X14521134Y-12288984D01*
X14521134Y-12288984D02*
X14473515Y-12288984D01*
X14473515Y-12288984D02*
X14454467Y-12279460D01*
X14454467Y-12279460D02*
X14444943Y-12269936D01*
X14683039Y-12088984D02*
X14702086Y-12088984D01*
X14702086Y-12088984D02*
X14721134Y-12098508D01*
X14721134Y-12098508D02*
X14730658Y-12108031D01*
X14730658Y-12108031D02*
X14740182Y-12127079D01*
X14740182Y-12127079D02*
X14749705Y-12165174D01*
X14749705Y-12165174D02*
X14749705Y-12212793D01*
X14749705Y-12212793D02*
X14740182Y-12250888D01*
X14740182Y-12250888D02*
X14730658Y-12269936D01*
X14730658Y-12269936D02*
X14721134Y-12279460D01*
X14721134Y-12279460D02*
X14702086Y-12288984D01*
X14702086Y-12288984D02*
X14683039Y-12288984D01*
X14683039Y-12288984D02*
X14663991Y-12279460D01*
X14663991Y-12279460D02*
X14654467Y-12269936D01*
X14654467Y-12269936D02*
X14644943Y-12250888D01*
X14644943Y-12250888D02*
X14635420Y-12212793D01*
X14635420Y-12212793D02*
X14635420Y-12165174D01*
X14635420Y-12165174D02*
X14644943Y-12127079D01*
X14644943Y-12127079D02*
X14654467Y-12108031D01*
X14654467Y-12108031D02*
X14663991Y-12098508D01*
X14663991Y-12098508D02*
X14683039Y-12088984D01*
X14835420Y-12288984D02*
X14835420Y-12155650D01*
X14835420Y-12174698D02*
X14844943Y-12165174D01*
X14844943Y-12165174D02*
X14863991Y-12155650D01*
X14863991Y-12155650D02*
X14892563Y-12155650D01*
X14892563Y-12155650D02*
X14911610Y-12165174D01*
X14911610Y-12165174D02*
X14921134Y-12184222D01*
X14921134Y-12184222D02*
X14921134Y-12288984D01*
X14921134Y-12184222D02*
X14930658Y-12165174D01*
X14930658Y-12165174D02*
X14949705Y-12155650D01*
X14949705Y-12155650D02*
X14978277Y-12155650D01*
X14978277Y-12155650D02*
X14997324Y-12165174D01*
X14997324Y-12165174D02*
X15006848Y-12184222D01*
X15006848Y-12184222D02*
X15006848Y-12288984D01*
X15102086Y-12288984D02*
X15102086Y-12155650D01*
X15102086Y-12174698D02*
X15111610Y-12165174D01*
X15111610Y-12165174D02*
X15130658Y-12155650D01*
X15130658Y-12155650D02*
X15159229Y-12155650D01*
X15159229Y-12155650D02*
X15178277Y-12165174D01*
X15178277Y-12165174D02*
X15187801Y-12184222D01*
X15187801Y-12184222D02*
X15187801Y-12288984D01*
X15187801Y-12184222D02*
X15197324Y-12165174D01*
X15197324Y-12165174D02*
X15216372Y-12155650D01*
X15216372Y-12155650D02*
X15244943Y-12155650D01*
X15244943Y-12155650D02*
X15263991Y-12165174D01*
X15263991Y-12165174D02*
X15273515Y-12184222D01*
X15273515Y-12184222D02*
X15273515Y-12288984D01*
X15663991Y-12079460D02*
X15492563Y-12336603D01*
X15921134Y-12088984D02*
X15940182Y-12088984D01*
X15940182Y-12088984D02*
X15959229Y-12098508D01*
X15959229Y-12098508D02*
X15968753Y-12108031D01*
X15968753Y-12108031D02*
X15978277Y-12127079D01*
X15978277Y-12127079D02*
X15987801Y-12165174D01*
X15987801Y-12165174D02*
X15987801Y-12212793D01*
X15987801Y-12212793D02*
X15978277Y-12250888D01*
X15978277Y-12250888D02*
X15968753Y-12269936D01*
X15968753Y-12269936D02*
X15959229Y-12279460D01*
X15959229Y-12279460D02*
X15940182Y-12288984D01*
X15940182Y-12288984D02*
X15921134Y-12288984D01*
X15921134Y-12288984D02*
X15902086Y-12279460D01*
X15902086Y-12279460D02*
X15892563Y-12269936D01*
X15892563Y-12269936D02*
X15883039Y-12250888D01*
X15883039Y-12250888D02*
X15873515Y-12212793D01*
X15873515Y-12212793D02*
X15873515Y-12165174D01*
X15873515Y-12165174D02*
X15883039Y-12127079D01*
X15883039Y-12127079D02*
X15892563Y-12108031D01*
X15892563Y-12108031D02*
X15902086Y-12098508D01*
X15902086Y-12098508D02*
X15921134Y-12088984D01*
X16073515Y-12269936D02*
X16083039Y-12279460D01*
X16083039Y-12279460D02*
X16073515Y-12288984D01*
X16073515Y-12288984D02*
X16063991Y-12279460D01*
X16063991Y-12279460D02*
X16073515Y-12269936D01*
X16073515Y-12269936D02*
X16073515Y-12288984D01*
X16206848Y-12088984D02*
X16225896Y-12088984D01*
X16225896Y-12088984D02*
X16244944Y-12098508D01*
X16244944Y-12098508D02*
X16254467Y-12108031D01*
X16254467Y-12108031D02*
X16263991Y-12127079D01*
X16263991Y-12127079D02*
X16273515Y-12165174D01*
X16273515Y-12165174D02*
X16273515Y-12212793D01*
X16273515Y-12212793D02*
X16263991Y-12250888D01*
X16263991Y-12250888D02*
X16254467Y-12269936D01*
X16254467Y-12269936D02*
X16244944Y-12279460D01*
X16244944Y-12279460D02*
X16225896Y-12288984D01*
X16225896Y-12288984D02*
X16206848Y-12288984D01*
X16206848Y-12288984D02*
X16187801Y-12279460D01*
X16187801Y-12279460D02*
X16178277Y-12269936D01*
X16178277Y-12269936D02*
X16168753Y-12250888D01*
X16168753Y-12250888D02*
X16159229Y-12212793D01*
X16159229Y-12212793D02*
X16159229Y-12165174D01*
X16159229Y-12165174D02*
X16168753Y-12127079D01*
X16168753Y-12127079D02*
X16178277Y-12108031D01*
X16178277Y-12108031D02*
X16187801Y-12098508D01*
X16187801Y-12098508D02*
X16206848Y-12088984D01*
X16454467Y-12088984D02*
X16359229Y-12088984D01*
X16359229Y-12088984D02*
X16349706Y-12184222D01*
X16349706Y-12184222D02*
X16359229Y-12174698D01*
X16359229Y-12174698D02*
X16378277Y-12165174D01*
X16378277Y-12165174D02*
X16425896Y-12165174D01*
X16425896Y-12165174D02*
X16444944Y-12174698D01*
X16444944Y-12174698D02*
X16454467Y-12184222D01*
X16454467Y-12184222D02*
X16463991Y-12203269D01*
X16463991Y-12203269D02*
X16463991Y-12250888D01*
X16463991Y-12250888D02*
X16454467Y-12269936D01*
X16454467Y-12269936D02*
X16444944Y-12279460D01*
X16444944Y-12279460D02*
X16425896Y-12288984D01*
X16425896Y-12288984D02*
X16378277Y-12288984D01*
X16378277Y-12288984D02*
X16359229Y-12279460D01*
X16359229Y-12279460D02*
X16349706Y-12269936D01*
X16530658Y-12088984D02*
X16663991Y-12088984D01*
X16663991Y-12088984D02*
X16578277Y-12288984D01*
X16844944Y-12288984D02*
X16730658Y-12288984D01*
X16787801Y-12288984D02*
X16787801Y-12088984D01*
X16787801Y-12088984D02*
X16768753Y-12117555D01*
X16768753Y-12117555D02*
X16749706Y-12136603D01*
X16749706Y-12136603D02*
X16730658Y-12146127D01*
X16921134Y-12088984D02*
X16921134Y-12127079D01*
X16997325Y-12088984D02*
X16997325Y-12127079D01*
X17292563Y-12365174D02*
X17283039Y-12355650D01*
X17283039Y-12355650D02*
X17263991Y-12327079D01*
X17263991Y-12327079D02*
X17254468Y-12308031D01*
X17254468Y-12308031D02*
X17244944Y-12279460D01*
X17244944Y-12279460D02*
X17235420Y-12231841D01*
X17235420Y-12231841D02*
X17235420Y-12193746D01*
X17235420Y-12193746D02*
X17244944Y-12146127D01*
X17244944Y-12146127D02*
X17254468Y-12117555D01*
X17254468Y-12117555D02*
X17263991Y-12098508D01*
X17263991Y-12098508D02*
X17283039Y-12069936D01*
X17283039Y-12069936D02*
X17292563Y-12060412D01*
X17359230Y-12108031D02*
X17368753Y-12098508D01*
X17368753Y-12098508D02*
X17387801Y-12088984D01*
X17387801Y-12088984D02*
X17435420Y-12088984D01*
X17435420Y-12088984D02*
X17454468Y-12098508D01*
X17454468Y-12098508D02*
X17463991Y-12108031D01*
X17463991Y-12108031D02*
X17473515Y-12127079D01*
X17473515Y-12127079D02*
X17473515Y-12146127D01*
X17473515Y-12146127D02*
X17463991Y-12174698D01*
X17463991Y-12174698D02*
X17349706Y-12288984D01*
X17349706Y-12288984D02*
X17473515Y-12288984D01*
X17711611Y-12288984D02*
X17711611Y-12088984D01*
X17797325Y-12288984D02*
X17797325Y-12184222D01*
X17797325Y-12184222D02*
X17787801Y-12165174D01*
X17787801Y-12165174D02*
X17768753Y-12155650D01*
X17768753Y-12155650D02*
X17740182Y-12155650D01*
X17740182Y-12155650D02*
X17721134Y-12165174D01*
X17721134Y-12165174D02*
X17711611Y-12174698D01*
X17921134Y-12288984D02*
X17902087Y-12279460D01*
X17902087Y-12279460D02*
X17892563Y-12269936D01*
X17892563Y-12269936D02*
X17883039Y-12250888D01*
X17883039Y-12250888D02*
X17883039Y-12193746D01*
X17883039Y-12193746D02*
X17892563Y-12174698D01*
X17892563Y-12174698D02*
X17902087Y-12165174D01*
X17902087Y-12165174D02*
X17921134Y-12155650D01*
X17921134Y-12155650D02*
X17949706Y-12155650D01*
X17949706Y-12155650D02*
X17968753Y-12165174D01*
X17968753Y-12165174D02*
X17978277Y-12174698D01*
X17978277Y-12174698D02*
X17987801Y-12193746D01*
X17987801Y-12193746D02*
X17987801Y-12250888D01*
X17987801Y-12250888D02*
X17978277Y-12269936D01*
X17978277Y-12269936D02*
X17968753Y-12279460D01*
X17968753Y-12279460D02*
X17949706Y-12288984D01*
X17949706Y-12288984D02*
X17921134Y-12288984D01*
X18102087Y-12288984D02*
X18083039Y-12279460D01*
X18083039Y-12279460D02*
X18073515Y-12260412D01*
X18073515Y-12260412D02*
X18073515Y-12088984D01*
X18254468Y-12279460D02*
X18235420Y-12288984D01*
X18235420Y-12288984D02*
X18197325Y-12288984D01*
X18197325Y-12288984D02*
X18178277Y-12279460D01*
X18178277Y-12279460D02*
X18168753Y-12260412D01*
X18168753Y-12260412D02*
X18168753Y-12184222D01*
X18168753Y-12184222D02*
X18178277Y-12165174D01*
X18178277Y-12165174D02*
X18197325Y-12155650D01*
X18197325Y-12155650D02*
X18235420Y-12155650D01*
X18235420Y-12155650D02*
X18254468Y-12165174D01*
X18254468Y-12165174D02*
X18263992Y-12184222D01*
X18263992Y-12184222D02*
X18263992Y-12203269D01*
X18263992Y-12203269D02*
X18168753Y-12222317D01*
X18340182Y-12279460D02*
X18359230Y-12288984D01*
X18359230Y-12288984D02*
X18397325Y-12288984D01*
X18397325Y-12288984D02*
X18416373Y-12279460D01*
X18416373Y-12279460D02*
X18425896Y-12260412D01*
X18425896Y-12260412D02*
X18425896Y-12250888D01*
X18425896Y-12250888D02*
X18416373Y-12231841D01*
X18416373Y-12231841D02*
X18397325Y-12222317D01*
X18397325Y-12222317D02*
X18368753Y-12222317D01*
X18368753Y-12222317D02*
X18349706Y-12212793D01*
X18349706Y-12212793D02*
X18340182Y-12193746D01*
X18340182Y-12193746D02*
X18340182Y-12184222D01*
X18340182Y-12184222D02*
X18349706Y-12165174D01*
X18349706Y-12165174D02*
X18368753Y-12155650D01*
X18368753Y-12155650D02*
X18397325Y-12155650D01*
X18397325Y-12155650D02*
X18416373Y-12165174D01*
X18492563Y-12365174D02*
X18502087Y-12355650D01*
X18502087Y-12355650D02*
X18521134Y-12327079D01*
X18521134Y-12327079D02*
X18530658Y-12308031D01*
X18530658Y-12308031D02*
X18540182Y-12279460D01*
X18540182Y-12279460D02*
X18549706Y-12231841D01*
X18549706Y-12231841D02*
X18549706Y-12193746D01*
X18549706Y-12193746D02*
X18540182Y-12146127D01*
X18540182Y-12146127D02*
X18530658Y-12117555D01*
X18530658Y-12117555D02*
X18521134Y-12098508D01*
X18521134Y-12098508D02*
X18502087Y-12069936D01*
X18502087Y-12069936D02*
X18492563Y-12060412D01*
X18854468Y-12365174D02*
X18844944Y-12355650D01*
X18844944Y-12355650D02*
X18825896Y-12327079D01*
X18825896Y-12327079D02*
X18816373Y-12308031D01*
X18816373Y-12308031D02*
X18806849Y-12279460D01*
X18806849Y-12279460D02*
X18797325Y-12231841D01*
X18797325Y-12231841D02*
X18797325Y-12193746D01*
X18797325Y-12193746D02*
X18806849Y-12146127D01*
X18806849Y-12146127D02*
X18816373Y-12117555D01*
X18816373Y-12117555D02*
X18825896Y-12098508D01*
X18825896Y-12098508D02*
X18844944Y-12069936D01*
X18844944Y-12069936D02*
X18854468Y-12060412D01*
X18930658Y-12155650D02*
X18930658Y-12288984D01*
X18930658Y-12174698D02*
X18940182Y-12165174D01*
X18940182Y-12165174D02*
X18959230Y-12155650D01*
X18959230Y-12155650D02*
X18987801Y-12155650D01*
X18987801Y-12155650D02*
X19006849Y-12165174D01*
X19006849Y-12165174D02*
X19016373Y-12184222D01*
X19016373Y-12184222D02*
X19016373Y-12288984D01*
X19140182Y-12288984D02*
X19121134Y-12279460D01*
X19121134Y-12279460D02*
X19111611Y-12269936D01*
X19111611Y-12269936D02*
X19102087Y-12250888D01*
X19102087Y-12250888D02*
X19102087Y-12193746D01*
X19102087Y-12193746D02*
X19111611Y-12174698D01*
X19111611Y-12174698D02*
X19121134Y-12165174D01*
X19121134Y-12165174D02*
X19140182Y-12155650D01*
X19140182Y-12155650D02*
X19168754Y-12155650D01*
X19168754Y-12155650D02*
X19187801Y-12165174D01*
X19187801Y-12165174D02*
X19197325Y-12174698D01*
X19197325Y-12174698D02*
X19206849Y-12193746D01*
X19206849Y-12193746D02*
X19206849Y-12250888D01*
X19206849Y-12250888D02*
X19197325Y-12269936D01*
X19197325Y-12269936D02*
X19187801Y-12279460D01*
X19187801Y-12279460D02*
X19168754Y-12288984D01*
X19168754Y-12288984D02*
X19140182Y-12288984D01*
X19263992Y-12155650D02*
X19340182Y-12155650D01*
X19292563Y-12088984D02*
X19292563Y-12260412D01*
X19292563Y-12260412D02*
X19302087Y-12279460D01*
X19302087Y-12279460D02*
X19321134Y-12288984D01*
X19321134Y-12288984D02*
X19340182Y-12288984D01*
X19559230Y-12155650D02*
X19559230Y-12355650D01*
X19559230Y-12165174D02*
X19578277Y-12155650D01*
X19578277Y-12155650D02*
X19616373Y-12155650D01*
X19616373Y-12155650D02*
X19635420Y-12165174D01*
X19635420Y-12165174D02*
X19644944Y-12174698D01*
X19644944Y-12174698D02*
X19654468Y-12193746D01*
X19654468Y-12193746D02*
X19654468Y-12250888D01*
X19654468Y-12250888D02*
X19644944Y-12269936D01*
X19644944Y-12269936D02*
X19635420Y-12279460D01*
X19635420Y-12279460D02*
X19616373Y-12288984D01*
X19616373Y-12288984D02*
X19578277Y-12288984D01*
X19578277Y-12288984D02*
X19559230Y-12279460D01*
X19768754Y-12288984D02*
X19749706Y-12279460D01*
X19749706Y-12279460D02*
X19740182Y-12260412D01*
X19740182Y-12260412D02*
X19740182Y-12088984D01*
X19930658Y-12288984D02*
X19930658Y-12184222D01*
X19930658Y-12184222D02*
X19921135Y-12165174D01*
X19921135Y-12165174D02*
X19902087Y-12155650D01*
X19902087Y-12155650D02*
X19863992Y-12155650D01*
X19863992Y-12155650D02*
X19844944Y-12165174D01*
X19930658Y-12279460D02*
X19911611Y-12288984D01*
X19911611Y-12288984D02*
X19863992Y-12288984D01*
X19863992Y-12288984D02*
X19844944Y-12279460D01*
X19844944Y-12279460D02*
X19835420Y-12260412D01*
X19835420Y-12260412D02*
X19835420Y-12241365D01*
X19835420Y-12241365D02*
X19844944Y-12222317D01*
X19844944Y-12222317D02*
X19863992Y-12212793D01*
X19863992Y-12212793D02*
X19911611Y-12212793D01*
X19911611Y-12212793D02*
X19930658Y-12203269D01*
X19997325Y-12155650D02*
X20073515Y-12155650D01*
X20025896Y-12088984D02*
X20025896Y-12260412D01*
X20025896Y-12260412D02*
X20035420Y-12279460D01*
X20035420Y-12279460D02*
X20054468Y-12288984D01*
X20054468Y-12288984D02*
X20073515Y-12288984D01*
X20216373Y-12279460D02*
X20197325Y-12288984D01*
X20197325Y-12288984D02*
X20159230Y-12288984D01*
X20159230Y-12288984D02*
X20140182Y-12279460D01*
X20140182Y-12279460D02*
X20130658Y-12260412D01*
X20130658Y-12260412D02*
X20130658Y-12184222D01*
X20130658Y-12184222D02*
X20140182Y-12165174D01*
X20140182Y-12165174D02*
X20159230Y-12155650D01*
X20159230Y-12155650D02*
X20197325Y-12155650D01*
X20197325Y-12155650D02*
X20216373Y-12165174D01*
X20216373Y-12165174D02*
X20225896Y-12184222D01*
X20225896Y-12184222D02*
X20225896Y-12203269D01*
X20225896Y-12203269D02*
X20130658Y-12222317D01*
X20397325Y-12288984D02*
X20397325Y-12088984D01*
X20397325Y-12279460D02*
X20378277Y-12288984D01*
X20378277Y-12288984D02*
X20340182Y-12288984D01*
X20340182Y-12288984D02*
X20321135Y-12279460D01*
X20321135Y-12279460D02*
X20311611Y-12269936D01*
X20311611Y-12269936D02*
X20302087Y-12250888D01*
X20302087Y-12250888D02*
X20302087Y-12193746D01*
X20302087Y-12193746D02*
X20311611Y-12174698D01*
X20311611Y-12174698D02*
X20321135Y-12165174D01*
X20321135Y-12165174D02*
X20340182Y-12155650D01*
X20340182Y-12155650D02*
X20378277Y-12155650D01*
X20378277Y-12155650D02*
X20397325Y-12165174D01*
X20473516Y-12365174D02*
X20483039Y-12355650D01*
X20483039Y-12355650D02*
X20502087Y-12327079D01*
X20502087Y-12327079D02*
X20511611Y-12308031D01*
X20511611Y-12308031D02*
X20521135Y-12279460D01*
X20521135Y-12279460D02*
X20530658Y-12231841D01*
X20530658Y-12231841D02*
X20530658Y-12193746D01*
X20530658Y-12193746D02*
X20521135Y-12146127D01*
X20521135Y-12146127D02*
X20511611Y-12117555D01*
X20511611Y-12117555D02*
X20502087Y-12098508D01*
X20502087Y-12098508D02*
X20483039Y-12069936D01*
X20483039Y-12069936D02*
X20473516Y-12060412D01*
M02*
